%TF.GenerationSoftware,Altium Limited,Altium Designer Develop,26.0.0 (27)*%
G04 Layer_Color=8388736*
%FSLAX45Y45*%
%MOMM*%
%TF.SameCoordinates,D5E2BA32-6F81-40A5-AA13-F30F529DFF44*%
%TF.FilePolarity,Negative*%
%TF.FileFunction,Soldermask,Top*%
%TF.Part,Single*%
G01*
G75*
%TA.AperFunction,SMDPad,CuDef*%
%ADD12R,2.20000X1.05000*%
%TA.AperFunction,BGAPad,CuDef*%
%ADD14R,0.25000X0.25000*%
%TA.AperFunction,SMDPad,CuDef*%
%ADD15R,0.70000X0.75000*%
G04:AMPARAMS|DCode=17|XSize=0.22mm|YSize=0.81mm|CornerRadius=0.0275mm|HoleSize=0mm|Usage=FLASHONLY|Rotation=0.000|XOffset=0mm|YOffset=0mm|HoleType=Round|Shape=RoundedRectangle|*
%AMROUNDEDRECTD17*
21,1,0.22000,0.75500,0,0,0.0*
21,1,0.16500,0.81000,0,0,0.0*
1,1,0.05500,0.08250,-0.37750*
1,1,0.05500,-0.08250,-0.37750*
1,1,0.05500,-0.08250,0.37750*
1,1,0.05500,0.08250,0.37750*
%
%ADD17ROUNDEDRECTD17*%
%ADD18R,0.25000X0.45000*%
%ADD19R,0.50000X0.50000*%
%ADD20R,0.60000X0.90000*%
%ADD21R,0.50000X0.50000*%
%ADD22R,0.60000X0.55000*%
G04:AMPARAMS|DCode=23|XSize=0.81mm|YSize=0.22mm|CornerRadius=0.0275mm|HoleSize=0mm|Usage=FLASHONLY|Rotation=0.000|XOffset=0mm|YOffset=0mm|HoleType=Round|Shape=RoundedRectangle|*
%AMROUNDEDRECTD23*
21,1,0.81000,0.16500,0,0,0.0*
21,1,0.75500,0.22000,0,0,0.0*
1,1,0.05500,0.37750,-0.08250*
1,1,0.05500,-0.37750,-0.08250*
1,1,0.05500,-0.37750,0.08250*
1,1,0.05500,0.37750,0.08250*
%
%ADD23ROUNDEDRECTD23*%
%ADD24R,4.60000X4.60000*%
%ADD25R,1.65000X1.65000*%
%ADD26R,0.40000X0.60000*%
%ADD27R,0.55000X0.60000*%
%TA.AperFunction,ConnectorPad*%
%ADD28R,1.10000X0.60000*%
%TA.AperFunction,SMDPad,CuDef*%
%ADD29R,0.65000X1.05000*%
%ADD30R,0.70000X0.70000*%
%ADD32R,0.30000X0.30000*%
%ADD33R,1.05000X1.00000*%
%ADD34R,1.50000X0.80000*%
%ADD36O,0.30000X0.85000*%
%ADD37O,0.85000X0.30000*%
%TA.AperFunction,ConnectorPad*%
%ADD38R,1.10000X0.30000*%
%TA.AperFunction,SMDPad,CuDef*%
%ADD40R,1.05000X0.65000*%
%TA.AperFunction,ConnectorPad*%
%ADD41R,1.00000X2.50000*%
%TA.AperFunction,SMDPad,CuDef*%
%ADD42R,0.30000X0.30000*%
%ADD43R,0.45000X0.25000*%
%ADD44R,1.20606X1.05822*%
%TA.AperFunction,ComponentPad*%
%ADD55C,1.30000*%
G04:AMPARAMS|DCode=56|XSize=1mm|YSize=1.8mm|CornerRadius=0.5mm|HoleSize=0mm|Usage=FLASHONLY|Rotation=270.000|XOffset=0mm|YOffset=0mm|HoleType=Round|Shape=RoundedRectangle|*
%AMROUNDEDRECTD56*
21,1,1.00000,0.80000,0,0,270.0*
21,1,0.00000,1.80000,0,0,270.0*
1,1,1.00000,-0.40000,0.00000*
1,1,1.00000,-0.40000,0.00000*
1,1,1.00000,0.40000,0.00000*
1,1,1.00000,0.40000,0.00000*
%
%ADD56ROUNDEDRECTD56*%
G04:AMPARAMS|DCode=57|XSize=1mm|YSize=2.2mm|CornerRadius=0.5mm|HoleSize=0mm|Usage=FLASHONLY|Rotation=270.000|XOffset=0mm|YOffset=0mm|HoleType=Round|Shape=RoundedRectangle|*
%AMROUNDEDRECTD57*
21,1,1.00000,1.20000,0,0,270.0*
21,1,0.00000,2.20000,0,0,270.0*
1,1,1.00000,-0.60000,0.00000*
1,1,1.00000,-0.60000,0.00000*
1,1,1.00000,0.60000,0.00000*
1,1,1.00000,0.60000,0.00000*
%
%ADD57ROUNDEDRECTD57*%
%TA.AperFunction,NonConductor*%
%ADD75C,1.50000*%
%ADD76C,0.85000*%
%TA.AperFunction,SMDPad,CuDef*%
%ADD77R,0.40000X0.37000*%
%ADD78R,0.37000X0.40000*%
G04:AMPARAMS|DCode=79|XSize=0.3556mm|YSize=0.4572mm|CornerRadius=0.1143mm|HoleSize=0mm|Usage=FLASHONLY|Rotation=270.000|XOffset=0mm|YOffset=0mm|HoleType=Round|Shape=RoundedRectangle|*
%AMROUNDEDRECTD79*
21,1,0.35560,0.22860,0,0,270.0*
21,1,0.12700,0.45720,0,0,270.0*
1,1,0.22860,-0.11430,-0.06350*
1,1,0.22860,-0.11430,0.06350*
1,1,0.22860,0.11430,0.06350*
1,1,0.22860,0.11430,-0.06350*
%
%ADD79ROUNDEDRECTD79*%
G04:AMPARAMS|DCode=80|XSize=0.3556mm|YSize=0.4572mm|CornerRadius=0.1143mm|HoleSize=0mm|Usage=FLASHONLY|Rotation=180.000|XOffset=0mm|YOffset=0mm|HoleType=Round|Shape=RoundedRectangle|*
%AMROUNDEDRECTD80*
21,1,0.35560,0.22860,0,0,180.0*
21,1,0.12700,0.45720,0,0,180.0*
1,1,0.22860,-0.06350,0.11430*
1,1,0.22860,0.06350,0.11430*
1,1,0.22860,0.06350,-0.11430*
1,1,0.22860,-0.06350,-0.11430*
%
%ADD80ROUNDEDRECTD80*%
%TA.AperFunction,ComponentPad*%
%ADD81C,0.30000*%
%TA.AperFunction,ViaPad*%
%ADD82C,0.30000*%
D12*
X4309267Y3158053D02*
D03*
Y2863053D02*
D03*
D14*
X3734612Y2526304D02*
D03*
Y2566304D02*
D03*
Y2486304D02*
D03*
X3694612Y2566304D02*
D03*
Y2526304D02*
D03*
Y2486304D02*
D03*
D15*
X3484283Y2839027D02*
D03*
X3384283Y2704027D02*
D03*
Y2839027D02*
D03*
X3484283Y2704027D02*
D03*
D17*
X2746700Y2689545D02*
D03*
X2986700D02*
D03*
X3026700D02*
D03*
X2786700D02*
D03*
X2586700D02*
D03*
X2626700D02*
D03*
X2666700D02*
D03*
X2706700D02*
D03*
X2826700D02*
D03*
X2866700D02*
D03*
X2906700D02*
D03*
X2946700D02*
D03*
X3026700Y2099545D02*
D03*
X2986700D02*
D03*
X2946700D02*
D03*
X2906700D02*
D03*
X2866700D02*
D03*
X2826700D02*
D03*
X2786700D02*
D03*
X2746700D02*
D03*
X2706700D02*
D03*
X2666700D02*
D03*
X2626700D02*
D03*
X2586700D02*
D03*
D18*
X1751800Y3273000D02*
D03*
X1701800D02*
D03*
X1651800Y3458000D02*
D03*
X1701800D02*
D03*
X1751800D02*
D03*
X1651800Y3273000D02*
D03*
D19*
X962828Y3511020D02*
D03*
X872828D02*
D03*
D20*
X953294Y3147840D02*
D03*
X858294Y3397840D02*
D03*
Y3147840D02*
D03*
X1048294D02*
D03*
Y3397840D02*
D03*
D21*
X2321560Y3016800D02*
D03*
Y2926800D02*
D03*
D22*
X220300Y2976880D02*
D03*
X1837100Y1701800D02*
D03*
X1922100D02*
D03*
X1583100Y2159000D02*
D03*
X1668100D02*
D03*
Y2038520D02*
D03*
X1583100D02*
D03*
X1744300Y2362200D02*
D03*
X1659300D02*
D03*
X1744300Y2463800D02*
D03*
X1659300D02*
D03*
X1160100Y2641600D02*
D03*
X1329100Y1828800D02*
D03*
X1075100Y2641600D02*
D03*
X135300Y2976880D02*
D03*
X1414100Y1828800D02*
D03*
X347300Y558800D02*
D03*
X262300D02*
D03*
X1475836Y192320D02*
D03*
X1560836D02*
D03*
X1082202D02*
D03*
X997202D02*
D03*
D23*
X3101700Y2454545D02*
D03*
Y2494545D02*
D03*
X2511700Y2214545D02*
D03*
Y2454545D02*
D03*
Y2174545D02*
D03*
X3101700Y2614545D02*
D03*
Y2574545D02*
D03*
Y2534545D02*
D03*
Y2414545D02*
D03*
Y2374545D02*
D03*
Y2334545D02*
D03*
Y2294545D02*
D03*
Y2254545D02*
D03*
Y2214545D02*
D03*
Y2174545D02*
D03*
X2511700Y2254545D02*
D03*
Y2294545D02*
D03*
Y2334545D02*
D03*
Y2374545D02*
D03*
Y2414545D02*
D03*
Y2494545D02*
D03*
Y2534545D02*
D03*
Y2574545D02*
D03*
Y2614545D02*
D03*
D24*
X2806700Y2394545D02*
D03*
D25*
X1318000Y2157800D02*
D03*
D26*
X1922740Y1811020D02*
D03*
X1832740D02*
D03*
X222800Y2869975D02*
D03*
X1072600Y2748505D02*
D03*
X1162600D02*
D03*
X132800Y2869975D02*
D03*
D27*
X964300Y2460400D02*
D03*
X952500Y1872111D02*
D03*
X1308100Y3208700D02*
D03*
Y3293700D02*
D03*
X1422400D02*
D03*
Y3208700D02*
D03*
X964300Y2375400D02*
D03*
X1067220Y2221082D02*
D03*
Y2306082D02*
D03*
X1473200Y1566500D02*
D03*
X1320800D02*
D03*
X1473200Y1481500D02*
D03*
X1320800D02*
D03*
X952500Y1957111D02*
D03*
D28*
X775000Y2479400D02*
D03*
Y1839400D02*
D03*
Y1919400D02*
D03*
Y2399400D02*
D03*
D29*
X1682300Y791700D02*
D03*
X1199700Y376700D02*
D03*
X1682300D02*
D03*
X1199700Y791700D02*
D03*
X984700Y376700D02*
D03*
Y791700D02*
D03*
X1467300D02*
D03*
Y376700D02*
D03*
D30*
X359800Y238700D02*
D03*
Y421700D02*
D03*
X249800D02*
D03*
Y238700D02*
D03*
D32*
X3834440Y2428240D02*
D03*
X3819682Y2717800D02*
D03*
X3759682D02*
D03*
X3774440Y2428240D02*
D03*
X3560600Y2413000D02*
D03*
X3500600D02*
D03*
X3386115Y2412680D02*
D03*
X3326115D02*
D03*
X3202488Y2412035D02*
D03*
X3262488D02*
D03*
X1808000Y3098800D02*
D03*
X1748000D02*
D03*
D33*
X4156767Y3010553D02*
D03*
D34*
X2260600Y2642800D02*
D03*
Y2792800D02*
D03*
D36*
X1243000Y2015300D02*
D03*
X1293000D02*
D03*
X1343000D02*
D03*
X1393000D02*
D03*
Y2300300D02*
D03*
X1343000D02*
D03*
X1293000D02*
D03*
X1243000D02*
D03*
D37*
X1460500Y2132800D02*
D03*
Y2182800D02*
D03*
Y2232800D02*
D03*
X1175500D02*
D03*
Y2182800D02*
D03*
Y2132800D02*
D03*
Y2082800D02*
D03*
X1460500D02*
D03*
D38*
X775000Y2234400D02*
D03*
Y2134400D02*
D03*
Y1984400D02*
D03*
Y2034400D02*
D03*
Y2284400D02*
D03*
Y2334400D02*
D03*
Y2084400D02*
D03*
Y2184400D02*
D03*
D40*
X550200Y1319900D02*
D03*
X965200D02*
D03*
Y1104900D02*
D03*
X550200D02*
D03*
D41*
X582600Y3881400D02*
D03*
X382600D02*
D03*
X782600D02*
D03*
D42*
X2857500Y2994365D02*
D03*
Y3054365D02*
D03*
D43*
X1584300Y3290500D02*
D03*
X1819300Y3440500D02*
D03*
Y3390500D02*
D03*
Y3340500D02*
D03*
Y3290500D02*
D03*
X1584300Y3340500D02*
D03*
Y3390500D02*
D03*
Y3440500D02*
D03*
D44*
X2491875Y2941349D02*
D03*
X2657092D02*
D03*
D55*
X797600Y4256400D02*
D03*
X167600D02*
D03*
D56*
X647000Y2721400D02*
D03*
Y1597400D02*
D03*
D57*
X247000Y2721400D02*
D03*
Y1597400D02*
D03*
D75*
X4475000Y1000000D02*
G03*
X4475000Y1000000I-75000J0D01*
G01*
X275000Y3500000D02*
G03*
X275000Y3500000I-75000J0D01*
G01*
Y1000000D02*
G03*
X275000Y1000000I-75000J0D01*
G01*
X4475000Y3500000D02*
G03*
X4475000Y3500000I-75000J0D01*
G01*
D76*
X4106500Y4114800D02*
G03*
X4106500Y4114800I-42500J0D01*
G01*
X3852500D02*
G03*
X3852500Y4114800I-42500J0D01*
G01*
X2836500Y3860800D02*
G03*
X2836500Y3860800I-42500J0D01*
G01*
X3344500Y558800D02*
G03*
X3344500Y558800I-42500J0D01*
G01*
X1566500Y1066800D02*
G03*
X1566500Y1066800I-42500J0D01*
G01*
X3598500Y4114800D02*
G03*
X3598500Y4114800I-42500J0D01*
G01*
Y3860800D02*
G03*
X3598500Y3860800I-42500J0D01*
G01*
X1820500Y1320800D02*
G03*
X1820500Y1320800I-42500J0D01*
G01*
X4106500Y558800D02*
G03*
X4106500Y558800I-42500J0D01*
G01*
X2074500Y304800D02*
G03*
X2074500Y304800I-42500J0D01*
G01*
X2582500Y4114800D02*
G03*
X2582500Y4114800I-42500J0D01*
G01*
X2074500Y558800D02*
G03*
X2074500Y558800I-42500J0D01*
G01*
X2328500Y304800D02*
G03*
X2328500Y304800I-42500J0D01*
G01*
Y558800D02*
G03*
X2328500Y558800I-42500J0D01*
G01*
X2582500Y304800D02*
G03*
X2582500Y304800I-42500J0D01*
G01*
Y558800D02*
G03*
X2582500Y558800I-42500J0D01*
G01*
X2836500Y304800D02*
G03*
X2836500Y304800I-42500J0D01*
G01*
Y558800D02*
G03*
X2836500Y558800I-42500J0D01*
G01*
X3598500Y304800D02*
G03*
X3598500Y304800I-42500J0D01*
G01*
X3090500D02*
G03*
X3090500Y304800I-42500J0D01*
G01*
X3598500Y558800D02*
G03*
X3598500Y558800I-42500J0D01*
G01*
X3344500Y3860800D02*
G03*
X3344500Y3860800I-42500J0D01*
G01*
X3090500Y558800D02*
G03*
X3090500Y558800I-42500J0D01*
G01*
X3852500Y304800D02*
G03*
X3852500Y304800I-42500J0D01*
G01*
X3344500D02*
G03*
X3344500Y304800I-42500J0D01*
G01*
X3852500Y558800D02*
G03*
X3852500Y558800I-42500J0D01*
G01*
X4106500Y304800D02*
G03*
X4106500Y304800I-42500J0D01*
G01*
X2836500Y4114800D02*
G03*
X2836500Y4114800I-42500J0D01*
G01*
X2582500Y3860800D02*
G03*
X2582500Y3860800I-42500J0D01*
G01*
X2328500D02*
G03*
X2328500Y3860800I-42500J0D01*
G01*
Y4114800D02*
G03*
X2328500Y4114800I-42500J0D01*
G01*
X2074500D02*
G03*
X2074500Y4114800I-42500J0D01*
G01*
X3344500D02*
G03*
X3344500Y4114800I-42500J0D01*
G01*
X3090500Y3860800D02*
G03*
X3090500Y3860800I-42500J0D01*
G01*
Y4114800D02*
G03*
X3090500Y4114800I-42500J0D01*
G01*
X2074500Y3860800D02*
G03*
X2074500Y3860800I-42500J0D01*
G01*
X3852500D02*
G03*
X3852500Y3860800I-42500J0D01*
G01*
X4106500D02*
G03*
X4106500Y3860800I-42500J0D01*
G01*
X1566500Y1320800D02*
G03*
X1566500Y1320800I-42500J0D01*
G01*
X1820500Y1066800D02*
G03*
X1820500Y1066800I-42500J0D01*
G01*
X1312500Y1320800D02*
G03*
X1312500Y1320800I-42500J0D01*
G01*
Y1066800D02*
G03*
X1312500Y1066800I-42500J0D01*
G01*
D77*
X3869554Y2776688D02*
D03*
X3835400Y2556360D02*
D03*
X3441700Y2356000D02*
D03*
X2804900Y2879053D02*
D03*
X3196280Y2760669D02*
D03*
X2949867Y1931566D02*
D03*
X2387600Y2181300D02*
D03*
X1549400Y2314500D02*
D03*
X1193800Y1851100D02*
D03*
X127000Y381000D02*
D03*
X3835400Y2499360D02*
D03*
X3869554Y2719687D02*
D03*
X3441700Y2413000D02*
D03*
X2387600Y2238300D02*
D03*
X1549400Y2257500D02*
D03*
X1193800Y1908100D02*
D03*
X2804900Y2822053D02*
D03*
X3196280Y2703669D02*
D03*
X2949867Y1988566D02*
D03*
X127000Y438000D02*
D03*
D78*
X3502122Y2467280D02*
D03*
X2800500Y2938780D02*
D03*
X2754984Y2791542D02*
D03*
X1753725Y3198900D02*
D03*
X1704900Y3198895D02*
D03*
X2510324Y2790525D02*
D03*
X932529Y3041504D02*
D03*
X3256692Y2517600D02*
D03*
X3205480Y2466340D02*
D03*
X3266372Y2352280D02*
D03*
X3559122Y2467280D02*
D03*
X3262480Y2466340D02*
D03*
X3199692Y2517600D02*
D03*
X875529Y3041504D02*
D03*
X2857500Y2938780D02*
D03*
X2567324Y2790525D02*
D03*
X2697984Y2791542D02*
D03*
X3209372Y2352280D02*
D03*
X1647900Y3198895D02*
D03*
X1810726Y3198900D02*
D03*
D79*
X2032000Y1701800D02*
D03*
X1796882Y2029154D02*
D03*
X1746082D02*
D03*
X2082800Y1701800D02*
D03*
X1778000Y182882D02*
D03*
X1828800D02*
D03*
X1778000Y127000D02*
D03*
X1828800D02*
D03*
X1498600Y1828800D02*
D03*
X1549400D02*
D03*
D80*
X1714500Y1905000D02*
D03*
Y1955800D02*
D03*
X1540465Y3926840D02*
D03*
Y3876040D02*
D03*
X1701800Y4051300D02*
D03*
Y4000500D02*
D03*
X1651000Y3926840D02*
D03*
Y3876040D02*
D03*
X2133600Y3683000D02*
D03*
Y3632200D02*
D03*
X1600200Y4000500D02*
D03*
Y4051300D02*
D03*
X2209800Y3683000D02*
D03*
Y3632200D02*
D03*
X1397000Y1701800D02*
D03*
Y1752600D02*
D03*
D81*
X3950847Y1814200D02*
D03*
D82*
X4419600Y4445000D02*
D03*
X4318000D02*
D03*
X4216400D02*
D03*
X4526377Y3705315D02*
D03*
X4522760Y3807184D02*
D03*
X4526377Y3908515D02*
D03*
Y4010115D02*
D03*
X4522760Y4111984D02*
D03*
X4526377Y4213315D02*
D03*
Y4314915D02*
D03*
X4522760Y4416784D02*
D03*
X4554220Y2768600D02*
D03*
X4521200Y2870200D02*
D03*
Y3073400D02*
D03*
X4517583Y3175269D02*
D03*
X4521200Y2971800D02*
D03*
X458501Y3220903D02*
D03*
X1168400Y4140200D02*
D03*
X1411001Y3806373D02*
D03*
X4216400Y3403600D02*
D03*
X4212783Y3505469D02*
D03*
X4318000Y3302000D02*
D03*
X4216400D02*
D03*
X4114800Y3403600D02*
D03*
Y3505200D02*
D03*
Y3302000D02*
D03*
X4521200D02*
D03*
X4419600D02*
D03*
X4114800Y3200400D02*
D03*
X4013200Y3098800D02*
D03*
X4114800D02*
D03*
X4013200Y3505200D02*
D03*
X3911600Y3403600D02*
D03*
X3810000Y3505200D02*
D03*
X3911600D02*
D03*
X4013200Y3302000D02*
D03*
Y3403600D02*
D03*
Y3200400D02*
D03*
X3911600D02*
D03*
Y3302000D02*
D03*
Y3098800D02*
D03*
X4109166Y2865842D02*
D03*
X4064264Y2820941D02*
D03*
X4032446Y2942562D02*
D03*
X4019363Y2776039D02*
D03*
X4419077Y2768305D02*
D03*
X4342877D02*
D03*
X4495277D02*
D03*
X4190477D02*
D03*
X4114277D02*
D03*
X4266677D02*
D03*
X3987544Y2897661D02*
D03*
X3911600Y2997200D02*
D03*
X3942643Y2852759D02*
D03*
X3897742Y2807858D02*
D03*
X3835400Y2770500D02*
D03*
X3974462Y2731138D02*
D03*
X3911600Y2667000D02*
D03*
X3843020Y2664460D02*
D03*
X3840480Y2600960D02*
D03*
X3810000Y3302000D02*
D03*
Y3403600D02*
D03*
Y3200400D02*
D03*
X3708400D02*
D03*
Y3403600D02*
D03*
Y3505200D02*
D03*
Y3302000D02*
D03*
X3810000Y3098800D02*
D03*
X3708400Y2997200D02*
D03*
X3810000D02*
D03*
X3708400Y3098800D02*
D03*
X3606800D02*
D03*
Y2997200D02*
D03*
Y3403600D02*
D03*
Y3505200D02*
D03*
Y3302000D02*
D03*
X3470000Y3352800D02*
D03*
Y3454400D02*
D03*
Y3225800D02*
D03*
X3606800Y3200400D02*
D03*
X3470000Y2997200D02*
D03*
Y3124200D02*
D03*
X3809760Y2906000D02*
D03*
X3771900Y2768600D02*
D03*
X3784600Y2654300D02*
D03*
X3708400Y2895600D02*
D03*
X3704625Y2720100D02*
D03*
X3687720Y2654300D02*
D03*
X3784600Y2527300D02*
D03*
Y2590800D02*
D03*
X3627230Y2573130D02*
D03*
X3606800Y2895600D02*
D03*
X3454400Y2565400D02*
D03*
X3556000Y2552700D02*
D03*
X3365500Y2565400D02*
D03*
X3810000Y1828800D02*
D03*
Y1905000D02*
D03*
Y1752600D02*
D03*
Y2057400D02*
D03*
Y2133600D02*
D03*
Y1981200D02*
D03*
Y1371600D02*
D03*
Y1447800D02*
D03*
Y1295400D02*
D03*
Y1600200D02*
D03*
Y1676400D02*
D03*
Y1524000D02*
D03*
Y2286000D02*
D03*
Y2362200D02*
D03*
Y2209800D02*
D03*
X3733800Y1981200D02*
D03*
Y1905000D02*
D03*
Y1371600D02*
D03*
Y1524000D02*
D03*
Y1295400D02*
D03*
Y1676400D02*
D03*
Y1828800D02*
D03*
Y1600200D02*
D03*
X4267200Y609600D02*
D03*
Y685800D02*
D03*
Y533400D02*
D03*
X4191000Y762000D02*
D03*
X4114800D02*
D03*
X4267200D02*
D03*
Y152400D02*
D03*
Y228600D02*
D03*
Y76200D02*
D03*
Y381000D02*
D03*
Y457200D02*
D03*
Y304800D02*
D03*
X3810000Y1143000D02*
D03*
Y1219200D02*
D03*
Y1066800D02*
D03*
X3733800Y1143000D02*
D03*
Y1219200D02*
D03*
Y1066800D02*
D03*
X3962400Y812800D02*
D03*
X3835400Y838200D02*
D03*
X4038600Y762000D02*
D03*
X3810000Y990600D02*
D03*
X3733800D02*
D03*
X3784600Y914400D02*
D03*
X3619500Y2400300D02*
D03*
Y2463800D02*
D03*
X3733800Y2362200D02*
D03*
X3568700Y2349500D02*
D03*
X3733800Y2133600D02*
D03*
Y2209800D02*
D03*
Y2057400D02*
D03*
Y2286000D02*
D03*
X3657600Y2235200D02*
D03*
X3556000Y2159000D02*
D03*
X3502660Y2514600D02*
D03*
X3441700Y2463800D02*
D03*
X3378200D02*
D03*
X3495040Y2354580D02*
D03*
X3441700Y2321560D02*
D03*
X3454400Y2184400D02*
D03*
X3385820Y2352040D02*
D03*
X3429000Y2032000D02*
D03*
X3733800Y1752600D02*
D03*
X3657600Y1625600D02*
D03*
Y1524000D02*
D03*
Y1879600D02*
D03*
Y2032000D02*
D03*
Y1778000D02*
D03*
X3733800Y1447800D02*
D03*
X3657600Y1270000D02*
D03*
Y1117600D02*
D03*
Y1371600D02*
D03*
X3556000Y1270000D02*
D03*
Y1143000D02*
D03*
Y1778000D02*
D03*
Y1905000D02*
D03*
Y1651000D02*
D03*
Y2032000D02*
D03*
X3454400Y1930400D02*
D03*
X3429000Y1778000D02*
D03*
X3556000Y1524000D02*
D03*
X3454400Y1422400D02*
D03*
X3556000Y1397000D02*
D03*
X3454400Y1625600D02*
D03*
X3429000Y1524000D02*
D03*
Y1270000D02*
D03*
X3368400Y3326949D02*
D03*
X3327400Y3429000D02*
D03*
X3368400Y2946400D02*
D03*
Y3124200D02*
D03*
X3302000Y3022600D02*
D03*
Y3225800D02*
D03*
X2641600Y3302000D02*
D03*
Y3073400D02*
D03*
X2755900Y2844800D02*
D03*
X3225800Y2819400D02*
D03*
X2971800Y2565400D02*
D03*
X2857500D02*
D03*
X2743200D02*
D03*
X2628900D02*
D03*
X2438400Y3302000D02*
D03*
X2540000Y3175000D02*
D03*
X965994Y3566940D02*
D03*
X1371600Y3556000D02*
D03*
X1676400Y3149600D02*
D03*
X2438400Y3073400D02*
D03*
X2324100D02*
D03*
X1778000Y3149600D02*
D03*
X2509520Y2733040D02*
D03*
X1270000Y2921000D02*
D03*
X1651000Y2667000D02*
D03*
X977354Y3042083D02*
D03*
X870881Y2565400D02*
D03*
X299720Y2976880D02*
D03*
X3314700Y2527300D02*
D03*
Y2463800D02*
D03*
X3312160Y2352040D02*
D03*
X2971800Y2451100D02*
D03*
X2857500D02*
D03*
X2743200D02*
D03*
X2628900D02*
D03*
X2971800Y2222500D02*
D03*
Y2336800D02*
D03*
X3022600Y939800D02*
D03*
Y1270000D02*
D03*
Y1676400D02*
D03*
X2857500Y2336800D02*
D03*
X2743200Y2222500D02*
D03*
X2857500D02*
D03*
X2743200Y2336800D02*
D03*
X2628900D02*
D03*
Y2222500D02*
D03*
X2954243Y1883528D02*
D03*
X2049030Y1829497D02*
D03*
X1600200Y2286000D02*
D03*
X1270000Y2209800D02*
D03*
X1371600D02*
D03*
Y2108200D02*
D03*
X1270000D02*
D03*
X1206500Y1778000D02*
D03*
X964300Y2530072D02*
D03*
X952500Y1816100D02*
D03*
X1682944Y687699D02*
D03*
X1198413Y686158D02*
D03*
X1029100Y1625600D02*
D03*
X864900Y1752600D02*
D03*
X838200Y762000D02*
D03*
X355600Y177800D02*
D03*
X50800Y381000D02*
D03*
X457200Y558800D02*
D03*
X3644900Y2743200D02*
D03*
X3684819Y2447646D02*
D03*
X2997200Y1981200D02*
D03*
X1028700Y2362200D02*
D03*
X1308100Y3352800D02*
D03*
X1422400D02*
D03*
X952500Y1257300D02*
D03*
X910747Y2186244D02*
D03*
X908953Y2083165D02*
D03*
X1727200Y1625600D02*
D03*
X1676400Y2235200D02*
D03*
X1143000Y1905000D02*
D03*
X1447800Y1625600D02*
D03*
X1422400Y1905000D02*
D03*
X1339300D02*
D03*
X1320800Y1625600D02*
D03*
X863600Y2235200D02*
D03*
X864147Y2132945D02*
D03*
X584200Y3695700D02*
D03*
X1066800Y2794000D02*
D03*
X965200Y1003300D02*
D03*
X2856948Y2887601D02*
D03*
X3271520Y2575560D02*
D03*
X1701800Y1828800D02*
D03*
X1905000Y1917700D02*
D03*
X1981200D02*
D03*
X2806700Y3027680D02*
D03*
X2260600Y2489200D02*
D03*
X1651800Y3585229D02*
D03*
X2324100Y2171700D02*
D03*
X2260600Y2260600D02*
D03*
X863600Y3733800D02*
D03*
X3098800Y2667000D02*
D03*
X381000Y3937000D02*
D03*
X2413000Y2794000D02*
D03*
X850900Y2400300D02*
D03*
X3136900Y2108200D02*
D03*
X3187700Y2159000D02*
D03*
X2171700Y2311400D02*
D03*
X1841500Y2032000D02*
D03*
X2171700Y2438400D02*
D03*
X2662654Y2856685D02*
D03*
X2409239Y2540000D02*
D03*
X2336800Y2552700D02*
D03*
X2082977Y2374723D02*
D03*
X101600Y660400D02*
D03*
X609600Y3048000D02*
D03*
X874600Y1919400D02*
D03*
X1700819Y3519849D02*
D03*
%TF.MD5,d14139c01ddfa7f9263da7c28c93ae43*%
M02*
