%TF.GenerationSoftware,Altium Limited,Altium Designer Develop,26.0.0 (27)*%
G04 Layer_Color=8421504*
%FSLAX45Y45*%
%MOMM*%
%TF.SameCoordinates,D5E2BA32-6F81-40A5-AA13-F30F529DFF44*%
%TF.FilePolarity,Positive*%
%TF.FileFunction,Paste,Top*%
%TF.Part,Single*%
G01*
G75*
%TA.AperFunction,SMDPad,CuDef*%
%ADD13R,0.30000X0.27000*%
%ADD15R,0.70000X0.75000*%
%ADD16R,0.27000X0.30000*%
G04:AMPARAMS|DCode=17|XSize=0.22mm|YSize=0.81mm|CornerRadius=0.0275mm|HoleSize=0mm|Usage=FLASHONLY|Rotation=0.000|XOffset=0mm|YOffset=0mm|HoleType=Round|Shape=RoundedRectangle|*
%AMROUNDEDRECTD17*
21,1,0.22000,0.75500,0,0,0.0*
21,1,0.16500,0.81000,0,0,0.0*
1,1,0.05500,0.08250,-0.37750*
1,1,0.05500,-0.08250,-0.37750*
1,1,0.05500,-0.08250,0.37750*
1,1,0.05500,0.08250,0.37750*
%
%ADD17ROUNDEDRECTD17*%
%ADD18R,0.25000X0.45000*%
%ADD19R,0.50000X0.50000*%
%ADD20R,0.60000X0.90000*%
%ADD21R,0.50000X0.50000*%
%ADD22R,0.60000X0.55000*%
G04:AMPARAMS|DCode=23|XSize=0.81mm|YSize=0.22mm|CornerRadius=0.0275mm|HoleSize=0mm|Usage=FLASHONLY|Rotation=0.000|XOffset=0mm|YOffset=0mm|HoleType=Round|Shape=RoundedRectangle|*
%AMROUNDEDRECTD23*
21,1,0.81000,0.16500,0,0,0.0*
21,1,0.75500,0.22000,0,0,0.0*
1,1,0.05500,0.37750,-0.08250*
1,1,0.05500,-0.37750,-0.08250*
1,1,0.05500,-0.37750,0.08250*
1,1,0.05500,0.37750,0.08250*
%
%ADD23ROUNDEDRECTD23*%
%ADD25R,1.65000X1.65000*%
%ADD26R,0.40000X0.60000*%
%ADD27R,0.55000X0.60000*%
%TA.AperFunction,ConnectorPad*%
%ADD28R,1.10000X0.60000*%
%TA.AperFunction,SMDPad,CuDef*%
%ADD29R,0.65000X1.05000*%
%ADD30R,0.70000X0.70000*%
%ADD31R,0.50800X0.50800*%
%ADD32R,0.30000X0.30000*%
%ADD34R,1.50000X0.80000*%
G04:AMPARAMS|DCode=35|XSize=0.254mm|YSize=0.3556mm|CornerRadius=0.0635mm|HoleSize=0mm|Usage=FLASHONLY|Rotation=270.000|XOffset=0mm|YOffset=0mm|HoleType=Round|Shape=RoundedRectangle|*
%AMROUNDEDRECTD35*
21,1,0.25400,0.22860,0,0,270.0*
21,1,0.12700,0.35560,0,0,270.0*
1,1,0.12700,-0.11430,-0.06350*
1,1,0.12700,-0.11430,0.06350*
1,1,0.12700,0.11430,0.06350*
1,1,0.12700,0.11430,-0.06350*
%
%ADD35ROUNDEDRECTD35*%
%ADD36O,0.30000X0.85000*%
%ADD37O,0.85000X0.30000*%
%TA.AperFunction,ConnectorPad*%
%ADD38R,1.10000X0.30000*%
%TA.AperFunction,SMDPad,CuDef*%
G04:AMPARAMS|DCode=39|XSize=0.254mm|YSize=0.3556mm|CornerRadius=0.0635mm|HoleSize=0mm|Usage=FLASHONLY|Rotation=180.000|XOffset=0mm|YOffset=0mm|HoleType=Round|Shape=RoundedRectangle|*
%AMROUNDEDRECTD39*
21,1,0.25400,0.22860,0,0,180.0*
21,1,0.12700,0.35560,0,0,180.0*
1,1,0.12700,-0.06350,0.11430*
1,1,0.12700,0.06350,0.11430*
1,1,0.12700,0.06350,-0.11430*
1,1,0.12700,-0.06350,-0.11430*
%
%ADD39ROUNDEDRECTD39*%
%ADD40R,1.05000X0.65000*%
%TA.AperFunction,ConnectorPad*%
%ADD41R,1.00000X2.50000*%
%TA.AperFunction,SMDPad,CuDef*%
%ADD42R,0.30000X0.30000*%
%ADD43R,0.45000X0.25000*%
%ADD44R,1.20606X1.05822*%
%TA.AperFunction,NonConductor*%
%ADD83C,0.12500*%
%ADD84R,2.00000X0.90000*%
%ADD85R,0.85000X0.80000*%
G36*
X2764700Y2206545D02*
X2618700D01*
Y2352545D01*
X2764700D01*
Y2206545D01*
D02*
G37*
G36*
Y2436545D02*
X2618700D01*
Y2582545D01*
X2764700D01*
Y2436545D01*
D02*
G37*
G36*
X2994700Y2206545D02*
X2848700D01*
Y2352545D01*
X2994700D01*
Y2206545D01*
D02*
G37*
G36*
Y2436545D02*
X2848700D01*
Y2582545D01*
X2994700D01*
Y2436545D01*
D02*
G37*
D13*
X3869554Y2776688D02*
D03*
X3835400Y2556360D02*
D03*
X3441700Y2356000D02*
D03*
X2804900Y2879053D02*
D03*
X3196280Y2760669D02*
D03*
X2949867Y1931566D02*
D03*
X2387600Y2181300D02*
D03*
X1549400Y2314500D02*
D03*
X1193800Y1851100D02*
D03*
X127000Y381000D02*
D03*
X3835400Y2499360D02*
D03*
X3869554Y2719687D02*
D03*
X3441700Y2413000D02*
D03*
X2387600Y2238300D02*
D03*
X1549400Y2257500D02*
D03*
X1193800Y1908100D02*
D03*
X2804900Y2822053D02*
D03*
X3196280Y2703669D02*
D03*
X2949867Y1988566D02*
D03*
X127000Y438000D02*
D03*
D15*
X3484283Y2839027D02*
D03*
X3384283Y2704027D02*
D03*
Y2839027D02*
D03*
X3484283Y2704027D02*
D03*
D16*
X3502122Y2467280D02*
D03*
X2800500Y2938780D02*
D03*
X2754984Y2791542D02*
D03*
X1753725Y3198900D02*
D03*
X1704900Y3198895D02*
D03*
X2510324Y2790525D02*
D03*
X932529Y3041504D02*
D03*
X3256692Y2517600D02*
D03*
X3205480Y2466340D02*
D03*
X3266372Y2352280D02*
D03*
X3559122Y2467280D02*
D03*
X3262480Y2466340D02*
D03*
X3199692Y2517600D02*
D03*
X875529Y3041504D02*
D03*
X2857500Y2938780D02*
D03*
X2567324Y2790525D02*
D03*
X2697984Y2791542D02*
D03*
X3209372Y2352280D02*
D03*
X1647900Y3198895D02*
D03*
X1810726Y3198900D02*
D03*
D17*
X2746700Y2689545D02*
D03*
X2986700D02*
D03*
X3026700D02*
D03*
X2786700D02*
D03*
X2586700D02*
D03*
X2626700D02*
D03*
X2666700D02*
D03*
X2706700D02*
D03*
X2826700D02*
D03*
X2866700D02*
D03*
X2906700D02*
D03*
X2946700D02*
D03*
X3026700Y2099545D02*
D03*
X2986700D02*
D03*
X2946700D02*
D03*
X2906700D02*
D03*
X2866700D02*
D03*
X2826700D02*
D03*
X2786700D02*
D03*
X2746700D02*
D03*
X2706700D02*
D03*
X2666700D02*
D03*
X2626700D02*
D03*
X2586700D02*
D03*
D18*
X1751800Y3273000D02*
D03*
X1701800D02*
D03*
X1651800Y3458000D02*
D03*
X1701800D02*
D03*
X1751800D02*
D03*
X1651800Y3273000D02*
D03*
D19*
X962828Y3511020D02*
D03*
X872828D02*
D03*
D20*
X953294Y3147840D02*
D03*
X858294Y3397840D02*
D03*
Y3147840D02*
D03*
X1048294D02*
D03*
Y3397840D02*
D03*
D21*
X2321560Y3016800D02*
D03*
Y2926800D02*
D03*
D22*
X220300Y2976880D02*
D03*
X1837100Y1701800D02*
D03*
X1922100D02*
D03*
X1583100Y2159000D02*
D03*
X1668100D02*
D03*
Y2038520D02*
D03*
X1583100D02*
D03*
X1744300Y2362200D02*
D03*
X1659300D02*
D03*
X1744300Y2463800D02*
D03*
X1659300D02*
D03*
X1160100Y2641600D02*
D03*
X1329100Y1828800D02*
D03*
X1075100Y2641600D02*
D03*
X135300Y2976880D02*
D03*
X1414100Y1828800D02*
D03*
X347300Y558800D02*
D03*
X262300D02*
D03*
X1475836Y192320D02*
D03*
X1560836D02*
D03*
X1082202D02*
D03*
X997202D02*
D03*
D23*
X3101700Y2454545D02*
D03*
Y2494545D02*
D03*
X2511700Y2214545D02*
D03*
Y2454545D02*
D03*
Y2174545D02*
D03*
X3101700Y2614545D02*
D03*
Y2574545D02*
D03*
Y2534545D02*
D03*
Y2414545D02*
D03*
Y2374545D02*
D03*
Y2334545D02*
D03*
Y2294545D02*
D03*
Y2254545D02*
D03*
Y2214545D02*
D03*
Y2174545D02*
D03*
X2511700Y2254545D02*
D03*
Y2294545D02*
D03*
Y2334545D02*
D03*
Y2374545D02*
D03*
Y2414545D02*
D03*
Y2494545D02*
D03*
Y2534545D02*
D03*
Y2574545D02*
D03*
Y2614545D02*
D03*
D25*
X1318000Y2157800D02*
D03*
D26*
X1922740Y1811020D02*
D03*
X1832740D02*
D03*
X222800Y2869975D02*
D03*
X1072600Y2748505D02*
D03*
X1162600D02*
D03*
X132800Y2869975D02*
D03*
D27*
X964300Y2460400D02*
D03*
X952500Y1872111D02*
D03*
X1308100Y3208700D02*
D03*
Y3293700D02*
D03*
X1422400D02*
D03*
Y3208700D02*
D03*
X964300Y2375400D02*
D03*
X1067220Y2221082D02*
D03*
Y2306082D02*
D03*
X1473200Y1566500D02*
D03*
X1320800D02*
D03*
X1473200Y1481500D02*
D03*
X1320800D02*
D03*
X952500Y1957111D02*
D03*
D28*
X775000Y2479400D02*
D03*
Y1839400D02*
D03*
Y1919400D02*
D03*
Y2399400D02*
D03*
D29*
X1682300Y791700D02*
D03*
X1199700Y376700D02*
D03*
X1682300D02*
D03*
X1199700Y791700D02*
D03*
X984700Y376700D02*
D03*
Y791700D02*
D03*
X1467300D02*
D03*
Y376700D02*
D03*
D30*
X359800Y238700D02*
D03*
Y421700D02*
D03*
X249800D02*
D03*
Y238700D02*
D03*
D31*
X3887347Y2500000D02*
D03*
D32*
X3834440Y2428240D02*
D03*
X3819682Y2717800D02*
D03*
X3759682D02*
D03*
X3774440Y2428240D02*
D03*
X3560600Y2413000D02*
D03*
X3500600D02*
D03*
X3386115Y2412680D02*
D03*
X3326115D02*
D03*
X3202488Y2412035D02*
D03*
X3262488D02*
D03*
X1808000Y3098800D02*
D03*
X1748000D02*
D03*
D34*
X2260600Y2642800D02*
D03*
Y2792800D02*
D03*
D35*
X2032000Y1701800D02*
D03*
X1796882Y2029154D02*
D03*
X1746082D02*
D03*
X2082800Y1701800D02*
D03*
X1778000Y182882D02*
D03*
X1828800D02*
D03*
X1778000Y127000D02*
D03*
X1828800D02*
D03*
X1498600Y1828800D02*
D03*
X1549400D02*
D03*
D36*
X1243000Y2015300D02*
D03*
X1293000D02*
D03*
X1343000D02*
D03*
X1393000D02*
D03*
Y2300300D02*
D03*
X1343000D02*
D03*
X1293000D02*
D03*
X1243000D02*
D03*
D37*
X1460500Y2132800D02*
D03*
Y2182800D02*
D03*
Y2232800D02*
D03*
X1175500D02*
D03*
Y2182800D02*
D03*
Y2132800D02*
D03*
Y2082800D02*
D03*
X1460500D02*
D03*
D38*
X775000Y2234400D02*
D03*
Y2134400D02*
D03*
Y1984400D02*
D03*
Y2034400D02*
D03*
Y2284400D02*
D03*
Y2334400D02*
D03*
Y2084400D02*
D03*
Y2184400D02*
D03*
D39*
X1714500Y1905000D02*
D03*
Y1955800D02*
D03*
X1540465Y3926840D02*
D03*
Y3876040D02*
D03*
X1701800Y4051300D02*
D03*
Y4000500D02*
D03*
X1651000Y3926840D02*
D03*
Y3876040D02*
D03*
X2133600Y3683000D02*
D03*
Y3632200D02*
D03*
X1600200Y4000500D02*
D03*
Y4051300D02*
D03*
X2209800Y3683000D02*
D03*
Y3632200D02*
D03*
X1397000Y1701800D02*
D03*
Y1752600D02*
D03*
D40*
X550200Y1319900D02*
D03*
X965200D02*
D03*
Y1104900D02*
D03*
X550200D02*
D03*
D41*
X582600Y3881400D02*
D03*
X382600D02*
D03*
X782600D02*
D03*
D42*
X2857500Y2994365D02*
D03*
Y3054365D02*
D03*
D43*
X1584300Y3290500D02*
D03*
X1819300Y3440500D02*
D03*
Y3390500D02*
D03*
Y3340500D02*
D03*
Y3290500D02*
D03*
X1584300Y3340500D02*
D03*
Y3390500D02*
D03*
Y3440500D02*
D03*
D44*
X2491875Y2941349D02*
D03*
X2657092D02*
D03*
D83*
X3740862Y2486304D02*
G03*
X3740862Y2486304I-6250J0D01*
G01*
Y2526304D02*
G03*
X3740862Y2526304I-6250J0D01*
G01*
Y2566304D02*
G03*
X3740862Y2566304I-6250J0D01*
G01*
X3700862D02*
G03*
X3700862Y2566304I-6250J0D01*
G01*
Y2526304D02*
G03*
X3700862Y2526304I-6250J0D01*
G01*
Y2486304D02*
G03*
X3700862Y2486304I-6250J0D01*
G01*
D84*
X4309268Y3160553D02*
D03*
Y2860553D02*
D03*
D85*
X4156776Y3010797D02*
D03*
%TF.MD5,1c035b45362a920f8287223646ceea91*%
M02*
