%TF.GenerationSoftware,Altium Limited,Altium Designer Develop,26.0.0 (27)*%
G04 Layer_Physical_Order=1*
G04 Layer_Color=255*
%FSLAX45Y45*%
%MOMM*%
%TF.SameCoordinates,D5E2BA32-6F81-40A5-AA13-F30F529DFF44*%
%TF.FilePolarity,Positive*%
%TF.FileFunction,Copper,L1,Top,Signal*%
%TF.Part,Single*%
G01*
G75*
%TA.AperFunction,Conductor*%
%ADD10C,0.25400*%
%ADD11C,0.26391*%
%TA.AperFunction,SMDPad,CuDef*%
%ADD12R,2.20000X1.05000*%
%ADD13R,0.30000X0.27000*%
%TA.AperFunction,BGAPad,CuDef*%
%ADD14R,0.25000X0.25000*%
%TA.AperFunction,SMDPad,CuDef*%
%ADD15R,0.70000X0.75000*%
%ADD16R,0.27000X0.30000*%
G04:AMPARAMS|DCode=17|XSize=0.22mm|YSize=0.81mm|CornerRadius=0.0275mm|HoleSize=0mm|Usage=FLASHONLY|Rotation=0.000|XOffset=0mm|YOffset=0mm|HoleType=Round|Shape=RoundedRectangle|*
%AMROUNDEDRECTD17*
21,1,0.22000,0.75500,0,0,0.0*
21,1,0.16500,0.81000,0,0,0.0*
1,1,0.05500,0.08250,-0.37750*
1,1,0.05500,-0.08250,-0.37750*
1,1,0.05500,-0.08250,0.37750*
1,1,0.05500,0.08250,0.37750*
%
%ADD17ROUNDEDRECTD17*%
%ADD18R,0.25000X0.45000*%
%ADD19R,0.50000X0.50000*%
%ADD20R,0.60000X0.90000*%
%ADD21R,0.50000X0.50000*%
%ADD22R,0.60000X0.55000*%
G04:AMPARAMS|DCode=23|XSize=0.81mm|YSize=0.22mm|CornerRadius=0.0275mm|HoleSize=0mm|Usage=FLASHONLY|Rotation=0.000|XOffset=0mm|YOffset=0mm|HoleType=Round|Shape=RoundedRectangle|*
%AMROUNDEDRECTD23*
21,1,0.81000,0.16500,0,0,0.0*
21,1,0.75500,0.22000,0,0,0.0*
1,1,0.05500,0.37750,-0.08250*
1,1,0.05500,-0.37750,-0.08250*
1,1,0.05500,-0.37750,0.08250*
1,1,0.05500,0.37750,0.08250*
%
%ADD23ROUNDEDRECTD23*%
%ADD24R,4.60000X4.60000*%
%ADD25R,1.65000X1.65000*%
%ADD26R,0.40000X0.60000*%
%ADD27R,0.55000X0.60000*%
%TA.AperFunction,ConnectorPad*%
%ADD28R,1.10000X0.60000*%
%TA.AperFunction,SMDPad,CuDef*%
%ADD29R,0.65000X1.05000*%
%ADD30R,0.70000X0.70000*%
%ADD31R,0.50800X0.50800*%
%ADD32R,0.30000X0.30000*%
%ADD33R,1.05000X1.00000*%
%ADD34R,1.50000X0.80000*%
G04:AMPARAMS|DCode=35|XSize=0.254mm|YSize=0.3556mm|CornerRadius=0.0635mm|HoleSize=0mm|Usage=FLASHONLY|Rotation=270.000|XOffset=0mm|YOffset=0mm|HoleType=Round|Shape=RoundedRectangle|*
%AMROUNDEDRECTD35*
21,1,0.25400,0.22860,0,0,270.0*
21,1,0.12700,0.35560,0,0,270.0*
1,1,0.12700,-0.11430,-0.06350*
1,1,0.12700,-0.11430,0.06350*
1,1,0.12700,0.11430,0.06350*
1,1,0.12700,0.11430,-0.06350*
%
%ADD35ROUNDEDRECTD35*%
%ADD36O,0.30000X0.85000*%
%ADD37O,0.85000X0.30000*%
%TA.AperFunction,ConnectorPad*%
%ADD38R,1.10000X0.30000*%
%TA.AperFunction,SMDPad,CuDef*%
G04:AMPARAMS|DCode=39|XSize=0.254mm|YSize=0.3556mm|CornerRadius=0.0635mm|HoleSize=0mm|Usage=FLASHONLY|Rotation=180.000|XOffset=0mm|YOffset=0mm|HoleType=Round|Shape=RoundedRectangle|*
%AMROUNDEDRECTD39*
21,1,0.25400,0.22860,0,0,180.0*
21,1,0.12700,0.35560,0,0,180.0*
1,1,0.12700,-0.06350,0.11430*
1,1,0.12700,0.06350,0.11430*
1,1,0.12700,0.06350,-0.11430*
1,1,0.12700,-0.06350,-0.11430*
%
%ADD39ROUNDEDRECTD39*%
%ADD40R,1.05000X0.65000*%
%TA.AperFunction,ConnectorPad*%
%ADD41R,1.00000X2.50000*%
%TA.AperFunction,SMDPad,CuDef*%
%ADD42R,0.30000X0.30000*%
%ADD43R,0.45000X0.25000*%
%ADD44R,1.20606X1.05822*%
%TA.AperFunction,Conductor*%
%ADD45C,0.17780*%
%ADD46C,0.45720*%
%ADD47C,0.50800*%
%ADD48C,0.15240*%
%ADD49C,0.28600*%
%ADD50C,0.26721*%
%ADD51C,0.17800*%
%TA.AperFunction,ComponentPad*%
%ADD52C,3.00000*%
%ADD53C,1.70000*%
%ADD54C,0.45000*%
%ADD55C,1.30000*%
G04:AMPARAMS|DCode=56|XSize=1mm|YSize=1.8mm|CornerRadius=0.5mm|HoleSize=0mm|Usage=FLASHONLY|Rotation=270.000|XOffset=0mm|YOffset=0mm|HoleType=Round|Shape=RoundedRectangle|*
%AMROUNDEDRECTD56*
21,1,1.00000,0.80000,0,0,270.0*
21,1,0.00000,1.80000,0,0,270.0*
1,1,1.00000,-0.40000,0.00000*
1,1,1.00000,-0.40000,0.00000*
1,1,1.00000,0.40000,0.00000*
1,1,1.00000,0.40000,0.00000*
%
%ADD56ROUNDEDRECTD56*%
G04:AMPARAMS|DCode=57|XSize=1mm|YSize=2.2mm|CornerRadius=0.5mm|HoleSize=0mm|Usage=FLASHONLY|Rotation=270.000|XOffset=0mm|YOffset=0mm|HoleType=Round|Shape=RoundedRectangle|*
%AMROUNDEDRECTD57*
21,1,1.00000,1.20000,0,0,270.0*
21,1,0.00000,2.20000,0,0,270.0*
1,1,1.00000,-0.60000,0.00000*
1,1,1.00000,-0.60000,0.00000*
1,1,1.00000,0.60000,0.00000*
1,1,1.00000,0.60000,0.00000*
%
%ADD57ROUNDEDRECTD57*%
%TA.AperFunction,ViaPad*%
%ADD58C,0.45000*%
%ADD59C,0.50000*%
G36*
X4500000Y4480897D02*
X4507968D01*
X4523596Y4477788D01*
X4538319Y4471690D01*
X4551568Y4462837D01*
X4562837Y4451568D01*
X4571690Y4438320D01*
X4577788Y4423595D01*
X4580897Y4407968D01*
X4580897Y4400000D01*
X4580895Y2741507D01*
X3967159D01*
X3961327Y2755587D01*
X4153592Y2947853D01*
X4161485D01*
X4173867Y2940953D01*
X4173867Y2932613D01*
Y2875753D01*
X4296568D01*
Y2940953D01*
X4234349D01*
X4221968Y2947854D01*
X4221967Y2956193D01*
Y3064913D01*
X4221968Y3073253D01*
X4234349Y3080153D01*
X4296567D01*
Y3145353D01*
X4173867D01*
Y3088493D01*
X4173867Y3080154D01*
X4161485Y3073253D01*
X4091567D01*
Y2960506D01*
X3893179Y2762118D01*
X3882227Y2751759D01*
X3869554Y2746509D01*
X3854396Y2745887D01*
X3841854D01*
Y2745500D01*
X3791983D01*
Y2745500D01*
X3787382D01*
Y2745500D01*
X3731982D01*
Y2718226D01*
X3726094Y2710553D01*
X3713653Y2680517D01*
X3711554Y2665541D01*
X3710938Y2661977D01*
X3711115Y2661087D01*
X3709832Y2648064D01*
X3709496Y2644650D01*
X3709496Y2644648D01*
X3709722D01*
X3709723Y2644647D01*
Y2601716D01*
X3694483Y2595734D01*
X3664333Y2625883D01*
Y2713149D01*
X3664839Y2713359D01*
X3674741Y2723261D01*
X3680100Y2736198D01*
Y2750202D01*
X3674741Y2763139D01*
X3664839Y2773041D01*
X3651902Y2778400D01*
X3637898D01*
X3624961Y2773041D01*
X3615059Y2763139D01*
X3609700Y2750202D01*
Y2736198D01*
X3615059Y2723261D01*
X3622897Y2715423D01*
Y2617303D01*
X3622896Y2617302D01*
X3624474Y2609373D01*
X3628965Y2602652D01*
X3664175Y2567442D01*
X3660883Y2556756D01*
X3657778Y2552286D01*
X3629098Y2549461D01*
X3599883Y2540599D01*
X3572958Y2526208D01*
X3554770Y2511281D01*
X3541022Y2507680D01*
X3541022Y2507681D01*
Y2507680D01*
X3541021Y2507680D01*
X3514821D01*
Y2467280D01*
X3502121D01*
Y2454580D01*
X3463222D01*
Y2443480D01*
X3288680D01*
Y2477200D01*
X3295592D01*
Y2504900D01*
X3256691D01*
Y2530300D01*
X3295592D01*
Y2549852D01*
X3301361Y2555621D01*
X3306720Y2568558D01*
Y2582562D01*
X3317281Y2596889D01*
X3545897D01*
X3555617Y2600915D01*
X3559643Y2610635D01*
Y2915435D01*
X3555617Y2925156D01*
X3545897Y2929182D01*
X3278504D01*
X3268784Y2925156D01*
X3264758Y2915435D01*
Y2747807D01*
X3236680D01*
Y2747969D01*
X3196280D01*
Y2760669D01*
X3183580D01*
Y2799569D01*
X3162658D01*
X3156345Y2814809D01*
X3215965Y2874430D01*
X3220737Y2881571D01*
X3222413Y2889995D01*
Y2937282D01*
X3254065Y2968935D01*
X3258837Y2976076D01*
X3260513Y2984500D01*
Y3022526D01*
X3262426Y3025389D01*
X3264398Y3035300D01*
Y3507173D01*
X3525146Y3767921D01*
X3543138Y3763100D01*
X3568862D01*
X3593711Y3769758D01*
X3615989Y3782621D01*
X3634179Y3800811D01*
X3647042Y3823089D01*
X3653700Y3847938D01*
Y3873662D01*
X3647042Y3898511D01*
X3634179Y3920789D01*
X3615989Y3938979D01*
X3593711Y3951842D01*
X3568862Y3958500D01*
X3543138D01*
X3518289Y3951842D01*
X3496011Y3938979D01*
X3477821Y3920789D01*
X3470138Y3907482D01*
X3454898Y3911565D01*
Y3926273D01*
X3545725Y4017100D01*
X3568862D01*
X3593711Y4023758D01*
X3615989Y4036621D01*
X3634179Y4054811D01*
X3647042Y4077089D01*
X3653700Y4101938D01*
Y4127662D01*
X3647042Y4152511D01*
X3634179Y4174789D01*
X3615989Y4192979D01*
X3593711Y4205842D01*
X3568862Y4212500D01*
X3543138D01*
X3518289Y4205842D01*
X3496011Y4192979D01*
X3477821Y4174789D01*
X3464958Y4152511D01*
X3458300Y4127662D01*
Y4101938D01*
X3464958Y4077089D01*
X3477821Y4054811D01*
X3494003Y4038628D01*
X3410688Y3955312D01*
X3405074Y3946911D01*
X3403102Y3937000D01*
Y3911565D01*
X3387862Y3907482D01*
X3380179Y3920789D01*
X3361989Y3938979D01*
X3339711Y3951842D01*
X3314862Y3958500D01*
X3289138D01*
X3264289Y3951842D01*
X3258613Y3948564D01*
X3249255Y3960759D01*
X3305596Y4017100D01*
X3314862D01*
X3339711Y4023758D01*
X3361989Y4036621D01*
X3380179Y4054811D01*
X3393042Y4077089D01*
X3399700Y4101938D01*
Y4127662D01*
X3393042Y4152511D01*
X3380179Y4174789D01*
X3361989Y4192979D01*
X3339711Y4205842D01*
X3314862Y4212500D01*
X3289138D01*
X3264289Y4205842D01*
X3242011Y4192979D01*
X3223821Y4174789D01*
X3210958Y4152511D01*
X3204300Y4127662D01*
Y4101938D01*
X3210958Y4077089D01*
X3223821Y4054811D01*
X3242011Y4036621D01*
X3243157Y4027911D01*
X3156688Y3941441D01*
X3151074Y3933040D01*
X3149102Y3923129D01*
Y3911565D01*
X3133862Y3907482D01*
X3126179Y3920789D01*
X3107989Y3938979D01*
X3085711Y3951842D01*
X3060862Y3958500D01*
X3035138D01*
X3010289Y3951842D01*
X2988011Y3938979D01*
X2969821Y3920789D01*
X2962138Y3907482D01*
X2946898Y3911565D01*
Y4002473D01*
X2984528Y4040103D01*
X2988011Y4036621D01*
X3010289Y4023758D01*
X3035138Y4017100D01*
X3060862D01*
X3085711Y4023758D01*
X3107989Y4036621D01*
X3126179Y4054811D01*
X3139042Y4077089D01*
X3145700Y4101938D01*
Y4127662D01*
X3139042Y4152511D01*
X3126179Y4174789D01*
X3107989Y4192979D01*
X3085711Y4205842D01*
X3060862Y4212500D01*
X3035138D01*
X3010289Y4205842D01*
X2988011Y4192979D01*
X2969821Y4174789D01*
X2956958Y4152511D01*
X2950300Y4127662D01*
Y4101938D01*
X2955121Y4083946D01*
X2902688Y4031512D01*
X2897074Y4023111D01*
X2895102Y4013200D01*
Y3934574D01*
X2879862Y3931067D01*
X2861787Y3949142D01*
X2836613Y3963676D01*
X2808534Y3971200D01*
X2806700D01*
Y3860800D01*
Y3750400D01*
X2808534D01*
X2836613Y3757924D01*
X2861787Y3772458D01*
X2879862Y3790533D01*
X2895102Y3787026D01*
Y3093204D01*
X2885200Y3082065D01*
X2829800D01*
Y3073866D01*
X2822716Y3072457D01*
X2815575Y3067686D01*
X2810769Y3062880D01*
X2799698D01*
X2786761Y3057521D01*
X2776859Y3047619D01*
X2771500Y3034682D01*
Y3020678D01*
X2776859Y3007741D01*
X2786761Y2997839D01*
X2795015Y2994420D01*
X2791983Y2979180D01*
X2761600D01*
Y2951479D01*
X2800500D01*
Y2926079D01*
X2761600D01*
Y2898380D01*
X2764500D01*
Y2891753D01*
X2804900D01*
Y2866353D01*
X2764500D01*
Y2840154D01*
X2752661Y2831942D01*
X2716084D01*
Y2831943D01*
X2704247Y2828327D01*
X2702931Y2829270D01*
X2693693Y2839638D01*
X2697854Y2849683D01*
Y2863687D01*
X2705906Y2875738D01*
X2730094D01*
Y3006960D01*
X2584135D01*
X2584089Y3006979D01*
X2564878D01*
X2564832Y3006960D01*
X2441787D01*
Y3022600D01*
X2437761Y3032320D01*
X2428041Y3036346D01*
X2371960D01*
Y3067200D01*
X2334260D01*
Y3016800D01*
X2321560D01*
Y3004100D01*
X2271160D01*
Y2966400D01*
X2256232Y2965647D01*
X1673991D01*
X1562847Y3076791D01*
Y3172997D01*
X1596458D01*
X1610297Y3167862D01*
Y3131337D01*
X1611973Y3122913D01*
X1616745Y3115772D01*
X1649282Y3083234D01*
X1656423Y3078463D01*
X1664847Y3076787D01*
X1720300D01*
Y3071100D01*
X1775700D01*
Y3071100D01*
X1780300D01*
Y3071100D01*
X1835700D01*
Y3095369D01*
X1837656Y3097325D01*
X1842427Y3104466D01*
X1844103Y3112890D01*
Y3167863D01*
X1842427Y3176287D01*
X1840629Y3178979D01*
Y3193805D01*
X1838953Y3202229D01*
X1836925Y3205263D01*
Y3226600D01*
X1829714D01*
Y3265300D01*
X1854500D01*
Y3321427D01*
X1946440D01*
X1954864Y3323102D01*
X1962005Y3327874D01*
X2225365Y3591234D01*
X2230137Y3598376D01*
X2231813Y3606800D01*
Y3609922D01*
X2234095Y3613337D01*
X2235573Y3620770D01*
Y3643630D01*
X2234095Y3651063D01*
X2229884Y3657364D01*
Y3657836D01*
X2234095Y3664137D01*
X2235573Y3671570D01*
Y3694430D01*
X2234095Y3701863D01*
X2231916Y3705124D01*
Y3761614D01*
X2247156Y3770413D01*
X2248289Y3769758D01*
X2273138Y3763100D01*
X2298862D01*
X2323711Y3769758D01*
X2345989Y3782621D01*
X2364179Y3800811D01*
X2377042Y3823089D01*
X2383700Y3847938D01*
Y3873662D01*
X2377042Y3898511D01*
X2364179Y3920789D01*
X2345989Y3938979D01*
X2339307Y3942837D01*
X2343391Y3958077D01*
X2411592D01*
X2457084Y3912585D01*
X2448958Y3898511D01*
X2442300Y3873662D01*
Y3847938D01*
X2448958Y3823089D01*
X2461821Y3800811D01*
X2480011Y3782621D01*
X2502289Y3769758D01*
X2527138Y3763100D01*
X2552862D01*
X2577711Y3769758D01*
X2599989Y3782621D01*
X2618179Y3800811D01*
X2631042Y3823089D01*
X2637700Y3847938D01*
Y3873662D01*
X2631042Y3898511D01*
X2618179Y3920789D01*
X2599989Y3938979D01*
X2577711Y3951842D01*
X2552862Y3958500D01*
X2527138D01*
X2502289Y3951842D01*
X2488215Y3943716D01*
X2436275Y3995655D01*
X2429134Y4000427D01*
X2420710Y4002103D01*
X2299449D01*
X2298863Y4017100D01*
X2323711Y4023758D01*
X2345989Y4036621D01*
X2364179Y4054811D01*
X2377042Y4077089D01*
X2383700Y4101938D01*
Y4127662D01*
X2377042Y4152511D01*
X2364179Y4174789D01*
X2345989Y4192979D01*
X2323711Y4205842D01*
X2308013Y4210048D01*
Y4216400D01*
X2306337Y4224824D01*
X2301565Y4231965D01*
X2227384Y4306147D01*
X2228910Y4314297D01*
X2233009Y4321387D01*
X2302282D01*
X2457084Y4166585D01*
X2448958Y4152511D01*
X2442300Y4127662D01*
Y4101938D01*
X2448958Y4077089D01*
X2461821Y4054811D01*
X2480011Y4036621D01*
X2502289Y4023758D01*
X2527138Y4017100D01*
X2552862D01*
X2577711Y4023758D01*
X2599989Y4036621D01*
X2618179Y4054811D01*
X2631042Y4077089D01*
X2637700Y4101938D01*
Y4127662D01*
X2631042Y4152511D01*
X2618179Y4174789D01*
X2599989Y4192979D01*
X2577711Y4205842D01*
X2552862Y4212500D01*
X2527138D01*
X2502289Y4205842D01*
X2488215Y4197716D01*
X2326965Y4358965D01*
X2319824Y4363737D01*
X2311400Y4365413D01*
X1701800D01*
X1693376Y4363737D01*
X1686235Y4358966D01*
X1523675Y4196405D01*
X1518903Y4189264D01*
X1517227Y4180840D01*
Y3947284D01*
X1516171Y3945703D01*
X1514692Y3938270D01*
Y3915410D01*
X1516171Y3907977D01*
X1520381Y3901676D01*
Y3901204D01*
X1516171Y3894903D01*
X1514692Y3887470D01*
Y3864610D01*
X1516171Y3857177D01*
X1517227Y3855596D01*
Y3320027D01*
X1518903Y3311603D01*
X1523675Y3304462D01*
X1549100Y3279036D01*
Y3265300D01*
X1619500D01*
X1626600Y3253001D01*
Y3237800D01*
X1626600D01*
X1621700Y3226595D01*
X1607206Y3224792D01*
X1541845D01*
X1530469Y3236169D01*
X1517866Y3244589D01*
X1503000Y3247546D01*
X1462600D01*
Y3336400D01*
X1462600D01*
X1457110Y3344616D01*
X1457600Y3345798D01*
Y3359802D01*
X1452241Y3372739D01*
X1442339Y3382641D01*
X1429402Y3388000D01*
X1415398D01*
X1402461Y3382641D01*
X1392559Y3372739D01*
X1387200Y3359802D01*
Y3345798D01*
X1387690Y3344616D01*
X1382200Y3336400D01*
X1382200D01*
Y3247546D01*
X1348300D01*
Y3336400D01*
X1348300D01*
X1342810Y3344616D01*
X1343300Y3345798D01*
Y3359802D01*
X1337941Y3372739D01*
X1328039Y3382641D01*
X1315102Y3388000D01*
X1301098D01*
X1288161Y3382641D01*
X1278259Y3372739D01*
X1272900Y3359802D01*
Y3345798D01*
X1273390Y3344616D01*
X1267900Y3336400D01*
X1267900D01*
Y3283853D01*
X1252769Y3277085D01*
X1245347Y3282956D01*
Y3797300D01*
X1242389Y3812166D01*
X1233969Y3824769D01*
X941869Y4116869D01*
X929266Y4125289D01*
X914400Y4128247D01*
X431800D01*
X416934Y4125289D01*
X404331Y4116869D01*
X353531Y4066069D01*
X345111Y4053466D01*
X342153Y4038600D01*
Y4019100D01*
X319900D01*
Y3743700D01*
X445300D01*
Y4019100D01*
X437990D01*
X431677Y4034340D01*
X447891Y4050553D01*
X898309D01*
X1167653Y3781209D01*
Y3263900D01*
X1170611Y3249034D01*
X1179031Y3236431D01*
X1234231Y3181231D01*
X1246834Y3172811D01*
X1261700Y3169853D01*
X1267900D01*
Y3166000D01*
X1348300D01*
Y3169853D01*
X1382200D01*
Y3166000D01*
X1462600D01*
Y3169853D01*
X1485153D01*
Y3060700D01*
X1488111Y3045834D01*
X1496531Y3033231D01*
X1630431Y2899332D01*
X1643034Y2890911D01*
X1657900Y2887954D01*
X2137401D01*
X2146295Y2872713D01*
X2145254Y2870200D01*
Y2590800D01*
X2149280Y2581080D01*
X2159000Y2577054D01*
X2292292D01*
X2302475Y2561813D01*
X2301600Y2559702D01*
Y2545698D01*
X2306959Y2532761D01*
X2314787Y2524933D01*
Y2514600D01*
X2316463Y2506176D01*
X2321235Y2499035D01*
X2328471Y2491798D01*
X2322158Y2476558D01*
X2299568D01*
X2295800Y2482198D01*
Y2496202D01*
X2290441Y2509139D01*
X2280539Y2519041D01*
X2267602Y2524400D01*
X2253598D01*
X2240661Y2519041D01*
X2230759Y2509139D01*
X2225400Y2496202D01*
Y2482198D01*
X2230759Y2469261D01*
X2240661Y2459359D01*
X2250817Y2455152D01*
X2255716Y2450253D01*
X2249404Y2435013D01*
X2206900D01*
Y2445402D01*
X2201541Y2458339D01*
X2191639Y2468241D01*
X2178702Y2473600D01*
X2164698D01*
X2151761Y2468241D01*
X2141859Y2458339D01*
X2136500Y2445402D01*
Y2431398D01*
X2141859Y2418461D01*
X2148522Y2411798D01*
X2144017Y2396812D01*
X2143850Y2396558D01*
X2110922D01*
X2102916Y2404564D01*
X2089979Y2409923D01*
X2075976D01*
X2063038Y2404564D01*
X2053136Y2394662D01*
X2047777Y2381724D01*
Y2367721D01*
X2053136Y2354784D01*
X2063038Y2344882D01*
X2075976Y2339523D01*
X2089979D01*
X2102916Y2344882D01*
X2110567Y2352533D01*
X2142228D01*
X2147813Y2337293D01*
X2141859Y2331339D01*
X2136500Y2318402D01*
Y2304398D01*
X2141859Y2291461D01*
X2151761Y2281559D01*
X2164698Y2276200D01*
X2178702D01*
X2191639Y2281559D01*
X2201541Y2291461D01*
X2206900Y2304398D01*
Y2312533D01*
X2247149D01*
X2253462Y2297293D01*
X2250817Y2294648D01*
X2240661Y2290441D01*
X2230759Y2280539D01*
X2225400Y2267602D01*
Y2253598D01*
X2230759Y2240661D01*
X2240661Y2230759D01*
X2253598Y2225400D01*
X2267602D01*
X2280539Y2230759D01*
X2290441Y2240661D01*
X2295800Y2253598D01*
Y2267602D01*
X2299094Y2272532D01*
X2347010D01*
X2347773Y2270594D01*
X2349545Y2257292D01*
X2343888Y2253512D01*
X2305788Y2215412D01*
X2300174Y2207011D01*
X2298202Y2197100D01*
Y2195582D01*
X2294259Y2191639D01*
X2288900Y2178702D01*
Y2164698D01*
X2294259Y2151761D01*
X2304161Y2141859D01*
X2317098Y2136500D01*
X2331102D01*
X2333359Y2137435D01*
X2347201Y2142400D01*
X2347200Y2142400D01*
X2347201Y2142400D01*
X2374900D01*
Y2181300D01*
X2400300D01*
Y2142400D01*
X2403687D01*
Y2117318D01*
X2317567Y2031198D01*
X2314189Y2030526D01*
X2305788Y2024912D01*
X2112170Y1831295D01*
X2096930Y1837607D01*
Y1839025D01*
X2089637Y1856631D01*
X2076163Y1870105D01*
X2061730Y1876083D01*
Y1829497D01*
X2049030D01*
Y1816797D01*
X2002444D01*
X2008422Y1802364D01*
X2021897Y1788890D01*
X2039502Y1781598D01*
X2048697D01*
X2061117Y1771157D01*
X2062010Y1767518D01*
Y1736976D01*
X2058583Y1733631D01*
X2046769Y1726909D01*
X2043430Y1727573D01*
X2032626D01*
X2032000Y1727698D01*
X1970975D01*
X1965208Y1740836D01*
X1965083Y1742938D01*
X1968140Y1755620D01*
X1968140Y1755857D01*
Y1798320D01*
X1922740D01*
Y1811020D01*
X1910040D01*
Y1866420D01*
X1877340D01*
Y1861784D01*
X1865440Y1853720D01*
X1862100Y1853720D01*
X1800040D01*
Y1768320D01*
X1801197D01*
Y1742000D01*
X1794400D01*
Y1661600D01*
X1964800D01*
Y1675902D01*
X2032000D01*
X2032626Y1676027D01*
X2043430D01*
X2046769Y1676691D01*
X2058583Y1669969D01*
X2062010Y1666624D01*
Y1434234D01*
Y1359766D01*
Y1168400D01*
Y879434D01*
X1886688Y704112D01*
X1881074Y695711D01*
X1879102Y685800D01*
Y431800D01*
X1881074Y421889D01*
X1886688Y413488D01*
X1947073Y353102D01*
X1940958Y342511D01*
X1934300Y317662D01*
Y291938D01*
X1940958Y267089D01*
X1953821Y244811D01*
X1972011Y226621D01*
X1983228Y220145D01*
X1979144Y204905D01*
X1851063D01*
X1847663Y207176D01*
X1840230Y208655D01*
X1817370D01*
X1809937Y207176D01*
X1803636Y202966D01*
X1803164D01*
X1796863Y207176D01*
X1789430Y208655D01*
X1766570D01*
X1759137Y207176D01*
X1755722Y204894D01*
X1603536D01*
Y232520D01*
X1497848D01*
Y311500D01*
X1512500D01*
Y441900D01*
X1506147D01*
Y726500D01*
X1512500D01*
Y856900D01*
X1422100D01*
Y726500D01*
X1428454D01*
Y441900D01*
X1422100D01*
Y311500D01*
X1453823D01*
Y232520D01*
X1433136D01*
Y152120D01*
X1419183Y149013D01*
X1156640D01*
X1124902Y180751D01*
Y232520D01*
X1012613D01*
Y311500D01*
X1029900D01*
Y441900D01*
X1029447D01*
Y726500D01*
X1029900D01*
Y856900D01*
X939500D01*
Y726500D01*
X951753D01*
Y441900D01*
X939500D01*
Y311500D01*
X968587D01*
Y232520D01*
X954502D01*
Y152120D01*
X1091271D01*
X1131956Y111435D01*
X1139098Y106663D01*
X1147522Y104987D01*
X1755722D01*
X1759137Y102705D01*
X1766570Y101227D01*
X1789430D01*
X1796863Y102705D01*
X1801178Y105589D01*
X1805622D01*
X1809937Y102705D01*
X1817370Y101227D01*
X1840230D01*
X1847663Y102705D01*
X1851078Y104987D01*
X2311400D01*
X2319824Y106663D01*
X2326965Y111435D01*
X2428565Y213034D01*
X2433337Y220176D01*
X2435013Y228600D01*
Y253132D01*
X2437989Y255608D01*
X2457609Y252106D01*
X2461821Y244811D01*
X2480011Y226621D01*
X2502289Y213758D01*
X2527138Y207100D01*
X2552862D01*
X2577711Y213758D01*
X2599989Y226621D01*
X2618179Y244811D01*
X2631042Y267089D01*
X2637700Y291938D01*
Y317662D01*
X2631042Y342511D01*
X2618179Y364789D01*
X2599989Y382979D01*
X2577711Y395842D01*
X2552862Y402500D01*
X2527138D01*
X2502289Y395842D01*
X2491698Y389727D01*
X2438898Y442527D01*
Y508035D01*
X2454138Y512118D01*
X2461821Y498811D01*
X2480011Y480621D01*
X2502289Y467758D01*
X2527138Y461100D01*
X2552862D01*
X2577711Y467758D01*
X2599989Y480621D01*
X2618179Y498811D01*
X2625862Y512118D01*
X2641102Y508035D01*
Y431800D01*
X2643074Y421889D01*
X2648688Y413488D01*
X2709073Y353102D01*
X2702958Y342511D01*
X2696300Y317662D01*
Y291938D01*
X2702958Y267089D01*
X2715821Y244811D01*
X2734011Y226621D01*
X2756289Y213758D01*
X2781138Y207100D01*
X2806862D01*
X2831711Y213758D01*
X2853989Y226621D01*
X2872179Y244811D01*
X2885042Y267089D01*
X2891700Y291938D01*
Y317662D01*
X2885042Y342511D01*
X2872179Y364789D01*
X2853989Y382979D01*
X2831711Y395842D01*
X2806862Y402500D01*
X2781138D01*
X2756289Y395842D01*
X2745698Y389727D01*
X2692898Y442527D01*
Y508035D01*
X2708138Y512118D01*
X2715821Y498811D01*
X2734011Y480621D01*
X2756289Y467758D01*
X2781138Y461100D01*
X2806862D01*
X2831711Y467758D01*
X2853989Y480621D01*
X2872179Y498811D01*
X2879862Y512118D01*
X2895102Y508035D01*
Y431800D01*
X2897074Y421889D01*
X2902688Y413488D01*
X2963073Y353102D01*
X2956958Y342511D01*
X2950300Y317662D01*
Y291938D01*
X2956958Y267089D01*
X2969821Y244811D01*
X2988011Y226621D01*
X3010289Y213758D01*
X3035138Y207100D01*
X3060862D01*
X3085711Y213758D01*
X3107989Y226621D01*
X3126179Y244811D01*
X3139042Y267089D01*
X3145700Y291938D01*
Y317662D01*
X3139042Y342511D01*
X3126179Y364789D01*
X3107989Y382979D01*
X3085711Y395842D01*
X3060862Y402500D01*
X3035138D01*
X3010289Y395842D01*
X2999698Y389727D01*
X2946898Y442527D01*
Y508035D01*
X2962138Y512118D01*
X2969821Y498811D01*
X2988011Y480621D01*
X3010289Y467758D01*
X3035138Y461100D01*
X3060862D01*
X3085711Y467758D01*
X3107989Y480621D01*
X3120071Y492703D01*
X3125626Y491598D01*
X3135346Y487572D01*
X3162298D01*
Y418604D01*
X3164269Y408694D01*
X3169883Y400292D01*
X3217073Y353102D01*
X3210958Y342511D01*
X3204300Y317662D01*
Y291938D01*
X3210958Y267089D01*
X3223821Y244811D01*
X3242011Y226621D01*
X3264289Y213758D01*
X3289138Y207100D01*
X3314862D01*
X3339711Y213758D01*
X3361989Y226621D01*
X3380179Y244811D01*
X3393042Y267089D01*
X3399700Y291938D01*
Y317662D01*
X3393042Y342511D01*
X3380179Y364789D01*
X3361989Y382979D01*
X3339711Y395842D01*
X3314862Y402500D01*
X3289138D01*
X3264289Y395842D01*
X3253698Y389727D01*
X3214093Y429332D01*
Y470666D01*
X3228173Y476498D01*
X3234213Y470458D01*
X3259387Y455924D01*
X3287466Y448400D01*
X3289300D01*
Y558800D01*
Y669200D01*
X3287466D01*
X3259387Y661676D01*
X3234213Y647142D01*
X3228173Y641102D01*
X3219690Y644616D01*
X3213866Y648347D01*
X3212122Y657115D01*
X3206508Y665517D01*
X2946898Y925127D01*
Y1638300D01*
X2944926Y1648211D01*
X2943013Y1651074D01*
Y1696720D01*
X2941337Y1705144D01*
X2936566Y1712285D01*
X2928713Y1720138D01*
Y1892666D01*
X2937167D01*
Y1931565D01*
X2949867D01*
Y1944265D01*
X2990267D01*
Y1946000D01*
X3004202D01*
X3017139Y1951359D01*
X3026924Y1961144D01*
X3027049Y1961262D01*
X3044950Y1964672D01*
X3089487Y1920135D01*
Y1835372D01*
X3087574Y1832508D01*
X3085602Y1822598D01*
Y949418D01*
X3087574Y939508D01*
X3093188Y931106D01*
X3347655Y676639D01*
X3339766Y662975D01*
X3316534Y669200D01*
X3314700D01*
Y558800D01*
Y448400D01*
X3316534D01*
X3344613Y455924D01*
X3369787Y470458D01*
X3387862Y488533D01*
X3403102Y485026D01*
Y410140D01*
X3405074Y400229D01*
X3410688Y391828D01*
X3463912Y338604D01*
X3458300Y317662D01*
Y291938D01*
X3464958Y267089D01*
X3477821Y244811D01*
X3496011Y226621D01*
X3518289Y213758D01*
X3543138Y207100D01*
X3568862D01*
X3593711Y213758D01*
X3615989Y226621D01*
X3634179Y244811D01*
X3647042Y267089D01*
X3653700Y291938D01*
Y317662D01*
X3647042Y342511D01*
X3634179Y364789D01*
X3615989Y382979D01*
X3593711Y395842D01*
X3568862Y402500D01*
X3543138D01*
X3518289Y395842D01*
X3496011Y382979D01*
X3494398Y381367D01*
X3454898Y420867D01*
Y508035D01*
X3470138Y512118D01*
X3477821Y498811D01*
X3496011Y480621D01*
X3518289Y467758D01*
X3543138Y461100D01*
X3568862D01*
X3593711Y467758D01*
X3615989Y480621D01*
X3634179Y498811D01*
X3641862Y512118D01*
X3657102Y508035D01*
Y431800D01*
X3659074Y421889D01*
X3664688Y413488D01*
X3725073Y353102D01*
X3718958Y342511D01*
X3712300Y317662D01*
Y291938D01*
X3718958Y267089D01*
X3731821Y244811D01*
X3750011Y226621D01*
X3772289Y213758D01*
X3797138Y207100D01*
X3822862D01*
X3847711Y213758D01*
X3869989Y226621D01*
X3888179Y244811D01*
X3901042Y267089D01*
X3907700Y291938D01*
Y317662D01*
X3901042Y342511D01*
X3888179Y364789D01*
X3869989Y382979D01*
X3847711Y395842D01*
X3822862Y402500D01*
X3797138D01*
X3772289Y395842D01*
X3761698Y389727D01*
X3708898Y442527D01*
Y508035D01*
X3724138Y512118D01*
X3731821Y498811D01*
X3750011Y480621D01*
X3772289Y467758D01*
X3797138Y461100D01*
X3822862D01*
X3847711Y467758D01*
X3869989Y480621D01*
X3888179Y498811D01*
X3895862Y512118D01*
X3911102Y508035D01*
Y431800D01*
X3913074Y421889D01*
X3918688Y413488D01*
X3979073Y353102D01*
X3972958Y342511D01*
X3966300Y317662D01*
Y291938D01*
X3972958Y267089D01*
X3985821Y244811D01*
X4004011Y226621D01*
X4026289Y213758D01*
X4051138Y207100D01*
X4076862D01*
X4101711Y213758D01*
X4123989Y226621D01*
X4142179Y244811D01*
X4155042Y267089D01*
X4161700Y291938D01*
Y317662D01*
X4155042Y342511D01*
X4142179Y364789D01*
X4123989Y382979D01*
X4101711Y395842D01*
X4076862Y402500D01*
X4051138D01*
X4026289Y395842D01*
X4015698Y389727D01*
X3962898Y442527D01*
Y508035D01*
X3978138Y512118D01*
X3985821Y498811D01*
X4004011Y480621D01*
X4026289Y467758D01*
X4051138Y461100D01*
X4076862D01*
X4101711Y467758D01*
X4123989Y480621D01*
X4142179Y498811D01*
X4155042Y521089D01*
X4161700Y545938D01*
Y571662D01*
X4155042Y596511D01*
X4142179Y618789D01*
X4123989Y636979D01*
X4101711Y649842D01*
X4076862Y656500D01*
X4051138D01*
X4026289Y649842D01*
X4004011Y636979D01*
X3985821Y618789D01*
X3978138Y605482D01*
X3962898Y609565D01*
Y635000D01*
X3960926Y644911D01*
X3955312Y653312D01*
X3391398Y1217227D01*
Y2032000D01*
X3389426Y2041911D01*
X3387513Y2044774D01*
Y2203435D01*
X3385837Y2211858D01*
X3381066Y2219000D01*
X3300267Y2299798D01*
X3305272Y2311880D01*
X3305272D01*
Y2339580D01*
X3266372D01*
Y2364980D01*
X3305272D01*
Y2377440D01*
X3346499D01*
Y2325321D01*
X3402768Y2269052D01*
X3486199D01*
X3536998Y2319852D01*
X3536999Y2377440D01*
X3660140D01*
Y2403273D01*
X3675380Y2413456D01*
X3677817Y2412446D01*
X3691820D01*
X3704758Y2417805D01*
X3714660Y2427707D01*
X3715285Y2429217D01*
X3733262Y2432793D01*
X3746740Y2419315D01*
Y2400540D01*
X3802139D01*
Y2400540D01*
X3806740D01*
Y2400540D01*
X3836791D01*
Y1856694D01*
X3835840Y1856300D01*
X3831814Y1846580D01*
Y873760D01*
X3835840Y864040D01*
X3845560Y860014D01*
X4278854D01*
Y-65298D01*
X100000Y-65297D01*
X92108D01*
X76622Y-62247D01*
X62018Y-56260D01*
X48844Y-47564D01*
X37601Y-36487D01*
X28711Y-23444D01*
X22509Y-8931D01*
X19229Y6509D01*
X19114Y14247D01*
X19103Y1615079D01*
X19102Y1621739D01*
X21701Y1634801D01*
X26799Y1647109D01*
X34198Y1658183D01*
X38907Y1662893D01*
X38908Y1662893D01*
X43616Y1667601D01*
X54692Y1675001D01*
X66997Y1680099D01*
X80061Y1682697D01*
X86721Y1682697D01*
X156072D01*
X159103Y1667457D01*
X148975Y1663262D01*
X133224Y1651176D01*
X121138Y1635425D01*
X113541Y1617084D01*
X112621Y1610100D01*
X247000D01*
X381379D01*
X380459Y1617084D01*
X372862Y1635425D01*
X360776Y1651176D01*
X345025Y1663262D01*
X334897Y1667457D01*
X337928Y1682697D01*
X576072D01*
X579103Y1667457D01*
X568975Y1663262D01*
X553224Y1651176D01*
X541138Y1635425D01*
X533541Y1617084D01*
X532621Y1610100D01*
X647000D01*
X761379D01*
X760459Y1617084D01*
X752862Y1635425D01*
X740776Y1651176D01*
X725025Y1663262D01*
X708927Y1669930D01*
X707094Y1676637D01*
X707766Y1686089D01*
X711630Y1688670D01*
X716050Y1695286D01*
X717603Y1703089D01*
Y1784000D01*
X762300D01*
Y1839400D01*
X775000D01*
Y1852100D01*
X855400D01*
Y1880554D01*
X874600D01*
X884360Y1882495D01*
X899600Y1873348D01*
Y1828800D01*
X1005400D01*
Y1859411D01*
X952500D01*
Y1884811D01*
X1005400D01*
Y1927511D01*
X992700D01*
Y1999811D01*
X980440D01*
Y2106750D01*
X1107732D01*
Y1940200D01*
X1111759Y1930480D01*
X1109081Y1915093D01*
X1107800Y1912002D01*
Y1897998D01*
X1113159Y1885061D01*
X1123061Y1875159D01*
X1135998Y1869800D01*
X1150002D01*
X1153400Y1867529D01*
Y1863800D01*
X1193800D01*
X1242848D01*
X1244600Y1865854D01*
X1270987D01*
Y1856600D01*
X1272663Y1848176D01*
X1277435Y1841035D01*
X1286400Y1832069D01*
Y1788600D01*
X1370181D01*
X1373973Y1773360D01*
X1372705Y1771463D01*
X1371227Y1764030D01*
Y1741170D01*
X1372705Y1733737D01*
X1376916Y1727436D01*
Y1726964D01*
X1372705Y1720663D01*
X1371227Y1713230D01*
Y1690370D01*
X1372705Y1682937D01*
X1374987Y1679522D01*
Y1632120D01*
X1359747Y1625710D01*
X1356000Y1629376D01*
Y1632602D01*
X1350641Y1645539D01*
X1340739Y1655441D01*
X1327802Y1660800D01*
X1313798D01*
X1300861Y1655441D01*
X1290959Y1645539D01*
X1285600Y1632602D01*
Y1618598D01*
X1286090Y1617416D01*
X1280600Y1609200D01*
X1280600D01*
Y1523800D01*
Y1475425D01*
X1267388Y1462212D01*
X1261774Y1453811D01*
X1259802Y1443900D01*
Y1418500D01*
X1257138D01*
X1232289Y1411842D01*
X1210011Y1398979D01*
X1191821Y1380789D01*
X1178958Y1358511D01*
X1172300Y1333662D01*
Y1307938D01*
X1178958Y1283089D01*
X1191821Y1260811D01*
X1210011Y1242621D01*
X1232289Y1229758D01*
X1257138Y1223100D01*
X1282862D01*
X1307711Y1229758D01*
X1329989Y1242621D01*
X1348179Y1260811D01*
X1352391Y1268106D01*
X1372011Y1271608D01*
X1374987Y1269132D01*
Y1202918D01*
X1321785Y1149716D01*
X1307711Y1157842D01*
X1282862Y1164500D01*
X1257138D01*
X1232289Y1157842D01*
X1210011Y1144979D01*
X1191821Y1126789D01*
X1178958Y1104511D01*
X1172300Y1079662D01*
Y1053938D01*
X1178958Y1029089D01*
X1191821Y1006811D01*
X1210011Y988621D01*
X1232289Y975758D01*
X1257138Y969100D01*
X1282862D01*
X1307711Y975758D01*
X1329989Y988621D01*
X1348179Y1006811D01*
X1361042Y1029089D01*
X1367700Y1053938D01*
Y1079662D01*
X1361042Y1104511D01*
X1352916Y1118585D01*
X1412566Y1178235D01*
X1417337Y1185376D01*
X1419013Y1193800D01*
Y1269132D01*
X1421989Y1271608D01*
X1441609Y1268106D01*
X1445821Y1260811D01*
X1464011Y1242621D01*
X1486289Y1229758D01*
X1511138Y1223100D01*
X1536862D01*
X1561711Y1229758D01*
X1583989Y1242621D01*
X1602179Y1260811D01*
X1606391Y1268106D01*
X1626011Y1271608D01*
X1628987Y1269132D01*
Y1193800D01*
X1630663Y1185376D01*
X1635435Y1178235D01*
X1695084Y1118585D01*
X1686958Y1104511D01*
X1680300Y1079662D01*
Y1053938D01*
X1686958Y1029089D01*
X1699821Y1006811D01*
X1718011Y988621D01*
X1740289Y975758D01*
X1765138Y969100D01*
X1790862D01*
X1815711Y975758D01*
X1837989Y988621D01*
X1856179Y1006811D01*
X1869042Y1029089D01*
X1875700Y1053938D01*
Y1079662D01*
X1869042Y1104511D01*
X1856179Y1126789D01*
X1837989Y1144979D01*
X1815711Y1157842D01*
X1790862Y1164500D01*
X1765138D01*
X1740289Y1157842D01*
X1726215Y1149716D01*
X1673013Y1202918D01*
Y1269132D01*
X1675989Y1271608D01*
X1695609Y1268106D01*
X1699821Y1260811D01*
X1718011Y1242621D01*
X1740289Y1229758D01*
X1765138Y1223100D01*
X1790862D01*
X1815711Y1229758D01*
X1837989Y1242621D01*
X1856179Y1260811D01*
X1869042Y1283089D01*
X1875700Y1307938D01*
Y1333662D01*
X1869042Y1358511D01*
X1856179Y1380789D01*
X1837989Y1398979D01*
X1815711Y1411842D01*
X1803898Y1415007D01*
Y1524000D01*
X1801926Y1533911D01*
X1796312Y1542312D01*
X1753098Y1585527D01*
Y1601718D01*
X1757041Y1605661D01*
X1762400Y1618598D01*
Y1632602D01*
X1757041Y1645539D01*
X1747139Y1655441D01*
X1734202Y1660800D01*
X1720198D01*
X1707261Y1655441D01*
X1697359Y1645539D01*
X1692000Y1632602D01*
Y1618598D01*
X1697359Y1605661D01*
X1701302Y1601718D01*
Y1574800D01*
X1703274Y1564889D01*
X1708888Y1556488D01*
X1752102Y1513273D01*
Y1415007D01*
X1740289Y1411842D01*
X1718011Y1398979D01*
X1699821Y1380789D01*
X1695609Y1373494D01*
X1675989Y1369992D01*
X1673013Y1372468D01*
Y1706529D01*
X1761455Y1794972D01*
X1766227Y1802113D01*
X1767903Y1810537D01*
Y1873610D01*
X1766227Y1882034D01*
X1761456Y1889175D01*
X1740273Y1910358D01*
Y1916430D01*
X1738795Y1923863D01*
X1734584Y1930164D01*
Y1930636D01*
X1738795Y1936937D01*
X1740273Y1944370D01*
Y1967230D01*
X1738795Y1974663D01*
X1734584Y1980964D01*
X1728283Y1985174D01*
X1724973Y1990817D01*
X1733431Y2003624D01*
X1734652Y2003381D01*
X1757512D01*
X1764944Y2004860D01*
X1769260Y2007743D01*
X1773703D01*
X1778019Y2004860D01*
X1785452Y2003381D01*
X1808312D01*
X1815744Y2004860D01*
X1817612Y2006108D01*
X1821561Y2002159D01*
X1834498Y1996800D01*
X1848502D01*
X1861439Y2002159D01*
X1863862Y2004582D01*
X1879102Y1998270D01*
Y1941582D01*
X1875159Y1937639D01*
X1869800Y1924702D01*
Y1910698D01*
X1875159Y1897761D01*
X1885061Y1887859D01*
X1897998Y1882500D01*
X1912002D01*
X1924939Y1887859D01*
X1934841Y1897761D01*
X1934852Y1897788D01*
X1951348D01*
X1951359Y1897761D01*
X1961261Y1887859D01*
X1974198Y1882500D01*
X1988202D01*
X2001139Y1887859D01*
X2011041Y1897761D01*
X2016400Y1910698D01*
Y1924702D01*
X2011041Y1937639D01*
X2007098Y1941582D01*
Y2298700D01*
X2005126Y2308611D01*
X1999512Y2317012D01*
X1834412Y2482112D01*
X1826011Y2487726D01*
X1816100Y2489698D01*
X1787000D01*
Y2504000D01*
X1616600D01*
Y2489698D01*
X1422400D01*
X1412489Y2487726D01*
X1404088Y2482112D01*
X1334138Y2412162D01*
X1318898Y2418475D01*
Y2508700D01*
X1316926Y2518611D01*
X1311312Y2527012D01*
X1202800Y2635525D01*
Y2681800D01*
X1156047D01*
X1150364Y2695105D01*
X1159190Y2705805D01*
X1195300D01*
Y2791205D01*
X1129900D01*
Y2749826D01*
X1119380Y2739306D01*
X1105300Y2745138D01*
Y2791205D01*
X1102000D01*
Y2801002D01*
X1096641Y2813939D01*
X1086739Y2823841D01*
X1073802Y2829200D01*
X1068225D01*
X1008912Y2888512D01*
X1000511Y2894126D01*
X990600Y2896098D01*
X266276D01*
X255500Y2906874D01*
Y2912675D01*
X261959Y2920362D01*
X275700Y2923980D01*
D01*
X287020Y2928881D01*
Y2976880D01*
Y3023466D01*
X285865Y3022988D01*
X275700Y3029780D01*
Y3029780D01*
X233000D01*
Y2976880D01*
X207600D01*
Y3029780D01*
X164900D01*
Y3017080D01*
X92600D01*
Y2936680D01*
X110787D01*
Y2912675D01*
X100100D01*
Y2827275D01*
X165500D01*
Y2901990D01*
X177813Y2916054D01*
X187260D01*
X190100Y2912675D01*
X190100Y2908740D01*
Y2827275D01*
X255500D01*
Y2844302D01*
X979873D01*
X1031600Y2792575D01*
Y2786998D01*
X1036959Y2774061D01*
X1039900Y2771120D01*
Y2705805D01*
X1064955D01*
X1070639Y2692500D01*
X1061812Y2681800D01*
X1032400D01*
Y2601400D01*
X1163675D01*
X1267102Y2497973D01*
Y2363339D01*
X1256449Y2355769D01*
X1251862Y2354280D01*
X1243000Y2356043D01*
X1232192Y2353893D01*
X1223029Y2347771D01*
X1216907Y2338608D01*
X1214757Y2327800D01*
Y2273453D01*
X1214343Y2272386D01*
X1203414Y2261457D01*
X1202348Y2261043D01*
X1148000D01*
X1137192Y2258893D01*
X1128029Y2252771D01*
X1122660Y2244734D01*
X1121556Y2244605D01*
X1107420Y2253918D01*
Y2348782D01*
X1078743D01*
X1063900Y2363625D01*
Y2369202D01*
X1058541Y2382139D01*
X1048639Y2392041D01*
X1035702Y2397400D01*
X1029292D01*
X1019790Y2403372D01*
X1017200Y2411480D01*
Y2447700D01*
X911400D01*
Y2405000D01*
X924100D01*
Y2366977D01*
X868094Y2310971D01*
X842700D01*
Y2360554D01*
X850000D01*
X864866Y2363511D01*
X877469Y2371932D01*
X878369Y2372831D01*
X886789Y2385434D01*
X889747Y2400300D01*
X886789Y2415166D01*
X878369Y2427769D01*
X865766Y2436189D01*
X855400Y2438251D01*
Y2466699D01*
X775000D01*
Y2479399D01*
X762300D01*
Y2534800D01*
X717603D01*
Y2614908D01*
X716050Y2622712D01*
X711630Y2629327D01*
X706763Y2632579D01*
X706415Y2641598D01*
X708186Y2648563D01*
X725025Y2655538D01*
X740776Y2667624D01*
X752862Y2683375D01*
X760459Y2701716D01*
X761378Y2708700D01*
X647000D01*
X532621D01*
X533541Y2701716D01*
X541138Y2683375D01*
X553224Y2667624D01*
X568975Y2655538D01*
X581041Y2650540D01*
X578010Y2635300D01*
X335991D01*
X332959Y2650540D01*
X345025Y2655538D01*
X360776Y2667624D01*
X372862Y2683375D01*
X380459Y2701716D01*
X381379Y2708699D01*
X247000D01*
X112621D01*
X113541Y2701716D01*
X121138Y2683375D01*
X133224Y2667624D01*
X148975Y2655538D01*
X161041Y2650540D01*
X158009Y2635300D01*
X80066D01*
X67001Y2637899D01*
X54694Y2642996D01*
X43616Y2650398D01*
X38907Y2655107D01*
X34426Y2659589D01*
X27283Y2670063D01*
X22212Y2681683D01*
X19376Y2694094D01*
X19103Y2700441D01*
X19102Y4389966D01*
X19007Y4390446D01*
X19079Y4390931D01*
X18679Y4399391D01*
X21194Y4416144D01*
X26928Y4432086D01*
X35661Y4446601D01*
X47059Y4459136D01*
X60682Y4469205D01*
X76007Y4476425D01*
X92447Y4480516D01*
X100482Y4480897D01*
X4500000Y4480897D01*
D02*
G37*
G36*
X1706904Y4003040D02*
X1694135D01*
Y4048760D01*
X1706904D01*
Y4003040D01*
D02*
G37*
G36*
X1607865D02*
X1595096D01*
Y4048760D01*
X1607865D01*
Y4003040D01*
D02*
G37*
G36*
X1656104Y3878580D02*
X1643335D01*
Y3924300D01*
X1656104D01*
Y3878580D01*
D02*
G37*
G36*
X1548130D02*
X1535361D01*
Y3924300D01*
X1548130D01*
Y3878580D01*
D02*
G37*
G36*
X2214904Y3634740D02*
X2202135D01*
Y3680460D01*
X2214904D01*
Y3634740D01*
D02*
G37*
G36*
X2138704D02*
X2125935D01*
Y3680460D01*
X2138704D01*
Y3634740D01*
D02*
G37*
G36*
X2471424Y2806849D02*
Y2803226D01*
X2510324D01*
Y2790526D01*
X2523024D01*
Y2750125D01*
X2549223D01*
X2549224Y2750125D01*
Y2750125D01*
X2549224Y2750125D01*
X2562239Y2744754D01*
Y2691993D01*
X2562697Y2689690D01*
Y2651796D01*
X2561179Y2649945D01*
X2551300D01*
Y2640067D01*
X2549450Y2638548D01*
X2473950D01*
X2472810Y2638321D01*
X2375946Y2735185D01*
Y2759721D01*
X2391186Y2766034D01*
X2393061Y2764159D01*
X2405998Y2758800D01*
X2420002D01*
X2432939Y2764159D01*
X2442841Y2774061D01*
X2448200Y2786998D01*
Y2801002D01*
X2447098Y2803662D01*
X2456184Y2817261D01*
X2460447Y2817421D01*
X2471424Y2806849D01*
D02*
G37*
G36*
X3187793Y2397985D02*
X3187260Y2399442D01*
X3185659Y2400746D01*
X3182992Y2401897D01*
X3179259Y2402894D01*
X3174458Y2403738D01*
X3168591Y2404428D01*
X3153655Y2405349D01*
X3134453Y2405655D01*
Y2423435D01*
X3144588Y2423475D01*
X3185659Y2425957D01*
X3187260Y2426627D01*
X3187793Y2427375D01*
Y2397985D01*
D02*
G37*
G36*
X3528741Y2327378D02*
X3483069Y2281706D01*
X3404329D01*
X3356069Y2329966D01*
Y2377440D01*
X3528741D01*
Y2327378D01*
D02*
G37*
G36*
X1616600Y2322000D02*
X1786999D01*
X1787000Y2322000D01*
Y2322000D01*
X1800004Y2316271D01*
X1879102Y2237173D01*
Y2065730D01*
X1863862Y2059418D01*
X1861439Y2061841D01*
X1848502Y2067200D01*
X1834498D01*
X1821561Y2061841D01*
X1813596Y2053876D01*
X1808312Y2054928D01*
X1785452D01*
X1778019Y2053449D01*
X1771718Y2049239D01*
X1771246D01*
X1764944Y2053449D01*
X1757512Y2054928D01*
X1734652D01*
X1727219Y2053449D01*
X1726040Y2052661D01*
X1710800Y2057049D01*
Y2078720D01*
X1554811D01*
X1535165Y2098365D01*
X1533579Y2116388D01*
X1536996Y2119858D01*
X1540400Y2118800D01*
Y2118800D01*
X1710800D01*
Y2199200D01*
X1709835D01*
X1705420Y2214440D01*
X1706241Y2215261D01*
X1711600Y2228198D01*
Y2242202D01*
X1706241Y2255139D01*
X1696339Y2265041D01*
X1683402Y2270400D01*
X1669398D01*
X1656461Y2265041D01*
X1646559Y2255139D01*
X1641200Y2242202D01*
Y2228198D01*
X1646559Y2215261D01*
X1647380Y2214440D01*
X1642965Y2199200D01*
X1564443D01*
X1558611Y2213280D01*
X1564966Y2219635D01*
X1569737Y2226776D01*
X1570637Y2231300D01*
X1577100D01*
Y2275600D01*
X1589800D01*
Y2301800D01*
X1549400D01*
Y2327200D01*
X1589800D01*
Y2336302D01*
X1616600D01*
Y2322000D01*
D02*
G37*
G36*
X1794342Y2029154D02*
Y2021490D01*
X1748622D01*
Y2034259D01*
X1794342D01*
Y2029154D01*
D02*
G37*
G36*
X1546860Y1828800D02*
Y1821135D01*
X1501140D01*
Y1833904D01*
X1546860D01*
Y1828800D01*
D02*
G37*
G36*
X2080260Y1701800D02*
Y1694135D01*
X2034540D01*
Y1706904D01*
X2080260D01*
Y1701800D01*
D02*
G37*
G36*
X4573147Y2474600D02*
Y2360300D01*
X4179447D01*
Y2296800D01*
X4573147D01*
Y2246000D01*
Y2131700D01*
X4179447D01*
Y2068200D01*
X4573147D01*
Y2017400D01*
Y1903100D01*
X4179447D01*
Y1839600D01*
X4573147D01*
Y1788800D01*
Y1420500D01*
X4522347D01*
Y1788800D01*
X4128647D01*
Y1903100D01*
Y1953900D01*
X4522347D01*
Y2017400D01*
X4128647D01*
Y2068200D01*
Y2131700D01*
Y2182500D01*
X4522347D01*
Y2246000D01*
X4128647D01*
Y2296800D01*
Y2360300D01*
Y2411100D01*
X4522347D01*
Y2474600D01*
X3976247D01*
Y1781180D01*
X3925447D01*
Y2474600D01*
X3861947D01*
Y2477374D01*
X3861203Y2479367D01*
X3859892Y2481226D01*
X3858058Y2482838D01*
X3855699Y2484201D01*
X3852816Y2485317D01*
X3849408Y2486185D01*
X3845476Y2486804D01*
X3841020Y2487176D01*
X3836040Y2487300D01*
Y2512700D01*
X3841020Y2512824D01*
X3845476Y2513196D01*
X3849408Y2513816D01*
X3852816Y2514683D01*
X3855699Y2515799D01*
X3858058Y2517162D01*
X3859892Y2518774D01*
X3861203Y2520633D01*
X3861947Y2522626D01*
Y2525400D01*
X4573147D01*
Y2474600D01*
D02*
G37*
G36*
X1826260Y182882D02*
Y175217D01*
X1780540D01*
Y187986D01*
X1826260D01*
Y182882D01*
D02*
G37*
G36*
Y127000D02*
Y119335D01*
X1780540D01*
Y132104D01*
X1826260D01*
Y127000D01*
D02*
G37*
%LPC*%
G36*
X180301Y4346586D02*
Y4269100D01*
X257786D01*
X251839Y4291293D01*
X239938Y4311907D01*
X223107Y4328738D01*
X202493Y4340639D01*
X180301Y4346586D01*
D02*
G37*
G36*
X810299Y4346586D02*
Y4269100D01*
X887786D01*
X881839Y4291293D01*
X869938Y4311907D01*
X853107Y4328738D01*
X832493Y4340639D01*
X810299Y4346586D01*
D02*
G37*
G36*
X784899Y4346586D02*
X762707Y4340639D01*
X742093Y4328738D01*
X725262Y4311907D01*
X713361Y4291293D01*
X707414Y4269100D01*
X784899D01*
Y4346586D01*
D02*
G37*
G36*
X154901Y4346586D02*
X132707Y4340639D01*
X112093Y4328738D01*
X95262Y4311907D01*
X83361Y4291293D01*
X77414Y4269100D01*
X154901D01*
Y4346586D01*
D02*
G37*
G36*
X257786Y4243700D02*
X180301D01*
Y4166214D01*
X202493Y4172161D01*
X223107Y4184062D01*
X239938Y4200893D01*
X251839Y4221507D01*
X257786Y4243700D01*
D02*
G37*
G36*
X784899D02*
X707414D01*
X713361Y4221507D01*
X725262Y4200893D01*
X742093Y4184062D01*
X762707Y4172161D01*
X784899Y4166214D01*
Y4243700D01*
D02*
G37*
G36*
X887786D02*
X810299D01*
Y4166214D01*
X832493Y4172161D01*
X853107Y4184062D01*
X869938Y4200893D01*
X881839Y4221507D01*
X887786Y4243700D01*
D02*
G37*
G36*
X154901D02*
X77414D01*
X83361Y4221507D01*
X95262Y4200893D01*
X112093Y4184062D01*
X132707Y4172161D01*
X154901Y4166214D01*
Y4243700D01*
D02*
G37*
G36*
X4078534Y4225200D02*
X4076700D01*
Y4127500D01*
X4174400D01*
Y4129334D01*
X4166876Y4157413D01*
X4152342Y4182587D01*
X4131787Y4203142D01*
X4106613Y4217676D01*
X4078534Y4225200D01*
D02*
G37*
G36*
X3824534D02*
X3822700D01*
Y4127500D01*
X3920400D01*
Y4129334D01*
X3912876Y4157413D01*
X3898342Y4182587D01*
X3877787Y4203142D01*
X3852613Y4217676D01*
X3824534Y4225200D01*
D02*
G37*
G36*
X4051300D02*
X4049466D01*
X4021387Y4217676D01*
X3996213Y4203142D01*
X3975658Y4182587D01*
X3961124Y4157413D01*
X3953600Y4129334D01*
Y4127500D01*
X4051300D01*
Y4225200D01*
D02*
G37*
G36*
X3797300D02*
X3795466D01*
X3767387Y4217676D01*
X3742213Y4203142D01*
X3721658Y4182587D01*
X3707124Y4157413D01*
X3699600Y4129334D01*
Y4127500D01*
X3797300D01*
Y4225200D01*
D02*
G37*
G36*
X2806862Y4212500D02*
X2781138D01*
X2756289Y4205842D01*
X2734011Y4192979D01*
X2715821Y4174789D01*
X2702958Y4152511D01*
X2696300Y4127662D01*
Y4101938D01*
X2702958Y4077089D01*
X2715821Y4054811D01*
X2734011Y4036621D01*
X2756289Y4023758D01*
X2781138Y4017100D01*
X2806862D01*
X2831711Y4023758D01*
X2853989Y4036621D01*
X2872179Y4054811D01*
X2885042Y4077089D01*
X2891700Y4101938D01*
Y4127662D01*
X2885042Y4152511D01*
X2872179Y4174789D01*
X2853989Y4192979D01*
X2831711Y4205842D01*
X2806862Y4212500D01*
D02*
G37*
G36*
X4174400Y4102100D02*
X4076700D01*
Y4004400D01*
X4078534D01*
X4106613Y4011924D01*
X4131787Y4026458D01*
X4152342Y4047013D01*
X4166876Y4072187D01*
X4174400Y4100266D01*
Y4102100D01*
D02*
G37*
G36*
X4051300D02*
X3953600D01*
Y4100266D01*
X3961124Y4072187D01*
X3975658Y4047013D01*
X3996213Y4026458D01*
X4021387Y4011924D01*
X4049466Y4004400D01*
X4051300D01*
Y4102100D01*
D02*
G37*
G36*
X3920400D02*
X3822700D01*
Y4004400D01*
X3824534D01*
X3852613Y4011924D01*
X3877787Y4026458D01*
X3898342Y4047013D01*
X3912876Y4072187D01*
X3920400Y4100266D01*
Y4102100D01*
D02*
G37*
G36*
X3797300D02*
X3699600D01*
Y4100266D01*
X3707124Y4072187D01*
X3721658Y4047013D01*
X3742213Y4026458D01*
X3767387Y4011924D01*
X3795466Y4004400D01*
X3797300D01*
Y4102100D01*
D02*
G37*
G36*
X2781300Y3971200D02*
X2779466D01*
X2751387Y3963676D01*
X2726213Y3949142D01*
X2705658Y3928587D01*
X2691124Y3903413D01*
X2683600Y3875334D01*
Y3873500D01*
X2781300D01*
Y3971200D01*
D02*
G37*
G36*
X4076862Y3958500D02*
X4051138D01*
X4026289Y3951842D01*
X4004011Y3938979D01*
X3985821Y3920789D01*
X3972958Y3898511D01*
X3966300Y3873662D01*
Y3847938D01*
X3972958Y3823089D01*
X3985821Y3800811D01*
X4004011Y3782621D01*
X4026289Y3769758D01*
X4051138Y3763100D01*
X4076862D01*
X4101711Y3769758D01*
X4123989Y3782621D01*
X4142179Y3800811D01*
X4155042Y3823089D01*
X4161700Y3847938D01*
Y3873662D01*
X4155042Y3898511D01*
X4142179Y3920789D01*
X4123989Y3938979D01*
X4101711Y3951842D01*
X4076862Y3958500D01*
D02*
G37*
G36*
X3822862D02*
X3797138D01*
X3772289Y3951842D01*
X3750011Y3938979D01*
X3731821Y3920789D01*
X3718958Y3898511D01*
X3712300Y3873662D01*
Y3847938D01*
X3718958Y3823089D01*
X3731821Y3800811D01*
X3750011Y3782621D01*
X3772289Y3769758D01*
X3797138Y3763100D01*
X3822862D01*
X3847711Y3769758D01*
X3869989Y3782621D01*
X3888179Y3800811D01*
X3901042Y3823089D01*
X3907700Y3847938D01*
Y3873662D01*
X3901042Y3898511D01*
X3888179Y3920789D01*
X3869989Y3938979D01*
X3847711Y3951842D01*
X3822862Y3958500D01*
D02*
G37*
G36*
X2781300Y3848100D02*
X2683600D01*
Y3846266D01*
X2691124Y3818187D01*
X2705658Y3793013D01*
X2726213Y3772458D01*
X2751387Y3757924D01*
X2779466Y3750400D01*
X2781300D01*
Y3848100D01*
D02*
G37*
G36*
X845300Y4019100D02*
X719900D01*
Y3743700D01*
X798763D01*
X836131Y3706331D01*
X848734Y3697911D01*
X863600Y3694953D01*
X878466Y3697911D01*
X891069Y3706331D01*
X899489Y3718934D01*
X902447Y3733800D01*
X899489Y3748666D01*
X891069Y3761269D01*
X845300Y3807037D01*
Y4019100D01*
D02*
G37*
G36*
X1013228Y3561420D02*
X975528D01*
Y3523719D01*
X1013228D01*
Y3561420D01*
D02*
G37*
G36*
Y3498319D02*
X975528D01*
Y3460620D01*
X992458D01*
X1005593Y3455539D01*
X1005594Y3448444D01*
Y3340140D01*
X1090994D01*
Y3455540D01*
X1026364D01*
X1013229Y3460620D01*
X1013228Y3467715D01*
Y3498319D01*
D02*
G37*
G36*
X645300Y4019100D02*
X519900D01*
Y3743700D01*
X545353D01*
Y3695700D01*
Y3479800D01*
X548311Y3464934D01*
X556731Y3452331D01*
X638692Y3370371D01*
X651294Y3361950D01*
X666160Y3358993D01*
X815594D01*
Y3340140D01*
X900994D01*
Y3451432D01*
X903436Y3453394D01*
X916661Y3460619D01*
X916660Y3460620D01*
X916661Y3460620D01*
X950128D01*
Y3511019D01*
Y3561420D01*
X916661D01*
X916661Y3561420D01*
X912427D01*
X906296Y3548720D01*
X897188Y3548720D01*
X835128D01*
Y3473320D01*
X850815D01*
Y3455540D01*
X815594D01*
Y3436686D01*
X682251D01*
X623047Y3495891D01*
Y3695700D01*
Y3743700D01*
X645300D01*
Y4019100D01*
D02*
G37*
G36*
X4416025Y3662700D02*
X4383975D01*
X4352542Y3656448D01*
X4322933Y3644183D01*
X4296285Y3626377D01*
X4273623Y3603715D01*
X4255817Y3577068D01*
X4243553Y3547458D01*
X4237300Y3516025D01*
Y3483976D01*
X4243553Y3452542D01*
X4255817Y3422933D01*
X4273623Y3396285D01*
X4296285Y3373623D01*
X4322933Y3355817D01*
X4352542Y3343553D01*
X4383975Y3337300D01*
X4416025D01*
X4447458Y3343553D01*
X4477067Y3355817D01*
X4503715Y3373623D01*
X4526377Y3396285D01*
X4544183Y3422933D01*
X4556448Y3452542D01*
X4562700Y3483976D01*
Y3516025D01*
X4556448Y3547458D01*
X4544183Y3577068D01*
X4526377Y3603715D01*
X4503715Y3626377D01*
X4477067Y3644183D01*
X4447458Y3656448D01*
X4416025Y3662700D01*
D02*
G37*
G36*
X216025D02*
X183976D01*
X152542Y3656448D01*
X122933Y3644183D01*
X96285Y3626377D01*
X73623Y3603715D01*
X55817Y3577068D01*
X43553Y3547458D01*
X37300Y3516025D01*
Y3483976D01*
X43553Y3452542D01*
X55817Y3422933D01*
X73623Y3396285D01*
X96285Y3373623D01*
X122933Y3355817D01*
X152542Y3343553D01*
X183976Y3337300D01*
X216025D01*
X247458Y3343553D01*
X277068Y3355817D01*
X303715Y3373623D01*
X326377Y3396285D01*
X344183Y3422933D01*
X356448Y3452542D01*
X362700Y3483976D01*
Y3516025D01*
X356448Y3547458D01*
X344183Y3577068D01*
X326377Y3603715D01*
X303715Y3626377D01*
X277068Y3644183D01*
X247458Y3656448D01*
X216025Y3662700D01*
D02*
G37*
G36*
X4444668Y3235953D02*
X4321967D01*
Y3170753D01*
X4444668D01*
Y3235953D01*
D02*
G37*
G36*
X4296567D02*
X4173867D01*
Y3170753D01*
X4296567D01*
Y3235953D01*
D02*
G37*
G36*
X4444668Y3145353D02*
X4321967D01*
Y3080153D01*
X4444668D01*
Y3145353D01*
D02*
G37*
G36*
X1008606Y3267907D02*
X896394D01*
X887970Y3266231D01*
X880829Y3261459D01*
X842729Y3223359D01*
X837957Y3216218D01*
X836281Y3207794D01*
Y3205540D01*
X815594D01*
Y3090140D01*
X849631D01*
Y3069204D01*
X849329D01*
Y3067401D01*
X639664D01*
X639441Y3067939D01*
X629539Y3077841D01*
X616602Y3083200D01*
X602598D01*
X589661Y3077841D01*
X579759Y3067939D01*
X574400Y3055002D01*
Y3040998D01*
X579759Y3028061D01*
X589661Y3018159D01*
X602598Y3012800D01*
X616602D01*
X623376Y3015606D01*
X849329D01*
Y3013804D01*
X893629D01*
Y3001104D01*
X919828D01*
Y3041503D01*
X932528D01*
Y3054203D01*
X971429D01*
Y3077440D01*
X1008694D01*
Y3090140D01*
X1090994D01*
Y3205540D01*
X1070307D01*
Y3206206D01*
X1068631Y3214630D01*
X1063859Y3221772D01*
X1024171Y3261459D01*
X1017030Y3266231D01*
X1008606Y3267907D01*
D02*
G37*
G36*
X2308860Y3067200D02*
X2271160D01*
Y3029500D01*
X2308860D01*
Y3067200D01*
D02*
G37*
G36*
X971429Y3028803D02*
X945228D01*
Y3001104D01*
X971429D01*
Y3028803D01*
D02*
G37*
G36*
X312420Y3023466D02*
Y2989580D01*
X346306D01*
X340327Y3004013D01*
X326853Y3017487D01*
X312420Y3023466D01*
D02*
G37*
G36*
X346306Y2964180D02*
X312420D01*
Y2930294D01*
X326853Y2936273D01*
X340327Y2949747D01*
X346306Y2964180D01*
D02*
G37*
G36*
X4444668Y2940953D02*
X4321968D01*
Y2875753D01*
X4444668D01*
Y2940953D01*
D02*
G37*
G36*
Y2850353D02*
X4321968D01*
Y2785153D01*
X4444668D01*
Y2850353D01*
D02*
G37*
G36*
X4296568D02*
X4173867D01*
Y2785153D01*
X4296568D01*
Y2850353D01*
D02*
G37*
G36*
X3236680Y2799569D02*
X3208980D01*
Y2773369D01*
X3236680D01*
Y2799569D01*
D02*
G37*
G36*
X687000Y2797451D02*
X659700D01*
Y2734100D01*
X761379D01*
X760459Y2741083D01*
X752862Y2759425D01*
X740776Y2775176D01*
X725025Y2787262D01*
X706683Y2794859D01*
X687000Y2797451D01*
D02*
G37*
G36*
X634300D02*
X607000D01*
X587317Y2794859D01*
X568975Y2787262D01*
X553224Y2775176D01*
X541138Y2759425D01*
X533541Y2741083D01*
X532621Y2734100D01*
X634300D01*
Y2797451D01*
D02*
G37*
G36*
X307000D02*
X259700D01*
Y2734099D01*
X381379D01*
X380459Y2741083D01*
X372862Y2759425D01*
X360776Y2775176D01*
X345025Y2787262D01*
X326684Y2794859D01*
X307000Y2797451D01*
D02*
G37*
G36*
X234300D02*
X187000D01*
X167316Y2794859D01*
X148975Y2787262D01*
X133224Y2775176D01*
X121138Y2759425D01*
X113541Y2741083D01*
X112621Y2734099D01*
X234300D01*
Y2797451D01*
D02*
G37*
G36*
X977000Y2576658D02*
Y2542772D01*
X1010886D01*
X1004908Y2557205D01*
X991433Y2570679D01*
X977000Y2576658D01*
D02*
G37*
G36*
X951600D02*
X937167Y2570679D01*
X923693Y2557205D01*
X917714Y2542772D01*
X951600D01*
Y2576658D01*
D02*
G37*
G36*
X855400Y2534800D02*
X787700D01*
Y2492099D01*
X855400D01*
Y2534800D01*
D02*
G37*
G36*
X3489421Y2507680D02*
X3463222D01*
Y2479980D01*
X3489421D01*
Y2507680D01*
D02*
G37*
G36*
X1014320Y2517372D02*
X914281D01*
X913230Y2515800D01*
X911400D01*
Y2473100D01*
X1017200D01*
Y2515800D01*
X1015370D01*
X1014320Y2517372D01*
D02*
G37*
G36*
X2990267Y1918865D02*
X2962567D01*
Y1892666D01*
X2990267D01*
Y1918865D01*
D02*
G37*
G36*
X2036330Y1876083D02*
X2021897Y1870105D01*
X2008422Y1856631D01*
X2002444Y1842197D01*
X2036330D01*
Y1876083D01*
D02*
G37*
G36*
X1968140Y1866420D02*
X1935440D01*
Y1823720D01*
X1968140D01*
Y1866420D01*
D02*
G37*
G36*
X1234200Y1838400D02*
X1206500D01*
Y1812200D01*
X1234200D01*
Y1838400D01*
D02*
G37*
G36*
X1181100D02*
X1153400D01*
Y1812200D01*
X1181100D01*
Y1838400D01*
D02*
G37*
G36*
X855400Y1826700D02*
X787700D01*
Y1784000D01*
X855400D01*
Y1826700D01*
D02*
G37*
G36*
X999086Y1803400D02*
X965200D01*
Y1769514D01*
X979633Y1775493D01*
X993107Y1788967D01*
X999086Y1803400D01*
D02*
G37*
G36*
X939800D02*
X905914D01*
X911893Y1788967D01*
X925367Y1775493D01*
X939800Y1769514D01*
Y1803400D01*
D02*
G37*
G36*
X761378Y1584700D02*
X659700D01*
Y1521350D01*
X687000D01*
X706683Y1523941D01*
X725025Y1531538D01*
X740776Y1543624D01*
X752862Y1559375D01*
X760459Y1577717D01*
X761378Y1584700D01*
D02*
G37*
G36*
X634300D02*
X532621D01*
X533541Y1577717D01*
X541138Y1559375D01*
X553224Y1543624D01*
X568975Y1531538D01*
X587317Y1523941D01*
X607000Y1521350D01*
X634300D01*
Y1584700D01*
D02*
G37*
G36*
X381379Y1584700D02*
X259700D01*
Y1521350D01*
X307000D01*
X326684Y1523941D01*
X345025Y1531538D01*
X360776Y1543624D01*
X372862Y1559375D01*
X380459Y1577717D01*
X381379Y1584700D01*
D02*
G37*
G36*
X234300D02*
X112621D01*
X113541Y1577717D01*
X121138Y1559375D01*
X133224Y1543624D01*
X148975Y1531538D01*
X167316Y1523941D01*
X187000Y1521350D01*
X234300D01*
Y1584700D01*
D02*
G37*
G36*
X1030400Y1365100D02*
X900000D01*
Y1333998D01*
X615400D01*
Y1365100D01*
X485000D01*
Y1274700D01*
X615400D01*
Y1282202D01*
X900000D01*
Y1274700D01*
X910352D01*
X917300Y1264302D01*
Y1250298D01*
X922659Y1237361D01*
X932561Y1227459D01*
X945498Y1222100D01*
X959502D01*
X972439Y1227459D01*
X982341Y1237361D01*
X987700Y1250298D01*
Y1264302D01*
X994648Y1274700D01*
X1030400D01*
Y1365100D01*
D02*
G37*
G36*
Y1150100D02*
X900000D01*
Y1118098D01*
X615400D01*
Y1150100D01*
X485000D01*
Y1059700D01*
X615400D01*
Y1066302D01*
X900000D01*
Y1059700D01*
X939302D01*
Y1027182D01*
X935359Y1023239D01*
X930000Y1010302D01*
Y996298D01*
X935359Y983361D01*
X945261Y973459D01*
X958198Y968100D01*
X972202D01*
X985139Y973459D01*
X995041Y983361D01*
X1000400Y996298D01*
Y1010302D01*
X995041Y1023239D01*
X991098Y1027182D01*
Y1059700D01*
X1030400D01*
Y1150100D01*
D02*
G37*
G36*
X1538534Y1177200D02*
X1536700D01*
Y1079500D01*
X1634400D01*
Y1081334D01*
X1626876Y1109413D01*
X1612342Y1134587D01*
X1591787Y1155142D01*
X1566613Y1169676D01*
X1538534Y1177200D01*
D02*
G37*
G36*
X1511300D02*
X1509466D01*
X1481387Y1169676D01*
X1456213Y1155142D01*
X1435658Y1134587D01*
X1421124Y1109413D01*
X1413600Y1081334D01*
Y1079500D01*
X1511300D01*
Y1177200D01*
D02*
G37*
G36*
X1634400Y1054100D02*
X1536700D01*
Y956400D01*
X1538534D01*
X1566613Y963924D01*
X1591787Y978458D01*
X1612342Y999013D01*
X1626876Y1024187D01*
X1634400Y1052266D01*
Y1054100D01*
D02*
G37*
G36*
X1511300D02*
X1413600D01*
Y1052266D01*
X1421124Y1024187D01*
X1435658Y999013D01*
X1456213Y978458D01*
X1481387Y963924D01*
X1509466Y956400D01*
X1511300D01*
Y1054100D01*
D02*
G37*
G36*
X216025Y1162700D02*
X183976D01*
X152542Y1156448D01*
X122933Y1144183D01*
X96285Y1126377D01*
X73623Y1103715D01*
X55817Y1077067D01*
X43553Y1047458D01*
X37300Y1016025D01*
Y983975D01*
X43553Y952542D01*
X55817Y922933D01*
X73623Y896285D01*
X96285Y873623D01*
X122933Y855817D01*
X152542Y843553D01*
X183976Y837300D01*
X216025D01*
X247458Y843553D01*
X277068Y855817D01*
X303715Y873623D01*
X326377Y896285D01*
X344183Y922933D01*
X356448Y952542D01*
X362700Y983975D01*
Y1016025D01*
X356448Y1047458D01*
X344183Y1077067D01*
X326377Y1103715D01*
X303715Y1126377D01*
X277068Y1144183D01*
X247458Y1156448D01*
X216025Y1162700D01*
D02*
G37*
G36*
X1740200Y869600D02*
X1695000D01*
Y804400D01*
X1740200D01*
Y869600D01*
D02*
G37*
G36*
X1257600D02*
X1212400D01*
Y804400D01*
X1257600D01*
Y869600D01*
D02*
G37*
G36*
X1669600D02*
X1624400D01*
Y804400D01*
X1669600D01*
Y869600D01*
D02*
G37*
G36*
X1187000D02*
X1141800D01*
Y804400D01*
X1187000D01*
Y869600D01*
D02*
G37*
G36*
X1740200Y779000D02*
X1695000D01*
Y713800D01*
X1740200D01*
Y779000D01*
D02*
G37*
G36*
X1669600D02*
X1624400D01*
Y713800D01*
X1669600D01*
Y779000D01*
D02*
G37*
G36*
X1257600D02*
X1212400D01*
Y713800D01*
X1257600D01*
Y779000D01*
D02*
G37*
G36*
X1187000D02*
X1141800D01*
Y713800D01*
X1187000D01*
Y779000D01*
D02*
G37*
G36*
X101600Y699247D02*
X86734Y696289D01*
X74131Y687869D01*
X65711Y675266D01*
X62753Y660400D01*
Y463400D01*
X65711Y448534D01*
X74131Y435932D01*
X78586Y431477D01*
X86600Y419900D01*
X86600D01*
X86600Y419899D01*
Y393700D01*
X127000D01*
X167400D01*
Y399154D01*
X202100D01*
Y374000D01*
X297500D01*
Y374000D01*
X312100D01*
Y374000D01*
X312740Y374000D01*
X407500D01*
Y469400D01*
X348725D01*
X313604Y504520D01*
X319436Y518600D01*
X390000D01*
Y532902D01*
X433318D01*
X437261Y528959D01*
X450198Y523600D01*
X464202D01*
X477139Y528959D01*
X487041Y538861D01*
X492400Y551798D01*
Y565802D01*
X487041Y578739D01*
X477139Y588641D01*
X464202Y594000D01*
X450198D01*
X437261Y588641D01*
X433318Y584698D01*
X390000D01*
Y599000D01*
X219600D01*
Y518600D01*
X242420D01*
Y513183D01*
X244391Y503272D01*
X250005Y494870D01*
X261296Y483579D01*
X251581Y471741D01*
X248366Y473890D01*
X233500Y476847D01*
X143091D01*
X140447Y479491D01*
Y660400D01*
X137489Y675266D01*
X129069Y687869D01*
X116466Y696289D01*
X101600Y699247D01*
D02*
G37*
G36*
X1740200Y454600D02*
X1695000D01*
Y389400D01*
X1740200D01*
Y454600D01*
D02*
G37*
G36*
X1257600D02*
X1212400D01*
Y389400D01*
X1257600D01*
Y454600D01*
D02*
G37*
G36*
X1669600D02*
X1624400D01*
Y389400D01*
X1669600D01*
Y454600D01*
D02*
G37*
G36*
X1187000D02*
X1141800D01*
Y389400D01*
X1187000D01*
Y454600D01*
D02*
G37*
G36*
X167400Y368300D02*
X139700D01*
Y342100D01*
X167400D01*
Y368300D01*
D02*
G37*
G36*
X114300D02*
X86600D01*
Y342100D01*
X114300D01*
Y368300D01*
D02*
G37*
G36*
X1740200Y364000D02*
X1695000D01*
Y298800D01*
X1740200D01*
Y364000D01*
D02*
G37*
G36*
X1669600D02*
X1624400D01*
Y298800D01*
X1669600D01*
Y364000D01*
D02*
G37*
G36*
X1257600D02*
X1212400D01*
Y298800D01*
X1257600D01*
Y364000D01*
D02*
G37*
G36*
X1187000D02*
X1141800D01*
Y298800D01*
X1187000D01*
Y364000D01*
D02*
G37*
G36*
X372500Y299100D02*
Y251400D01*
X420200D01*
Y299100D01*
X372500D01*
D02*
G37*
G36*
X420200Y226000D02*
X372500D01*
Y178300D01*
X420200D01*
Y226000D01*
D02*
G37*
G36*
X299399Y299100D02*
X293268Y286400D01*
X284160Y286400D01*
X202100D01*
Y191000D01*
X293268Y191000D01*
X299399Y178299D01*
X303633Y178300D01*
X303633Y178300D01*
X347100D01*
Y238700D01*
Y299100D01*
X303633D01*
Y299100D01*
X303632D01*
X299399D01*
D02*
G37*
G36*
X2497624Y2777826D02*
X2471424D01*
Y2750125D01*
X2497624D01*
Y2777826D01*
D02*
G37*
%LPD*%
D10*
X3659480Y2526304D02*
G03*
X3567849Y2488349I0J-129585D01*
G01*
D02*
G03*
X3559122Y2467280I21069J-21069D01*
G01*
X3761367Y2714241D02*
G03*
X3736836Y2661977I72579J-65957D01*
G01*
X3736835D02*
G03*
X3735620Y2644649I122898J-17327D01*
G01*
X3835400Y2556360D02*
X3835669Y2600330D01*
X3783604Y2526304D02*
X3784600Y2527300D01*
X3734612Y2526304D02*
X3783604D01*
X3472180Y2826925D02*
X3484283Y2839027D01*
X3472180Y2806967D02*
Y2826925D01*
X3384283Y2719070D02*
X3472180Y2806967D01*
X3384283Y2704027D02*
Y2719070D01*
X3502122Y2467280D02*
Y2514062D01*
X3502660Y2514600D01*
X3441700Y2361802D02*
X3487818D01*
X3495040Y2354580D01*
X3441700Y2321560D02*
Y2361802D01*
X2791897Y2878053D02*
X2804900D01*
X2801539Y2881414D02*
Y2927493D01*
X2779112Y2875758D02*
Y2983963D01*
X2758644Y2844800D02*
X2791897Y2878053D01*
X2743200Y3073400D02*
Y3175000D01*
Y3073400D02*
X2746100Y3070500D01*
X2757487Y2846387D02*
Y2979215D01*
X2755900Y2844800D02*
X2757487Y2846387D01*
X2746100Y2990602D02*
X2757487Y2979215D01*
X2746100Y2990602D02*
Y3070500D01*
X2755900Y2844800D02*
X2756460Y2844240D01*
Y2791460D02*
Y2844240D01*
X2755900Y2844800D02*
X2758644D01*
X2717800Y2540000D02*
X2743200Y2565400D01*
X2628900D02*
X2654300Y2540000D01*
X2717800D01*
X962828Y3563774D02*
X965994Y3566940D01*
X962828Y3511020D02*
Y3563774D01*
X2324100Y3016800D02*
Y3073400D01*
X976775Y3041504D02*
X977354Y3042083D01*
X2509520Y2733040D02*
Y2788721D01*
X932529Y3127075D02*
X953294Y3147840D01*
X933300Y3041504D02*
X976775D01*
X932529D02*
Y3127075D01*
X220300Y2976880D02*
X299720D01*
X964300Y2460400D02*
Y2530072D01*
X952500Y1816100D02*
Y1872111D01*
X355600Y177800D02*
Y228600D01*
X1212894Y1981200D02*
X1243000D01*
X1175500Y2018594D02*
Y2082800D01*
X1212894Y1981200D02*
X1219200D01*
X1175500Y2018594D02*
X1212894Y1981200D01*
X1243000D02*
Y2015300D01*
X1206500Y1908100D02*
X1243000Y1944600D01*
Y1981200D01*
X1072600Y2748505D02*
Y2773973D01*
Y2743200D02*
Y2748505D01*
X1193800Y1908100D02*
X1206500D01*
X1146100D02*
X1193800D01*
X3834440Y2428240D02*
X3835400Y2429200D01*
Y2499360D01*
X3836040Y2500000D01*
X3887347D01*
X336070Y558800D02*
X457200D01*
X3659480Y2526304D02*
X3694612D01*
X3819682Y2717800D02*
X3869554Y2719687D01*
X3735620Y2567312D02*
Y2644649D01*
X3734612Y2566304D02*
X3735620Y2567312D01*
X3734612Y2468068D02*
Y2486304D01*
Y2468068D02*
X3774440Y2428240D01*
X3238500Y1104900D02*
Y2032000D01*
X3365500Y1206500D02*
Y2032000D01*
X3302000Y1143000D02*
Y2032000D01*
X3365500Y1206500D02*
X3937000Y635000D01*
X3810000Y558800D02*
Y635000D01*
X3302000Y1143000D02*
X3810000Y635000D01*
X3238500Y1104900D02*
X3683000Y660400D01*
X3175000Y1016000D02*
X3556000Y635000D01*
X3175000Y1016000D02*
Y1879600D01*
X3556000Y558800D02*
Y635000D01*
X3111500Y949418D02*
Y1822598D01*
Y949418D02*
X3429000Y631918D01*
Y410140D02*
Y631918D01*
X3559922Y2464980D02*
X3560600Y2464302D01*
Y2413000D02*
Y2464302D01*
X3175000Y3556000D02*
X3429000Y3810000D01*
X3175000Y3035300D02*
Y3556000D01*
X3429000Y3937000D02*
X3556000Y4064000D01*
X3429000Y3810000D02*
Y3937000D01*
X3556000Y4064000D02*
Y4114800D01*
X3238500Y3035300D02*
Y3517900D01*
X3556000Y3835400D01*
Y3860800D01*
X3262480Y2412042D02*
Y2466340D01*
X3267155Y2410092D02*
X3328663D01*
X3461530Y2412680D02*
X3500600D01*
X3394235D02*
X3461530D01*
X1827094Y1711806D02*
X1837100Y1701800D01*
X1827094Y1711806D02*
Y1804006D01*
X1824440Y1701800D02*
X1831454Y1694786D01*
X1922100Y1701800D02*
X2032000D01*
X1293000Y2300300D02*
Y2508700D01*
X1160100Y2641600D02*
X1293000Y2508700D01*
X1075100Y2641600D02*
Y2658401D01*
X1154946Y2738247D01*
X1028700Y2362200D02*
X1067220Y2323680D01*
Y2306082D02*
Y2323680D01*
X1308100Y3319100D02*
X1320800Y3306400D01*
X1308100Y3319100D02*
Y3352800D01*
Y3293700D02*
X1320800Y3306400D01*
X1422400Y3293700D02*
Y3352800D01*
X858294Y3147840D02*
X875529Y3130605D01*
Y3041504D02*
Y3130605D01*
X609600Y3048000D02*
X616096Y3041504D01*
X875529D01*
X562000Y1308100D02*
X953400D01*
X965200Y1319900D01*
X550200D02*
X562000Y1308100D01*
X952500Y1307200D02*
X965200Y1319900D01*
X952500Y1257300D02*
Y1307200D01*
X1668100Y2150700D02*
X1676400Y2159000D01*
Y2235200D01*
X1778000Y1320800D02*
Y1524000D01*
X1727200Y1574800D02*
Y1625600D01*
Y1574800D02*
X1778000Y1524000D01*
X1524000Y2159000D02*
X1583100D01*
X1497800Y2132800D02*
X1524000Y2159000D01*
X1460500Y2132800D02*
X1497800D01*
X1143000Y1905000D02*
X1146100Y1908100D01*
X1343000Y2384400D02*
X1422400Y2463800D01*
X1659300D01*
X1343000Y2300300D02*
Y2384400D01*
X1393000Y2332800D02*
X1422400Y2362200D01*
X1656800D01*
X1393000Y2300300D02*
Y2332800D01*
X990600Y2870200D02*
X1066800Y2794000D01*
X226424Y2870200D02*
X990600D01*
X551988Y1092200D02*
X952500D01*
X965200Y1003300D02*
Y1092200D01*
X1067573Y2779000D02*
Y2793227D01*
Y2779000D02*
X1072600Y2773973D01*
X1744300Y2463800D02*
X1816100D01*
X1981200Y2298700D01*
X2324100Y2908848D02*
X2388148Y2844800D01*
X2324100Y2908848D02*
Y2926800D01*
X2388148Y2844800D02*
X2413000D01*
X2523450D02*
X2566324Y2801926D01*
Y2790525D02*
Y2801926D01*
X2858060Y2931160D02*
Y2991560D01*
X2087907Y1715366D02*
Y1770407D01*
X2324100Y2006600D01*
X2087907Y1434234D02*
Y1715366D01*
Y868707D02*
Y1168400D01*
Y1346200D02*
Y1359766D01*
Y1168400D02*
Y1346200D01*
Y1359766D02*
Y1434234D01*
X1905000Y685800D02*
X2087907Y868707D01*
X1905000Y431800D02*
X2032000Y304800D01*
X1905000Y431800D02*
Y685800D01*
X2159000Y1752600D02*
X2366433Y1960033D01*
X2159000Y812800D02*
Y1752600D01*
X2222500Y685800D02*
Y1714500D01*
X2413000Y1905000D01*
X2286000Y558800D02*
Y1689100D01*
X2476500Y1879600D01*
X1905000Y1917700D02*
Y2247900D01*
X1789260Y2363640D02*
X1905000Y2247900D01*
X1981200Y1917700D02*
Y2298700D01*
X2032000Y558800D02*
Y685800D01*
X2159000Y812800D01*
X2324100Y2197100D02*
X2362200Y2235200D01*
X2324100Y2171700D02*
Y2197100D01*
X2362200Y2235200D02*
X2385500D01*
X2403427Y2253127D01*
X3158611Y2667000D02*
X3196280Y2704669D01*
X3138265Y2667000D02*
X3158611D01*
X3112269D02*
X3138265D01*
X2413000Y2844800D02*
X2523450D01*
X2413000Y2794000D02*
Y2844800D01*
X2403427Y2253127D02*
X2454911D01*
X1299794Y3208700D02*
X1327295D01*
X1512805Y3198895D02*
X1648900D01*
X3937000Y431800D02*
Y635000D01*
Y431800D02*
X4064000Y304800D01*
X2730500Y723900D02*
Y1638300D01*
X2794000Y558800D02*
Y660400D01*
X2730500Y723900D02*
X2794000Y660400D01*
X2349500Y695418D02*
X2413000Y631918D01*
X2349500Y1663700D02*
X2554667Y1868867D01*
X2349500Y695418D02*
Y1663700D01*
X2554667Y1868867D02*
X2554667D01*
X2413000Y431800D02*
X2540000Y304800D01*
X2413000Y431800D02*
Y631918D01*
X1744300Y2362200D02*
X1745740Y2363640D01*
X1789260D01*
X3111500Y3641335D02*
X3302000Y3831835D01*
X3111500Y3035300D02*
Y3641335D01*
X3302000Y3831835D02*
Y3860800D01*
X2921000Y431800D02*
X3048000Y304800D01*
X2921000Y431800D02*
Y685800D01*
X2794000Y812800D02*
X2921000Y685800D01*
X2794000Y812800D02*
Y1638300D01*
X2540000Y558800D02*
Y635000D01*
X2413000Y762000D02*
X2540000Y635000D01*
X2413000Y1638300D02*
X2603500Y1828800D01*
X2413000Y762000D02*
Y1638300D01*
X3429000Y410140D02*
X3534340Y304800D01*
X3556000D01*
X3048000Y558800D02*
Y660400D01*
X2857500Y850900D02*
X3048000Y660400D01*
X2857500Y850900D02*
Y1638300D01*
X2984500Y3695700D02*
X3048000Y3759200D01*
X2984500Y3035300D02*
Y3695700D01*
X3048000Y3759200D02*
Y3860800D01*
X2159000Y622300D02*
X2222500Y685800D01*
X2159000Y431800D02*
Y622300D01*
Y431800D02*
X2286000Y304800D01*
X2667000Y431800D02*
X2794000Y304800D01*
X2667000Y431800D02*
Y1638401D01*
X3683000Y431800D02*
X3810000Y304800D01*
X3683000Y431800D02*
Y660400D01*
X3188195Y418604D02*
X3302000Y304800D01*
X3188195Y418604D02*
Y647205D01*
X2921000Y914400D02*
Y1638300D01*
Y914400D02*
X3188195Y647205D01*
X3048000Y3683000D02*
X3175000Y3810000D01*
X3048000Y3035300D02*
Y3683000D01*
X3302000Y4050129D02*
Y4114800D01*
X3175000Y3923129D02*
X3302000Y4050129D01*
X3175000Y3810000D02*
Y3923129D01*
X3022600Y4114800D02*
X3048000D01*
X2921000Y4013200D02*
X3022600Y4114800D01*
X2921000Y3035300D02*
Y4013200D01*
X1473200Y1481500D02*
X1524000Y1430700D01*
X1320800Y1479000D02*
Y1481500D01*
X1285700Y1443900D02*
X1320800Y1479000D01*
X1285700Y1336500D02*
Y1443900D01*
X1270000Y1320800D02*
X1285700Y1336500D01*
X1414100Y1828800D02*
X1498600D01*
X1524000Y1320800D02*
Y1430700D01*
X268317Y513183D02*
X359800Y421700D01*
X268317Y513183D02*
Y530207D01*
D11*
X3869554Y2719687D02*
G03*
X3901193Y2732793I0J44744D01*
G01*
X4141079Y2972679D02*
G03*
X4156767Y3010553I-37874J37874D01*
G01*
X3901193Y2732793D02*
X4141079Y2972679D01*
D12*
X4309267Y3158053D02*
D03*
Y2863053D02*
D03*
D13*
X3869554Y2776688D02*
D03*
X3835400Y2556360D02*
D03*
X3441700Y2356000D02*
D03*
X2804900Y2879053D02*
D03*
X3196280Y2760669D02*
D03*
X2949867Y1931566D02*
D03*
X2387600Y2181300D02*
D03*
X1549400Y2314500D02*
D03*
X1193800Y1851100D02*
D03*
X127000Y381000D02*
D03*
X3835400Y2499360D02*
D03*
X3869554Y2719687D02*
D03*
X3441700Y2413000D02*
D03*
X2387600Y2238300D02*
D03*
X1549400Y2257500D02*
D03*
X1193800Y1908100D02*
D03*
X2804900Y2822053D02*
D03*
X3196280Y2703669D02*
D03*
X2949867Y1988566D02*
D03*
X127000Y438000D02*
D03*
D14*
X3734612Y2526304D02*
D03*
Y2566304D02*
D03*
Y2486304D02*
D03*
X3694612Y2566304D02*
D03*
Y2526304D02*
D03*
Y2486304D02*
D03*
D15*
X3484283Y2839027D02*
D03*
X3384283Y2704027D02*
D03*
Y2839027D02*
D03*
X3484283Y2704027D02*
D03*
D16*
X3502122Y2467280D02*
D03*
X2800500Y2938780D02*
D03*
X2754984Y2791542D02*
D03*
X1753725Y3198900D02*
D03*
X1704900Y3198895D02*
D03*
X2510324Y2790525D02*
D03*
X932529Y3041504D02*
D03*
X3256692Y2517600D02*
D03*
X3205480Y2466340D02*
D03*
X3266372Y2352280D02*
D03*
X3559122Y2467280D02*
D03*
X3262480Y2466340D02*
D03*
X3199692Y2517600D02*
D03*
X875529Y3041504D02*
D03*
X2857500Y2938780D02*
D03*
X2567324Y2790525D02*
D03*
X2697984Y2791542D02*
D03*
X3209372Y2352280D02*
D03*
X1647900Y3198895D02*
D03*
X1810726Y3198900D02*
D03*
D17*
X2746700Y2689545D02*
D03*
X2986700D02*
D03*
X3026700D02*
D03*
X2786700D02*
D03*
X2586700D02*
D03*
X2626700D02*
D03*
X2666700D02*
D03*
X2706700D02*
D03*
X2826700D02*
D03*
X2866700D02*
D03*
X2906700D02*
D03*
X2946700D02*
D03*
X3026700Y2099545D02*
D03*
X2986700D02*
D03*
X2946700D02*
D03*
X2906700D02*
D03*
X2866700D02*
D03*
X2826700D02*
D03*
X2786700D02*
D03*
X2746700D02*
D03*
X2706700D02*
D03*
X2666700D02*
D03*
X2626700D02*
D03*
X2586700D02*
D03*
D18*
X1751800Y3273000D02*
D03*
X1701800D02*
D03*
X1651800Y3458000D02*
D03*
X1701800D02*
D03*
X1751800D02*
D03*
X1651800Y3273000D02*
D03*
D19*
X962828Y3511020D02*
D03*
X872828D02*
D03*
D20*
X953294Y3147840D02*
D03*
X858294Y3397840D02*
D03*
Y3147840D02*
D03*
X1048294D02*
D03*
Y3397840D02*
D03*
D21*
X2321560Y3016800D02*
D03*
Y2926800D02*
D03*
D22*
X220300Y2976880D02*
D03*
X1837100Y1701800D02*
D03*
X1922100D02*
D03*
X1583100Y2159000D02*
D03*
X1668100D02*
D03*
Y2038520D02*
D03*
X1583100D02*
D03*
X1744300Y2362200D02*
D03*
X1659300D02*
D03*
X1744300Y2463800D02*
D03*
X1659300D02*
D03*
X1160100Y2641600D02*
D03*
X1329100Y1828800D02*
D03*
X1075100Y2641600D02*
D03*
X135300Y2976880D02*
D03*
X1414100Y1828800D02*
D03*
X347300Y558800D02*
D03*
X262300D02*
D03*
X1475836Y192320D02*
D03*
X1560836D02*
D03*
X1082202D02*
D03*
X997202D02*
D03*
D23*
X3101700Y2454545D02*
D03*
Y2494545D02*
D03*
X2511700Y2214545D02*
D03*
Y2454545D02*
D03*
Y2174545D02*
D03*
X3101700Y2614545D02*
D03*
Y2574545D02*
D03*
Y2534545D02*
D03*
Y2414545D02*
D03*
Y2374545D02*
D03*
Y2334545D02*
D03*
Y2294545D02*
D03*
Y2254545D02*
D03*
Y2214545D02*
D03*
Y2174545D02*
D03*
X2511700Y2254545D02*
D03*
Y2294545D02*
D03*
Y2334545D02*
D03*
Y2374545D02*
D03*
Y2414545D02*
D03*
Y2494545D02*
D03*
Y2534545D02*
D03*
Y2574545D02*
D03*
Y2614545D02*
D03*
D24*
X2806700Y2394545D02*
D03*
D25*
X1318000Y2157800D02*
D03*
D26*
X1922740Y1811020D02*
D03*
X1832740D02*
D03*
X222800Y2869975D02*
D03*
X1072600Y2748505D02*
D03*
X1162600D02*
D03*
X132800Y2869975D02*
D03*
D27*
X964300Y2460400D02*
D03*
X952500Y1872111D02*
D03*
X1308100Y3208700D02*
D03*
Y3293700D02*
D03*
X1422400D02*
D03*
Y3208700D02*
D03*
X964300Y2375400D02*
D03*
X1067220Y2221082D02*
D03*
Y2306082D02*
D03*
X1473200Y1566500D02*
D03*
X1320800D02*
D03*
X1473200Y1481500D02*
D03*
X1320800D02*
D03*
X952500Y1957111D02*
D03*
D28*
X775000Y2479400D02*
D03*
Y1839400D02*
D03*
Y1919400D02*
D03*
Y2399400D02*
D03*
D29*
X1682300Y791700D02*
D03*
X1199700Y376700D02*
D03*
X1682300D02*
D03*
X1199700Y791700D02*
D03*
X984700Y376700D02*
D03*
Y791700D02*
D03*
X1467300D02*
D03*
Y376700D02*
D03*
D30*
X359800Y238700D02*
D03*
Y421700D02*
D03*
X249800D02*
D03*
Y238700D02*
D03*
D31*
X3887347Y2500000D02*
D03*
D32*
X3834440Y2428240D02*
D03*
X3819682Y2717800D02*
D03*
X3759682D02*
D03*
X3774440Y2428240D02*
D03*
X3560600Y2413000D02*
D03*
X3500600D02*
D03*
X3386115Y2412680D02*
D03*
X3326115D02*
D03*
X3202488Y2412035D02*
D03*
X3262488D02*
D03*
X1808000Y3098800D02*
D03*
X1748000D02*
D03*
D33*
X4156767Y3010553D02*
D03*
D34*
X2260600Y2642800D02*
D03*
Y2792800D02*
D03*
D35*
X2032000Y1701800D02*
D03*
X1796882Y2029154D02*
D03*
X1746082D02*
D03*
X2082800Y1701800D02*
D03*
X1778000Y182882D02*
D03*
X1828800D02*
D03*
X1778000Y127000D02*
D03*
X1828800D02*
D03*
X1498600Y1828800D02*
D03*
X1549400D02*
D03*
D36*
X1243000Y2015300D02*
D03*
X1293000D02*
D03*
X1343000D02*
D03*
X1393000D02*
D03*
Y2300300D02*
D03*
X1343000D02*
D03*
X1293000D02*
D03*
X1243000D02*
D03*
D37*
X1460500Y2132800D02*
D03*
Y2182800D02*
D03*
Y2232800D02*
D03*
X1175500D02*
D03*
Y2182800D02*
D03*
Y2132800D02*
D03*
Y2082800D02*
D03*
X1460500D02*
D03*
D38*
X775000Y2234400D02*
D03*
Y2134400D02*
D03*
Y1984400D02*
D03*
Y2034400D02*
D03*
Y2284400D02*
D03*
Y2334400D02*
D03*
Y2084400D02*
D03*
Y2184400D02*
D03*
D39*
X1714500Y1905000D02*
D03*
Y1955800D02*
D03*
X1540465Y3926840D02*
D03*
Y3876040D02*
D03*
X1701800Y4051300D02*
D03*
Y4000500D02*
D03*
X1651000Y3926840D02*
D03*
Y3876040D02*
D03*
X2133600Y3683000D02*
D03*
Y3632200D02*
D03*
X1600200Y4000500D02*
D03*
Y4051300D02*
D03*
X2209800Y3683000D02*
D03*
Y3632200D02*
D03*
X1397000Y1701800D02*
D03*
Y1752600D02*
D03*
D40*
X550200Y1319900D02*
D03*
X965200D02*
D03*
Y1104900D02*
D03*
X550200D02*
D03*
D41*
X582600Y3881400D02*
D03*
X382600D02*
D03*
X782600D02*
D03*
D42*
X2857500Y2994365D02*
D03*
Y3054365D02*
D03*
D43*
X1584300Y3290500D02*
D03*
X1819300Y3440500D02*
D03*
Y3390500D02*
D03*
Y3340500D02*
D03*
Y3290500D02*
D03*
X1584300Y3340500D02*
D03*
Y3390500D02*
D03*
Y3440500D02*
D03*
D44*
X2491875Y2941349D02*
D03*
X2657092D02*
D03*
D45*
X3426461Y2953535D02*
X3498065D01*
Y2852810D02*
Y2953535D01*
X3419325Y2946400D02*
X3426461Y2953535D01*
X3484283Y2839027D02*
X3498065Y2852810D01*
X3368400Y2946400D02*
X3419325D01*
X3233555Y2827155D02*
Y2891449D01*
X3225800Y2819400D02*
X3233555Y2827155D01*
X3200400Y2794000D02*
X3225800Y2819400D01*
X3200400Y2770700D02*
Y2794000D01*
X3256692Y2517600D02*
X3305000D01*
X2756460Y2766557D02*
Y2791460D01*
X2783811Y2524789D02*
X2801704D01*
X2746700Y2756797D02*
X2756460Y2766557D01*
X2746700Y2565400D02*
Y2689545D01*
Y2756797D01*
X2743200Y2561900D02*
X2746700Y2565400D01*
X2743200D02*
X2783811Y2524789D01*
X1751800Y3273000D02*
X1754725Y3270075D01*
X1701800Y3200995D02*
Y3273000D01*
Y3200995D02*
X1703900Y3198895D01*
X1754725Y3172875D02*
Y3270075D01*
X1704900Y3165400D02*
Y3198895D01*
X1754725Y3172875D02*
X1778000Y3149600D01*
X1689100D02*
X1704900Y3165400D01*
X1676400Y3149600D02*
X1689100D01*
X3305000Y2517600D02*
X3314700Y2527300D01*
X3194745Y2455963D02*
X3199622Y2460840D01*
X3103117Y2455963D02*
X3194745D01*
X3010222Y2454545D02*
X3101700D01*
X3103117Y2455963D01*
X2943277Y2387600D02*
X3009576Y2453899D01*
X2873758Y2451388D02*
X2928704D01*
X2743200Y2451100D02*
Y2561900D01*
Y2451100D02*
X2755900D01*
X2928704Y2397789D02*
X2938893Y2387600D01*
X2943277D01*
X2814404Y2392034D02*
X2873758Y2451388D01*
X2755900Y2451100D02*
X2806700Y2400300D01*
Y2394545D02*
Y2400300D01*
X3265372Y2352280D02*
X3311920D01*
X3312160Y2352040D01*
X2950328Y1932104D02*
X2952055Y1930377D01*
Y1885717D02*
X2954243Y1883528D01*
X2952055Y1885717D02*
Y1930377D01*
X2035522Y1773489D02*
X2040730Y1778697D01*
X1995939Y1773489D02*
X2035522D01*
X1574800Y2311400D02*
X1600200Y2286000D01*
X1549790Y2311400D02*
X1574800D01*
X2906700Y1711020D02*
X2921000Y1696720D01*
Y1638300D02*
Y1696720D01*
X2906700Y1711020D02*
Y2010853D01*
X2794000Y1701800D02*
X2826700Y1734500D01*
Y1925404D01*
X2857500Y1638300D02*
Y1701800D01*
X2866700Y1711000D01*
Y1922298D01*
X2786700Y1755959D02*
Y2099545D01*
X2730500Y1699759D02*
X2786700Y1755959D01*
X3026700Y2057530D02*
Y2099545D01*
Y2057530D02*
X3175000Y1909230D01*
Y1879600D02*
Y1909230D01*
X2986700Y2054053D02*
Y2099545D01*
X3111500Y1822598D02*
Y1929253D01*
X2986700Y2054053D02*
X3111500Y1929253D01*
X2990835Y1987565D02*
X2997200Y1981200D01*
X2949867Y1987565D02*
X2990835D01*
X3365500Y2032000D02*
Y2203435D01*
X3238500Y2032000D02*
Y2222500D01*
X3302000Y2032000D02*
Y2209800D01*
X3263887Y2305048D02*
X3365500Y2203435D01*
X3237232Y2274568D02*
X3302000Y2209800D01*
X3216912Y2244088D02*
X3238500Y2222500D01*
X2986700Y2689545D02*
X2988810Y2691655D01*
Y2734057D01*
X3149600Y2894847D01*
Y2971800D02*
X3175000Y2997200D01*
X3149600Y2894847D02*
Y2971800D01*
X3175000Y2997200D02*
Y3035300D01*
X3026700Y2689545D02*
Y2716295D01*
X3200400Y2889995D01*
Y2946400D01*
X3238500Y2984500D01*
Y3035300D01*
X3200623Y2414545D02*
X3202488Y2412680D01*
X3101700Y2414545D02*
X3200623D01*
X858294Y3207794D02*
X896394Y3245894D01*
X1008606D01*
X858294Y3147840D02*
Y3207794D01*
X1048294Y3147840D02*
Y3206206D01*
X1008606Y3245894D02*
X1048294Y3206206D01*
X1460500Y2182800D02*
X1497000D01*
X1549400Y2235200D02*
Y2257500D01*
X1497000Y2182800D02*
X1549400Y2235200D01*
X1838654Y2029154D02*
X1841500Y2032000D01*
X1678900Y2029154D02*
X1746082D01*
X1678900D02*
X1746082D01*
X1796882D02*
X1838654D01*
X1668100D02*
X1746082D01*
X1563880Y2038520D02*
X1583100D01*
X1519600Y2082800D02*
X1563880Y2038520D01*
X1460500Y2082800D02*
X1519600D01*
X1668100Y2038520D02*
X1676400Y2030220D01*
X1714500Y1955800D02*
Y1960880D01*
X1689210Y1986170D02*
X1714500Y1960880D01*
X1689210Y1986170D02*
Y2019910D01*
X1678900Y2030220D02*
X1689210Y2019910D01*
X1676400Y2030220D02*
X1678900D01*
X1454590Y1585110D02*
X1473200Y1566500D01*
X1447800Y1618234D02*
X1454590Y1611444D01*
X1447800Y1618234D02*
Y1625600D01*
X1454590Y1585110D02*
Y1611444D01*
X1393000Y1934400D02*
X1422400Y1905000D01*
X1393000Y1934400D02*
Y2015300D01*
X1339300Y1905000D02*
X1341150Y1906850D01*
Y2013450D01*
X1343000Y2015300D01*
X1320800Y1566500D02*
X1339410Y1585110D01*
Y1606990D01*
X1320800Y1625600D02*
X1339410Y1606990D01*
X1293000Y1856600D02*
Y2015300D01*
Y1856600D02*
X1320800Y1828800D01*
X858294Y3397840D02*
Y3417280D01*
X872828Y3431814D01*
Y3511020D01*
X2857500Y2869640D02*
Y2887049D01*
X2810913Y2823053D02*
X2857500Y2869640D01*
X2804900Y2823053D02*
X2810913D01*
X2856539Y2888010D02*
X2857500Y2887049D01*
X2856539Y2888010D02*
Y2927493D01*
X3233420Y2575560D02*
X3271520D01*
X3197318Y2539458D02*
X3233420Y2575560D01*
X3197318Y2518410D02*
X3198300Y2517429D01*
Y2514600D02*
Y2517429D01*
X3167820Y2514600D02*
X3198300D01*
X3197318Y2518410D02*
Y2539458D01*
X3147765Y2494545D02*
X3167820Y2514600D01*
X3101700Y2494545D02*
X3147765D01*
X2803630Y2773150D02*
Y2822694D01*
X2786700Y2756220D02*
X2803630Y2773150D01*
X2786700Y2689545D02*
Y2756220D01*
X2425700Y2184400D02*
X2455845Y2214545D01*
X2511700D01*
X2425700Y2108200D02*
Y2184400D01*
X2324100Y2006600D02*
X2425700Y2108200D01*
X1651000Y1715647D02*
X1745890Y1810537D01*
X1651000Y1193800D02*
Y1715647D01*
X1714500Y1905000D02*
X1745890Y1873610D01*
X1549400Y1828800D02*
X1701800D01*
X1745890Y1810537D02*
Y1873610D01*
X2806700Y3027680D02*
X2831140Y3052120D01*
X2857500D01*
X1539240Y4180840D02*
X1701800Y4343400D01*
X1539240Y3937751D02*
Y4180840D01*
X2510837Y2454545D02*
X2511269Y2454114D01*
X2260600Y2476500D02*
Y2489200D01*
Y2476500D02*
X2282555Y2454545D01*
X2510837D01*
X2311400Y4343400D02*
X2540000Y4114800D01*
X1701800Y4343400D02*
X2311400D01*
X1539240Y3320027D02*
X1568767Y3290500D01*
X1539240Y3320027D02*
Y3856990D01*
X1568767Y3290500D02*
X1584300D01*
X1632310Y3167863D02*
X1632452Y3168005D01*
Y3185785D02*
X1645562Y3198895D01*
X1632452Y3168005D02*
Y3185785D01*
X1645562Y3198895D02*
X1648900D01*
X1664847Y3098800D02*
X1748000D01*
X1632310Y3131337D02*
X1664847Y3098800D01*
X1632310Y3131337D02*
Y3167863D01*
X1814780Y3197640D02*
X1818616Y3193805D01*
Y3171337D02*
Y3193805D01*
X1807701Y3197640D02*
X1814780D01*
X1818616Y3171337D02*
X1822090Y3167863D01*
Y3112890D02*
Y3167863D01*
X1808000Y3098800D02*
X1822090Y3112890D01*
X2366433Y1960033D02*
X2511700Y2105300D01*
Y2174545D01*
X1651000Y3586029D02*
Y3882950D01*
Y3586029D02*
X1651800Y3585229D01*
Y3458000D02*
Y3585229D01*
X2260600Y2273300D02*
X2281845Y2294545D01*
X2511700D01*
X2260600Y2260600D02*
Y2273300D01*
X3138265Y2667000D02*
X3138265Y2667000D01*
Y2614545D02*
Y2667000D01*
X3101700Y2614545D02*
X3138265D01*
X3098800Y2667000D02*
X3112269D01*
X2586992Y2759836D02*
Y2763726D01*
X2626700Y2689545D02*
Y2754987D01*
X2586992Y2759836D02*
X2621850D01*
X2584252Y2757097D02*
X2586992Y2759836D01*
X2621850D02*
X2626700Y2754987D01*
X2566324Y2784394D02*
X2586992Y2763726D01*
X2584252Y2691993D02*
Y2757097D01*
Y2691993D02*
X2586700Y2689545D01*
X2566324Y2784394D02*
Y2790525D01*
X2946700Y1993046D02*
Y2099545D01*
X2510281Y2253127D02*
X2511700Y2254545D01*
X2454911Y2253127D02*
X2510281D01*
X1651800Y3211595D02*
Y3273000D01*
X990600Y194484D02*
Y355600D01*
X1767840Y4231640D02*
X2092960D01*
X1700819Y4088419D02*
X1752600Y4140200D01*
X2006600D01*
X1600200Y4165600D02*
X1727200Y4292600D01*
X1651000Y4114800D02*
X1767840Y4231640D01*
X1727200Y4292600D02*
X2209800D01*
X2006600Y4140200D02*
X2032000Y4114800D01*
X2209800Y4292600D02*
X2286000Y4216400D01*
X2092960Y4231640D02*
X2159000Y4165600D01*
X2209800Y3606800D02*
Y3632200D01*
X1831940Y3343440D02*
X1946440D01*
X2209800Y3606800D01*
X2209903Y3702050D02*
Y3784703D01*
X2286000Y3860800D01*
X2133600Y3683000D02*
X2149943Y3699343D01*
Y3877143D02*
X2252890Y3980090D01*
X2149943Y3699343D02*
Y3877143D01*
X2252890Y3980090D02*
X2420710D01*
X1988690Y3474590D02*
X2137410Y3623310D01*
X2260600Y2792800D02*
X2287200D01*
X2465455Y2614545D01*
X2511700D01*
X1475836Y192320D02*
Y368165D01*
X1467300Y376700D02*
X1475836Y368165D01*
X3130560Y2109206D02*
X3131566Y2108200D01*
X3130560Y2109206D02*
Y2172435D01*
X3131566Y2108200D02*
X3136900D01*
X3101700Y2174545D02*
X3128450D01*
X3130560Y2172435D01*
X3187700Y2159000D02*
Y2184400D01*
X3103810Y2212436D02*
X3159664D01*
X3187700Y2184400D01*
X1147522Y127000D02*
X1778000D01*
X1082202Y192320D02*
X1147522Y127000D01*
X2730500Y1638300D02*
Y1699759D01*
X3101700Y2294545D02*
X3103810Y2292435D01*
X3155072D01*
X3172939Y2274568D01*
X3237232D01*
X2554667Y1868867D02*
X2666700Y1980900D01*
Y2099545D01*
X2171700Y2311400D02*
Y2317755D01*
X2188490Y2334545D01*
X2032000Y3860800D02*
Y3911600D01*
X2188490Y2334545D02*
X2511700D01*
X2032000Y3911600D02*
X2159000Y4038600D01*
X1651000Y3937000D02*
Y4114800D01*
X2159000Y4038600D02*
Y4165600D01*
X3101700Y2214545D02*
X3103810Y2212436D01*
X2946700Y2689545D02*
X2948810Y2691655D01*
X3111500Y2984500D02*
Y3035300D01*
X3098800Y2971800D02*
X3111500Y2984500D01*
X2948810Y2745610D02*
X3098800Y2895600D01*
Y2971800D01*
X2948810Y2691655D02*
Y2745610D01*
X2491875Y2941349D02*
X2499267D01*
X2661090Y2779526D01*
Y2762325D02*
Y2779526D01*
Y2762325D02*
X2666700Y2756715D01*
Y2689545D02*
Y2756715D01*
X2794000Y1638300D02*
Y1701800D01*
X2826700Y1925404D02*
Y2099545D01*
X1700819Y4052281D02*
Y4088419D01*
Y4052281D02*
X1701800Y4051300D01*
X3101700Y2334545D02*
X3103810Y2332436D01*
X3158177D01*
X3185564Y2305048D01*
X3263887D01*
X3181437Y2352280D02*
X3210372D01*
X3159172Y2374545D02*
X3181437Y2352280D01*
X3101700Y2374545D02*
X3159172D01*
X2603500Y1828800D02*
X2706700Y1932000D01*
Y2099545D01*
X2510155Y2413000D02*
X2511700Y2414545D01*
X2184400Y2413000D02*
X2510155D01*
X2171700Y2425700D02*
X2184400Y2413000D01*
X2171700Y2425700D02*
Y2438400D01*
X2866700Y1922298D02*
Y2099545D01*
Y2689545D02*
X2868810Y2691655D01*
X2984500Y2882900D02*
Y3035300D01*
X2868810Y2767210D02*
X2984500Y2882900D01*
X2868810Y2691655D02*
Y2767210D01*
X2706700Y2689545D02*
Y2790300D01*
X2657092Y2941349D02*
X2662654D01*
Y2856685D02*
Y2941349D01*
Y2834346D02*
X2706700Y2790300D01*
X2662654Y2834346D02*
Y2856685D01*
X2509590Y2536655D02*
X2511700Y2534545D01*
X2409239Y2540000D02*
X2412584Y2536655D01*
X2509590D01*
X2586700Y2078700D02*
Y2099545D01*
X2413000Y1905000D02*
X2586700Y2078700D01*
X2746700Y1781500D02*
Y2099545D01*
X2667000Y1701800D02*
X2746700Y1781500D01*
X2667000Y1638401D02*
Y1701800D01*
X3101700Y2254545D02*
X3103810Y2252435D01*
X3160314Y2244088D02*
X3216912D01*
X3103810Y2252435D02*
X3151967D01*
X3160314Y2244088D01*
X2626700Y2029800D02*
Y2099545D01*
X2476500Y1879600D02*
X2626700Y2029800D01*
X2286000Y558800D02*
X2362200Y482600D01*
Y406400D02*
Y482600D01*
Y406400D02*
X2413000Y355600D01*
Y228600D02*
Y355600D01*
X2311400Y127000D02*
X2413000Y228600D01*
X1828800Y127000D02*
X2311400D01*
X2906700Y2010853D02*
Y2099545D01*
Y2689545D02*
X2908810Y2691655D01*
Y2756410D02*
X3048000Y2895600D01*
Y3035300D01*
X2908810Y2691655D02*
Y2756410D01*
X2826700Y2689545D02*
Y2750586D01*
X2921000Y2870200D02*
Y3035300D01*
X2834136Y2783336D02*
X2921000Y2870200D01*
X2826700Y2750586D02*
X2834136Y2758022D01*
Y2783336D01*
X2394095Y2642800D02*
X2452805Y2584090D01*
X2464097Y2576655D02*
X2509590D01*
X2456663Y2584090D02*
X2464097Y2576655D01*
X2452805Y2584090D02*
X2456663D01*
X2260600Y2642800D02*
X2394095D01*
X2509590Y2576655D02*
X2511700Y2574545D01*
X2358835Y2492565D02*
X2509720D01*
X2511700Y2494545D01*
X2336800Y2514600D02*
Y2552700D01*
Y2514600D02*
X2358835Y2492565D01*
X2420710Y3980090D02*
X2540000Y3860800D01*
X2083155Y2374545D02*
X2511700D01*
X2082977Y2374723D02*
X2083155Y2374545D01*
X1600200Y4051300D02*
Y4165600D01*
X2286000Y4114800D02*
Y4216400D01*
X132800Y2969300D02*
X135300Y2971800D01*
X132800Y2870200D02*
Y2969300D01*
X1807701Y3278901D02*
X1819300Y3290500D01*
X1807701Y3197640D02*
Y3278901D01*
X1700819Y3463381D02*
Y3519849D01*
Y3463381D02*
X1701800Y3462400D01*
X1751800Y3458000D02*
X1768390Y3474590D01*
X1988690D01*
X1584300Y3440500D02*
X1600200Y3456400D01*
X1700819Y3519849D02*
Y3989631D01*
X1600200Y3456400D02*
Y4000023D01*
X1651000Y1193800D02*
X1778000Y1066800D01*
X1397000Y1193800D02*
Y1701800D01*
X1270000Y1066800D02*
X1397000Y1193800D01*
Y1752600D02*
Y1811700D01*
X1414100Y1828800D01*
X1554479Y194965D02*
X1566563Y182882D01*
X1778000D01*
D46*
X3784600Y2527300D02*
Y2654300D01*
D47*
X870881Y2563281D02*
Y2565400D01*
X787000Y2479400D02*
X870881Y2563281D01*
X762000Y2479400D02*
X787000D01*
X762000Y1839400D02*
X795571D01*
X864900Y1770071D01*
X1682300Y688343D02*
Y791700D01*
Y688343D02*
X1682944Y687699D01*
X1682300Y376700D02*
Y687055D01*
X1198413Y686158D02*
X1199953Y684617D01*
X1198413Y686158D02*
Y785284D01*
X1199953Y376954D02*
Y684617D01*
X864900Y1752600D02*
Y1770071D01*
X584200Y3695700D02*
Y3759200D01*
Y3479800D02*
Y3695700D01*
X1657900Y2926800D02*
X2321560D01*
X914400Y4089400D02*
X1206500Y3797300D01*
Y3263900D02*
Y3797300D01*
Y3263900D02*
X1261700Y3208700D01*
X584200Y3479800D02*
X666160Y3397840D01*
X858294D01*
X233500Y438000D02*
X249800Y421700D01*
X127000Y438000D02*
X233500D01*
X101600Y463400D02*
X127000Y438000D01*
X101600Y463400D02*
Y660400D01*
X381000Y3937000D02*
Y4038600D01*
X431800Y4089400D02*
X914400D01*
X381000Y4038600D02*
X431800Y4089400D01*
X381000Y3822700D02*
Y3862094D01*
X794748Y3802652D02*
X863600Y3733800D01*
X1524000Y3060700D02*
X1657900Y2926800D01*
X1524000Y3060700D02*
Y3187700D01*
X1503000Y3208700D02*
X1512805Y3198895D01*
X1524000Y3187700D01*
X1327295Y3208700D02*
X1422400D01*
X1503000D01*
X1261700D02*
X1299794D01*
X381000Y3862094D02*
Y3937000D01*
X990600Y355600D02*
Y746663D01*
X1467300Y376700D02*
Y791700D01*
X850000Y2399400D02*
X850900Y2400300D01*
X762000Y2399400D02*
X850000D01*
X762000Y1919400D02*
X874600D01*
D48*
X3643615Y2741915D02*
X3644900Y2743200D01*
X3643615Y2617302D02*
Y2741915D01*
Y2617302D02*
X3694612Y2566304D01*
X3684819Y2447646D02*
Y2448344D01*
X3675380Y2457783D02*
X3684819Y2448344D01*
X3675380Y2457783D02*
X3694612Y2477015D01*
Y2486304D01*
X3149006Y2583225D02*
X3349283Y2783502D01*
Y2794257D02*
X3370325Y2815300D01*
X3349283Y2783502D02*
Y2794257D01*
X3132951Y2577925D02*
X3138251Y2583225D01*
X3149006D01*
X3105080Y2577925D02*
X3132951D01*
X3217967Y2610878D02*
Y2611242D01*
X3243794Y2637069D01*
X3101700Y2534545D02*
X3141635D01*
X3217967Y2610878D01*
X3243794Y2637069D02*
X3280320D01*
X3101700Y2574545D02*
X3105080Y2577925D01*
X2286000Y250375D02*
Y304800D01*
X3470325Y2675202D02*
Y2680300D01*
X3432192Y2637069D02*
X3470325Y2675202D01*
X3280320Y2637069D02*
X3432192D01*
D49*
X910747Y2181321D02*
X1174021D01*
X908500Y2183997D02*
X910747Y2186244D01*
X818668Y2183997D02*
X908500D01*
X863857Y2132655D02*
X864147Y2132945D01*
X861435Y2135077D02*
X863857Y2132655D01*
X864147Y2132945D02*
Y2134280D01*
X818668Y2135077D02*
X861435D01*
X864147Y2134280D02*
X1174020D01*
D50*
X844273Y2084384D02*
X884021D01*
X762000Y2084400D02*
X844257D01*
X884021Y2084384D02*
X884037Y2084400D01*
X844257D02*
X844273Y2084384D01*
X884037Y2084400D02*
X907718D01*
X1174021Y2181321D02*
X1175500Y2182800D01*
X907718Y2084400D02*
X908953Y2083165D01*
X762000Y2234400D02*
X863600D01*
Y2235200D01*
X1174020Y2134280D02*
X1175500Y2132800D01*
X922291Y1984400D02*
X949581Y1957111D01*
X762000Y1984400D02*
X922291D01*
X947523Y2352823D02*
X952500Y2357800D01*
X947523Y2352823D02*
X947523D01*
X762000Y2284400D02*
X879100D01*
X947523Y2352823D01*
D51*
X2218506Y182882D02*
X2286000Y250375D01*
X1828800Y182882D02*
X2218506D01*
D52*
X4400000Y1000000D02*
D03*
X200000Y3500000D02*
D03*
Y1000000D02*
D03*
X4400000Y3500000D02*
D03*
D53*
X4064000Y4114800D02*
D03*
X3810000D02*
D03*
X2794000Y3860800D02*
D03*
X3302000Y558800D02*
D03*
X1524000Y1066800D02*
D03*
X3556000Y4114800D02*
D03*
Y3860800D02*
D03*
X1778000Y1320800D02*
D03*
X4064000Y558800D02*
D03*
X2032000Y304800D02*
D03*
X2540000Y4114800D02*
D03*
X2032000Y558800D02*
D03*
X2286000Y304800D02*
D03*
Y558800D02*
D03*
X2540000Y304800D02*
D03*
Y558800D02*
D03*
X2794000Y304800D02*
D03*
Y558800D02*
D03*
X3556000Y304800D02*
D03*
X3048000D02*
D03*
X3556000Y558800D02*
D03*
X3302000Y3860800D02*
D03*
X3048000Y558800D02*
D03*
X3810000Y304800D02*
D03*
X3302000D02*
D03*
X3810000Y558800D02*
D03*
X4064000Y304800D02*
D03*
X2794000Y4114800D02*
D03*
X2540000Y3860800D02*
D03*
X2286000D02*
D03*
Y4114800D02*
D03*
X2032000D02*
D03*
X3302000D02*
D03*
X3048000Y3860800D02*
D03*
Y4114800D02*
D03*
X2032000Y3860800D02*
D03*
X3810000D02*
D03*
X4064000D02*
D03*
X1524000Y1320800D02*
D03*
X1778000Y1066800D02*
D03*
X1270000Y1320800D02*
D03*
Y1066800D02*
D03*
D54*
X3950847Y1814200D02*
D03*
D55*
X797600Y4256400D02*
D03*
X167600D02*
D03*
D56*
X647000Y2721400D02*
D03*
Y1597400D02*
D03*
D57*
X247000Y2721400D02*
D03*
Y1597400D02*
D03*
D58*
X4419600Y4445000D02*
D03*
X4318000D02*
D03*
X4216400D02*
D03*
X4526377Y3705315D02*
D03*
X4522760Y3807184D02*
D03*
X4526377Y3908515D02*
D03*
Y4010115D02*
D03*
X4522760Y4111984D02*
D03*
X4526377Y4213315D02*
D03*
Y4314915D02*
D03*
X4522760Y4416784D02*
D03*
X4521200Y2870200D02*
D03*
Y3073400D02*
D03*
X4517583Y3175269D02*
D03*
X4521200Y2971800D02*
D03*
X458501Y3220903D02*
D03*
X1168400Y4140200D02*
D03*
X1411001Y3806373D02*
D03*
X4216400Y3403600D02*
D03*
X4212783Y3505469D02*
D03*
X4318000Y3302000D02*
D03*
X4216400D02*
D03*
X4114800Y3403600D02*
D03*
Y3505200D02*
D03*
Y3302000D02*
D03*
X4521200D02*
D03*
X4419600D02*
D03*
X4114800Y3200400D02*
D03*
X4013200Y3098800D02*
D03*
X4114800D02*
D03*
X4013200Y3505200D02*
D03*
X3911600Y3403600D02*
D03*
X3810000Y3505200D02*
D03*
X3911600D02*
D03*
X4013200Y3302000D02*
D03*
Y3403600D02*
D03*
Y3200400D02*
D03*
X3911600D02*
D03*
Y3302000D02*
D03*
Y3098800D02*
D03*
Y2997200D02*
D03*
X3840480Y2600960D02*
D03*
X3810000Y3302000D02*
D03*
Y3403600D02*
D03*
Y3200400D02*
D03*
X3708400D02*
D03*
Y3403600D02*
D03*
Y3505200D02*
D03*
Y3302000D02*
D03*
X3810000Y3098800D02*
D03*
X3708400Y2997200D02*
D03*
X3810000D02*
D03*
X3708400Y3098800D02*
D03*
X3606800D02*
D03*
Y2997200D02*
D03*
Y3403600D02*
D03*
Y3505200D02*
D03*
Y3302000D02*
D03*
X3470000Y3352800D02*
D03*
Y3454400D02*
D03*
Y3225800D02*
D03*
X3606800Y3200400D02*
D03*
X3470000Y2997200D02*
D03*
Y3124200D02*
D03*
X3809760Y2906000D02*
D03*
X3771900Y2768600D02*
D03*
X3784600Y2654300D02*
D03*
X3708400Y2895600D02*
D03*
X3704625Y2720100D02*
D03*
X3687720Y2654300D02*
D03*
X3784600Y2527300D02*
D03*
Y2590800D02*
D03*
X3627230Y2573130D02*
D03*
X3606800Y2895600D02*
D03*
X3454400Y2565400D02*
D03*
X3556000Y2552700D02*
D03*
X3365500Y2565400D02*
D03*
X3810000Y1828800D02*
D03*
Y1905000D02*
D03*
Y1752600D02*
D03*
Y2057400D02*
D03*
Y2133600D02*
D03*
Y1981200D02*
D03*
Y1371600D02*
D03*
Y1447800D02*
D03*
Y1295400D02*
D03*
Y1600200D02*
D03*
Y1676400D02*
D03*
Y1524000D02*
D03*
Y2286000D02*
D03*
Y2362200D02*
D03*
Y2209800D02*
D03*
X3733800Y1981200D02*
D03*
Y1905000D02*
D03*
Y1371600D02*
D03*
Y1524000D02*
D03*
Y1295400D02*
D03*
Y1676400D02*
D03*
Y1828800D02*
D03*
Y1600200D02*
D03*
X4267200Y609600D02*
D03*
Y685800D02*
D03*
Y533400D02*
D03*
X4191000Y762000D02*
D03*
X4114800D02*
D03*
X4267200D02*
D03*
Y152400D02*
D03*
Y228600D02*
D03*
Y76200D02*
D03*
Y381000D02*
D03*
Y457200D02*
D03*
Y304800D02*
D03*
X3810000Y1143000D02*
D03*
Y1219200D02*
D03*
Y1066800D02*
D03*
X3733800Y1143000D02*
D03*
Y1219200D02*
D03*
Y1066800D02*
D03*
X3962400Y812800D02*
D03*
X3835400Y838200D02*
D03*
X4038600Y762000D02*
D03*
X3810000Y990600D02*
D03*
X3733800D02*
D03*
X3784600Y914400D02*
D03*
X3619500Y2400300D02*
D03*
Y2463800D02*
D03*
X3733800Y2362200D02*
D03*
X3568700Y2349500D02*
D03*
X3733800Y2133600D02*
D03*
Y2209800D02*
D03*
Y2057400D02*
D03*
Y2286000D02*
D03*
X3657600Y2235200D02*
D03*
X3556000Y2159000D02*
D03*
X3502660Y2514600D02*
D03*
X3441700Y2463800D02*
D03*
X3378200D02*
D03*
X3495040Y2354580D02*
D03*
X3441700Y2321560D02*
D03*
X3454400Y2184400D02*
D03*
X3385820Y2352040D02*
D03*
X3429000Y2032000D02*
D03*
X3733800Y1752600D02*
D03*
X3657600Y1625600D02*
D03*
Y1524000D02*
D03*
Y1879600D02*
D03*
Y2032000D02*
D03*
Y1778000D02*
D03*
X3733800Y1447800D02*
D03*
X3657600Y1270000D02*
D03*
Y1117600D02*
D03*
Y1371600D02*
D03*
X3556000Y1270000D02*
D03*
Y1143000D02*
D03*
Y1778000D02*
D03*
Y1905000D02*
D03*
Y1651000D02*
D03*
Y2032000D02*
D03*
X3454400Y1930400D02*
D03*
X3429000Y1778000D02*
D03*
X3556000Y1524000D02*
D03*
X3454400Y1422400D02*
D03*
X3556000Y1397000D02*
D03*
X3454400Y1625600D02*
D03*
X3429000Y1524000D02*
D03*
Y1270000D02*
D03*
X3368400Y3326949D02*
D03*
X3327400Y3429000D02*
D03*
X3368400Y2946400D02*
D03*
Y3124200D02*
D03*
X3302000Y3022600D02*
D03*
Y3225800D02*
D03*
X2641600Y3302000D02*
D03*
Y3073400D02*
D03*
X2755900Y2844800D02*
D03*
X3225800Y2819400D02*
D03*
X2857500Y2565400D02*
D03*
X2438400Y3302000D02*
D03*
X2540000Y3175000D02*
D03*
X965994Y3566940D02*
D03*
X1371600Y3556000D02*
D03*
X1676400Y3149600D02*
D03*
X2438400Y3073400D02*
D03*
X2324100D02*
D03*
X1778000Y3149600D02*
D03*
X2509520Y2733040D02*
D03*
X1270000Y2921000D02*
D03*
X1651000Y2667000D02*
D03*
X977354Y3042083D02*
D03*
X299720Y2976880D02*
D03*
X3314700Y2527300D02*
D03*
Y2463800D02*
D03*
X3312160Y2352040D02*
D03*
X2857500Y2451100D02*
D03*
X3022600Y939800D02*
D03*
Y1270000D02*
D03*
Y1676400D02*
D03*
X2857500Y2336800D02*
D03*
Y2222500D02*
D03*
X2954243Y1883528D02*
D03*
X2049030Y1829497D02*
D03*
X1600200Y2286000D02*
D03*
X1270000Y2209800D02*
D03*
X1371600D02*
D03*
Y2108200D02*
D03*
X1270000D02*
D03*
X1206500Y1778000D02*
D03*
X964300Y2530072D02*
D03*
X952500Y1816100D02*
D03*
X1682944Y687699D02*
D03*
X1198413Y686158D02*
D03*
X355600Y177800D02*
D03*
X50800Y381000D02*
D03*
X457200Y558800D02*
D03*
X3644900Y2743200D02*
D03*
X3684819Y2447646D02*
D03*
X2997200Y1981200D02*
D03*
X1028700Y2362200D02*
D03*
X1308100Y3352800D02*
D03*
X1422400D02*
D03*
X952500Y1257300D02*
D03*
X910747Y2186244D02*
D03*
X908953Y2083165D02*
D03*
X1727200Y1625600D02*
D03*
X1676400Y2235200D02*
D03*
X1143000Y1905000D02*
D03*
X1447800Y1625600D02*
D03*
X1422400Y1905000D02*
D03*
X1339300D02*
D03*
X1320800Y1625600D02*
D03*
X863600Y2235200D02*
D03*
X864147Y2132945D02*
D03*
X584200Y3695700D02*
D03*
X1066800Y2794000D02*
D03*
X965200Y1003300D02*
D03*
X2856948Y2887601D02*
D03*
X3271520Y2575560D02*
D03*
X1701800Y1828800D02*
D03*
X1905000Y1917700D02*
D03*
X1981200D02*
D03*
X2806700Y3027680D02*
D03*
X2260600Y2489200D02*
D03*
X1651800Y3585229D02*
D03*
X2324100Y2171700D02*
D03*
X2260600Y2260600D02*
D03*
X863600Y3733800D02*
D03*
X3098800Y2667000D02*
D03*
X381000Y3937000D02*
D03*
X2413000Y2794000D02*
D03*
X850900Y2400300D02*
D03*
X3136900Y2108200D02*
D03*
X3187700Y2159000D02*
D03*
X2171700Y2311400D02*
D03*
X1841500Y2032000D02*
D03*
X2171700Y2438400D02*
D03*
X2662654Y2856685D02*
D03*
X2409239Y2540000D02*
D03*
X2336800Y2552700D02*
D03*
X2082977Y2374723D02*
D03*
X101600Y660400D02*
D03*
X609600Y3048000D02*
D03*
X874600Y1919400D02*
D03*
X1700819Y3519849D02*
D03*
D59*
X4554220Y2768600D02*
D03*
X4109166Y2865842D02*
D03*
X4064264Y2820941D02*
D03*
X4032446Y2942562D02*
D03*
X4019363Y2776039D02*
D03*
X4419077Y2768305D02*
D03*
X4342877D02*
D03*
X4495277D02*
D03*
X4190477D02*
D03*
X4114277D02*
D03*
X4266677D02*
D03*
X3987544Y2897661D02*
D03*
X3942643Y2852759D02*
D03*
X3897742Y2807858D02*
D03*
X3835400Y2770500D02*
D03*
X3974462Y2731138D02*
D03*
X3911600Y2667000D02*
D03*
X3843020Y2664460D02*
D03*
X2971800Y2565400D02*
D03*
X2743200D02*
D03*
X2628900D02*
D03*
X870881D02*
D03*
X2971800Y2451100D02*
D03*
X2743200D02*
D03*
X2628900D02*
D03*
X2971800Y2222500D02*
D03*
Y2336800D02*
D03*
X2743200Y2222500D02*
D03*
Y2336800D02*
D03*
X2628900D02*
D03*
Y2222500D02*
D03*
X1029100Y1625600D02*
D03*
X864900Y1752600D02*
D03*
X838200Y762000D02*
D03*
%TF.MD5,083c53ece79798e3a7cde35045aa918b*%
M02*
