%TF.GenerationSoftware,Altium Limited,Altium Designer Develop,26.0.0 (27)*%
G04 Layer_Physical_Order=4*
G04 Layer_Color=16711680*
%FSLAX45Y45*%
%MOMM*%
%TF.SameCoordinates,D5E2BA32-6F81-40A5-AA13-F30F529DFF44*%
%TF.FilePolarity,Positive*%
%TF.FileFunction,Copper,L4,Bot,Signal*%
%TF.Part,Single*%
G01*
G75*
%TA.AperFunction,Conductor*%
%ADD10C,0.25400*%
%TA.AperFunction,SMDPad,CuDef*%
G04:AMPARAMS|DCode=35|XSize=0.254mm|YSize=0.3556mm|CornerRadius=0.0635mm|HoleSize=0mm|Usage=FLASHONLY|Rotation=270.000|XOffset=0mm|YOffset=0mm|HoleType=Round|Shape=RoundedRectangle|*
%AMROUNDEDRECTD35*
21,1,0.25400,0.22860,0,0,270.0*
21,1,0.12700,0.35560,0,0,270.0*
1,1,0.12700,-0.11430,-0.06350*
1,1,0.12700,-0.11430,0.06350*
1,1,0.12700,0.11430,0.06350*
1,1,0.12700,0.11430,-0.06350*
%
%ADD35ROUNDEDRECTD35*%
G04:AMPARAMS|DCode=39|XSize=0.254mm|YSize=0.3556mm|CornerRadius=0.0635mm|HoleSize=0mm|Usage=FLASHONLY|Rotation=180.000|XOffset=0mm|YOffset=0mm|HoleType=Round|Shape=RoundedRectangle|*
%AMROUNDEDRECTD39*
21,1,0.25400,0.22860,0,0,180.0*
21,1,0.12700,0.35560,0,0,180.0*
1,1,0.12700,-0.06350,0.11430*
1,1,0.12700,0.06350,0.11430*
1,1,0.12700,0.06350,-0.11430*
1,1,0.12700,-0.06350,-0.11430*
%
%ADD39ROUNDEDRECTD39*%
%TA.AperFunction,Conductor*%
%ADD45C,0.17780*%
%ADD47C,0.50800*%
%ADD50C,0.26721*%
%TA.AperFunction,ComponentPad*%
%ADD52C,3.00000*%
%ADD53C,1.70000*%
%ADD54C,0.45000*%
%ADD55C,1.30000*%
G04:AMPARAMS|DCode=56|XSize=1mm|YSize=1.8mm|CornerRadius=0.5mm|HoleSize=0mm|Usage=FLASHONLY|Rotation=270.000|XOffset=0mm|YOffset=0mm|HoleType=Round|Shape=RoundedRectangle|*
%AMROUNDEDRECTD56*
21,1,1.00000,0.80000,0,0,270.0*
21,1,0.00000,1.80000,0,0,270.0*
1,1,1.00000,-0.40000,0.00000*
1,1,1.00000,-0.40000,0.00000*
1,1,1.00000,0.40000,0.00000*
1,1,1.00000,0.40000,0.00000*
%
%ADD56ROUNDEDRECTD56*%
G04:AMPARAMS|DCode=57|XSize=1mm|YSize=2.2mm|CornerRadius=0.5mm|HoleSize=0mm|Usage=FLASHONLY|Rotation=270.000|XOffset=0mm|YOffset=0mm|HoleType=Round|Shape=RoundedRectangle|*
%AMROUNDEDRECTD57*
21,1,1.00000,1.20000,0,0,270.0*
21,1,0.00000,2.20000,0,0,270.0*
1,1,1.00000,-0.60000,0.00000*
1,1,1.00000,-0.60000,0.00000*
1,1,1.00000,0.60000,0.00000*
1,1,1.00000,0.60000,0.00000*
%
%ADD57ROUNDEDRECTD57*%
%TA.AperFunction,ViaPad*%
%ADD58C,0.45000*%
%ADD59C,0.50000*%
%TA.AperFunction,SMDPad,CuDef*%
%ADD61R,2.60000X3.00000*%
%ADD62R,3.60000X3.00000*%
G36*
X4500000Y4480897D02*
X4507968D01*
X4523596Y4477788D01*
X4538319Y4471690D01*
X4551568Y4462837D01*
X4562837Y4451568D01*
X4571690Y4438320D01*
X4577788Y4423595D01*
X4580897Y4407968D01*
X4580897Y4400000D01*
X4580895Y2731546D01*
X4013200D01*
X4003480Y2727520D01*
X3999454Y2717800D01*
Y1612900D01*
X4000143Y1611235D01*
Y863600D01*
X4004170Y853880D01*
X4013890Y849854D01*
X4278854D01*
Y-65298D01*
X100000Y-65297D01*
X92108D01*
X76622Y-62247D01*
X62018Y-56260D01*
X48844Y-47564D01*
X37601Y-36487D01*
X28711Y-23444D01*
X22509Y-8931D01*
X19229Y6509D01*
X19114Y14247D01*
X19103Y1615079D01*
X19102Y1621739D01*
X21701Y1634801D01*
X26799Y1647109D01*
X34198Y1658183D01*
X38907Y1662893D01*
X38908Y1662893D01*
X43616Y1667601D01*
X54692Y1675001D01*
X66997Y1680099D01*
X80061Y1682697D01*
X86721Y1682697D01*
X156072D01*
X159103Y1667457D01*
X148975Y1663262D01*
X133224Y1651176D01*
X121138Y1635425D01*
X113541Y1617084D01*
X112621Y1610100D01*
X247000D01*
X381379D01*
X380459Y1617084D01*
X372862Y1635425D01*
X360776Y1651176D01*
X345025Y1663262D01*
X334897Y1667457D01*
X337928Y1682697D01*
X576072D01*
X579103Y1667457D01*
X568975Y1663262D01*
X553224Y1651176D01*
X541138Y1635425D01*
X533541Y1617084D01*
X532621Y1610100D01*
X647000D01*
Y1597400D01*
X659700D01*
Y1521350D01*
X687000D01*
X706683Y1523941D01*
X725025Y1531538D01*
X740776Y1543624D01*
X747714Y1552666D01*
X762954Y1547492D01*
Y1300491D01*
X161709Y699247D01*
X101600D01*
X86734Y696289D01*
X74131Y687869D01*
X65711Y675266D01*
X62753Y660400D01*
X65711Y645534D01*
X74131Y632931D01*
X86734Y624511D01*
X101600Y621553D01*
X177800D01*
X192666Y624511D01*
X205269Y632931D01*
X829269Y1256931D01*
X837689Y1269534D01*
X840647Y1284400D01*
Y1862418D01*
Y1880554D01*
X874600D01*
X889466Y1883511D01*
X902069Y1891931D01*
X910489Y1904534D01*
X913446Y1919400D01*
X910489Y1934266D01*
X902069Y1946869D01*
X889466Y1955289D01*
X874600Y1958247D01*
X817891D01*
X800847Y1975291D01*
Y2125826D01*
X803542Y2127872D01*
X824185Y2124410D01*
X826563Y2120851D01*
X832776Y2116699D01*
X834306Y2113006D01*
X844208Y2103104D01*
X857145Y2097745D01*
X860396D01*
X872409Y2090929D01*
X873753Y2083665D01*
Y2076163D01*
X879112Y2063226D01*
X889014Y2053324D01*
X901951Y2047965D01*
X915954D01*
X928892Y2053324D01*
X938794Y2063226D01*
X940960Y2068455D01*
X944649Y2070920D01*
X955592Y2087298D01*
X959434Y2106616D01*
X958975D01*
Y2134280D01*
X959321D01*
X955910Y2160184D01*
X945947Y2184238D01*
Y2193246D01*
X940588Y2206183D01*
X930686Y2216085D01*
X917749Y2221444D01*
X912498D01*
X901912Y2226664D01*
X898800Y2235524D01*
Y2242202D01*
X893441Y2255139D01*
X883539Y2265041D01*
X870602Y2270400D01*
X856598D01*
X843661Y2265041D01*
X833759Y2255139D01*
X831833Y2250490D01*
X826410Y2246866D01*
X824190Y2243544D01*
X803605Y2240168D01*
X800847Y2242294D01*
Y2338428D01*
X823872Y2361453D01*
X850900D01*
X865766Y2364411D01*
X878369Y2372831D01*
X886789Y2385434D01*
X889747Y2400300D01*
X886789Y2415166D01*
X878369Y2427769D01*
X865766Y2436189D01*
X850900Y2439147D01*
X846628D01*
Y2849819D01*
X843671Y2864685D01*
X835250Y2877287D01*
X637069Y3075469D01*
X624466Y3083889D01*
X609600Y3086847D01*
X594734Y3083889D01*
X582131Y3075469D01*
X573711Y3062866D01*
X570753Y3048000D01*
X573711Y3033134D01*
X582131Y3020531D01*
X768935Y2833728D01*
Y2760446D01*
X753695Y2757414D01*
X752862Y2759425D01*
X740776Y2775176D01*
X725025Y2787262D01*
X706683Y2794859D01*
X687000Y2797451D01*
X659700D01*
Y2721400D01*
X647000D01*
Y2708700D01*
X532621D01*
X533541Y2701716D01*
X541138Y2683375D01*
X553224Y2667624D01*
X568975Y2655538D01*
X581041Y2650540D01*
X578010Y2635300D01*
X335991D01*
X332959Y2650540D01*
X345025Y2655538D01*
X360776Y2667624D01*
X372862Y2683375D01*
X380459Y2701716D01*
X381379Y2708699D01*
X247000D01*
X112621D01*
X113541Y2701716D01*
X121138Y2683375D01*
X133224Y2667624D01*
X148975Y2655538D01*
X161041Y2650540D01*
X158009Y2635300D01*
X80066D01*
X67001Y2637899D01*
X54694Y2642996D01*
X43616Y2650398D01*
X38907Y2655107D01*
X34426Y2659589D01*
X27283Y2670063D01*
X22212Y2681683D01*
X19376Y2694094D01*
X19103Y2700441D01*
X19102Y4389966D01*
X19007Y4390446D01*
X19079Y4390931D01*
X18679Y4399391D01*
X21194Y4416144D01*
X26928Y4432086D01*
X35661Y4446601D01*
X47059Y4459136D01*
X60682Y4469205D01*
X76007Y4476425D01*
X92447Y4480516D01*
X100482Y4480897D01*
X4500000Y4480897D01*
D02*
G37*
%LPC*%
G36*
X180301Y4346586D02*
Y4269100D01*
X257786D01*
X251839Y4291293D01*
X239938Y4311907D01*
X223107Y4328738D01*
X202493Y4340639D01*
X180301Y4346586D01*
D02*
G37*
G36*
X154901Y4346586D02*
X132707Y4340639D01*
X112093Y4328738D01*
X95262Y4311907D01*
X83361Y4291293D01*
X77414Y4269100D01*
X154901D01*
Y4346586D01*
D02*
G37*
G36*
X3530600Y4433047D02*
X635000D01*
X620134Y4430089D01*
X607531Y4421669D01*
X353531Y4167669D01*
X345111Y4155066D01*
X342153Y4140200D01*
Y3937000D01*
X345111Y3922134D01*
X353531Y3909531D01*
X366134Y3901111D01*
X381000Y3898153D01*
X395866Y3901111D01*
X408469Y3909531D01*
X416889Y3922134D01*
X419847Y3937000D01*
Y4124109D01*
X651091Y4355353D01*
X755261D01*
X762253Y4341563D01*
X761796Y4340113D01*
X742093Y4328738D01*
X725262Y4311907D01*
X713361Y4291293D01*
X707414Y4269100D01*
X797599D01*
X887786D01*
X881839Y4291293D01*
X869938Y4311907D01*
X853107Y4328738D01*
X833404Y4340113D01*
X832947Y4341563D01*
X839939Y4355353D01*
X3514509D01*
X3644153Y4225709D01*
Y4186368D01*
X3628913Y4180055D01*
X3615989Y4192979D01*
X3593711Y4205842D01*
X3568862Y4212500D01*
X3543138D01*
X3518289Y4205842D01*
X3496011Y4192979D01*
X3477821Y4174789D01*
X3464958Y4152511D01*
X3458300Y4127662D01*
Y4101938D01*
X3464958Y4077089D01*
X3477821Y4054811D01*
X3481303Y4051328D01*
X3397988Y3968012D01*
X3392374Y3959611D01*
X3390402Y3949700D01*
Y3932119D01*
X3375162Y3925806D01*
X3361989Y3938979D01*
X3339711Y3951842D01*
X3314862Y3958500D01*
X3289138D01*
X3264289Y3951842D01*
X3242011Y3938979D01*
X3223821Y3920789D01*
X3210958Y3898511D01*
X3204300Y3873662D01*
Y3847938D01*
X3210958Y3823089D01*
X3223821Y3800811D01*
X3242011Y3782621D01*
X3264289Y3769758D01*
X3289138Y3763100D01*
X3314862D01*
X3339711Y3769758D01*
X3361989Y3782621D01*
X3375162Y3795794D01*
X3390402Y3789481D01*
Y2983159D01*
Y2786562D01*
X3392374Y2776651D01*
X3397988Y2768249D01*
X3530249Y2635988D01*
X3538651Y2630374D01*
X3548562Y2628402D01*
X3606801D01*
X3658921Y2576282D01*
Y2471528D01*
X3654978Y2467585D01*
X3649619Y2454648D01*
Y2440644D01*
X3654978Y2427707D01*
X3664880Y2417805D01*
X3677817Y2412446D01*
X3691820D01*
X3704758Y2417805D01*
X3714660Y2427707D01*
X3720018Y2440644D01*
Y2454648D01*
X3714660Y2467585D01*
X3710716Y2471528D01*
Y2587009D01*
X3708745Y2596920D01*
X3703131Y2605322D01*
X3635840Y2672612D01*
X3627439Y2678226D01*
X3617528Y2680198D01*
X3559289D01*
X3442198Y2797289D01*
Y2983159D01*
Y3938973D01*
X3525146Y4021921D01*
X3543138Y4017100D01*
X3568862D01*
X3593711Y4023758D01*
X3615989Y4036621D01*
X3628913Y4049545D01*
X3644153Y4043232D01*
Y3987800D01*
X3647111Y3972934D01*
X3655531Y3960331D01*
X3718619Y3897244D01*
X3712300Y3873662D01*
Y3847938D01*
X3718958Y3823089D01*
X3731821Y3800811D01*
X3750011Y3782621D01*
X3772289Y3769758D01*
X3797138Y3763100D01*
X3822862D01*
X3847711Y3769758D01*
X3869989Y3782621D01*
X3888179Y3800811D01*
X3900386Y3821953D01*
X3973614D01*
X3985821Y3800811D01*
X4004011Y3782621D01*
X4026289Y3769758D01*
X4051138Y3763100D01*
X4076862D01*
X4101711Y3769758D01*
X4123989Y3782621D01*
X4142179Y3800811D01*
X4155042Y3823089D01*
X4161700Y3847938D01*
Y3873662D01*
X4155042Y3898511D01*
X4142179Y3920789D01*
X4123989Y3938979D01*
X4101711Y3951842D01*
X4076862Y3958500D01*
X4051138D01*
X4026289Y3951842D01*
X4004011Y3938979D01*
X3985821Y3920789D01*
X3973614Y3899647D01*
X3900386D01*
X3888179Y3920789D01*
X3869989Y3938979D01*
X3847711Y3951842D01*
X3822862Y3958500D01*
X3797138D01*
X3773556Y3952181D01*
X3721847Y4003891D01*
Y4026912D01*
X3735926Y4032744D01*
X3742213Y4026458D01*
X3767387Y4011924D01*
X3795466Y4004400D01*
X3797300D01*
Y4114800D01*
Y4225200D01*
X3795466D01*
X3767387Y4217676D01*
X3742213Y4203142D01*
X3735926Y4196856D01*
X3721847Y4202688D01*
Y4241800D01*
X3718889Y4256666D01*
X3710469Y4269269D01*
X3558069Y4421669D01*
X3545466Y4430089D01*
X3530600Y4433047D01*
D02*
G37*
G36*
X257786Y4243700D02*
X180301D01*
Y4166214D01*
X202493Y4172161D01*
X223107Y4184062D01*
X239938Y4200893D01*
X251839Y4221507D01*
X257786Y4243700D01*
D02*
G37*
G36*
X784899D02*
X707414D01*
X713361Y4221507D01*
X725262Y4200893D01*
X742093Y4184062D01*
X762707Y4172161D01*
X784899Y4166214D01*
Y4243700D01*
D02*
G37*
G36*
X887786D02*
X810299D01*
Y4166214D01*
X832493Y4172161D01*
X853107Y4184062D01*
X869938Y4200893D01*
X881839Y4221507D01*
X887786Y4243700D01*
D02*
G37*
G36*
X154901D02*
X77414D01*
X83361Y4221507D01*
X95262Y4200893D01*
X112093Y4184062D01*
X132707Y4172161D01*
X154901Y4166214D01*
Y4243700D01*
D02*
G37*
G36*
X4078534Y4225200D02*
X4076700D01*
Y4127500D01*
X4174400D01*
Y4129334D01*
X4166876Y4157413D01*
X4152342Y4182587D01*
X4131787Y4203142D01*
X4106613Y4217676D01*
X4078534Y4225200D01*
D02*
G37*
G36*
X3824534D02*
X3822700D01*
Y4127500D01*
X3920400D01*
Y4129334D01*
X3912876Y4157413D01*
X3898342Y4182587D01*
X3877787Y4203142D01*
X3852613Y4217676D01*
X3824534Y4225200D01*
D02*
G37*
G36*
X4051300D02*
X4049466D01*
X4021387Y4217676D01*
X3996213Y4203142D01*
X3975658Y4182587D01*
X3961124Y4157413D01*
X3953600Y4129334D01*
Y4127500D01*
X4051300D01*
Y4225200D01*
D02*
G37*
G36*
X3314862Y4212500D02*
X3289138D01*
X3264289Y4205842D01*
X3242011Y4192979D01*
X3223821Y4174789D01*
X3210958Y4152511D01*
X3204300Y4127662D01*
Y4101938D01*
X3210958Y4077089D01*
X3223821Y4054811D01*
X3242011Y4036621D01*
X3264289Y4023758D01*
X3289138Y4017100D01*
X3314862D01*
X3339711Y4023758D01*
X3361989Y4036621D01*
X3380179Y4054811D01*
X3393042Y4077089D01*
X3399700Y4101938D01*
Y4127662D01*
X3393042Y4152511D01*
X3380179Y4174789D01*
X3361989Y4192979D01*
X3339711Y4205842D01*
X3314862Y4212500D01*
D02*
G37*
G36*
X3060862D02*
X3035138D01*
X3010289Y4205842D01*
X2988011Y4192979D01*
X2969821Y4174789D01*
X2956958Y4152511D01*
X2950300Y4127662D01*
Y4101938D01*
X2956958Y4077089D01*
X2969821Y4054811D01*
X2988011Y4036621D01*
X3010289Y4023758D01*
X3035138Y4017100D01*
X3060862D01*
X3085711Y4023758D01*
X3107989Y4036621D01*
X3126179Y4054811D01*
X3139042Y4077089D01*
X3145700Y4101938D01*
Y4127662D01*
X3139042Y4152511D01*
X3126179Y4174789D01*
X3107989Y4192979D01*
X3085711Y4205842D01*
X3060862Y4212500D01*
D02*
G37*
G36*
X2806862D02*
X2781138D01*
X2756289Y4205842D01*
X2734011Y4192979D01*
X2715821Y4174789D01*
X2702958Y4152511D01*
X2696300Y4127662D01*
Y4101938D01*
X2702958Y4077089D01*
X2709073Y4066498D01*
X2648688Y4006112D01*
X2643074Y3997711D01*
X2641102Y3987800D01*
Y3911565D01*
X2625862Y3907482D01*
X2618179Y3920789D01*
X2599989Y3938979D01*
X2577711Y3951842D01*
X2552862Y3958500D01*
X2527138D01*
X2502289Y3951842D01*
X2480011Y3938979D01*
X2461821Y3920789D01*
X2454138Y3907482D01*
X2438898Y3911565D01*
Y3977073D01*
X2491698Y4029873D01*
X2502289Y4023758D01*
X2527138Y4017100D01*
X2552862D01*
X2577711Y4023758D01*
X2599989Y4036621D01*
X2618179Y4054811D01*
X2631042Y4077089D01*
X2637700Y4101938D01*
Y4127662D01*
X2631042Y4152511D01*
X2618179Y4174789D01*
X2599989Y4192979D01*
X2577711Y4205842D01*
X2552862Y4212500D01*
X2527138D01*
X2502289Y4205842D01*
X2480011Y4192979D01*
X2461821Y4174789D01*
X2448958Y4152511D01*
X2442300Y4127662D01*
Y4101938D01*
X2448958Y4077089D01*
X2455073Y4066498D01*
X2394688Y4006112D01*
X2389074Y3997711D01*
X2387102Y3987800D01*
Y3911565D01*
X2371862Y3907482D01*
X2364179Y3920789D01*
X2345989Y3938979D01*
X2323711Y3951842D01*
X2298862Y3958500D01*
X2273138D01*
X2248289Y3951842D01*
X2226011Y3938979D01*
X2207821Y3920789D01*
X2200138Y3907482D01*
X2184898Y3911565D01*
Y3977073D01*
X2237698Y4029873D01*
X2248289Y4023758D01*
X2273138Y4017100D01*
X2298862D01*
X2323711Y4023758D01*
X2345989Y4036621D01*
X2364179Y4054811D01*
X2377042Y4077089D01*
X2383700Y4101938D01*
Y4127662D01*
X2377042Y4152511D01*
X2364179Y4174789D01*
X2345989Y4192979D01*
X2323711Y4205842D01*
X2298862Y4212500D01*
X2273138D01*
X2248289Y4205842D01*
X2226011Y4192979D01*
X2207821Y4174789D01*
X2194958Y4152511D01*
X2188300Y4127662D01*
Y4101938D01*
X2194958Y4077089D01*
X2201073Y4066498D01*
X2140688Y4006112D01*
X2135074Y3997711D01*
X2133102Y3987800D01*
Y3911565D01*
X2117862Y3907482D01*
X2110179Y3920789D01*
X2091989Y3938979D01*
X2069711Y3951842D01*
X2044862Y3958500D01*
X2019138D01*
X1994289Y3951842D01*
X1972011Y3938979D01*
X1953821Y3920789D01*
X1940958Y3898511D01*
X1934300Y3873662D01*
Y3847938D01*
X1940958Y3823089D01*
X1953821Y3800811D01*
X1957303Y3797328D01*
X1886688Y3726712D01*
X1882638Y3720651D01*
X1872500Y3721367D01*
X1867398Y3723186D01*
Y3888173D01*
X2001146Y4021921D01*
X2019138Y4017100D01*
X2044862D01*
X2069711Y4023758D01*
X2091989Y4036621D01*
X2110179Y4054811D01*
X2123042Y4077089D01*
X2129700Y4101938D01*
Y4127662D01*
X2123042Y4152511D01*
X2110179Y4174789D01*
X2091989Y4192979D01*
X2069711Y4205842D01*
X2044862Y4212500D01*
X2019138D01*
X1994289Y4205842D01*
X1972011Y4192979D01*
X1953821Y4174789D01*
X1940958Y4152511D01*
X1934300Y4127662D01*
Y4101938D01*
X1940958Y4077089D01*
X1953821Y4054811D01*
X1957303Y4051328D01*
X1823188Y3917212D01*
X1817574Y3908811D01*
X1815602Y3898900D01*
Y2400300D01*
X1817574Y2390389D01*
X1823188Y2381988D01*
X1988288Y2216888D01*
X1996689Y2211274D01*
X2006600Y2209302D01*
X2235200D01*
X2245111Y2211274D01*
X2253512Y2216888D01*
X2262025Y2225400D01*
X2267602D01*
X2270013Y2226399D01*
X2285253Y2216216D01*
Y2171700D01*
X2288211Y2156834D01*
X2296631Y2144231D01*
X2304983Y2138651D01*
X2489903Y1953731D01*
X2502505Y1945311D01*
X2517371Y1942353D01*
X2997200D01*
X3012066Y1945311D01*
X3024669Y1953731D01*
X3033089Y1966334D01*
X3036047Y1981200D01*
X3033089Y1996066D01*
X3024669Y2008669D01*
X3012066Y2017089D01*
X2997200Y2020047D01*
X2533462D01*
X2362947Y2190562D01*
Y2269909D01*
X2516669Y2423631D01*
X2525089Y2436234D01*
X2528047Y2451100D01*
Y2667000D01*
X2525089Y2681866D01*
X2516669Y2694469D01*
X2451847Y2759291D01*
Y2881860D01*
X2525400Y2955413D01*
X2607987D01*
X2622853Y2958371D01*
X2635455Y2966791D01*
X2636505Y2968362D01*
X2672063D01*
X2681973Y2970334D01*
X2690375Y2975948D01*
X2755485Y3041057D01*
X2769535Y3033555D01*
X2770052Y3022163D01*
X2647088Y2899199D01*
X2642317Y2892058D01*
X2640844Y2884655D01*
X2632813Y2876624D01*
X2627454Y2863687D01*
Y2849683D01*
X2632813Y2836746D01*
X2642715Y2826844D01*
X2655652Y2821485D01*
X2669656D01*
X2682593Y2826844D01*
X2692495Y2836746D01*
X2697854Y2849683D01*
Y2863687D01*
X2692495Y2876624D01*
X2689635Y2879484D01*
X2802631Y2992480D01*
X2813702D01*
X2826639Y2997839D01*
X2836541Y3007741D01*
X2841900Y3020678D01*
Y3034682D01*
X2836541Y3047619D01*
X2826639Y3057521D01*
X2826298Y3057662D01*
X2829329Y3072902D01*
X2986473D01*
X3047502Y3011873D01*
Y2693580D01*
X3044792Y2691260D01*
X3033164Y2686366D01*
X2878552Y2840978D01*
Y2859425D01*
X2886789Y2867662D01*
X2892148Y2880599D01*
Y2894603D01*
X2886789Y2907540D01*
X2876887Y2917442D01*
X2863950Y2922801D01*
X2849947D01*
X2837009Y2917442D01*
X2827107Y2907540D01*
X2821748Y2894603D01*
Y2880599D01*
X2827107Y2867662D01*
X2834526Y2860243D01*
Y2831860D01*
X2836202Y2823436D01*
X2840974Y2816294D01*
X3110333Y2546935D01*
X3117475Y2542163D01*
X3125899Y2540487D01*
X3224212D01*
X3232636Y2542163D01*
X3239778Y2546935D01*
X3245071Y2552229D01*
X3251581Y2545719D01*
X3264518Y2540360D01*
X3278522D01*
X3291459Y2545719D01*
X3301361Y2555621D01*
X3306720Y2568558D01*
Y2582562D01*
X3301361Y2595499D01*
X3291459Y2605401D01*
X3278522Y2610760D01*
X3266941D01*
X3263115Y2613316D01*
X3254691Y2614992D01*
X3246267Y2613316D01*
X3239126Y2608544D01*
X3215094Y2584513D01*
X3135017D01*
X3102970Y2616560D01*
X3104244Y2623415D01*
X3108263Y2632820D01*
X3118739Y2637159D01*
X3128641Y2647061D01*
X3134000Y2659998D01*
Y2674002D01*
X3128641Y2686939D01*
X3118739Y2696841D01*
X3105802Y2702200D01*
X3100225D01*
X3099298Y2703127D01*
Y3022600D01*
X3097326Y3032511D01*
X3091712Y3040912D01*
X3015512Y3117112D01*
X3007111Y3122726D01*
X2997200Y3124698D01*
X2776603D01*
X2766692Y3122726D01*
X2758290Y3117112D01*
X2709480Y3068302D01*
X2695400Y3074134D01*
Y3174100D01*
X2540000D01*
X2384600D01*
Y3011400D01*
X2451601D01*
X2457433Y2997320D01*
X2385531Y2925419D01*
X2377111Y2912816D01*
X2374153Y2897950D01*
Y2767674D01*
X2286498D01*
Y3392873D01*
X2685312Y3791688D01*
X2687197Y3794508D01*
X2703827Y3795287D01*
X2704487Y3795041D01*
X2705658Y3793013D01*
X2726213Y3772458D01*
X2751387Y3757924D01*
X2779466Y3750400D01*
X2781300D01*
Y3860800D01*
Y3971200D01*
X2779466D01*
X2751387Y3963676D01*
X2726213Y3949142D01*
X2708138Y3931067D01*
X2692898Y3934574D01*
Y3977073D01*
X2745698Y4029873D01*
X2756289Y4023758D01*
X2781138Y4017100D01*
X2806862D01*
X2831711Y4023758D01*
X2853989Y4036621D01*
X2872179Y4054811D01*
X2885042Y4077089D01*
X2891700Y4101938D01*
Y4127662D01*
X2885042Y4152511D01*
X2872179Y4174789D01*
X2853989Y4192979D01*
X2831711Y4205842D01*
X2806862Y4212500D01*
D02*
G37*
G36*
X4174400Y4102100D02*
X4076700D01*
Y4004400D01*
X4078534D01*
X4106613Y4011924D01*
X4131787Y4026458D01*
X4152342Y4047013D01*
X4166876Y4072187D01*
X4174400Y4100266D01*
Y4102100D01*
D02*
G37*
G36*
X4051300D02*
X3953600D01*
Y4100266D01*
X3961124Y4072187D01*
X3975658Y4047013D01*
X3996213Y4026458D01*
X4021387Y4011924D01*
X4049466Y4004400D01*
X4051300D01*
Y4102100D01*
D02*
G37*
G36*
X3920400D02*
X3822700D01*
Y4004400D01*
X3824534D01*
X3852613Y4011924D01*
X3877787Y4026458D01*
X3898342Y4047013D01*
X3912876Y4072187D01*
X3920400Y4100266D01*
Y4102100D01*
D02*
G37*
G36*
X2808534Y3971200D02*
X2806700D01*
Y3873500D01*
X2904400D01*
Y3875334D01*
X2896876Y3903413D01*
X2882342Y3928587D01*
X2861787Y3949142D01*
X2836613Y3963676D01*
X2808534Y3971200D01*
D02*
G37*
G36*
X3060862Y3958500D02*
X3035138D01*
X3010289Y3951842D01*
X2988011Y3938979D01*
X2969821Y3920789D01*
X2956958Y3898511D01*
X2950300Y3873662D01*
Y3847938D01*
X2956958Y3823089D01*
X2969821Y3800811D01*
X2988011Y3782621D01*
X3010289Y3769758D01*
X3035138Y3763100D01*
X3060862D01*
X3085711Y3769758D01*
X3107989Y3782621D01*
X3126179Y3800811D01*
X3139042Y3823089D01*
X3145700Y3847938D01*
Y3873662D01*
X3139042Y3898511D01*
X3126179Y3920789D01*
X3107989Y3938979D01*
X3085711Y3951842D01*
X3060862Y3958500D01*
D02*
G37*
G36*
X2904400Y3848100D02*
X2806700D01*
Y3750400D01*
X2808534D01*
X2836613Y3757924D01*
X2861787Y3772458D01*
X2882342Y3793013D01*
X2896876Y3818187D01*
X2904400Y3846266D01*
Y3848100D01*
D02*
G37*
G36*
X1658802Y3620429D02*
X1644798D01*
X1631861Y3615070D01*
X1621959Y3605168D01*
X1616600Y3592231D01*
Y3578228D01*
X1621959Y3565290D01*
X1625903Y3561347D01*
Y3488612D01*
X1563888Y3426598D01*
X1374004D01*
X1364093Y3424626D01*
X1355691Y3419012D01*
X1321874Y3385195D01*
X1315102Y3388000D01*
X1301098D01*
X1288161Y3382641D01*
X1278259Y3372739D01*
X1272900Y3359802D01*
Y3345798D01*
X1278259Y3332861D01*
X1288161Y3322959D01*
X1301098Y3317600D01*
X1315102D01*
X1328039Y3322959D01*
X1333442Y3328362D01*
X1336014Y3328874D01*
X1344416Y3334488D01*
X1373120Y3363192D01*
X1375072Y3362721D01*
X1387200Y3355719D01*
Y3345798D01*
X1392559Y3332861D01*
X1402461Y3322959D01*
X1415398Y3317600D01*
X1429402D01*
X1430331Y3317985D01*
X1589677D01*
X1599587Y3319956D01*
X1607989Y3325570D01*
X1719131Y3436712D01*
X1724745Y3445114D01*
X1726716Y3455024D01*
Y3495966D01*
X1730659Y3499910D01*
X1736018Y3512847D01*
Y3526850D01*
X1730659Y3539788D01*
X1720758Y3549690D01*
X1707820Y3555049D01*
X1693817D01*
X1692938Y3554685D01*
X1691459Y3555331D01*
X1684737Y3562150D01*
X1682246Y3566752D01*
X1687000Y3578228D01*
Y3592231D01*
X1681641Y3605168D01*
X1671739Y3615070D01*
X1658802Y3620429D01*
D02*
G37*
G36*
X4416025Y3662700D02*
X4383975D01*
X4352542Y3656448D01*
X4322933Y3644183D01*
X4296285Y3626377D01*
X4273623Y3603715D01*
X4255817Y3577068D01*
X4243553Y3547458D01*
X4237300Y3516025D01*
Y3483976D01*
X4243553Y3452542D01*
X4255817Y3422933D01*
X4273623Y3396285D01*
X4296285Y3373623D01*
X4322933Y3355817D01*
X4352542Y3343553D01*
X4383975Y3337300D01*
X4416025D01*
X4447458Y3343553D01*
X4477067Y3355817D01*
X4503715Y3373623D01*
X4526377Y3396285D01*
X4544183Y3422933D01*
X4556448Y3452542D01*
X4562700Y3483976D01*
Y3516025D01*
X4556448Y3547458D01*
X4544183Y3577068D01*
X4526377Y3603715D01*
X4503715Y3626377D01*
X4477067Y3644183D01*
X4447458Y3656448D01*
X4416025Y3662700D01*
D02*
G37*
G36*
X216025D02*
X183976D01*
X152542Y3656448D01*
X122933Y3644183D01*
X96285Y3626377D01*
X73623Y3603715D01*
X55817Y3577068D01*
X43553Y3547458D01*
X37300Y3516025D01*
Y3483976D01*
X43553Y3452542D01*
X55817Y3422933D01*
X73623Y3396285D01*
X96285Y3373623D01*
X122933Y3355817D01*
X152542Y3343553D01*
X183976Y3337300D01*
X216025D01*
X247458Y3343553D01*
X277068Y3355817D01*
X303715Y3373623D01*
X326377Y3396285D01*
X344183Y3422933D01*
X356448Y3452542D01*
X362700Y3483976D01*
Y3516025D01*
X356448Y3547458D01*
X344183Y3577068D01*
X326377Y3603715D01*
X303715Y3626377D01*
X277068Y3644183D01*
X247458Y3656448D01*
X216025Y3662700D01*
D02*
G37*
G36*
X2695400Y3362200D02*
X2552700D01*
Y3199500D01*
X2695400D01*
Y3362200D01*
D02*
G37*
G36*
X2527300D02*
X2384600D01*
Y3199500D01*
X2527300D01*
Y3362200D01*
D02*
G37*
G36*
X312420Y3023466D02*
Y2989580D01*
X346306D01*
X340327Y3004013D01*
X326853Y3017487D01*
X312420Y3023466D01*
D02*
G37*
G36*
X287020D02*
X272587Y3017487D01*
X259113Y3004013D01*
X253134Y2989580D01*
X287020D01*
Y3023466D01*
D02*
G37*
G36*
X346306Y2964180D02*
X312420D01*
Y2930294D01*
X326853Y2936273D01*
X340327Y2949747D01*
X346306Y2964180D01*
D02*
G37*
G36*
X287020D02*
X253134D01*
X259113Y2949747D01*
X272587Y2936273D01*
X287020Y2930294D01*
Y2964180D01*
D02*
G37*
G36*
X634300Y2797451D02*
X607000D01*
X587317Y2794859D01*
X568975Y2787262D01*
X553224Y2775176D01*
X541138Y2759425D01*
X533541Y2741083D01*
X532621Y2734100D01*
X634300D01*
Y2797451D01*
D02*
G37*
G36*
X307000D02*
X259700D01*
Y2734099D01*
X381379D01*
X380459Y2741083D01*
X372862Y2759425D01*
X360776Y2775176D01*
X345025Y2787262D01*
X326684Y2794859D01*
X307000Y2797451D01*
D02*
G37*
G36*
X234300D02*
X187000D01*
X167316Y2794859D01*
X148975Y2787262D01*
X133224Y2775176D01*
X121138Y2759425D01*
X113541Y2741083D01*
X112621Y2734099D01*
X234300D01*
Y2797451D01*
D02*
G37*
G36*
X3568862Y3958500D02*
X3543138D01*
X3518289Y3951842D01*
X3496011Y3938979D01*
X3477821Y3920789D01*
X3464958Y3898511D01*
X3458300Y3873662D01*
Y3847938D01*
X3464958Y3823089D01*
X3477821Y3800811D01*
X3496011Y3782621D01*
X3504702Y3777603D01*
Y2857500D01*
X3506674Y2847589D01*
X3512288Y2839188D01*
X3609700Y2741775D01*
Y2736198D01*
X3615059Y2723261D01*
X3624961Y2713359D01*
X3637898Y2708000D01*
X3651902D01*
X3664839Y2713359D01*
X3674741Y2723261D01*
X3680100Y2736198D01*
Y2750202D01*
X3674741Y2763139D01*
X3664839Y2773041D01*
X3651902Y2778400D01*
X3646325D01*
X3556498Y2868227D01*
Y3763100D01*
X3568862D01*
X3593711Y3769758D01*
X3615989Y3782621D01*
X3634179Y3800811D01*
X3647042Y3823089D01*
X3653700Y3847938D01*
Y3873662D01*
X3647042Y3898511D01*
X3634179Y3920789D01*
X3615989Y3938979D01*
X3593711Y3951842D01*
X3568862Y3958500D01*
D02*
G37*
G36*
X977000Y2576658D02*
Y2542772D01*
X1010886D01*
X1004908Y2557205D01*
X991433Y2570679D01*
X977000Y2576658D01*
D02*
G37*
G36*
X951600D02*
X937167Y2570679D01*
X923693Y2557205D01*
X917714Y2542772D01*
X951600D01*
Y2576658D01*
D02*
G37*
G36*
X1010886Y2517372D02*
X977000D01*
Y2483486D01*
X991433Y2489464D01*
X1004908Y2502939D01*
X1010886Y2517372D01*
D02*
G37*
G36*
X951600D02*
X917714D01*
X923693Y2502939D01*
X937167Y2489464D01*
X951600Y2483486D01*
Y2517372D01*
D02*
G37*
G36*
X863600Y3772647D02*
X848734Y3769689D01*
X836131Y3761269D01*
X827711Y3748666D01*
X824753Y3733800D01*
Y3467100D01*
X827711Y3452234D01*
X836131Y3439632D01*
X1399153Y2876610D01*
Y2286299D01*
X1402110Y2271433D01*
X1410531Y2258830D01*
X1449953Y2219408D01*
Y1947139D01*
X1434713Y1938000D01*
X1429402Y1940200D01*
X1415398D01*
X1402461Y1934841D01*
X1392559Y1924939D01*
X1388580Y1915332D01*
X1373120D01*
X1369141Y1924939D01*
X1359239Y1934841D01*
X1346302Y1940200D01*
X1332298D01*
X1319361Y1934841D01*
X1309459Y1924939D01*
X1304100Y1912002D01*
Y1897998D01*
X1309459Y1885061D01*
X1319361Y1875159D01*
X1320737Y1874589D01*
Y1660800D01*
X1313798D01*
X1300861Y1655441D01*
X1290959Y1645539D01*
X1285600Y1632602D01*
Y1618598D01*
X1290959Y1605661D01*
X1300861Y1595759D01*
X1313798Y1590400D01*
X1327802D01*
X1340739Y1595759D01*
X1350641Y1605661D01*
X1356000Y1618598D01*
Y1629669D01*
X1358316Y1631985D01*
X1363087Y1639126D01*
X1364763Y1647550D01*
Y1880683D01*
X1369141Y1885061D01*
X1373120Y1894668D01*
X1388580D01*
X1392559Y1885061D01*
X1400387Y1877233D01*
Y1651000D01*
X1402063Y1642576D01*
X1406835Y1635435D01*
X1412600Y1629669D01*
Y1618598D01*
X1417959Y1605661D01*
X1427861Y1595759D01*
X1440798Y1590400D01*
X1454802D01*
X1467739Y1595759D01*
X1477641Y1605661D01*
X1483000Y1618598D01*
Y1632602D01*
X1477641Y1645539D01*
X1467739Y1655441D01*
X1454802Y1660800D01*
X1444413D01*
Y1707420D01*
X1459653Y1712043D01*
X1461331Y1709532D01*
X1509958Y1660905D01*
Y1600795D01*
X1512915Y1585930D01*
X1521336Y1573327D01*
X1636231Y1458431D01*
X1648834Y1450011D01*
X1663700Y1447053D01*
X1977809D01*
X2258531Y1166331D01*
X2271134Y1157911D01*
X2286000Y1154953D01*
X2347300D01*
Y884100D01*
X2732700D01*
Y1209500D01*
X2432237D01*
X2420469Y1221269D01*
X2407866Y1229689D01*
X2393000Y1232647D01*
X2302091D01*
X2021369Y1513369D01*
X2008766Y1521789D01*
X1993900Y1524747D01*
X1679791D01*
X1587651Y1616886D01*
Y1676995D01*
X1584694Y1691861D01*
X1576273Y1704464D01*
X1527646Y1753091D01*
Y2235499D01*
X1524689Y2250365D01*
X1516268Y2262967D01*
X1476846Y2302389D01*
Y2892700D01*
X1473889Y2907566D01*
X1465468Y2920169D01*
X902447Y3483191D01*
Y3733800D01*
X899489Y3748666D01*
X891069Y3761269D01*
X878466Y3769689D01*
X863600Y3772647D01*
D02*
G37*
G36*
X3194702Y2194200D02*
X3180698D01*
X3167761Y2188841D01*
X3159933Y2181013D01*
X3111500D01*
X3103076Y2179337D01*
X3095934Y2174565D01*
X3070535Y2149165D01*
X3065763Y2142024D01*
X3064087Y2133600D01*
Y1901418D01*
X3013482Y1850813D01*
X2231618D01*
X2034865Y2047565D01*
X2027724Y2052337D01*
X2019300Y2054013D01*
X1869267D01*
X1861439Y2061841D01*
X1848502Y2067200D01*
X1834498D01*
X1821561Y2061841D01*
X1811659Y2051939D01*
X1806300Y2039002D01*
Y2024998D01*
X1809011Y2018453D01*
X1806016Y2010318D01*
X1801726Y2003764D01*
X1800336Y2002604D01*
X1794976Y2001537D01*
X1787834Y1996765D01*
X1686235Y1895165D01*
X1681463Y1888024D01*
X1679787Y1879600D01*
Y1856567D01*
X1671959Y1848739D01*
X1666600Y1835802D01*
Y1821798D01*
X1671959Y1808861D01*
X1681861Y1798959D01*
X1694798Y1793600D01*
X1708802D01*
X1721739Y1798959D01*
X1731641Y1808861D01*
X1737000Y1821798D01*
Y1835802D01*
X1731641Y1848739D01*
X1724750Y1855630D01*
Y1871419D01*
X1812518Y1959187D01*
X1876385D01*
X1881467Y1943947D01*
X1875159Y1937639D01*
X1869800Y1924702D01*
Y1910698D01*
X1875159Y1897761D01*
X1879102Y1893818D01*
Y1739900D01*
X1881074Y1729989D01*
X1886688Y1721588D01*
X2111352Y1496923D01*
X2119754Y1491309D01*
X2129665Y1489338D01*
X2944437D01*
X3530102Y903673D01*
Y800100D01*
X3530227Y799474D01*
Y788670D01*
X3531705Y781237D01*
X3535916Y774936D01*
Y774464D01*
X3531705Y768163D01*
X3530227Y760730D01*
Y749926D01*
X3530102Y749300D01*
Y653007D01*
X3518289Y649842D01*
X3496011Y636979D01*
X3477821Y618789D01*
X3464958Y596511D01*
X3458300Y571662D01*
Y545938D01*
X3464958Y521089D01*
X3477821Y498811D01*
X3496011Y480621D01*
X3518289Y467758D01*
X3543138Y461100D01*
X3568862D01*
X3593711Y467758D01*
X3615989Y480621D01*
X3634179Y498811D01*
X3641862Y512118D01*
X3657102Y508035D01*
Y442527D01*
X3604302Y389727D01*
X3593711Y395842D01*
X3568862Y402500D01*
X3543138D01*
X3518289Y395842D01*
X3496011Y382979D01*
X3477821Y364789D01*
X3464958Y342511D01*
X3458300Y317662D01*
Y291938D01*
X3464958Y267089D01*
X3477821Y244811D01*
X3496011Y226621D01*
X3518289Y213758D01*
X3543138Y207100D01*
X3568862D01*
X3593711Y213758D01*
X3615989Y226621D01*
X3634179Y244811D01*
X3647042Y267089D01*
X3653700Y291938D01*
Y317662D01*
X3647042Y342511D01*
X3640927Y353102D01*
X3701312Y413488D01*
X3706926Y421889D01*
X3708898Y431800D01*
Y508035D01*
X3724138Y512118D01*
X3731821Y498811D01*
X3750011Y480621D01*
X3772289Y467758D01*
X3797138Y461100D01*
X3822862D01*
X3847711Y467758D01*
X3869989Y480621D01*
X3888179Y498811D01*
X3901042Y521089D01*
X3907700Y545938D01*
Y571662D01*
X3901042Y596511D01*
X3888179Y618789D01*
X3869989Y636979D01*
X3847711Y649842D01*
X3822862Y656500D01*
X3797138D01*
X3772289Y649842D01*
X3750011Y636979D01*
X3731821Y618789D01*
X3724138Y605482D01*
X3708898Y609565D01*
Y749300D01*
X3708773Y749926D01*
Y760730D01*
X3707295Y768163D01*
X3704411Y772478D01*
Y776922D01*
X3707295Y781237D01*
X3708773Y788670D01*
Y799474D01*
X3708898Y800100D01*
Y914400D01*
X3706926Y924311D01*
X3701312Y932712D01*
X3040913Y1593112D01*
X3032511Y1598726D01*
X3022600Y1600697D01*
X2182427D01*
X2014405Y1768719D01*
X2015558Y1775317D01*
X2032560Y1784473D01*
X2036330Y1782912D01*
Y1829497D01*
X2061730D01*
Y1782912D01*
X2076163Y1788890D01*
X2089637Y1802364D01*
X2096930Y1819970D01*
Y1825487D01*
X2112170Y1831799D01*
X2181535Y1762434D01*
X2188676Y1757663D01*
X2197100Y1755987D01*
X3048000D01*
X3056424Y1757663D01*
X3063565Y1762435D01*
X3152466Y1851335D01*
X3157237Y1858476D01*
X3158913Y1866900D01*
Y2080433D01*
X3166741Y2088261D01*
X3172100Y2101198D01*
Y2110866D01*
X3177265Y2118635D01*
X3185034Y2123800D01*
X3194702D01*
X3207639Y2129159D01*
X3217541Y2139061D01*
X3222900Y2151998D01*
Y2166002D01*
X3217541Y2178939D01*
X3207639Y2188841D01*
X3194702Y2194200D01*
D02*
G37*
G36*
X1035702Y2397400D02*
X1021698D01*
X1008761Y2392041D01*
X998859Y2382139D01*
X993500Y2369202D01*
Y2355198D01*
X998859Y2342261D01*
X1002802Y2338318D01*
Y1855091D01*
X987562Y1848778D01*
X979633Y1856707D01*
X965200Y1862686D01*
Y1816100D01*
Y1769514D01*
X979633Y1775493D01*
X987562Y1783422D01*
X1002802Y1777109D01*
Y1750627D01*
X921488Y1669312D01*
X915874Y1660911D01*
X913902Y1651000D01*
Y1270000D01*
X915874Y1260089D01*
X917300Y1257955D01*
Y1250298D01*
X922659Y1237361D01*
X932561Y1227459D01*
X945498Y1222100D01*
X959502D01*
X972439Y1227459D01*
X982341Y1237361D01*
X987700Y1250298D01*
Y1264302D01*
X982341Y1277239D01*
X972439Y1287141D01*
X965698Y1289933D01*
Y1640273D01*
X1047012Y1721588D01*
X1052626Y1729989D01*
X1054598Y1739900D01*
Y2338318D01*
X1058541Y2342261D01*
X1063900Y2355198D01*
Y2369202D01*
X1058541Y2382139D01*
X1048639Y2392041D01*
X1035702Y2397400D01*
D02*
G37*
G36*
X939800Y1862686D02*
X925367Y1856707D01*
X911893Y1843233D01*
X905914Y1828800D01*
X939800D01*
Y1862686D01*
D02*
G37*
G36*
Y1803400D02*
X905914D01*
X911893Y1788967D01*
X925367Y1775493D01*
X939800Y1769514D01*
Y1803400D01*
D02*
G37*
G36*
X1683402Y2270400D02*
X1669398D01*
X1656461Y2265041D01*
X1646559Y2255139D01*
X1641200Y2242202D01*
Y2236625D01*
X1569188Y2164612D01*
X1563574Y2156211D01*
X1561602Y2146300D01*
Y1765300D01*
X1563574Y1755389D01*
X1569188Y1746988D01*
X1692000Y1624175D01*
Y1618598D01*
X1697359Y1605661D01*
X1707261Y1595759D01*
X1720198Y1590400D01*
X1734202D01*
X1747139Y1595759D01*
X1757041Y1605661D01*
X1762400Y1618598D01*
Y1632602D01*
X1757041Y1645539D01*
X1747139Y1655441D01*
X1734202Y1660800D01*
X1728625D01*
X1613398Y1776027D01*
Y2135573D01*
X1677825Y2200000D01*
X1683402D01*
X1696339Y2205359D01*
X1706241Y2215261D01*
X1711600Y2228198D01*
Y2242202D01*
X1706241Y2255139D01*
X1696339Y2265041D01*
X1683402Y2270400D01*
D02*
G37*
G36*
X634300Y1584700D02*
X532621D01*
X533541Y1577717D01*
X541138Y1559375D01*
X553224Y1543624D01*
X568975Y1531538D01*
X587317Y1523941D01*
X607000Y1521350D01*
X634300D01*
Y1584700D01*
D02*
G37*
G36*
X381379Y1584700D02*
X259700D01*
Y1521350D01*
X307000D01*
X326684Y1523941D01*
X345025Y1531538D01*
X360776Y1543624D01*
X372862Y1559375D01*
X380459Y1577717D01*
X381379Y1584700D01*
D02*
G37*
G36*
X234300D02*
X112621D01*
X113541Y1577717D01*
X121138Y1559375D01*
X133224Y1543624D01*
X148975Y1531538D01*
X167316Y1523941D01*
X187000Y1521350D01*
X234300D01*
Y1584700D01*
D02*
G37*
G36*
X1790862Y1418500D02*
X1765138D01*
X1740289Y1411842D01*
X1718011Y1398979D01*
X1699821Y1380789D01*
X1686958Y1358511D01*
X1680300Y1333662D01*
Y1307938D01*
X1686958Y1283089D01*
X1699821Y1260811D01*
X1718011Y1242621D01*
X1740289Y1229758D01*
X1765138Y1223100D01*
X1790862D01*
X1815711Y1229758D01*
X1837989Y1242621D01*
X1856179Y1260811D01*
X1869042Y1283089D01*
X1875700Y1307938D01*
Y1333662D01*
X1869042Y1358511D01*
X1856179Y1380789D01*
X1837989Y1398979D01*
X1815711Y1411842D01*
X1790862Y1418500D01*
D02*
G37*
G36*
X1536862D02*
X1511138D01*
X1486289Y1411842D01*
X1464011Y1398979D01*
X1445821Y1380789D01*
X1432958Y1358511D01*
X1426300Y1333662D01*
Y1307938D01*
X1432958Y1283089D01*
X1445821Y1260811D01*
X1464011Y1242621D01*
X1486289Y1229758D01*
X1511138Y1223100D01*
X1536862D01*
X1561711Y1229758D01*
X1583989Y1242621D01*
X1602179Y1260811D01*
X1615042Y1283089D01*
X1621700Y1307938D01*
Y1333662D01*
X1615042Y1358511D01*
X1602179Y1380789D01*
X1583989Y1398979D01*
X1561711Y1411842D01*
X1536862Y1418500D01*
D02*
G37*
G36*
X1282862D02*
X1257138D01*
X1232289Y1411842D01*
X1210011Y1398979D01*
X1191821Y1380789D01*
X1178958Y1358511D01*
X1172300Y1333662D01*
Y1307938D01*
X1178958Y1283089D01*
X1191821Y1260811D01*
X1210011Y1242621D01*
X1232289Y1229758D01*
X1257138Y1223100D01*
X1282862D01*
X1307711Y1229758D01*
X1329989Y1242621D01*
X1348179Y1260811D01*
X1361042Y1283089D01*
X1367700Y1307938D01*
Y1333662D01*
X1361042Y1358511D01*
X1348179Y1380789D01*
X1329989Y1398979D01*
X1307711Y1411842D01*
X1282862Y1418500D01*
D02*
G37*
G36*
X1538534Y1177200D02*
X1536700D01*
Y1079500D01*
X1634400D01*
Y1081334D01*
X1626876Y1109413D01*
X1612342Y1134587D01*
X1591787Y1155142D01*
X1566613Y1169676D01*
X1538534Y1177200D01*
D02*
G37*
G36*
X1511300D02*
X1509466D01*
X1481387Y1169676D01*
X1456213Y1155142D01*
X1435658Y1134587D01*
X1421124Y1109413D01*
X1413600Y1081334D01*
Y1079500D01*
X1511300D01*
Y1177200D01*
D02*
G37*
G36*
X1790862Y1164500D02*
X1765138D01*
X1740289Y1157842D01*
X1718011Y1144979D01*
X1699821Y1126789D01*
X1686958Y1104511D01*
X1680300Y1079662D01*
Y1053938D01*
X1686958Y1029089D01*
X1699821Y1006811D01*
X1718011Y988621D01*
X1740289Y975758D01*
X1765138Y969100D01*
X1790862D01*
X1815711Y975758D01*
X1837989Y988621D01*
X1856179Y1006811D01*
X1869042Y1029089D01*
X1875700Y1053938D01*
Y1079662D01*
X1869042Y1104511D01*
X1856179Y1126789D01*
X1837989Y1144979D01*
X1815711Y1157842D01*
X1790862Y1164500D01*
D02*
G37*
G36*
X1282862D02*
X1257138D01*
X1232289Y1157842D01*
X1210011Y1144979D01*
X1191821Y1126789D01*
X1178958Y1104511D01*
X1172300Y1079662D01*
Y1053938D01*
X1178958Y1029089D01*
X1191821Y1006811D01*
X1210011Y988621D01*
X1232289Y975758D01*
X1257138Y969100D01*
X1282862D01*
X1307711Y975758D01*
X1329989Y988621D01*
X1348179Y1006811D01*
X1361042Y1029089D01*
X1367700Y1053938D01*
Y1079662D01*
X1361042Y1104511D01*
X1348179Y1126789D01*
X1329989Y1144979D01*
X1307711Y1157842D01*
X1282862Y1164500D01*
D02*
G37*
G36*
X1634400Y1054100D02*
X1536700D01*
Y956400D01*
X1538534D01*
X1566613Y963924D01*
X1591787Y978458D01*
X1612342Y999013D01*
X1626876Y1024187D01*
X1634400Y1052266D01*
Y1054100D01*
D02*
G37*
G36*
X1511300D02*
X1413600D01*
Y1052266D01*
X1421124Y1024187D01*
X1435658Y999013D01*
X1456213Y978458D01*
X1481387Y963924D01*
X1509466Y956400D01*
X1511300D01*
Y1054100D01*
D02*
G37*
G36*
X216025Y1162700D02*
X183976D01*
X152542Y1156448D01*
X122933Y1144183D01*
X96285Y1126377D01*
X73623Y1103715D01*
X55817Y1077067D01*
X43553Y1047458D01*
X37300Y1016025D01*
Y983975D01*
X43553Y952542D01*
X55817Y922933D01*
X73623Y896285D01*
X96285Y873623D01*
X122933Y855817D01*
X152542Y843553D01*
X183976Y837300D01*
X216025D01*
X247458Y843553D01*
X277068Y855817D01*
X303715Y873623D01*
X326377Y896285D01*
X344183Y922933D01*
X356448Y952542D01*
X362700Y983975D01*
Y1016025D01*
X356448Y1047458D01*
X344183Y1077067D01*
X326377Y1103715D01*
X303715Y1126377D01*
X277068Y1144183D01*
X247458Y1156448D01*
X216025Y1162700D01*
D02*
G37*
G36*
X2044862Y656500D02*
X2019138D01*
X1994289Y649842D01*
X1972011Y636979D01*
X1953821Y618789D01*
X1940958Y596511D01*
X1936752Y580813D01*
X1800278D01*
X1796863Y583095D01*
X1789430Y584573D01*
X1766570D01*
X1759137Y583095D01*
X1754822Y580211D01*
X1750378D01*
X1746063Y583095D01*
X1738630Y584573D01*
X1727826D01*
X1727200Y584698D01*
X1244600D01*
X1234689Y582726D01*
X1226288Y577112D01*
X1132273Y483098D01*
X556827D01*
X491148Y548777D01*
X492400Y551798D01*
Y565802D01*
X487041Y578739D01*
X477139Y588641D01*
X464202Y594000D01*
X450198D01*
X437261Y588641D01*
X427359Y578739D01*
X422000Y565802D01*
Y551798D01*
X427359Y538861D01*
X437261Y528959D01*
X438428Y528476D01*
X438888Y527788D01*
X527788Y438888D01*
X536189Y433274D01*
X546100Y431302D01*
X1143000D01*
X1152911Y433274D01*
X1161312Y438888D01*
X1255327Y532902D01*
X1727200D01*
X1727826Y533027D01*
X1738630D01*
X1746063Y534505D01*
X1752364Y538716D01*
X1752836D01*
X1759137Y534505D01*
X1766570Y533027D01*
X1789430D01*
X1796863Y534505D01*
X1800278Y536787D01*
X1936752D01*
X1940958Y521089D01*
X1953821Y498811D01*
X1972011Y480621D01*
X1994289Y467758D01*
X2019138Y461100D01*
X2044862D01*
X2069711Y467758D01*
X2091989Y480621D01*
X2110179Y498811D01*
X2123042Y521089D01*
X2129700Y545938D01*
Y571662D01*
X2123042Y596511D01*
X2110179Y618789D01*
X2091989Y636979D01*
X2069711Y649842D01*
X2044862Y656500D01*
D02*
G37*
G36*
X3316534Y669200D02*
X3314700D01*
Y571500D01*
X3412400D01*
Y573334D01*
X3404876Y601413D01*
X3390342Y626587D01*
X3369787Y647142D01*
X3344613Y661676D01*
X3316534Y669200D01*
D02*
G37*
G36*
X3289300D02*
X3287466D01*
X3259387Y661676D01*
X3234213Y647142D01*
X3213658Y626587D01*
X3199124Y601413D01*
X3191600Y573334D01*
Y571500D01*
X3289300D01*
Y669200D01*
D02*
G37*
G36*
X584200Y3734547D02*
X569334Y3731589D01*
X556731Y3723169D01*
X548311Y3710566D01*
X545353Y3695700D01*
Y3276600D01*
X548311Y3261734D01*
X556731Y3249131D01*
X1039331Y2766531D01*
X1104153Y2701709D01*
Y1905000D01*
Y1641691D01*
X1064731Y1602269D01*
X1056311Y1589666D01*
X1053353Y1574800D01*
Y1146391D01*
X949109Y1042147D01*
X749300D01*
X734434Y1039189D01*
X721831Y1030769D01*
X151423Y460360D01*
X143002Y447758D01*
X140045Y432892D01*
Y176708D01*
X143002Y161842D01*
X151423Y149240D01*
X226531Y74131D01*
X239134Y65711D01*
X254000Y62753D01*
X3822700D01*
X3837566Y65711D01*
X3850169Y74131D01*
X3964469Y188431D01*
X3972889Y201034D01*
X3975847Y215900D01*
Y233232D01*
X3991087Y239545D01*
X4004011Y226621D01*
X4026289Y213758D01*
X4051138Y207100D01*
X4076862D01*
X4101711Y213758D01*
X4123989Y226621D01*
X4142179Y244811D01*
X4155042Y267089D01*
X4161700Y291938D01*
Y317662D01*
X4155042Y342511D01*
X4142179Y364789D01*
X4123989Y382979D01*
X4101711Y395842D01*
X4076862Y402500D01*
X4051138D01*
X4026289Y395842D01*
X4004011Y382979D01*
X3991087Y370055D01*
X3975847Y376368D01*
Y415709D01*
X4027556Y467419D01*
X4051138Y461100D01*
X4076862D01*
X4101711Y467758D01*
X4123989Y480621D01*
X4142179Y498811D01*
X4155042Y521089D01*
X4161700Y545938D01*
Y571662D01*
X4155042Y596511D01*
X4142179Y618789D01*
X4123989Y636979D01*
X4101711Y649842D01*
X4076862Y656500D01*
X4051138D01*
X4026289Y649842D01*
X4004011Y636979D01*
X3985821Y618789D01*
X3972958Y596511D01*
X3966300Y571662D01*
Y545938D01*
X3972619Y522356D01*
X3909531Y459269D01*
X3901111Y446666D01*
X3898153Y431800D01*
Y376368D01*
X3882913Y370055D01*
X3869989Y382979D01*
X3847711Y395842D01*
X3822862Y402500D01*
X3797138D01*
X3772289Y395842D01*
X3750011Y382979D01*
X3731821Y364789D01*
X3718958Y342511D01*
X3712300Y317662D01*
Y291938D01*
X3718958Y267089D01*
X3731821Y244811D01*
X3750011Y226621D01*
X3772289Y213758D01*
X3797138Y207100D01*
X3822862D01*
X3847711Y213758D01*
X3869989Y226621D01*
X3870624Y227256D01*
X3887161Y222240D01*
X3887367Y221204D01*
X3806609Y140447D01*
X270091D01*
X217738Y192799D01*
Y416801D01*
X765391Y964453D01*
X965200D01*
X980066Y967411D01*
X992669Y975831D01*
X1119669Y1102831D01*
X1128089Y1115434D01*
X1131047Y1130300D01*
Y1558709D01*
X1170469Y1598131D01*
X1178889Y1610734D01*
X1181847Y1625600D01*
Y1905000D01*
Y2717800D01*
X1178889Y2732666D01*
X1170469Y2745269D01*
X1094269Y2821469D01*
X623047Y3292691D01*
Y3695700D01*
X620089Y3710566D01*
X611669Y3723169D01*
X599066Y3731589D01*
X584200Y3734547D01*
D02*
G37*
G36*
X3060862Y656500D02*
X3035138D01*
X3010289Y649842D01*
X2988011Y636979D01*
X2969821Y618789D01*
X2956958Y596511D01*
X2950300Y571662D01*
Y545938D01*
X2956958Y521089D01*
X2969821Y498811D01*
X2988011Y480621D01*
X3010289Y467758D01*
X3035138Y461100D01*
X3060862D01*
X3085711Y467758D01*
X3107989Y480621D01*
X3126179Y498811D01*
X3139042Y521089D01*
X3145700Y545938D01*
Y571662D01*
X3139042Y596511D01*
X3126179Y618789D01*
X3107989Y636979D01*
X3085711Y649842D01*
X3060862Y656500D01*
D02*
G37*
G36*
X2806862D02*
X2781138D01*
X2756289Y649842D01*
X2734011Y636979D01*
X2715821Y618789D01*
X2702958Y596511D01*
X2696300Y571662D01*
Y545938D01*
X2702958Y521089D01*
X2715821Y498811D01*
X2734011Y480621D01*
X2756289Y467758D01*
X2781138Y461100D01*
X2806862D01*
X2831711Y467758D01*
X2853989Y480621D01*
X2872179Y498811D01*
X2885042Y521089D01*
X2891700Y545938D01*
Y571662D01*
X2885042Y596511D01*
X2872179Y618789D01*
X2853989Y636979D01*
X2831711Y649842D01*
X2806862Y656500D01*
D02*
G37*
G36*
X2552862D02*
X2527138D01*
X2502289Y649842D01*
X2480011Y636979D01*
X2461821Y618789D01*
X2448958Y596511D01*
X2442300Y571662D01*
Y545938D01*
X2448958Y521089D01*
X2461821Y498811D01*
X2480011Y480621D01*
X2502289Y467758D01*
X2527138Y461100D01*
X2552862D01*
X2577711Y467758D01*
X2599989Y480621D01*
X2618179Y498811D01*
X2631042Y521089D01*
X2637700Y545938D01*
Y571662D01*
X2631042Y596511D01*
X2618179Y618789D01*
X2599989Y636979D01*
X2577711Y649842D01*
X2552862Y656500D01*
D02*
G37*
G36*
X2298862D02*
X2273138D01*
X2248289Y649842D01*
X2226011Y636979D01*
X2207821Y618789D01*
X2194958Y596511D01*
X2188300Y571662D01*
Y545938D01*
X2194958Y521089D01*
X2207821Y498811D01*
X2226011Y480621D01*
X2248289Y467758D01*
X2273138Y461100D01*
X2298862D01*
X2323711Y467758D01*
X2345989Y480621D01*
X2364179Y498811D01*
X2377042Y521089D01*
X2383700Y545938D01*
Y571662D01*
X2377042Y596511D01*
X2364179Y618789D01*
X2345989Y636979D01*
X2323711Y649842D01*
X2298862Y656500D01*
D02*
G37*
G36*
X3412400Y546100D02*
X3314700D01*
Y448400D01*
X3316534D01*
X3344613Y455924D01*
X3369787Y470458D01*
X3390342Y491013D01*
X3404876Y516187D01*
X3412400Y544266D01*
Y546100D01*
D02*
G37*
G36*
X3289300D02*
X3191600D01*
Y544266D01*
X3199124Y516187D01*
X3213658Y491013D01*
X3234213Y470458D01*
X3259387Y455924D01*
X3287466Y448400D01*
X3289300D01*
Y546100D01*
D02*
G37*
G36*
X3314862Y402500D02*
X3289138D01*
X3264289Y395842D01*
X3242011Y382979D01*
X3223821Y364789D01*
X3210958Y342511D01*
X3204300Y317662D01*
Y291938D01*
X3210958Y267089D01*
X3223821Y244811D01*
X3242011Y226621D01*
X3264289Y213758D01*
X3289138Y207100D01*
X3314862D01*
X3339711Y213758D01*
X3361989Y226621D01*
X3380179Y244811D01*
X3393042Y267089D01*
X3399700Y291938D01*
Y317662D01*
X3393042Y342511D01*
X3380179Y364789D01*
X3361989Y382979D01*
X3339711Y395842D01*
X3314862Y402500D01*
D02*
G37*
G36*
X3060862D02*
X3035138D01*
X3010289Y395842D01*
X2988011Y382979D01*
X2969821Y364789D01*
X2956958Y342511D01*
X2950300Y317662D01*
Y291938D01*
X2956958Y267089D01*
X2969821Y244811D01*
X2988011Y226621D01*
X3010289Y213758D01*
X3035138Y207100D01*
X3060862D01*
X3085711Y213758D01*
X3107989Y226621D01*
X3126179Y244811D01*
X3139042Y267089D01*
X3145700Y291938D01*
Y317662D01*
X3139042Y342511D01*
X3126179Y364789D01*
X3107989Y382979D01*
X3085711Y395842D01*
X3060862Y402500D01*
D02*
G37*
G36*
X2806862D02*
X2781138D01*
X2756289Y395842D01*
X2734011Y382979D01*
X2715821Y364789D01*
X2702958Y342511D01*
X2696300Y317662D01*
Y291938D01*
X2702958Y267089D01*
X2715821Y244811D01*
X2734011Y226621D01*
X2756289Y213758D01*
X2781138Y207100D01*
X2806862D01*
X2831711Y213758D01*
X2853989Y226621D01*
X2872179Y244811D01*
X2885042Y267089D01*
X2891700Y291938D01*
Y317662D01*
X2885042Y342511D01*
X2872179Y364789D01*
X2853989Y382979D01*
X2831711Y395842D01*
X2806862Y402500D01*
D02*
G37*
G36*
X2552862D02*
X2527138D01*
X2502289Y395842D01*
X2480011Y382979D01*
X2461821Y364789D01*
X2448958Y342511D01*
X2442300Y317662D01*
Y291938D01*
X2448958Y267089D01*
X2461821Y244811D01*
X2480011Y226621D01*
X2502289Y213758D01*
X2527138Y207100D01*
X2552862D01*
X2577711Y213758D01*
X2599989Y226621D01*
X2618179Y244811D01*
X2631042Y267089D01*
X2637700Y291938D01*
Y317662D01*
X2631042Y342511D01*
X2618179Y364789D01*
X2599989Y382979D01*
X2577711Y395842D01*
X2552862Y402500D01*
D02*
G37*
G36*
X2298862D02*
X2273138D01*
X2248289Y395842D01*
X2226011Y382979D01*
X2207821Y364789D01*
X2194958Y342511D01*
X2188300Y317662D01*
Y291938D01*
X2194958Y267089D01*
X2207821Y244811D01*
X2226011Y226621D01*
X2248289Y213758D01*
X2273138Y207100D01*
X2298862D01*
X2323711Y213758D01*
X2345989Y226621D01*
X2364179Y244811D01*
X2377042Y267089D01*
X2383700Y291938D01*
Y317662D01*
X2377042Y342511D01*
X2364179Y364789D01*
X2345989Y382979D01*
X2323711Y395842D01*
X2298862Y402500D01*
D02*
G37*
G36*
X2044862D02*
X2019138D01*
X1994289Y395842D01*
X1972011Y382979D01*
X1953821Y364789D01*
X1940958Y342511D01*
X1934300Y317662D01*
Y291938D01*
X1940958Y267089D01*
X1953821Y244811D01*
X1972011Y226621D01*
X1994289Y213758D01*
X2019138Y207100D01*
X2044862D01*
X2069711Y213758D01*
X2091989Y226621D01*
X2110179Y244811D01*
X2123042Y267089D01*
X2129700Y291938D01*
Y317662D01*
X2123042Y342511D01*
X2110179Y364789D01*
X2091989Y382979D01*
X2069711Y395842D01*
X2044862Y402500D01*
D02*
G37*
%LPD*%
G36*
X3690665Y751840D02*
X3677896D01*
Y797560D01*
X3690665D01*
Y751840D01*
D02*
G37*
G36*
X3563665D02*
X3550896D01*
Y797560D01*
X3563665D01*
Y751840D01*
D02*
G37*
G36*
X1775460Y558800D02*
Y553696D01*
X1729740D01*
Y566465D01*
X1775460D01*
Y558800D01*
D02*
G37*
D10*
X1979602Y2516198D02*
Y3617902D01*
X2159000Y3797300D01*
X1979602Y2516198D02*
X2082977Y2412823D01*
X939800Y1270000D02*
Y1651000D01*
X1028700Y1739900D02*
Y2362200D01*
X939800Y1651000D02*
X1028700Y1739900D01*
X457200Y546100D02*
X546100Y457200D01*
X457200Y546100D02*
Y558800D01*
X3530600Y2857500D02*
X3644900Y2743200D01*
X3530600Y2857500D02*
Y3835400D01*
X3617528Y2654300D02*
X3684819Y2587009D01*
X3548562Y2654300D02*
X3617528D01*
X3684819Y2447646D02*
Y2587009D01*
X3416300Y2786562D02*
X3548562Y2654300D01*
X3416300Y2786562D02*
Y2983159D01*
Y3949700D01*
X3556000Y4089400D01*
X3530600Y3835400D02*
X3556000Y3860800D01*
Y800100D02*
Y914400D01*
X3022600Y1574800D02*
X3683000Y914400D01*
Y800100D02*
Y914400D01*
X2171700Y1574800D02*
X3022600D01*
X2955165Y1515235D02*
X3556000Y914400D01*
X2129665Y1515235D02*
X2955165D01*
X3556000Y4089400D02*
Y4114800D01*
X1308100Y3352800D02*
X1326104D01*
X1374004Y3400700D01*
X1420422Y3350822D02*
X1422400Y3352800D01*
X1420422Y3343883D02*
Y3350822D01*
Y3343883D02*
X1589677D01*
X1374004Y3400700D02*
X1574615D01*
X1651800Y3477885D01*
X939800Y1270000D02*
X952500Y1257300D01*
X1587500Y1765300D02*
Y2146300D01*
X1676400Y2235200D01*
X1587500Y1765300D02*
X1727200Y1625600D01*
X1981200Y1765300D02*
X2171700Y1574800D01*
X1981200Y1765300D02*
Y1917700D01*
X1905000Y1739900D02*
X2129665Y1515235D01*
X1905000Y1739900D02*
Y1917700D01*
X2413000Y3987800D02*
X2540000Y4114800D01*
X2413000Y3797300D02*
Y3987800D01*
X2108200Y2641600D02*
X2260600Y2489200D01*
X2108200Y2641600D02*
Y3492500D01*
X2413000Y3797300D01*
X1244600Y558800D02*
X1727200D01*
X546100Y457200D02*
X1143000D01*
X1219200Y533400D01*
X1226752Y540952D01*
X1244600Y558800D01*
X1651800Y3477885D02*
Y3585229D01*
X2006600Y2235200D02*
X2235200D01*
X2260600Y2260600D01*
X3073400Y2692400D02*
Y3022600D01*
Y2692400D02*
X3098800Y2667000D01*
X2632990Y2994260D02*
X2672063D01*
X2776603Y3098800D02*
X2997200D01*
X2672063Y2994260D02*
X2776603Y3098800D01*
X2997200D02*
X3073400Y3022600D01*
X3556000Y304800D02*
X3683000Y431800D01*
Y749300D01*
X3556000Y558800D02*
Y749300D01*
X1589677Y3343883D02*
X1700819Y3455024D01*
X2260600Y2743200D02*
Y3403600D01*
X2409239Y2540000D02*
Y2594561D01*
X2260600Y2743200D02*
X2409239Y2594561D01*
X2667000Y3810000D02*
Y3987800D01*
X2260600Y3403600D02*
X2667000Y3810000D01*
X2184400Y3454400D02*
X2565296Y3835296D01*
X2184400Y2705100D02*
Y3454400D01*
X2540000Y3860592D02*
X2565296Y3835296D01*
X2184400Y2705100D02*
X2336800Y2552700D01*
X1905000Y2457637D02*
Y3708400D01*
Y2457637D02*
X2051237Y2311400D01*
X1905000Y3708400D02*
X2032000Y3835400D01*
X2051237Y2311400D02*
X2171700D01*
X1841500Y2400300D02*
Y3898900D01*
Y2400300D02*
X2006600Y2235200D01*
X1841500Y3898900D02*
X2057400Y4114800D01*
X2032000Y2578100D02*
Y3543300D01*
Y2578100D02*
X2171700Y2438400D01*
X2286000Y3797300D02*
Y3860800D01*
X2032000Y3543300D02*
X2286000Y3797300D01*
X2667000Y3987800D02*
X2794000Y4114800D01*
X2082977Y2374723D02*
Y2412823D01*
X2159000Y3797300D02*
Y3987800D01*
X2286000Y4114800D01*
X1700819Y3455024D02*
Y3519849D01*
D35*
X1727200Y558800D02*
D03*
X1778000D02*
D03*
D39*
X3683000Y800100D02*
D03*
Y749300D02*
D03*
X3556000Y800100D02*
D03*
Y749300D02*
D03*
D45*
X2551800Y3212200D02*
X2641600Y3302000D01*
X2551800Y3186800D02*
Y3212200D01*
X2540000Y3186800D02*
X2551800D01*
X1422400Y1651000D02*
Y1905000D01*
Y1651000D02*
X1447800Y1625600D01*
X1339300Y1905000D02*
X1342750Y1901550D01*
X1320800Y1625600D02*
X1342750Y1647550D01*
Y1901550D01*
X2856539Y2831860D02*
X3125899Y2562500D01*
X2856539Y2831860D02*
Y2887192D01*
X2856948Y2887601D01*
X3254691Y2592979D02*
X3271520Y2576150D01*
X3224212Y2562500D02*
X3254691Y2592979D01*
X3271520Y2575560D02*
Y2576150D01*
X3125899Y2562500D02*
X3224212D01*
X1701800Y1828800D02*
Y1879600D01*
X1803400Y1981200D01*
X1993900D01*
X2197100Y1778000D02*
X3048000D01*
X1993900Y1981200D02*
X2197100Y1778000D01*
X2662654Y2856685D02*
Y2883634D01*
X2806700Y3027680D01*
X1778000Y558800D02*
X2032000D01*
X3048000Y1778000D02*
X3136900Y1866900D01*
Y2108200D01*
X3086100Y1892300D02*
Y2133600D01*
X3111500Y2159000D01*
X3187700D01*
X3022600Y1828800D02*
X3086100Y1892300D01*
X1841500Y2032000D02*
X2019300D01*
X2222500Y1828800D01*
X3022600D01*
D47*
X1092200Y1130300D02*
Y1574800D01*
X1143000Y1625600D02*
Y1905000D01*
X1092200Y1574800D02*
X1143000Y1625600D01*
X965200Y1003300D02*
X1092200Y1130300D01*
X2517371Y1981200D02*
X2997200D01*
X2326871Y2171700D02*
X2517371Y1981200D01*
X584200Y3276600D02*
X1066800Y2794000D01*
X584200Y3276600D02*
Y3695700D01*
X762000Y1959200D02*
Y2354519D01*
Y1959200D02*
X801800Y1919400D01*
X1143000Y1905000D02*
Y2717800D01*
X1066800Y2794000D02*
X1143000Y2717800D01*
X3937000Y215900D02*
Y431800D01*
X4064000Y558800D01*
X178892Y176708D02*
Y432892D01*
X749300Y1003300D02*
X965200D01*
X178892Y432892D02*
X749300Y1003300D01*
X178892Y176708D02*
X254000Y101600D01*
X3822700D01*
X3937000Y215900D01*
X1488800Y1737000D02*
Y2235499D01*
X863600Y3467100D02*
X1438000Y2892700D01*
Y2286299D02*
Y2892700D01*
Y2286299D02*
X1488800Y2235499D01*
Y1737000D02*
X1548805Y1676995D01*
X807781Y2400300D02*
Y2849819D01*
X609600Y3048000D02*
X807781Y2849819D01*
X801800Y1284400D02*
Y1862418D01*
X177800Y660400D02*
X801800Y1284400D01*
Y1862418D02*
Y1919400D01*
X101600Y660400D02*
X177800D01*
X2324100Y2171700D02*
Y2286000D01*
X2489200Y2451100D01*
X2324100Y2171700D02*
X2326871D01*
X2489200Y2451100D02*
Y2667000D01*
X635000Y4394200D02*
X3530600D01*
X381000Y4140200D02*
X635000Y4394200D01*
X3530600D02*
X3683000Y4241800D01*
X2286000Y1193800D02*
X2393000D01*
X2540000Y1046800D01*
X863600Y3467100D02*
Y3733800D01*
X1548805Y1600795D02*
Y1676995D01*
X1663700Y1485900D02*
X1993900D01*
X2286000Y1193800D01*
X1548805Y1600795D02*
X1663700Y1485900D01*
X381000Y3937000D02*
Y4140200D01*
X3810000Y3860800D02*
X4064000D01*
X3683000Y3987800D02*
X3810000Y3860800D01*
X3683000Y3987800D02*
Y4241800D01*
X2413000Y2743200D02*
Y2794000D01*
Y2897950D01*
X2509310Y2994260D01*
X2607987D01*
X2413000Y2743200D02*
X2489200Y2667000D01*
X762000Y2354519D02*
X807781Y2400300D01*
X850900D01*
X801800Y1919400D02*
X874600D01*
D50*
X908953Y2083165D02*
G03*
X932404Y2106616I0J23451D01*
G01*
Y2134280D02*
G03*
X910973Y2186018I-73169J0D01*
G01*
X863600Y2235200D02*
G03*
X838077Y2209677I0J-25523D01*
G01*
Y2158435D02*
G03*
X864147Y2132365I26071J0D01*
G01*
X932404Y2106616D02*
Y2134280D01*
X910747Y2186244D02*
X910973Y2186018D01*
X864147Y2132365D02*
Y2132945D01*
X838077Y2158435D02*
Y2209677D01*
D52*
X4400000Y1000000D02*
D03*
X200000Y3500000D02*
D03*
Y1000000D02*
D03*
X4400000Y3500000D02*
D03*
D53*
X4064000Y4114800D02*
D03*
X3810000D02*
D03*
X2794000Y3860800D02*
D03*
X3302000Y558800D02*
D03*
X1524000Y1066800D02*
D03*
X3556000Y4114800D02*
D03*
Y3860800D02*
D03*
X1778000Y1320800D02*
D03*
X4064000Y558800D02*
D03*
X2032000Y304800D02*
D03*
X2540000Y4114800D02*
D03*
X2032000Y558800D02*
D03*
X2286000Y304800D02*
D03*
Y558800D02*
D03*
X2540000Y304800D02*
D03*
Y558800D02*
D03*
X2794000Y304800D02*
D03*
Y558800D02*
D03*
X3556000Y304800D02*
D03*
X3048000D02*
D03*
X3556000Y558800D02*
D03*
X3302000Y3860800D02*
D03*
X3048000Y558800D02*
D03*
X3810000Y304800D02*
D03*
X3302000D02*
D03*
X3810000Y558800D02*
D03*
X4064000Y304800D02*
D03*
X2794000Y4114800D02*
D03*
X2540000Y3860800D02*
D03*
X2286000D02*
D03*
Y4114800D02*
D03*
X2032000D02*
D03*
X3302000D02*
D03*
X3048000Y3860800D02*
D03*
Y4114800D02*
D03*
X2032000Y3860800D02*
D03*
X3810000D02*
D03*
X4064000D02*
D03*
X1524000Y1320800D02*
D03*
X1778000Y1066800D02*
D03*
X1270000Y1320800D02*
D03*
Y1066800D02*
D03*
D54*
X3950847Y1814200D02*
D03*
D55*
X797600Y4256400D02*
D03*
X167600D02*
D03*
D56*
X647000Y2721400D02*
D03*
Y1597400D02*
D03*
D57*
X247000Y2721400D02*
D03*
Y1597400D02*
D03*
D58*
X4419600Y4445000D02*
D03*
X4318000D02*
D03*
X4216400D02*
D03*
X4526377Y3705315D02*
D03*
X4522760Y3807184D02*
D03*
X4526377Y3908515D02*
D03*
Y4010115D02*
D03*
X4522760Y4111984D02*
D03*
X4526377Y4213315D02*
D03*
Y4314915D02*
D03*
X4522760Y4416784D02*
D03*
X4521200Y2870200D02*
D03*
Y3073400D02*
D03*
X4517583Y3175269D02*
D03*
X4521200Y2971800D02*
D03*
X458501Y3220903D02*
D03*
X1168400Y4140200D02*
D03*
X1411001Y3806373D02*
D03*
X4216400Y3403600D02*
D03*
X4212783Y3505469D02*
D03*
X4318000Y3302000D02*
D03*
X4216400D02*
D03*
X4114800Y3403600D02*
D03*
Y3505200D02*
D03*
Y3302000D02*
D03*
X4521200D02*
D03*
X4419600D02*
D03*
X4114800Y3200400D02*
D03*
X4013200Y3098800D02*
D03*
X4114800D02*
D03*
X4013200Y3505200D02*
D03*
X3911600Y3403600D02*
D03*
X3810000Y3505200D02*
D03*
X3911600D02*
D03*
X4013200Y3302000D02*
D03*
Y3403600D02*
D03*
Y3200400D02*
D03*
X3911600D02*
D03*
Y3302000D02*
D03*
Y3098800D02*
D03*
Y2997200D02*
D03*
X3840480Y2600960D02*
D03*
X3810000Y3302000D02*
D03*
Y3403600D02*
D03*
Y3200400D02*
D03*
X3708400D02*
D03*
Y3403600D02*
D03*
Y3505200D02*
D03*
Y3302000D02*
D03*
X3810000Y3098800D02*
D03*
X3708400Y2997200D02*
D03*
X3810000D02*
D03*
X3708400Y3098800D02*
D03*
X3606800D02*
D03*
Y2997200D02*
D03*
Y3403600D02*
D03*
Y3505200D02*
D03*
Y3302000D02*
D03*
X3470000Y3352800D02*
D03*
Y3454400D02*
D03*
Y3225800D02*
D03*
X3606800Y3200400D02*
D03*
X3470000Y2997200D02*
D03*
Y3124200D02*
D03*
X3809760Y2906000D02*
D03*
X3771900Y2768600D02*
D03*
X3784600Y2654300D02*
D03*
X3708400Y2895600D02*
D03*
X3704625Y2720100D02*
D03*
X3687720Y2654300D02*
D03*
X3784600Y2527300D02*
D03*
Y2590800D02*
D03*
X3627230Y2573130D02*
D03*
X3606800Y2895600D02*
D03*
X3454400Y2565400D02*
D03*
X3556000Y2552700D02*
D03*
X3365500Y2565400D02*
D03*
X3810000Y1828800D02*
D03*
Y1905000D02*
D03*
Y1752600D02*
D03*
Y2057400D02*
D03*
Y2133600D02*
D03*
Y1981200D02*
D03*
Y1371600D02*
D03*
Y1447800D02*
D03*
Y1295400D02*
D03*
Y1600200D02*
D03*
Y1676400D02*
D03*
Y1524000D02*
D03*
Y2286000D02*
D03*
Y2362200D02*
D03*
Y2209800D02*
D03*
X3733800Y1981200D02*
D03*
Y1905000D02*
D03*
Y1371600D02*
D03*
Y1524000D02*
D03*
Y1295400D02*
D03*
Y1676400D02*
D03*
Y1828800D02*
D03*
Y1600200D02*
D03*
X4267200Y609600D02*
D03*
Y685800D02*
D03*
Y533400D02*
D03*
X4191000Y762000D02*
D03*
X4114800D02*
D03*
X4267200D02*
D03*
Y152400D02*
D03*
Y228600D02*
D03*
Y76200D02*
D03*
Y381000D02*
D03*
Y457200D02*
D03*
Y304800D02*
D03*
X3810000Y1143000D02*
D03*
Y1219200D02*
D03*
Y1066800D02*
D03*
X3733800Y1143000D02*
D03*
Y1219200D02*
D03*
Y1066800D02*
D03*
X3962400Y812800D02*
D03*
X3835400Y838200D02*
D03*
X4038600Y762000D02*
D03*
X3810000Y990600D02*
D03*
X3733800D02*
D03*
X3784600Y914400D02*
D03*
X3619500Y2400300D02*
D03*
Y2463800D02*
D03*
X3733800Y2362200D02*
D03*
X3568700Y2349500D02*
D03*
X3733800Y2133600D02*
D03*
Y2209800D02*
D03*
Y2057400D02*
D03*
Y2286000D02*
D03*
X3657600Y2235200D02*
D03*
X3556000Y2159000D02*
D03*
X3502660Y2514600D02*
D03*
X3441700Y2463800D02*
D03*
X3378200D02*
D03*
X3495040Y2354580D02*
D03*
X3441700Y2321560D02*
D03*
X3454400Y2184400D02*
D03*
X3385820Y2352040D02*
D03*
X3429000Y2032000D02*
D03*
X3733800Y1752600D02*
D03*
X3657600Y1625600D02*
D03*
Y1524000D02*
D03*
Y1879600D02*
D03*
Y2032000D02*
D03*
Y1778000D02*
D03*
X3733800Y1447800D02*
D03*
X3657600Y1270000D02*
D03*
Y1117600D02*
D03*
Y1371600D02*
D03*
X3556000Y1270000D02*
D03*
Y1143000D02*
D03*
Y1778000D02*
D03*
Y1905000D02*
D03*
Y1651000D02*
D03*
Y2032000D02*
D03*
X3454400Y1930400D02*
D03*
X3429000Y1778000D02*
D03*
X3556000Y1524000D02*
D03*
X3454400Y1422400D02*
D03*
X3556000Y1397000D02*
D03*
X3454400Y1625600D02*
D03*
X3429000Y1524000D02*
D03*
Y1270000D02*
D03*
X3368400Y3326949D02*
D03*
X3327400Y3429000D02*
D03*
X3368400Y2946400D02*
D03*
Y3124200D02*
D03*
X3302000Y3022600D02*
D03*
Y3225800D02*
D03*
X2641600Y3302000D02*
D03*
Y3073400D02*
D03*
X2755900Y2844800D02*
D03*
X3225800Y2819400D02*
D03*
X2857500Y2565400D02*
D03*
X2438400Y3302000D02*
D03*
X2540000Y3175000D02*
D03*
X965994Y3566940D02*
D03*
X1371600Y3556000D02*
D03*
X1676400Y3149600D02*
D03*
X2438400Y3073400D02*
D03*
X2324100D02*
D03*
X1778000Y3149600D02*
D03*
X2509520Y2733040D02*
D03*
X1270000Y2921000D02*
D03*
X1651000Y2667000D02*
D03*
X977354Y3042083D02*
D03*
X299720Y2976880D02*
D03*
X3314700Y2527300D02*
D03*
Y2463800D02*
D03*
X3312160Y2352040D02*
D03*
X2857500Y2451100D02*
D03*
X3022600Y939800D02*
D03*
Y1270000D02*
D03*
Y1676400D02*
D03*
X2857500Y2336800D02*
D03*
Y2222500D02*
D03*
X2954243Y1883528D02*
D03*
X2049030Y1829497D02*
D03*
X1600200Y2286000D02*
D03*
X1270000Y2209800D02*
D03*
X1371600D02*
D03*
Y2108200D02*
D03*
X1270000D02*
D03*
X1206500Y1778000D02*
D03*
X964300Y2530072D02*
D03*
X952500Y1816100D02*
D03*
X1682944Y687699D02*
D03*
X1198413Y686158D02*
D03*
X355600Y177800D02*
D03*
X50800Y381000D02*
D03*
X457200Y558800D02*
D03*
X3644900Y2743200D02*
D03*
X3684819Y2447646D02*
D03*
X2997200Y1981200D02*
D03*
X1028700Y2362200D02*
D03*
X1308100Y3352800D02*
D03*
X1422400D02*
D03*
X952500Y1257300D02*
D03*
X910747Y2186244D02*
D03*
X908953Y2083165D02*
D03*
X1727200Y1625600D02*
D03*
X1676400Y2235200D02*
D03*
X1143000Y1905000D02*
D03*
X1447800Y1625600D02*
D03*
X1422400Y1905000D02*
D03*
X1339300D02*
D03*
X1320800Y1625600D02*
D03*
X863600Y2235200D02*
D03*
X864147Y2132945D02*
D03*
X584200Y3695700D02*
D03*
X1066800Y2794000D02*
D03*
X965200Y1003300D02*
D03*
X2856948Y2887601D02*
D03*
X3271520Y2575560D02*
D03*
X1701800Y1828800D02*
D03*
X1905000Y1917700D02*
D03*
X1981200D02*
D03*
X2806700Y3027680D02*
D03*
X2260600Y2489200D02*
D03*
X1651800Y3585229D02*
D03*
X2324100Y2171700D02*
D03*
X2260600Y2260600D02*
D03*
X863600Y3733800D02*
D03*
X3098800Y2667000D02*
D03*
X381000Y3937000D02*
D03*
X2413000Y2794000D02*
D03*
X850900Y2400300D02*
D03*
X3136900Y2108200D02*
D03*
X3187700Y2159000D02*
D03*
X2171700Y2311400D02*
D03*
X1841500Y2032000D02*
D03*
X2171700Y2438400D02*
D03*
X2662654Y2856685D02*
D03*
X2409239Y2540000D02*
D03*
X2336800Y2552700D02*
D03*
X2082977Y2374723D02*
D03*
X101600Y660400D02*
D03*
X609600Y3048000D02*
D03*
X874600Y1919400D02*
D03*
X1700819Y3519849D02*
D03*
D59*
X4554220Y2768600D02*
D03*
X4109166Y2865842D02*
D03*
X4064264Y2820941D02*
D03*
X4032446Y2942562D02*
D03*
X4019363Y2776039D02*
D03*
X4419077Y2768305D02*
D03*
X4342877D02*
D03*
X4495277D02*
D03*
X4190477D02*
D03*
X4114277D02*
D03*
X4266677D02*
D03*
X3987544Y2897661D02*
D03*
X3942643Y2852759D02*
D03*
X3897742Y2807858D02*
D03*
X3835400Y2770500D02*
D03*
X3974462Y2731138D02*
D03*
X3911600Y2667000D02*
D03*
X3843020Y2664460D02*
D03*
X2971800Y2565400D02*
D03*
X2743200D02*
D03*
X2628900D02*
D03*
X870881D02*
D03*
X2971800Y2451100D02*
D03*
X2743200D02*
D03*
X2628900D02*
D03*
X2971800Y2222500D02*
D03*
Y2336800D02*
D03*
X2743200Y2222500D02*
D03*
Y2336800D02*
D03*
X2628900D02*
D03*
Y2222500D02*
D03*
X1029100Y1625600D02*
D03*
X864900Y1752600D02*
D03*
X838200Y762000D02*
D03*
D61*
X2540000Y3186800D02*
D03*
D62*
Y1046800D02*
D03*
%TF.MD5,f40e84c6171b5f54e6ea9d311c8d2121*%
M02*
