%TF.GenerationSoftware,Altium Limited,Altium Designer Develop,26.0.0 (27)*%
G04 Layer_Color=32896*
%FSLAX45Y45*%
%MOMM*%
%TF.SameCoordinates,D5E2BA32-6F81-40A5-AA13-F30F529DFF44*%
%TF.FilePolarity,Positive*%
%TF.FileFunction,Legend,Bot*%
%TF.Part,Single*%
G01*
G75*
%TA.AperFunction,NonConductor*%
%ADD65C,0.20000*%
%ADD66C,0.16000*%
D65*
X2540000Y754300D02*
Y854300D01*
X2490000Y804300D02*
X2590000D01*
X3330000Y1137300D02*
Y3536300D01*
X1750000Y1137300D02*
X2322500D01*
X2757500D02*
X3330000D01*
X1750000D02*
Y3536300D01*
X3330000D01*
X4353587Y4361373D02*
Y4266156D01*
X4359538Y4248302D01*
X4365489Y4242351D01*
X4377391Y4236400D01*
X4395244D01*
X4407147Y4242351D01*
X4353587Y4343520D02*
X4365489Y4355422D01*
X4377391Y4361373D01*
X4395244D01*
X4407147Y4355422D01*
X4419049Y4343520D01*
X4425000Y4325666D01*
Y4313764D01*
X4419049Y4295911D01*
X4407147Y4284009D01*
X4395244Y4278058D01*
X4377391D01*
X4365489Y4284009D01*
X4353587Y4295911D01*
X4308358Y4403031D02*
X4302407Y4397080D01*
X4296456Y4403031D01*
X4302407Y4408982D01*
X4308358Y4403031D01*
X4302407Y4361373D02*
Y4278058D01*
X4256584Y4403031D02*
Y4301862D01*
X4250633Y4284009D01*
X4238730Y4278058D01*
X4226828D01*
X4274437Y4361373D02*
X4232779D01*
X4208975Y4403031D02*
Y4278058D01*
Y4337569D02*
X4191121Y4355422D01*
X4179219Y4361373D01*
X4161366D01*
X4149464Y4355422D01*
X4143513Y4337569D01*
Y4278058D01*
X4110781Y4361373D02*
Y4301862D01*
X4104830Y4284009D01*
X4092928Y4278058D01*
X4075075D01*
X4063173Y4284009D01*
X4045319Y4301862D01*
Y4361373D02*
Y4278058D01*
X4012588Y4403031D02*
Y4278058D01*
Y4343520D02*
X4000686Y4355422D01*
X3988784Y4361373D01*
X3970930D01*
X3959028Y4355422D01*
X3947126Y4343520D01*
X3941175Y4325666D01*
Y4313764D01*
X3947126Y4295911D01*
X3959028Y4284009D01*
X3970930Y4278058D01*
X3988784D01*
X4000686Y4284009D01*
X4012588Y4295911D01*
X3908444Y4289960D02*
X3914395Y4284009D01*
X3908444Y4278058D01*
X3902493Y4284009D01*
X3908444Y4289960D01*
X3803704Y4343520D02*
X3815606Y4355422D01*
X3827509Y4361373D01*
X3845362D01*
X3857264Y4355422D01*
X3869166Y4343520D01*
X3875117Y4325666D01*
Y4313764D01*
X3869166Y4295911D01*
X3857264Y4284009D01*
X3845362Y4278058D01*
X3827509D01*
X3815606Y4284009D01*
X3803704Y4295911D01*
X3747169Y4361373D02*
X3759071Y4355422D01*
X3770973Y4343520D01*
X3776924Y4325666D01*
Y4313764D01*
X3770973Y4295911D01*
X3759071Y4284009D01*
X3747169Y4278058D01*
X3729315D01*
X3717413Y4284009D01*
X3705511Y4295911D01*
X3699560Y4313764D01*
Y4325666D01*
X3705511Y4343520D01*
X3717413Y4355422D01*
X3729315Y4361373D01*
X3747169D01*
X3672185D02*
Y4278058D01*
Y4337569D02*
X3654331Y4355422D01*
X3642429Y4361373D01*
X3624576D01*
X3612673Y4355422D01*
X3606723Y4337569D01*
Y4278058D01*
Y4337569D02*
X3588869Y4355422D01*
X3576967Y4361373D01*
X3559114D01*
X3547211Y4355422D01*
X3541260Y4337569D01*
Y4278058D01*
X3501983Y4260204D02*
X3418668Y4403031D01*
X3410336D02*
Y4278058D01*
Y4403031D02*
X3327021Y4278058D01*
Y4403031D02*
Y4278058D01*
X3221091Y4361373D02*
Y4278058D01*
Y4343520D02*
X3232993Y4355422D01*
X3244895Y4361373D01*
X3262749D01*
X3274651Y4355422D01*
X3286553Y4343520D01*
X3292504Y4325666D01*
Y4313764D01*
X3286553Y4295911D01*
X3274651Y4284009D01*
X3262749Y4278058D01*
X3244895D01*
X3232993Y4284009D01*
X3221091Y4295911D01*
X3187765Y4361373D02*
Y4278058D01*
Y4337569D02*
X3169911Y4355422D01*
X3158009Y4361373D01*
X3140156D01*
X3128254Y4355422D01*
X3122303Y4337569D01*
Y4278058D01*
X3018158Y4403031D02*
Y4278058D01*
Y4343520D02*
X3030060Y4355422D01*
X3041963Y4361373D01*
X3059816D01*
X3071718Y4355422D01*
X3083620Y4343520D01*
X3089571Y4325666D01*
Y4313764D01*
X3083620Y4295911D01*
X3071718Y4284009D01*
X3059816Y4278058D01*
X3041963D01*
X3030060Y4284009D01*
X3018158Y4295911D01*
X2972930Y4403031D02*
X2966979Y4397080D01*
X2961028Y4403031D01*
X2966979Y4408982D01*
X2972930Y4403031D01*
X2966979Y4361373D02*
Y4278058D01*
X2873546Y4343520D02*
X2879497Y4355422D01*
X2897351Y4361373D01*
X2915204D01*
X2933057Y4355422D01*
X2939008Y4343520D01*
X2933057Y4331618D01*
X2921155Y4325666D01*
X2891400Y4319716D01*
X2879497Y4313764D01*
X2873546Y4301862D01*
Y4295911D01*
X2879497Y4284009D01*
X2897351Y4278058D01*
X2915204D01*
X2933057Y4284009D01*
X2939008Y4295911D01*
X2847361Y4403031D02*
Y4278058D01*
Y4337569D02*
X2829508Y4355422D01*
X2817606Y4361373D01*
X2799753D01*
X2787850Y4355422D01*
X2781899Y4337569D01*
Y4278058D01*
X2749168Y4331618D02*
X2642048D01*
X2605151Y4403031D02*
Y4278058D01*
X2521836Y4403031D02*
X2605151Y4319716D01*
X2575396Y4349471D02*
X2521836Y4278058D01*
X2493865Y4403031D02*
Y4278058D01*
X2410550Y4403031D02*
X2493865Y4319716D01*
X2464110Y4349471D02*
X2410550Y4278058D01*
D66*
X3335020Y3702023D02*
Y3622040D01*
Y3702023D02*
X3300742D01*
X3289315Y3698214D01*
X3285507Y3694406D01*
X3281698Y3686788D01*
Y3679171D01*
X3285507Y3671553D01*
X3289315Y3667745D01*
X3300742Y3663936D01*
X3335020D02*
X3300742D01*
X3289315Y3660127D01*
X3285507Y3656318D01*
X3281698Y3648701D01*
Y3637275D01*
X3285507Y3629657D01*
X3289315Y3625849D01*
X3300742Y3622040D01*
X3335020D01*
X3237136Y3702023D02*
Y3622040D01*
X3263797Y3702023D02*
X3210475D01*
X3200953Y3686788D02*
X3193336Y3690597D01*
X3181910Y3702023D01*
Y3622040D01*
%TF.MD5,5d932ba254241a28086febfce06ab07a*%
M02*
