%TF.GenerationSoftware,KiCad,Pcbnew,9.0.7-9.0.7~ubuntu25.10.1*%
%TF.CreationDate,2026-01-04T20:51:49+05:30*%
%TF.ProjectId,Nordic_BLE,4e6f7264-6963-45f4-924c-452e6b696361,rev?*%
%TF.SameCoordinates,Original*%
%TF.FileFunction,Copper,L3,Inr*%
%TF.FilePolarity,Positive*%
%FSLAX46Y46*%
G04 Gerber Fmt 4.6, Leading zero omitted, Abs format (unit mm)*
G04 Created by KiCad (PCBNEW 9.0.7-9.0.7~ubuntu25.10.1) date 2026-01-04 20:51:49*
%MOMM*%
%LPD*%
G01*
G04 APERTURE LIST*
G04 Aperture macros list*
%AMRoundRect*
0 Rectangle with rounded corners*
0 $1 Rounding radius*
0 $2 $3 $4 $5 $6 $7 $8 $9 X,Y pos of 4 corners*
0 Add a 4 corners polygon primitive as box body*
4,1,4,$2,$3,$4,$5,$6,$7,$8,$9,$2,$3,0*
0 Add four circle primitives for the rounded corners*
1,1,$1+$1,$2,$3*
1,1,$1+$1,$4,$5*
1,1,$1+$1,$6,$7*
1,1,$1+$1,$8,$9*
0 Add four rect primitives between the rounded corners*
20,1,$1+$1,$2,$3,$4,$5,0*
20,1,$1+$1,$4,$5,$6,$7,0*
20,1,$1+$1,$6,$7,$8,$9,0*
20,1,$1+$1,$8,$9,$2,$3,0*%
G04 Aperture macros list end*
%TA.AperFunction,ComponentPad*%
%ADD10C,1.524000*%
%TD*%
%TA.AperFunction,ComponentPad*%
%ADD11C,1.300000*%
%TD*%
%TA.AperFunction,ComponentPad*%
%ADD12C,3.000000*%
%TD*%
%TA.AperFunction,ComponentPad*%
%ADD13RoundRect,0.500000X-0.400000X0.000010X-0.400000X-0.000010X0.400000X-0.000010X0.400000X0.000010X0*%
%TD*%
%TA.AperFunction,ComponentPad*%
%ADD14RoundRect,0.500000X-0.600000X0.000010X-0.600000X-0.000010X0.600000X-0.000010X0.600000X0.000010X0*%
%TD*%
%TA.AperFunction,ComponentPad*%
%ADD15C,0.450000*%
%TD*%
%TA.AperFunction,ViaPad*%
%ADD16C,0.450000*%
%TD*%
%TA.AperFunction,ViaPad*%
%ADD17C,0.600000*%
%TD*%
%TA.AperFunction,ViaPad*%
%ADD18C,0.500000*%
%TD*%
%TA.AperFunction,ViaPad*%
%ADD19C,1.700000*%
%TD*%
%TA.AperFunction,Conductor*%
%ADD20C,1.700000*%
%TD*%
%TA.AperFunction,Conductor*%
%ADD21C,0.200000*%
%TD*%
G04 APERTURE END LIST*
D10*
%TO.N,P1.11*%
%TO.C,J23*%
X158521695Y-88895600D03*
%TD*%
%TO.N,GND*%
%TO.C,J50*%
X140292550Y-116835600D03*
%TD*%
%TO.N,P1.03*%
%TO.C,J3*%
X150901695Y-88895600D03*
%TD*%
%TO.N,P2.01*%
%TO.C,J4*%
X145821695Y-121915600D03*
%TD*%
%TO.N,P0.02*%
%TO.C,J25*%
X163601695Y-124455600D03*
%TD*%
%TO.N,P1.07*%
%TO.C,J11*%
X145821695Y-88895600D03*
%TD*%
%TO.N,NetJ52_1*%
%TO.C,J52*%
X137752550Y-116835600D03*
%TD*%
%TO.N,TDI*%
%TO.C,J47*%
X140292550Y-114295600D03*
%TD*%
%TO.N,P1.06*%
%TO.C,J9*%
X148361695Y-86355600D03*
%TD*%
%TO.N,P2.06*%
%TO.C,J14*%
X153441695Y-124455600D03*
%TD*%
D11*
%TO.N,GND*%
%TO.C,SW1*%
X127616000Y-89052000D03*
X127616000Y-95352000D03*
%TD*%
D10*
%TO.N,VDD_3V3*%
%TO.C,J33*%
X166141695Y-121915600D03*
%TD*%
D12*
%TO.N,*%
%TO.C,M4*%
X173401695Y-125000000D03*
%TD*%
D10*
%TO.N,P2.08*%
%TO.C,J21*%
X155981695Y-124455600D03*
%TD*%
%TO.N,GND*%
%TO.C,J35*%
X163601695Y-86355600D03*
%TD*%
%TO.N,GND*%
%TO.C,J36*%
X166141695Y-86355600D03*
%TD*%
%TO.N,P2.07*%
%TO.C,J16*%
X153441695Y-121915600D03*
%TD*%
D13*
%TO.N,GND*%
%TO.C,J1_USB*%
X131971695Y-100289600D03*
X131971695Y-111529600D03*
D14*
X127971695Y-100289600D03*
X127971695Y-111529600D03*
%TD*%
D10*
%TO.N,P1.08*%
%TO.C,J13*%
X145821695Y-86355600D03*
%TD*%
%TO.N,P1.13*%
%TO.C,J29*%
X155981695Y-88895600D03*
%TD*%
%TO.N,P1.12*%
%TO.C,J26*%
X158521695Y-86355600D03*
%TD*%
%TO.N,TDO*%
%TO.C,J49*%
X137752550Y-114295600D03*
%TD*%
%TO.N,P2.05*%
%TO.C,J12*%
X150901695Y-121915600D03*
%TD*%
%TO.N,VCC_nRF*%
%TO.C,J34*%
X166141695Y-88895600D03*
%TD*%
%TO.N,UART_TX*%
%TO.C,J17*%
X161061695Y-124455600D03*
%TD*%
%TO.N,P2.04*%
%TO.C,J10*%
X150901695Y-124455600D03*
%TD*%
%TO.N,P2.00*%
%TO.C,J2*%
X145821695Y-124455600D03*
%TD*%
%TO.N,GND*%
%TO.C,J19*%
X153441695Y-88895600D03*
%TD*%
%TO.N,P1.04*%
%TO.C,J5*%
X150901695Y-86355600D03*
%TD*%
%TO.N,RST*%
%TO.C,J51*%
X142832550Y-114295600D03*
%TD*%
D12*
%TO.N,*%
%TO.C,M1*%
X128000000Y-85000000D03*
%TD*%
D10*
%TO.N,P1.05*%
%TO.C,J7*%
X148361695Y-88895600D03*
%TD*%
%TO.N,NetJ48_1*%
%TO.C,J48*%
X142832550Y-116835600D03*
%TD*%
D12*
%TO.N,*%
%TO.C,M2*%
X128000000Y-125000000D03*
%TD*%
D10*
%TO.N,P2.09*%
%TO.C,J24*%
X155981695Y-121915600D03*
%TD*%
%TO.N,GND*%
%TO.C,J18*%
X158521695Y-121915600D03*
%TD*%
%TO.N,UART_RX*%
%TO.C,J22*%
X161061695Y-121915600D03*
%TD*%
%TO.N,P0.04*%
%TO.C,J30*%
X166141695Y-124455600D03*
%TD*%
%TO.N,P1.02*%
%TO.C,J1*%
X153441695Y-86355600D03*
%TD*%
%TO.N,P2.03*%
%TO.C,J8*%
X148361695Y-121915600D03*
%TD*%
%TO.N,P0.03*%
%TO.C,J28*%
X163601695Y-121915600D03*
%TD*%
%TO.N,P2.10*%
%TO.C,J27*%
X158521695Y-124455600D03*
%TD*%
%TO.N,P1.09*%
%TO.C,J15*%
X161061695Y-88895600D03*
%TD*%
%TO.N,P2.02*%
%TO.C,J6*%
X148361695Y-124455600D03*
%TD*%
D12*
%TO.N,*%
%TO.C,M3*%
X173401695Y-85000000D03*
%TD*%
D15*
%TO.N,GND*%
%TO.C,A1*%
X169797000Y-114549600D03*
%TD*%
D10*
%TO.N,P1.14*%
%TO.C,J31*%
X155981695Y-86355600D03*
%TD*%
%TO.N,P1.10*%
%TO.C,J20*%
X161061695Y-86355600D03*
%TD*%
%TO.N,VCC_nRF*%
%TO.C,J32*%
X163601695Y-88895600D03*
%TD*%
D16*
%TO.N,NetJ58_2*%
X144551695Y-108326600D03*
%TO.N,NetJ57_2*%
X145313695Y-108326600D03*
%TO.N,NetJ54_1*%
X156870400Y-107188000D03*
X142519695Y-109215600D03*
%TO.N,NetJ53_1*%
X143916695Y-107183600D03*
X156972000Y-106426000D03*
%TO.N,NetR15_2*%
X134620000Y-114930600D03*
X135905048Y-103997952D03*
%TO.N,VDD_3V3*%
X136169695Y-99563600D03*
X135128000Y-117602000D03*
X134239000Y-87757000D03*
X136931695Y-108453600D03*
X130440622Y-91777581D03*
%TO.N,RST*%
X158496000Y-104648000D03*
X142265695Y-105151600D03*
X142773695Y-111247600D03*
%TO.N,NetR5_1*%
X138940000Y-108000000D03*
X138709695Y-111247600D03*
%TO.N,NetR4_1*%
X139564873Y-108012709D03*
X139979695Y-111247600D03*
%TO.N,+5V*%
X128143000Y-91948000D03*
X132019830Y-118237000D03*
X131318000Y-86614000D03*
X134010695Y-103500600D03*
X134247695Y-108309600D03*
%TO.N,DAP_USB_P*%
X134747000Y-105690390D03*
X134747000Y-106807000D03*
%TO.N,DAP_USB_N*%
X134747000Y-105029000D03*
X134288820Y-106242846D03*
D17*
%TO.N,3V*%
X132842000Y-89200000D03*
D16*
%TO.N,P2.02*%
X134000000Y-125000000D03*
%TO.N,P1.10*%
X166493195Y-104517400D03*
%TO.N,P1.09*%
X165608000Y-102108000D03*
%TO.N,P1.08*%
X148107695Y-104897600D03*
X142509885Y-92305110D03*
X139705915Y-93995380D03*
%TO.N,P1.07*%
X147218695Y-104389600D03*
X142019695Y-91651310D03*
X138582695Y-93975600D03*
%TO.N,P1.06*%
X146331465Y-103756370D03*
%TO.N,P1.05*%
X147218695Y-103119600D03*
%TO.N,P1.04*%
X148107695Y-102611600D03*
%TO.N,P1.03*%
X148869695Y-101976600D03*
%TO.N,P1.02*%
X149594085Y-102000000D03*
%TO.N,DECA*%
X158200000Y-101640000D03*
X154178000Y-98602800D03*
%TO.N,DECD*%
X152128235Y-98936750D03*
X153466800Y-97078800D03*
%TO.N,GND*%
X164063390Y-105903467D03*
D18*
X134213600Y-110032800D03*
D19*
X125476000Y-114300000D03*
D16*
X171683390Y-90663467D03*
X166603390Y-112253467D03*
D18*
X152933695Y-102992600D03*
D16*
X169143390Y-97013467D03*
X175493390Y-102093467D03*
X174223390Y-102093467D03*
X161523390Y-107173467D03*
X141181695Y-100875600D03*
X170413390Y-99553467D03*
X143721695Y-121195600D03*
X170413390Y-105903467D03*
X139217695Y-106421600D03*
X165333390Y-98283467D03*
X146261695Y-105955600D03*
X162793390Y-93203467D03*
X175493390Y-88123467D03*
X170413390Y-89393467D03*
X175493390Y-100823467D03*
X159359895Y-103983200D03*
X161523390Y-95743467D03*
X168121695Y-102091100D03*
X174223390Y-90663467D03*
X169113200Y-92964000D03*
D18*
X134239000Y-102616000D03*
D16*
X149885695Y-94483600D03*
X167436800Y-107899200D03*
X169143390Y-84313467D03*
X166603390Y-105903467D03*
X162793390Y-105903467D03*
X160253390Y-94473467D03*
X168121695Y-100821100D03*
X136906000Y-87376000D03*
X167873390Y-114793467D03*
X153881695Y-93255600D03*
X170413390Y-104633467D03*
X167873390Y-91933467D03*
X166603390Y-113523467D03*
X165333390Y-105903467D03*
X171683390Y-95743467D03*
X162835695Y-102110367D03*
X174223390Y-100823467D03*
X170413390Y-90663467D03*
D18*
X155219695Y-105278600D03*
D16*
X158961695Y-118655600D03*
X170413390Y-88123467D03*
X136494364Y-92100679D03*
X171683390Y-104633467D03*
X169143390Y-88123467D03*
X164063390Y-95743467D03*
X151341695Y-93255600D03*
X172931695Y-94902367D03*
X166603390Y-91933467D03*
X175493390Y-90663467D03*
X175493390Y-103363467D03*
X174223390Y-104633467D03*
D19*
X139210248Y-82541686D03*
D16*
X138201695Y-106421600D03*
X137566695Y-109723600D03*
X168100000Y-94900000D03*
X148965090Y-106435700D03*
X172953390Y-98283467D03*
X166603390Y-107173467D03*
X161523390Y-93203467D03*
X167873390Y-113523467D03*
X154076695Y-101849600D03*
X169265600Y-103987600D03*
X150901695Y-95753600D03*
X165333390Y-95743467D03*
X164063390Y-94473467D03*
D18*
X155219695Y-104135600D03*
D16*
X171683390Y-89393467D03*
X170391695Y-94902367D03*
X172953390Y-90663467D03*
X165333390Y-99553467D03*
X167873390Y-110983467D03*
X167429405Y-103098390D03*
X169143390Y-99553467D03*
X158623295Y-103983200D03*
X138641695Y-123735600D03*
D18*
X152933695Y-101849600D03*
D16*
X171683390Y-88123467D03*
X154076695Y-102992600D03*
X170413390Y-102093467D03*
X166116000Y-97536000D03*
X166116000Y-98806000D03*
X166603390Y-116063467D03*
D18*
X135509000Y-109728000D03*
D16*
X169143390Y-91933467D03*
X139217695Y-105405600D03*
X170413390Y-91933467D03*
X166603390Y-110983467D03*
X174223390Y-97013467D03*
X166581695Y-90715600D03*
X165333390Y-112253467D03*
X167873390Y-116063467D03*
X169367200Y-106375200D03*
X160159847Y-101485847D03*
X138201695Y-105405600D03*
X164063390Y-116063467D03*
X164063390Y-110983467D03*
X164105695Y-104904367D03*
X172953390Y-99553467D03*
X174223390Y-105903467D03*
X161523390Y-108443467D03*
X160295695Y-104904367D03*
X167233600Y-105105200D03*
X160452095Y-103957800D03*
X175493390Y-99553467D03*
X171683390Y-98283467D03*
X169143390Y-85583467D03*
X167873390Y-119873467D03*
X160253390Y-107173467D03*
X174223390Y-99553467D03*
X162793390Y-107173467D03*
X164063390Y-107173467D03*
X164063390Y-93203467D03*
X154076695Y-104135600D03*
X169143390Y-95743467D03*
X171683390Y-102093467D03*
X143721695Y-105955600D03*
X158983390Y-97013467D03*
X141181695Y-118655600D03*
X160253390Y-105903467D03*
X159918695Y-104415000D03*
X168121695Y-99551100D03*
X169143390Y-86853467D03*
X172953390Y-97013467D03*
X175493390Y-86853467D03*
X165333390Y-114793467D03*
X163851695Y-102110367D03*
X168121695Y-98281100D03*
X164063390Y-99553467D03*
D18*
X151790695Y-104135600D03*
D16*
X169316400Y-105206800D03*
X161523390Y-102093467D03*
X156421695Y-118655600D03*
X164867695Y-102110367D03*
X153881695Y-90715600D03*
X167843200Y-92964000D03*
X162793390Y-99553467D03*
X165333390Y-91933467D03*
X136101695Y-121195600D03*
X159791695Y-102357600D03*
X170413390Y-84313467D03*
X165333390Y-119873467D03*
X165333390Y-117333467D03*
X151341695Y-113575600D03*
X172953390Y-104633467D03*
X170413390Y-97013467D03*
X169143390Y-102093467D03*
X165333390Y-107173467D03*
X153162000Y-98044000D03*
X154076695Y-105278600D03*
X175493390Y-104633467D03*
X171683390Y-97013467D03*
D18*
X151790695Y-102992600D03*
D16*
X172953390Y-91933467D03*
X166116000Y-100076000D03*
X159004000Y-98044000D03*
X156421695Y-116967000D03*
X171683390Y-105903467D03*
X138200000Y-86200000D03*
X161523390Y-91933467D03*
X166603390Y-118603467D03*
X171683390Y-91933467D03*
X162835695Y-100840367D03*
X172953390Y-88123467D03*
X166603390Y-117333467D03*
X169121695Y-94902367D03*
X143721695Y-123735600D03*
X165333390Y-94473467D03*
X164063390Y-109713467D03*
X160253390Y-95743467D03*
D18*
X135128000Y-101854000D03*
D16*
X142824200Y-95885000D03*
X164063390Y-113523467D03*
X172953390Y-105903467D03*
X165333390Y-116063467D03*
X165333390Y-113523467D03*
X167873390Y-118603467D03*
X166065200Y-96570800D03*
X160253390Y-97013467D03*
D18*
X155219695Y-102992600D03*
D16*
X172953390Y-100823467D03*
X141181695Y-121195600D03*
X156421695Y-111035600D03*
X166603390Y-114793467D03*
X168503600Y-103124000D03*
X164063390Y-91933467D03*
X164063390Y-108443467D03*
X165333390Y-93203467D03*
X172953390Y-102093467D03*
X172953390Y-103363467D03*
X165333390Y-109713467D03*
X151917695Y-96769600D03*
X168121695Y-95741100D03*
X166603390Y-108443467D03*
D18*
X134112000Y-118872000D03*
D16*
X158983390Y-94473467D03*
X164041695Y-90715600D03*
X171683390Y-100823467D03*
X138641695Y-118655600D03*
X164063390Y-98283467D03*
X175493390Y-98283467D03*
X165333390Y-118603467D03*
X157759695Y-99309600D03*
X174223390Y-98283467D03*
X166603390Y-93203467D03*
X162793390Y-94473467D03*
X169143390Y-100823467D03*
D18*
X151790695Y-105278600D03*
D16*
X170413390Y-85583467D03*
D18*
X152933695Y-104135600D03*
D16*
X153035000Y-98980622D03*
X166603390Y-119873467D03*
X151917695Y-94483600D03*
X172953390Y-95743467D03*
X171683390Y-103363467D03*
X158648695Y-102230600D03*
X164063390Y-118603467D03*
X161523390Y-97013467D03*
X167873390Y-90663467D03*
X158983390Y-93203467D03*
X164063390Y-117333467D03*
X171653200Y-92964000D03*
X172953390Y-89393467D03*
X170383200Y-92964000D03*
D18*
X155219695Y-101849600D03*
D16*
X160253390Y-91933467D03*
X170413390Y-103363467D03*
X171661695Y-94902367D03*
X169143390Y-98283467D03*
X162793390Y-91933467D03*
X138641695Y-121195600D03*
X161523390Y-94473467D03*
X150598711Y-100078363D03*
X170413390Y-98283467D03*
X169143390Y-90663467D03*
D19*
X139210248Y-84582800D03*
D16*
X175493390Y-89393467D03*
X167233600Y-106883200D03*
X141181695Y-123735600D03*
X162793390Y-97013467D03*
X174223390Y-89393467D03*
X138641695Y-100875600D03*
X175493390Y-97013467D03*
X174223390Y-103363467D03*
X163851695Y-100840367D03*
X175493390Y-84313467D03*
D18*
X134239000Y-109220000D03*
D16*
X149885695Y-96769600D03*
X174223390Y-88123467D03*
X167873390Y-112253467D03*
X160253390Y-93203467D03*
X170413390Y-86853467D03*
X166065200Y-94488000D03*
X167873390Y-109713467D03*
X165375695Y-104904367D03*
X158983390Y-95743467D03*
X165333390Y-110983467D03*
D18*
X152933695Y-105278600D03*
D16*
X143721695Y-118655600D03*
X148742695Y-96769600D03*
X141513792Y-104556792D03*
X162793390Y-109713467D03*
X164063390Y-114793467D03*
X170413390Y-95743467D03*
D18*
X151790695Y-101849600D03*
D16*
X171683390Y-99553467D03*
X161523390Y-105903467D03*
D19*
X127558800Y-114300000D03*
D18*
X134210505Y-101849600D03*
D16*
X148801695Y-95795600D03*
X175493390Y-85583467D03*
X162793390Y-108443467D03*
X145991995Y-109208620D03*
X165333390Y-108443467D03*
X165333390Y-97013467D03*
X161523390Y-100823467D03*
X153881695Y-95795600D03*
X164063390Y-112253467D03*
X175493390Y-105903467D03*
X162835695Y-104904367D03*
X155092695Y-108707600D03*
X162793390Y-95743467D03*
X161565695Y-104904367D03*
X168121695Y-97011100D03*
X167873390Y-117333467D03*
X170413390Y-100823467D03*
X169143390Y-89393467D03*
X164063390Y-97013467D03*
X151341695Y-111035600D03*
X166603390Y-109713467D03*
X162793390Y-98283467D03*
X171683390Y-86853467D03*
%TO.N,VCC_nRF*%
X155345165Y-107627940D03*
X136144000Y-93472000D03*
X149631695Y-99563600D03*
X148742695Y-105457305D03*
X156489695Y-100833600D03*
D19*
%TO.N,WS_OUT*%
X127558800Y-116840000D03*
X125476000Y-116840000D03*
%TO.N,+5V_in*%
X136670248Y-84582800D03*
X136670248Y-82541686D03*
%TO.N,+5V_{0}*%
X127558800Y-119380000D03*
X125476000Y-119380000D03*
%TD*%
D20*
%TO.N,WS_OUT*%
X127558800Y-116840000D02*
X125803329Y-116840000D01*
D21*
X125803329Y-116840000D02*
X125803328Y-116840458D01*
D20*
%TO.N,+5V_{0}*%
X127558800Y-119380000D02*
X125799777Y-119380000D01*
D21*
X125799777Y-119380000D02*
X125799776Y-119380453D01*
D20*
X127558800Y-119380000D02*
X127557299Y-119381501D01*
%TO.N,+5V_in*%
X136670248Y-84582800D02*
X136670248Y-82842686D01*
%TD*%
%TA.AperFunction,Conductor*%
%TO.N,GND*%
G36*
X135575079Y-82761399D02*
G01*
X135611624Y-82811699D01*
X135616548Y-82842786D01*
X135616548Y-84686579D01*
X135657040Y-84890151D01*
X135736470Y-85081910D01*
X135736474Y-85081918D01*
X135851784Y-85254492D01*
X135998555Y-85401263D01*
X136171129Y-85516573D01*
X136171131Y-85516574D01*
X136171134Y-85516576D01*
X136362895Y-85596007D01*
X136566468Y-85636500D01*
X136566469Y-85636500D01*
X136774027Y-85636500D01*
X136774028Y-85636500D01*
X136977601Y-85596007D01*
X137169362Y-85516576D01*
X137341942Y-85401262D01*
X137398967Y-85344237D01*
X137454365Y-85316011D01*
X137515773Y-85325737D01*
X137540911Y-85344000D01*
X137541000Y-85344000D01*
X138303000Y-85344000D01*
X138303000Y-84888331D01*
X171697995Y-84888331D01*
X171697995Y-85111668D01*
X171727143Y-85333082D01*
X171727144Y-85333091D01*
X171784945Y-85548805D01*
X171784952Y-85548826D01*
X171870413Y-85755143D01*
X171982077Y-85948552D01*
X171982079Y-85948555D01*
X171982080Y-85948556D01*
X172118037Y-86125738D01*
X172275957Y-86283658D01*
X172363423Y-86350773D01*
X172453142Y-86419617D01*
X172646551Y-86531281D01*
X172852868Y-86616742D01*
X172852889Y-86616749D01*
X173068603Y-86674550D01*
X173068612Y-86674551D01*
X173290027Y-86703700D01*
X173290029Y-86703700D01*
X173513363Y-86703700D01*
X173734777Y-86674551D01*
X173734786Y-86674550D01*
X173950500Y-86616749D01*
X173950501Y-86616748D01*
X173950507Y-86616747D01*
X173950511Y-86616745D01*
X173950521Y-86616742D01*
X174093408Y-86557555D01*
X174156839Y-86531281D01*
X174350251Y-86419615D01*
X174527433Y-86283658D01*
X174685353Y-86125738D01*
X174821310Y-85948556D01*
X174932976Y-85755144D01*
X174962153Y-85684703D01*
X175018437Y-85548826D01*
X175018444Y-85548805D01*
X175076245Y-85333091D01*
X175076246Y-85333082D01*
X175105395Y-85111668D01*
X175105395Y-84888331D01*
X175076246Y-84666917D01*
X175076245Y-84666908D01*
X175018444Y-84451194D01*
X175018437Y-84451173D01*
X174932976Y-84244856D01*
X174821312Y-84051447D01*
X174821310Y-84051444D01*
X174685353Y-83874262D01*
X174527433Y-83716342D01*
X174350251Y-83580385D01*
X174350250Y-83580384D01*
X174350247Y-83580382D01*
X174156838Y-83468718D01*
X173950521Y-83383257D01*
X173950500Y-83383250D01*
X173734786Y-83325449D01*
X173734777Y-83325448D01*
X173513363Y-83296300D01*
X173513361Y-83296300D01*
X173290029Y-83296300D01*
X173290027Y-83296300D01*
X173068612Y-83325448D01*
X173068603Y-83325449D01*
X172852889Y-83383250D01*
X172852868Y-83383257D01*
X172646551Y-83468718D01*
X172453142Y-83580382D01*
X172275953Y-83716345D01*
X172118040Y-83874258D01*
X171982077Y-84051447D01*
X171870413Y-84244856D01*
X171784952Y-84451173D01*
X171784945Y-84451194D01*
X171727144Y-84666908D01*
X171727143Y-84666917D01*
X171697995Y-84888331D01*
X138303000Y-84888331D01*
X138303000Y-82842786D01*
X138322213Y-82783655D01*
X138372513Y-82747110D01*
X138403600Y-82742186D01*
X175384245Y-82742186D01*
X175394152Y-82742675D01*
X175412169Y-82744458D01*
X175535272Y-82756641D01*
X175554584Y-82760490D01*
X175685571Y-82800282D01*
X175703761Y-82807825D01*
X175824414Y-82872369D01*
X175824455Y-82872391D01*
X175840842Y-82883347D01*
X175946604Y-82970192D01*
X175946624Y-82970208D01*
X175960561Y-82984152D01*
X176047367Y-83089971D01*
X176058317Y-83106365D01*
X176122822Y-83227086D01*
X176130364Y-83245301D01*
X176170083Y-83376274D01*
X176173929Y-83395609D01*
X176187831Y-83536768D01*
X176188315Y-83546628D01*
X176188315Y-91085400D01*
X176169102Y-91144531D01*
X176118802Y-91181076D01*
X176087715Y-91186000D01*
X172474000Y-91186000D01*
X172474000Y-92613400D01*
X172454787Y-92672531D01*
X172404487Y-92709076D01*
X172373400Y-92714000D01*
X166116000Y-92714000D01*
X166116000Y-93899400D01*
X166096787Y-93958531D01*
X166046487Y-93995076D01*
X166015400Y-94000000D01*
X165658800Y-94000000D01*
X165636634Y-98593703D01*
X165622206Y-101583661D01*
X165602708Y-101642699D01*
X165552232Y-101679001D01*
X165547645Y-101680348D01*
X165442529Y-101708514D01*
X165442526Y-101708515D01*
X165344773Y-101764953D01*
X165344772Y-101764955D01*
X165264955Y-101844772D01*
X165264953Y-101844773D01*
X165208515Y-101942526D01*
X165208513Y-101942531D01*
X165179300Y-102051555D01*
X165179300Y-102164444D01*
X165208513Y-102273468D01*
X165208515Y-102273473D01*
X165264953Y-102371226D01*
X165344773Y-102451046D01*
X165442526Y-102507484D01*
X165442532Y-102507487D01*
X165542585Y-102534295D01*
X165545098Y-102535927D01*
X165548098Y-102535942D01*
X165570964Y-102552724D01*
X165594729Y-102568157D01*
X165595802Y-102570954D01*
X165598221Y-102572729D01*
X165606853Y-102599742D01*
X165617011Y-102626201D01*
X165617148Y-102631953D01*
X165616786Y-102706945D01*
X165597288Y-102765982D01*
X165546812Y-102802284D01*
X165516661Y-102807058D01*
X163067769Y-102818601D01*
X163008548Y-102799667D01*
X162971766Y-102749540D01*
X162966695Y-102718002D01*
X162966695Y-101722600D01*
X161849095Y-101722600D01*
X161518895Y-102052800D01*
X161518895Y-102758218D01*
X161499682Y-102817349D01*
X161472015Y-102843274D01*
X161213011Y-103006856D01*
X161159291Y-103022400D01*
X158495065Y-103022400D01*
X158435934Y-103003187D01*
X158399389Y-102952887D01*
X158394465Y-102921735D01*
X158394695Y-102565200D01*
X157226000Y-102565200D01*
X157226000Y-103733600D01*
X158860743Y-103733600D01*
X158919874Y-103752813D01*
X158956419Y-103803113D01*
X158961343Y-103834200D01*
X158961343Y-104204510D01*
X159524033Y-104767200D01*
X160358342Y-104767200D01*
X160358343Y-104767200D01*
X160909000Y-104259200D01*
X160909000Y-103859600D01*
X160913924Y-103844445D01*
X160913924Y-103828513D01*
X160923289Y-103815622D01*
X160928213Y-103800469D01*
X160941103Y-103791103D01*
X160950469Y-103778213D01*
X160965622Y-103773289D01*
X160978513Y-103763924D01*
X161009600Y-103759000D01*
X161209491Y-103759000D01*
X161264142Y-103775139D01*
X161371251Y-103844445D01*
X161671000Y-104038400D01*
X161837225Y-104038400D01*
X161896356Y-104057613D01*
X161908360Y-104067865D01*
X161950695Y-104110200D01*
X162966695Y-104110200D01*
X162966695Y-104037846D01*
X162985908Y-103978715D01*
X163036208Y-103942170D01*
X163067648Y-103937247D01*
X166066556Y-103947864D01*
X166081527Y-103952787D01*
X166097287Y-103952787D01*
X166110317Y-103962254D01*
X166125619Y-103967286D01*
X166134837Y-103980068D01*
X166147587Y-103989332D01*
X166152564Y-104004650D01*
X166161986Y-104017715D01*
X166166800Y-104048463D01*
X166166800Y-104198377D01*
X166153322Y-104248677D01*
X166093710Y-104351926D01*
X166093708Y-104351931D01*
X166064495Y-104460955D01*
X166064495Y-104573844D01*
X166093708Y-104682868D01*
X166093710Y-104682873D01*
X166150148Y-104780626D01*
X166229968Y-104860446D01*
X166278339Y-104888373D01*
X166327723Y-104916885D01*
X166327724Y-104916885D01*
X166327726Y-104916886D01*
X166436750Y-104946099D01*
X166436754Y-104946099D01*
X166436756Y-104946100D01*
X166436758Y-104946100D01*
X166549632Y-104946100D01*
X166549634Y-104946100D01*
X166549636Y-104946099D01*
X166549639Y-104946099D01*
X166658663Y-104916886D01*
X166658662Y-104916886D01*
X166658667Y-104916885D01*
X166708051Y-104888373D01*
X166727100Y-104877375D01*
X166787915Y-104864448D01*
X166844714Y-104889736D01*
X166875802Y-104943581D01*
X166878000Y-104964497D01*
X166878000Y-105511600D01*
X167285400Y-105511600D01*
X167344531Y-105530813D01*
X167381076Y-105581113D01*
X167386000Y-105612200D01*
X167386000Y-106376200D01*
X167366787Y-106435331D01*
X167316487Y-106471876D01*
X167285400Y-106476800D01*
X166878000Y-106476800D01*
X166878000Y-107238800D01*
X167035400Y-107238800D01*
X167094531Y-107258013D01*
X167131076Y-107308313D01*
X167136000Y-107339400D01*
X167136000Y-108458000D01*
X167640000Y-108458000D01*
X167768295Y-108458000D01*
X167783449Y-108462924D01*
X167799382Y-108462924D01*
X167812272Y-108472289D01*
X167827426Y-108477213D01*
X167836791Y-108490103D01*
X167849682Y-108499469D01*
X167854605Y-108514622D01*
X167863971Y-108527513D01*
X167868895Y-108558600D01*
X167868895Y-108579920D01*
X167868886Y-108581270D01*
X167618746Y-127216675D01*
X167598741Y-127275543D01*
X167547955Y-127311410D01*
X167518155Y-127315925D01*
X126506630Y-127315977D01*
X126496770Y-127315493D01*
X126353068Y-127301340D01*
X126333725Y-127297492D01*
X126200294Y-127257016D01*
X126182074Y-127249469D01*
X126059102Y-127183738D01*
X126042705Y-127172782D01*
X125934918Y-127084323D01*
X125920973Y-127070378D01*
X125832513Y-126962589D01*
X125821561Y-126946198D01*
X125755824Y-126823212D01*
X125748283Y-126805007D01*
X125707806Y-126671570D01*
X125703959Y-126652231D01*
X125699894Y-126610960D01*
X125689805Y-126508531D01*
X125689322Y-126498535D01*
X125691574Y-124888331D01*
X126296300Y-124888331D01*
X126296300Y-125111668D01*
X126325448Y-125333082D01*
X126325449Y-125333091D01*
X126383250Y-125548805D01*
X126383257Y-125548826D01*
X126468718Y-125755143D01*
X126580382Y-125948552D01*
X126580384Y-125948555D01*
X126580385Y-125948556D01*
X126716342Y-126125738D01*
X126874262Y-126283658D01*
X127051444Y-126419615D01*
X127051447Y-126419617D01*
X127244856Y-126531281D01*
X127451173Y-126616742D01*
X127451194Y-126616749D01*
X127666908Y-126674550D01*
X127666917Y-126674551D01*
X127888332Y-126703700D01*
X127888334Y-126703700D01*
X128111668Y-126703700D01*
X128333082Y-126674551D01*
X128333091Y-126674550D01*
X128548805Y-126616749D01*
X128548806Y-126616748D01*
X128548812Y-126616747D01*
X128548816Y-126616745D01*
X128548826Y-126616742D01*
X128726364Y-126543202D01*
X128755144Y-126531281D01*
X128948556Y-126419615D01*
X129125738Y-126283658D01*
X129283658Y-126125738D01*
X129419615Y-125948556D01*
X129531281Y-125755144D01*
X129560458Y-125684703D01*
X129616742Y-125548826D01*
X129616749Y-125548805D01*
X129674550Y-125333091D01*
X129674551Y-125333082D01*
X129703700Y-125111668D01*
X129703700Y-124943555D01*
X133571300Y-124943555D01*
X133571300Y-125056444D01*
X133600513Y-125165468D01*
X133600515Y-125165473D01*
X133656953Y-125263226D01*
X133736773Y-125343046D01*
X133834526Y-125399484D01*
X133834528Y-125399485D01*
X133834529Y-125399485D01*
X133834531Y-125399486D01*
X133943555Y-125428699D01*
X133943559Y-125428699D01*
X133943561Y-125428700D01*
X133943563Y-125428700D01*
X134056437Y-125428700D01*
X134056439Y-125428700D01*
X134056441Y-125428699D01*
X134056444Y-125428699D01*
X134165468Y-125399486D01*
X134165467Y-125399486D01*
X134165472Y-125399485D01*
X134263228Y-125343045D01*
X134343045Y-125263228D01*
X134399485Y-125165472D01*
X134413902Y-125111666D01*
X134428699Y-125056444D01*
X134428700Y-125056437D01*
X134428700Y-124943562D01*
X134428699Y-124943555D01*
X134399486Y-124834531D01*
X134399484Y-124834526D01*
X134343046Y-124736773D01*
X134263226Y-124656953D01*
X134165473Y-124600515D01*
X134165468Y-124600513D01*
X134056444Y-124571300D01*
X134056439Y-124571300D01*
X133943561Y-124571300D01*
X133943555Y-124571300D01*
X133834531Y-124600513D01*
X133834526Y-124600515D01*
X133736773Y-124656953D01*
X133736772Y-124656955D01*
X133656955Y-124736772D01*
X133656953Y-124736773D01*
X133600515Y-124834526D01*
X133600513Y-124834531D01*
X133571300Y-124943555D01*
X129703700Y-124943555D01*
X129703700Y-124888331D01*
X129674551Y-124666917D01*
X129674550Y-124666908D01*
X129616749Y-124451194D01*
X129616743Y-124451179D01*
X129593077Y-124394044D01*
X129593076Y-124394042D01*
X129579177Y-124360487D01*
X144855995Y-124360487D01*
X144855995Y-124550712D01*
X144893106Y-124737286D01*
X144965899Y-124913025D01*
X144965900Y-124913027D01*
X144965902Y-124913031D01*
X145071587Y-125071198D01*
X145206097Y-125205708D01*
X145364264Y-125311393D01*
X145364269Y-125311395D01*
X145540008Y-125384188D01*
X145540009Y-125384188D01*
X145540011Y-125384189D01*
X145726582Y-125421300D01*
X145726583Y-125421300D01*
X145916807Y-125421300D01*
X145916808Y-125421300D01*
X146103379Y-125384189D01*
X146279126Y-125311393D01*
X146437293Y-125205708D01*
X146571803Y-125071198D01*
X146677488Y-124913031D01*
X146750284Y-124737284D01*
X146787395Y-124550713D01*
X146787395Y-124360487D01*
X147395995Y-124360487D01*
X147395995Y-124550712D01*
X147433106Y-124737286D01*
X147505899Y-124913025D01*
X147505900Y-124913027D01*
X147505902Y-124913031D01*
X147611587Y-125071198D01*
X147746097Y-125205708D01*
X147904264Y-125311393D01*
X147904269Y-125311395D01*
X148080008Y-125384188D01*
X148080009Y-125384188D01*
X148080011Y-125384189D01*
X148266582Y-125421300D01*
X148266583Y-125421300D01*
X148456807Y-125421300D01*
X148456808Y-125421300D01*
X148643379Y-125384189D01*
X148819126Y-125311393D01*
X148977293Y-125205708D01*
X149111803Y-125071198D01*
X149217488Y-124913031D01*
X149290284Y-124737284D01*
X149327395Y-124550713D01*
X149327395Y-124360487D01*
X149935995Y-124360487D01*
X149935995Y-124550712D01*
X149973106Y-124737286D01*
X150045899Y-124913025D01*
X150045900Y-124913027D01*
X150045902Y-124913031D01*
X150151587Y-125071198D01*
X150286097Y-125205708D01*
X150444264Y-125311393D01*
X150444269Y-125311395D01*
X150620008Y-125384188D01*
X150620009Y-125384188D01*
X150620011Y-125384189D01*
X150806582Y-125421300D01*
X150806583Y-125421300D01*
X150996807Y-125421300D01*
X150996808Y-125421300D01*
X151183379Y-125384189D01*
X151359126Y-125311393D01*
X151517293Y-125205708D01*
X151651803Y-125071198D01*
X151757488Y-124913031D01*
X151830284Y-124737284D01*
X151867395Y-124550713D01*
X151867395Y-124360487D01*
X152475995Y-124360487D01*
X152475995Y-124550712D01*
X152513106Y-124737286D01*
X152585899Y-124913025D01*
X152585900Y-124913027D01*
X152585902Y-124913031D01*
X152691587Y-125071198D01*
X152826097Y-125205708D01*
X152984264Y-125311393D01*
X152984269Y-125311395D01*
X153160008Y-125384188D01*
X153160009Y-125384188D01*
X153160011Y-125384189D01*
X153346582Y-125421300D01*
X153346583Y-125421300D01*
X153536807Y-125421300D01*
X153536808Y-125421300D01*
X153723379Y-125384189D01*
X153899126Y-125311393D01*
X154057293Y-125205708D01*
X154191803Y-125071198D01*
X154297488Y-124913031D01*
X154370284Y-124737284D01*
X154407395Y-124550713D01*
X154407395Y-124360487D01*
X155015995Y-124360487D01*
X155015995Y-124550712D01*
X155053106Y-124737286D01*
X155125899Y-124913025D01*
X155125900Y-124913027D01*
X155125902Y-124913031D01*
X155231587Y-125071198D01*
X155366097Y-125205708D01*
X155524264Y-125311393D01*
X155524269Y-125311395D01*
X155700008Y-125384188D01*
X155700009Y-125384188D01*
X155700011Y-125384189D01*
X155886582Y-125421300D01*
X155886583Y-125421300D01*
X156076807Y-125421300D01*
X156076808Y-125421300D01*
X156263379Y-125384189D01*
X156439126Y-125311393D01*
X156597293Y-125205708D01*
X156731803Y-125071198D01*
X156837488Y-124913031D01*
X156910284Y-124737284D01*
X156947395Y-124550713D01*
X156947395Y-124360487D01*
X157555995Y-124360487D01*
X157555995Y-124550712D01*
X157593106Y-124737286D01*
X157665899Y-124913025D01*
X157665900Y-124913027D01*
X157665902Y-124913031D01*
X157771587Y-125071198D01*
X157906097Y-125205708D01*
X158064264Y-125311393D01*
X158064269Y-125311395D01*
X158240008Y-125384188D01*
X158240009Y-125384188D01*
X158240011Y-125384189D01*
X158426582Y-125421300D01*
X158426583Y-125421300D01*
X158616807Y-125421300D01*
X158616808Y-125421300D01*
X158803379Y-125384189D01*
X158979126Y-125311393D01*
X159137293Y-125205708D01*
X159271803Y-125071198D01*
X159377488Y-124913031D01*
X159450284Y-124737284D01*
X159487395Y-124550713D01*
X159487395Y-124360487D01*
X160095995Y-124360487D01*
X160095995Y-124550712D01*
X160133106Y-124737286D01*
X160205899Y-124913025D01*
X160205900Y-124913027D01*
X160205902Y-124913031D01*
X160311587Y-125071198D01*
X160446097Y-125205708D01*
X160604264Y-125311393D01*
X160604269Y-125311395D01*
X160780008Y-125384188D01*
X160780009Y-125384188D01*
X160780011Y-125384189D01*
X160966582Y-125421300D01*
X160966583Y-125421300D01*
X161156807Y-125421300D01*
X161156808Y-125421300D01*
X161343379Y-125384189D01*
X161519126Y-125311393D01*
X161677293Y-125205708D01*
X161811803Y-125071198D01*
X161917488Y-124913031D01*
X161990284Y-124737284D01*
X162027395Y-124550713D01*
X162027395Y-124360487D01*
X162635995Y-124360487D01*
X162635995Y-124550712D01*
X162673106Y-124737286D01*
X162745899Y-124913025D01*
X162745900Y-124913027D01*
X162745902Y-124913031D01*
X162851587Y-125071198D01*
X162986097Y-125205708D01*
X163144264Y-125311393D01*
X163144269Y-125311395D01*
X163320008Y-125384188D01*
X163320009Y-125384188D01*
X163320011Y-125384189D01*
X163506582Y-125421300D01*
X163506583Y-125421300D01*
X163696807Y-125421300D01*
X163696808Y-125421300D01*
X163883379Y-125384189D01*
X164059126Y-125311393D01*
X164217293Y-125205708D01*
X164351803Y-125071198D01*
X164457488Y-124913031D01*
X164530284Y-124737284D01*
X164567395Y-124550713D01*
X164567395Y-124360487D01*
X165175995Y-124360487D01*
X165175995Y-124550712D01*
X165213106Y-124737286D01*
X165285899Y-124913025D01*
X165285900Y-124913027D01*
X165285902Y-124913031D01*
X165391587Y-125071198D01*
X165526097Y-125205708D01*
X165684264Y-125311393D01*
X165684269Y-125311395D01*
X165860008Y-125384188D01*
X165860009Y-125384188D01*
X165860011Y-125384189D01*
X166046582Y-125421300D01*
X166046583Y-125421300D01*
X166236807Y-125421300D01*
X166236808Y-125421300D01*
X166423379Y-125384189D01*
X166599126Y-125311393D01*
X166757293Y-125205708D01*
X166891803Y-125071198D01*
X166997488Y-124913031D01*
X167070284Y-124737284D01*
X167107395Y-124550713D01*
X167107395Y-124360487D01*
X167070284Y-124173916D01*
X166997488Y-123998169D01*
X166891803Y-123840002D01*
X166757293Y-123705492D01*
X166599126Y-123599807D01*
X166599122Y-123599805D01*
X166599120Y-123599804D01*
X166423381Y-123527011D01*
X166298998Y-123502270D01*
X166236808Y-123489900D01*
X166046582Y-123489900D01*
X165999939Y-123499177D01*
X165860008Y-123527011D01*
X165684269Y-123599804D01*
X165684265Y-123599806D01*
X165684264Y-123599807D01*
X165604111Y-123653363D01*
X165526098Y-123705491D01*
X165391586Y-123840003D01*
X165285899Y-123998174D01*
X165213106Y-124173913D01*
X165175995Y-124360487D01*
X164567395Y-124360487D01*
X164530284Y-124173916D01*
X164457488Y-123998169D01*
X164351803Y-123840002D01*
X164217293Y-123705492D01*
X164059126Y-123599807D01*
X164059122Y-123599805D01*
X164059120Y-123599804D01*
X163883381Y-123527011D01*
X163758998Y-123502270D01*
X163696808Y-123489900D01*
X163506582Y-123489900D01*
X163459939Y-123499177D01*
X163320008Y-123527011D01*
X163144269Y-123599804D01*
X163144265Y-123599806D01*
X163144264Y-123599807D01*
X163064111Y-123653363D01*
X162986098Y-123705491D01*
X162851586Y-123840003D01*
X162745899Y-123998174D01*
X162673106Y-124173913D01*
X162635995Y-124360487D01*
X162027395Y-124360487D01*
X161990284Y-124173916D01*
X161917488Y-123998169D01*
X161811803Y-123840002D01*
X161677293Y-123705492D01*
X161519126Y-123599807D01*
X161519122Y-123599805D01*
X161519120Y-123599804D01*
X161343381Y-123527011D01*
X161218998Y-123502270D01*
X161156808Y-123489900D01*
X160966582Y-123489900D01*
X160919939Y-123499177D01*
X160780008Y-123527011D01*
X160604269Y-123599804D01*
X160604265Y-123599806D01*
X160604264Y-123599807D01*
X160524111Y-123653363D01*
X160446098Y-123705491D01*
X160311586Y-123840003D01*
X160205899Y-123998174D01*
X160133106Y-124173913D01*
X160095995Y-124360487D01*
X159487395Y-124360487D01*
X159450284Y-124173916D01*
X159377488Y-123998169D01*
X159271803Y-123840002D01*
X159137293Y-123705492D01*
X158979126Y-123599807D01*
X158979122Y-123599805D01*
X158979120Y-123599804D01*
X158803381Y-123527011D01*
X158678998Y-123502270D01*
X158616808Y-123489900D01*
X158426582Y-123489900D01*
X158379939Y-123499177D01*
X158240008Y-123527011D01*
X158064269Y-123599804D01*
X158064265Y-123599806D01*
X158064264Y-123599807D01*
X157984111Y-123653363D01*
X157906098Y-123705491D01*
X157771586Y-123840003D01*
X157665899Y-123998174D01*
X157593106Y-124173913D01*
X157555995Y-124360487D01*
X156947395Y-124360487D01*
X156910284Y-124173916D01*
X156837488Y-123998169D01*
X156731803Y-123840002D01*
X156597293Y-123705492D01*
X156439126Y-123599807D01*
X156439122Y-123599805D01*
X156439120Y-123599804D01*
X156263381Y-123527011D01*
X156138998Y-123502270D01*
X156076808Y-123489900D01*
X155886582Y-123489900D01*
X155839939Y-123499177D01*
X155700008Y-123527011D01*
X155524269Y-123599804D01*
X155524265Y-123599806D01*
X155524264Y-123599807D01*
X155444111Y-123653363D01*
X155366098Y-123705491D01*
X155231586Y-123840003D01*
X155125899Y-123998174D01*
X155053106Y-124173913D01*
X155015995Y-124360487D01*
X154407395Y-124360487D01*
X154370284Y-124173916D01*
X154297488Y-123998169D01*
X154191803Y-123840002D01*
X154057293Y-123705492D01*
X153899126Y-123599807D01*
X153899122Y-123599805D01*
X153899120Y-123599804D01*
X153723381Y-123527011D01*
X153598998Y-123502270D01*
X153536808Y-123489900D01*
X153346582Y-123489900D01*
X153299939Y-123499177D01*
X153160008Y-123527011D01*
X152984269Y-123599804D01*
X152984265Y-123599806D01*
X152984264Y-123599807D01*
X152904111Y-123653363D01*
X152826098Y-123705491D01*
X152691586Y-123840003D01*
X152585899Y-123998174D01*
X152513106Y-124173913D01*
X152475995Y-124360487D01*
X151867395Y-124360487D01*
X151830284Y-124173916D01*
X151757488Y-123998169D01*
X151651803Y-123840002D01*
X151517293Y-123705492D01*
X151359126Y-123599807D01*
X151359122Y-123599805D01*
X151359120Y-123599804D01*
X151183381Y-123527011D01*
X151058998Y-123502270D01*
X150996808Y-123489900D01*
X150806582Y-123489900D01*
X150759939Y-123499177D01*
X150620008Y-123527011D01*
X150444269Y-123599804D01*
X150444265Y-123599806D01*
X150444264Y-123599807D01*
X150364111Y-123653363D01*
X150286098Y-123705491D01*
X150151586Y-123840003D01*
X150045899Y-123998174D01*
X149973106Y-124173913D01*
X149935995Y-124360487D01*
X149327395Y-124360487D01*
X149290284Y-124173916D01*
X149217488Y-123998169D01*
X149111803Y-123840002D01*
X148977293Y-123705492D01*
X148819126Y-123599807D01*
X148819122Y-123599805D01*
X148819120Y-123599804D01*
X148643381Y-123527011D01*
X148518998Y-123502270D01*
X148456808Y-123489900D01*
X148266582Y-123489900D01*
X148219939Y-123499177D01*
X148080008Y-123527011D01*
X147904269Y-123599804D01*
X147904265Y-123599806D01*
X147904264Y-123599807D01*
X147824111Y-123653363D01*
X147746098Y-123705491D01*
X147611586Y-123840003D01*
X147505899Y-123998174D01*
X147433106Y-124173913D01*
X147395995Y-124360487D01*
X146787395Y-124360487D01*
X146750284Y-124173916D01*
X146677488Y-123998169D01*
X146571803Y-123840002D01*
X146437293Y-123705492D01*
X146279126Y-123599807D01*
X146279122Y-123599805D01*
X146279120Y-123599804D01*
X146103381Y-123527011D01*
X145978998Y-123502270D01*
X145916808Y-123489900D01*
X145726582Y-123489900D01*
X145679939Y-123499177D01*
X145540008Y-123527011D01*
X145364269Y-123599804D01*
X145364265Y-123599806D01*
X145364264Y-123599807D01*
X145284111Y-123653363D01*
X145206098Y-123705491D01*
X145071586Y-123840003D01*
X144965899Y-123998174D01*
X144893106Y-124173913D01*
X144855995Y-124360487D01*
X129579177Y-124360487D01*
X129531281Y-124244856D01*
X129419617Y-124051447D01*
X129378739Y-123998174D01*
X129283658Y-123874262D01*
X129125738Y-123716342D01*
X128948556Y-123580385D01*
X128948555Y-123580384D01*
X128948552Y-123580382D01*
X128755143Y-123468718D01*
X128548826Y-123383257D01*
X128548805Y-123383250D01*
X128333091Y-123325449D01*
X128333082Y-123325448D01*
X128111668Y-123296300D01*
X128111666Y-123296300D01*
X127888334Y-123296300D01*
X127888332Y-123296300D01*
X127666917Y-123325448D01*
X127666908Y-123325449D01*
X127451194Y-123383250D01*
X127451173Y-123383257D01*
X127244856Y-123468718D01*
X127051447Y-123580382D01*
X126874258Y-123716345D01*
X126716345Y-123874258D01*
X126580382Y-124051447D01*
X126468718Y-124244856D01*
X126383257Y-124451173D01*
X126383250Y-124451194D01*
X126325449Y-124666908D01*
X126325448Y-124666917D01*
X126296300Y-124888331D01*
X125691574Y-124888331D01*
X125691579Y-124884900D01*
X125695864Y-121820487D01*
X144855995Y-121820487D01*
X144855995Y-122010712D01*
X144893106Y-122197286D01*
X144965899Y-122373025D01*
X144965900Y-122373027D01*
X144965902Y-122373031D01*
X145071587Y-122531198D01*
X145206097Y-122665708D01*
X145364264Y-122771393D01*
X145364269Y-122771395D01*
X145540008Y-122844188D01*
X145540009Y-122844188D01*
X145540011Y-122844189D01*
X145726582Y-122881300D01*
X145726583Y-122881300D01*
X145916807Y-122881300D01*
X145916808Y-122881300D01*
X146103379Y-122844189D01*
X146279126Y-122771393D01*
X146437293Y-122665708D01*
X146571803Y-122531198D01*
X146677488Y-122373031D01*
X146750284Y-122197284D01*
X146787395Y-122010713D01*
X146787395Y-121820487D01*
X147395995Y-121820487D01*
X147395995Y-122010712D01*
X147433106Y-122197286D01*
X147505899Y-122373025D01*
X147505900Y-122373027D01*
X147505902Y-122373031D01*
X147611587Y-122531198D01*
X147746097Y-122665708D01*
X147904264Y-122771393D01*
X147904269Y-122771395D01*
X148080008Y-122844188D01*
X148080009Y-122844188D01*
X148080011Y-122844189D01*
X148266582Y-122881300D01*
X148266583Y-122881300D01*
X148456807Y-122881300D01*
X148456808Y-122881300D01*
X148643379Y-122844189D01*
X148819126Y-122771393D01*
X148977293Y-122665708D01*
X149111803Y-122531198D01*
X149217488Y-122373031D01*
X149290284Y-122197284D01*
X149327395Y-122010713D01*
X149327395Y-121820487D01*
X149935995Y-121820487D01*
X149935995Y-122010712D01*
X149973106Y-122197286D01*
X150045899Y-122373025D01*
X150045900Y-122373027D01*
X150045902Y-122373031D01*
X150151587Y-122531198D01*
X150286097Y-122665708D01*
X150444264Y-122771393D01*
X150444269Y-122771395D01*
X150620008Y-122844188D01*
X150620009Y-122844188D01*
X150620011Y-122844189D01*
X150806582Y-122881300D01*
X150806583Y-122881300D01*
X150996807Y-122881300D01*
X150996808Y-122881300D01*
X151183379Y-122844189D01*
X151359126Y-122771393D01*
X151517293Y-122665708D01*
X151651803Y-122531198D01*
X151757488Y-122373031D01*
X151830284Y-122197284D01*
X151867395Y-122010713D01*
X151867395Y-121820487D01*
X152475995Y-121820487D01*
X152475995Y-122010712D01*
X152513106Y-122197286D01*
X152585899Y-122373025D01*
X152585900Y-122373027D01*
X152585902Y-122373031D01*
X152691587Y-122531198D01*
X152826097Y-122665708D01*
X152984264Y-122771393D01*
X152984269Y-122771395D01*
X153160008Y-122844188D01*
X153160009Y-122844188D01*
X153160011Y-122844189D01*
X153346582Y-122881300D01*
X153346583Y-122881300D01*
X153536807Y-122881300D01*
X153536808Y-122881300D01*
X153723379Y-122844189D01*
X153899126Y-122771393D01*
X154057293Y-122665708D01*
X154191803Y-122531198D01*
X154297488Y-122373031D01*
X154370284Y-122197284D01*
X154407395Y-122010713D01*
X154407395Y-121820487D01*
X155015995Y-121820487D01*
X155015995Y-122010712D01*
X155053106Y-122197286D01*
X155125899Y-122373025D01*
X155125900Y-122373027D01*
X155125902Y-122373031D01*
X155231587Y-122531198D01*
X155366097Y-122665708D01*
X155524264Y-122771393D01*
X155524269Y-122771395D01*
X155700008Y-122844188D01*
X155700009Y-122844188D01*
X155700011Y-122844189D01*
X155886582Y-122881300D01*
X155886583Y-122881300D01*
X156076807Y-122881300D01*
X156076808Y-122881300D01*
X156263379Y-122844189D01*
X156439126Y-122771393D01*
X156597293Y-122665708D01*
X156731803Y-122531198D01*
X156837488Y-122373031D01*
X156910284Y-122197284D01*
X156947395Y-122010713D01*
X156947395Y-121820487D01*
X160095995Y-121820487D01*
X160095995Y-122010712D01*
X160133106Y-122197286D01*
X160205899Y-122373025D01*
X160205900Y-122373027D01*
X160205902Y-122373031D01*
X160311587Y-122531198D01*
X160446097Y-122665708D01*
X160604264Y-122771393D01*
X160604269Y-122771395D01*
X160780008Y-122844188D01*
X160780009Y-122844188D01*
X160780011Y-122844189D01*
X160966582Y-122881300D01*
X160966583Y-122881300D01*
X161156807Y-122881300D01*
X161156808Y-122881300D01*
X161343379Y-122844189D01*
X161519126Y-122771393D01*
X161677293Y-122665708D01*
X161811803Y-122531198D01*
X161917488Y-122373031D01*
X161990284Y-122197284D01*
X162027395Y-122010713D01*
X162027395Y-121820487D01*
X162635995Y-121820487D01*
X162635995Y-122010712D01*
X162673106Y-122197286D01*
X162745899Y-122373025D01*
X162745900Y-122373027D01*
X162745902Y-122373031D01*
X162851587Y-122531198D01*
X162986097Y-122665708D01*
X163144264Y-122771393D01*
X163144269Y-122771395D01*
X163320008Y-122844188D01*
X163320009Y-122844188D01*
X163320011Y-122844189D01*
X163506582Y-122881300D01*
X163506583Y-122881300D01*
X163696807Y-122881300D01*
X163696808Y-122881300D01*
X163883379Y-122844189D01*
X164059126Y-122771393D01*
X164217293Y-122665708D01*
X164351803Y-122531198D01*
X164457488Y-122373031D01*
X164530284Y-122197284D01*
X164567395Y-122010713D01*
X164567395Y-121820487D01*
X165175995Y-121820487D01*
X165175995Y-122010712D01*
X165213106Y-122197286D01*
X165285899Y-122373025D01*
X165285900Y-122373027D01*
X165285902Y-122373031D01*
X165391587Y-122531198D01*
X165526097Y-122665708D01*
X165684264Y-122771393D01*
X165684269Y-122771395D01*
X165860008Y-122844188D01*
X165860009Y-122844188D01*
X165860011Y-122844189D01*
X166046582Y-122881300D01*
X166046583Y-122881300D01*
X166236807Y-122881300D01*
X166236808Y-122881300D01*
X166423379Y-122844189D01*
X166599126Y-122771393D01*
X166757293Y-122665708D01*
X166891803Y-122531198D01*
X166997488Y-122373031D01*
X167070284Y-122197284D01*
X167107395Y-122010713D01*
X167107395Y-121820487D01*
X167070284Y-121633916D01*
X166997488Y-121458169D01*
X166891803Y-121300002D01*
X166757293Y-121165492D01*
X166599126Y-121059807D01*
X166599122Y-121059805D01*
X166599120Y-121059804D01*
X166423381Y-120987011D01*
X166298998Y-120962270D01*
X166236808Y-120949900D01*
X166046582Y-120949900D01*
X165999939Y-120959177D01*
X165860008Y-120987011D01*
X165684269Y-121059804D01*
X165684265Y-121059806D01*
X165684264Y-121059807D01*
X165604111Y-121113363D01*
X165526098Y-121165491D01*
X165391586Y-121300003D01*
X165285899Y-121458174D01*
X165213106Y-121633913D01*
X165175995Y-121820487D01*
X164567395Y-121820487D01*
X164530284Y-121633916D01*
X164457488Y-121458169D01*
X164351803Y-121300002D01*
X164217293Y-121165492D01*
X164059126Y-121059807D01*
X164059122Y-121059805D01*
X164059120Y-121059804D01*
X163883381Y-120987011D01*
X163758998Y-120962270D01*
X163696808Y-120949900D01*
X163506582Y-120949900D01*
X163459939Y-120959177D01*
X163320008Y-120987011D01*
X163144269Y-121059804D01*
X163144265Y-121059806D01*
X163144264Y-121059807D01*
X163064111Y-121113363D01*
X162986098Y-121165491D01*
X162851586Y-121300003D01*
X162745899Y-121458174D01*
X162673106Y-121633913D01*
X162635995Y-121820487D01*
X162027395Y-121820487D01*
X161990284Y-121633916D01*
X161917488Y-121458169D01*
X161811803Y-121300002D01*
X161677293Y-121165492D01*
X161519126Y-121059807D01*
X161519122Y-121059805D01*
X161519120Y-121059804D01*
X161343381Y-120987011D01*
X161218998Y-120962270D01*
X161156808Y-120949900D01*
X160966582Y-120949900D01*
X160919939Y-120959177D01*
X160780008Y-120987011D01*
X160604269Y-121059804D01*
X160604265Y-121059806D01*
X160604264Y-121059807D01*
X160524111Y-121113363D01*
X160446098Y-121165491D01*
X160311586Y-121300003D01*
X160205899Y-121458174D01*
X160133106Y-121633913D01*
X160095995Y-121820487D01*
X156947395Y-121820487D01*
X156910284Y-121633916D01*
X156837488Y-121458169D01*
X156731803Y-121300002D01*
X156597293Y-121165492D01*
X156439126Y-121059807D01*
X156439122Y-121059805D01*
X156439120Y-121059804D01*
X156263381Y-120987011D01*
X156138998Y-120962270D01*
X156076808Y-120949900D01*
X155886582Y-120949900D01*
X155839939Y-120959177D01*
X155700008Y-120987011D01*
X155524269Y-121059804D01*
X155524265Y-121059806D01*
X155524264Y-121059807D01*
X155444111Y-121113363D01*
X155366098Y-121165491D01*
X155231586Y-121300003D01*
X155125899Y-121458174D01*
X155053106Y-121633913D01*
X155015995Y-121820487D01*
X154407395Y-121820487D01*
X154370284Y-121633916D01*
X154297488Y-121458169D01*
X154191803Y-121300002D01*
X154057293Y-121165492D01*
X153899126Y-121059807D01*
X153899122Y-121059805D01*
X153899120Y-121059804D01*
X153723381Y-120987011D01*
X153598998Y-120962270D01*
X153536808Y-120949900D01*
X153346582Y-120949900D01*
X153299939Y-120959177D01*
X153160008Y-120987011D01*
X152984269Y-121059804D01*
X152984265Y-121059806D01*
X152984264Y-121059807D01*
X152904111Y-121113363D01*
X152826098Y-121165491D01*
X152691586Y-121300003D01*
X152585899Y-121458174D01*
X152513106Y-121633913D01*
X152475995Y-121820487D01*
X151867395Y-121820487D01*
X151830284Y-121633916D01*
X151757488Y-121458169D01*
X151651803Y-121300002D01*
X151517293Y-121165492D01*
X151359126Y-121059807D01*
X151359122Y-121059805D01*
X151359120Y-121059804D01*
X151183381Y-120987011D01*
X151058998Y-120962270D01*
X150996808Y-120949900D01*
X150806582Y-120949900D01*
X150759939Y-120959177D01*
X150620008Y-120987011D01*
X150444269Y-121059804D01*
X150444265Y-121059806D01*
X150444264Y-121059807D01*
X150364111Y-121113363D01*
X150286098Y-121165491D01*
X150151586Y-121300003D01*
X150045899Y-121458174D01*
X149973106Y-121633913D01*
X149935995Y-121820487D01*
X149327395Y-121820487D01*
X149290284Y-121633916D01*
X149217488Y-121458169D01*
X149111803Y-121300002D01*
X148977293Y-121165492D01*
X148819126Y-121059807D01*
X148819122Y-121059805D01*
X148819120Y-121059804D01*
X148643381Y-120987011D01*
X148518998Y-120962270D01*
X148456808Y-120949900D01*
X148266582Y-120949900D01*
X148219939Y-120959177D01*
X148080008Y-120987011D01*
X147904269Y-121059804D01*
X147904265Y-121059806D01*
X147904264Y-121059807D01*
X147824111Y-121113363D01*
X147746098Y-121165491D01*
X147611586Y-121300003D01*
X147505899Y-121458174D01*
X147433106Y-121633913D01*
X147395995Y-121820487D01*
X146787395Y-121820487D01*
X146750284Y-121633916D01*
X146677488Y-121458169D01*
X146571803Y-121300002D01*
X146437293Y-121165492D01*
X146279126Y-121059807D01*
X146279122Y-121059805D01*
X146279120Y-121059804D01*
X146103381Y-120987011D01*
X145978998Y-120962270D01*
X145916808Y-120949900D01*
X145726582Y-120949900D01*
X145679939Y-120959177D01*
X145540008Y-120987011D01*
X145364269Y-121059804D01*
X145364265Y-121059806D01*
X145364264Y-121059807D01*
X145284111Y-121113363D01*
X145206098Y-121165491D01*
X145071586Y-121300003D01*
X144965899Y-121458174D01*
X144893106Y-121633913D01*
X144855995Y-121820487D01*
X125695864Y-121820487D01*
X125695871Y-121815404D01*
X125697663Y-120534159D01*
X125716959Y-120475055D01*
X125767310Y-120438580D01*
X125798263Y-120433700D01*
X127436069Y-120433700D01*
X127448579Y-120434931D01*
X127448601Y-120434716D01*
X127453514Y-120435200D01*
X127453518Y-120435200D01*
X127661079Y-120435200D01*
X127661080Y-120435200D01*
X127744021Y-120418702D01*
X127869499Y-120393743D01*
X127869612Y-120394311D01*
X127891666Y-120391039D01*
X128713049Y-120391039D01*
X128713049Y-118180555D01*
X131591130Y-118180555D01*
X131591130Y-118293444D01*
X131620343Y-118402468D01*
X131620345Y-118402473D01*
X131676783Y-118500226D01*
X131756603Y-118580046D01*
X131854356Y-118636484D01*
X131854358Y-118636485D01*
X131854359Y-118636485D01*
X131854361Y-118636486D01*
X131963385Y-118665699D01*
X131963389Y-118665699D01*
X131963391Y-118665700D01*
X131963393Y-118665700D01*
X132076267Y-118665700D01*
X132076269Y-118665700D01*
X132076271Y-118665699D01*
X132076274Y-118665699D01*
X132185298Y-118636486D01*
X132185297Y-118636486D01*
X132185302Y-118636485D01*
X132283058Y-118580045D01*
X132362875Y-118500228D01*
X132419315Y-118402472D01*
X132448530Y-118293439D01*
X132448530Y-118180561D01*
X132448529Y-118180559D01*
X132448529Y-118180555D01*
X132419316Y-118071531D01*
X132419314Y-118071526D01*
X132362876Y-117973773D01*
X132283056Y-117893953D01*
X132185303Y-117837515D01*
X132185298Y-117837513D01*
X132076274Y-117808300D01*
X132076269Y-117808300D01*
X131963391Y-117808300D01*
X131963385Y-117808300D01*
X131854361Y-117837513D01*
X131854356Y-117837515D01*
X131756603Y-117893953D01*
X131756602Y-117893955D01*
X131676785Y-117973772D01*
X131676783Y-117973773D01*
X131620345Y-118071526D01*
X131620343Y-118071531D01*
X131591130Y-118180555D01*
X128713049Y-118180555D01*
X128713049Y-117545555D01*
X134699300Y-117545555D01*
X134699300Y-117658444D01*
X134728513Y-117767468D01*
X134728515Y-117767473D01*
X134784953Y-117865226D01*
X134864773Y-117945046D01*
X134962526Y-118001484D01*
X134962528Y-118001485D01*
X134962529Y-118001485D01*
X134962531Y-118001486D01*
X135071555Y-118030699D01*
X135071559Y-118030699D01*
X135071561Y-118030700D01*
X135071563Y-118030700D01*
X135184437Y-118030700D01*
X135184439Y-118030700D01*
X135184441Y-118030699D01*
X135184444Y-118030699D01*
X135293468Y-118001486D01*
X135293467Y-118001486D01*
X135293472Y-118001485D01*
X135391228Y-117945045D01*
X135471045Y-117865228D01*
X135527485Y-117767472D01*
X135556700Y-117658439D01*
X135556700Y-117545561D01*
X135556699Y-117545559D01*
X135556699Y-117545555D01*
X135527486Y-117436531D01*
X135527484Y-117436526D01*
X135471046Y-117338773D01*
X135391226Y-117258953D01*
X135293473Y-117202515D01*
X135293468Y-117202513D01*
X135184444Y-117173300D01*
X135184439Y-117173300D01*
X135071561Y-117173300D01*
X135071555Y-117173300D01*
X134962531Y-117202513D01*
X134962526Y-117202515D01*
X134864773Y-117258953D01*
X134864772Y-117258955D01*
X134784955Y-117338772D01*
X134784953Y-117338773D01*
X134728515Y-117436526D01*
X134728513Y-117436531D01*
X134699300Y-117545555D01*
X128713049Y-117545555D01*
X128713049Y-116740487D01*
X136786850Y-116740487D01*
X136786850Y-116930712D01*
X136823961Y-117117286D01*
X136896754Y-117293025D01*
X136896755Y-117293027D01*
X136896757Y-117293031D01*
X137002442Y-117451198D01*
X137136952Y-117585708D01*
X137295119Y-117691393D01*
X137295124Y-117691395D01*
X137470863Y-117764188D01*
X137470864Y-117764188D01*
X137470866Y-117764189D01*
X137657437Y-117801300D01*
X137657438Y-117801300D01*
X137847662Y-117801300D01*
X137847663Y-117801300D01*
X138034234Y-117764189D01*
X138209981Y-117691393D01*
X138368148Y-117585708D01*
X138502658Y-117451198D01*
X138608343Y-117293031D01*
X138681139Y-117117284D01*
X138718250Y-116930713D01*
X138718250Y-116740487D01*
X141866850Y-116740487D01*
X141866850Y-116930712D01*
X141903961Y-117117286D01*
X141976754Y-117293025D01*
X141976755Y-117293027D01*
X141976757Y-117293031D01*
X142082442Y-117451198D01*
X142216952Y-117585708D01*
X142375119Y-117691393D01*
X142375124Y-117691395D01*
X142550863Y-117764188D01*
X142550864Y-117764188D01*
X142550866Y-117764189D01*
X142737437Y-117801300D01*
X142737438Y-117801300D01*
X142927662Y-117801300D01*
X142927663Y-117801300D01*
X143114234Y-117764189D01*
X143289981Y-117691393D01*
X143448148Y-117585708D01*
X143582658Y-117451198D01*
X143688343Y-117293031D01*
X143761139Y-117117284D01*
X143798250Y-116930713D01*
X143798250Y-116740487D01*
X143761139Y-116553916D01*
X143688343Y-116378169D01*
X143582658Y-116220002D01*
X143448148Y-116085492D01*
X143289981Y-115979807D01*
X143289977Y-115979805D01*
X143289975Y-115979804D01*
X143114236Y-115907011D01*
X142989853Y-115882270D01*
X142927663Y-115869900D01*
X142737437Y-115869900D01*
X142690794Y-115879177D01*
X142550863Y-115907011D01*
X142375124Y-115979804D01*
X142375120Y-115979806D01*
X142375119Y-115979807D01*
X142312665Y-116021538D01*
X142216953Y-116085491D01*
X142082441Y-116220003D01*
X141976754Y-116378174D01*
X141903961Y-116553913D01*
X141866850Y-116740487D01*
X138718250Y-116740487D01*
X138681139Y-116553916D01*
X138608343Y-116378169D01*
X138502658Y-116220002D01*
X138368148Y-116085492D01*
X138209981Y-115979807D01*
X138209977Y-115979805D01*
X138209975Y-115979804D01*
X138034236Y-115907011D01*
X137909853Y-115882270D01*
X137847663Y-115869900D01*
X137657437Y-115869900D01*
X137610794Y-115879177D01*
X137470863Y-115907011D01*
X137295124Y-115979804D01*
X137295120Y-115979806D01*
X137295119Y-115979807D01*
X137232665Y-116021538D01*
X137136953Y-116085491D01*
X137002441Y-116220003D01*
X136896754Y-116378174D01*
X136823961Y-116553913D01*
X136786850Y-116740487D01*
X128713049Y-116740487D01*
X128713049Y-115057039D01*
X127824049Y-115057039D01*
X127800460Y-115057039D01*
X127793155Y-115060761D01*
X127777418Y-115062000D01*
X125806056Y-115062000D01*
X125790838Y-115057055D01*
X125774835Y-115057033D01*
X125762011Y-115047688D01*
X125746925Y-115042787D01*
X125737520Y-115029843D01*
X125724586Y-115020418D01*
X125719703Y-115005320D01*
X125710380Y-114992487D01*
X125705456Y-114961260D01*
X125705578Y-114874155D01*
X134191300Y-114874155D01*
X134191300Y-114987044D01*
X134220513Y-115096068D01*
X134220515Y-115096073D01*
X134276953Y-115193826D01*
X134356773Y-115273646D01*
X134454526Y-115330084D01*
X134454528Y-115330085D01*
X134454529Y-115330085D01*
X134454531Y-115330086D01*
X134563555Y-115359299D01*
X134563559Y-115359299D01*
X134563561Y-115359300D01*
X134563563Y-115359300D01*
X134676437Y-115359300D01*
X134676439Y-115359300D01*
X134676441Y-115359299D01*
X134676444Y-115359299D01*
X134785468Y-115330086D01*
X134785467Y-115330086D01*
X134785472Y-115330085D01*
X134883228Y-115273645D01*
X134963045Y-115193828D01*
X135019485Y-115096072D01*
X135024581Y-115077049D01*
X135048699Y-114987044D01*
X135048700Y-114987037D01*
X135048700Y-114874162D01*
X135048699Y-114874155D01*
X135019486Y-114765131D01*
X135019484Y-114765126D01*
X134963046Y-114667373D01*
X134883226Y-114587553D01*
X134785473Y-114531115D01*
X134785468Y-114531113D01*
X134676444Y-114501900D01*
X134676439Y-114501900D01*
X134563561Y-114501900D01*
X134563555Y-114501900D01*
X134454531Y-114531113D01*
X134454526Y-114531115D01*
X134356773Y-114587553D01*
X134356772Y-114587555D01*
X134276955Y-114667372D01*
X134276953Y-114667373D01*
X134220515Y-114765126D01*
X134220513Y-114765131D01*
X134191300Y-114874155D01*
X125705578Y-114874155D01*
X125705587Y-114867427D01*
X125705587Y-114867426D01*
X125705978Y-114587553D01*
X125706519Y-114200487D01*
X136786850Y-114200487D01*
X136786850Y-114390712D01*
X136823961Y-114577286D01*
X136896754Y-114753025D01*
X136896755Y-114753027D01*
X136896757Y-114753031D01*
X137002442Y-114911198D01*
X137136952Y-115045708D01*
X137295119Y-115151393D01*
X137295124Y-115151395D01*
X137470863Y-115224188D01*
X137470864Y-115224188D01*
X137470866Y-115224189D01*
X137657437Y-115261300D01*
X137657438Y-115261300D01*
X137847662Y-115261300D01*
X137847663Y-115261300D01*
X138034234Y-115224189D01*
X138209981Y-115151393D01*
X138368148Y-115045708D01*
X138502658Y-114911198D01*
X138608343Y-114753031D01*
X138681139Y-114577284D01*
X138718250Y-114390713D01*
X138718250Y-114200487D01*
X139326850Y-114200487D01*
X139326850Y-114390712D01*
X139363961Y-114577286D01*
X139436754Y-114753025D01*
X139436755Y-114753027D01*
X139436757Y-114753031D01*
X139542442Y-114911198D01*
X139676952Y-115045708D01*
X139835119Y-115151393D01*
X139835124Y-115151395D01*
X140010863Y-115224188D01*
X140010864Y-115224188D01*
X140010866Y-115224189D01*
X140197437Y-115261300D01*
X140197438Y-115261300D01*
X140387662Y-115261300D01*
X140387663Y-115261300D01*
X140574234Y-115224189D01*
X140749981Y-115151393D01*
X140908148Y-115045708D01*
X141042658Y-114911198D01*
X141148343Y-114753031D01*
X141221139Y-114577284D01*
X141258250Y-114390713D01*
X141258250Y-114200487D01*
X141866850Y-114200487D01*
X141866850Y-114390712D01*
X141903961Y-114577286D01*
X141976754Y-114753025D01*
X141976755Y-114753027D01*
X141976757Y-114753031D01*
X142082442Y-114911198D01*
X142216952Y-115045708D01*
X142375119Y-115151393D01*
X142375124Y-115151395D01*
X142550863Y-115224188D01*
X142550864Y-115224188D01*
X142550866Y-115224189D01*
X142737437Y-115261300D01*
X142737438Y-115261300D01*
X142927662Y-115261300D01*
X142927663Y-115261300D01*
X143114234Y-115224189D01*
X143289981Y-115151393D01*
X143448148Y-115045708D01*
X143582658Y-114911198D01*
X143688343Y-114753031D01*
X143761139Y-114577284D01*
X143798250Y-114390713D01*
X143798250Y-114200487D01*
X143761139Y-114013916D01*
X143688343Y-113838169D01*
X143582658Y-113680002D01*
X143448148Y-113545492D01*
X143289981Y-113439807D01*
X143289977Y-113439805D01*
X143289975Y-113439804D01*
X143114236Y-113367011D01*
X142989853Y-113342270D01*
X142927663Y-113329900D01*
X142737437Y-113329900D01*
X142690794Y-113339177D01*
X142550863Y-113367011D01*
X142375124Y-113439804D01*
X142375120Y-113439806D01*
X142375119Y-113439807D01*
X142294966Y-113493363D01*
X142216953Y-113545491D01*
X142082441Y-113680003D01*
X141976754Y-113838174D01*
X141903961Y-114013913D01*
X141866850Y-114200487D01*
X141258250Y-114200487D01*
X141221139Y-114013916D01*
X141148343Y-113838169D01*
X141042658Y-113680002D01*
X140908148Y-113545492D01*
X140749981Y-113439807D01*
X140749977Y-113439805D01*
X140749975Y-113439804D01*
X140574236Y-113367011D01*
X140449853Y-113342270D01*
X140387663Y-113329900D01*
X140197437Y-113329900D01*
X140150794Y-113339177D01*
X140010863Y-113367011D01*
X139835124Y-113439804D01*
X139835120Y-113439806D01*
X139835119Y-113439807D01*
X139754966Y-113493363D01*
X139676953Y-113545491D01*
X139542441Y-113680003D01*
X139436754Y-113838174D01*
X139363961Y-114013913D01*
X139326850Y-114200487D01*
X138718250Y-114200487D01*
X138681139Y-114013916D01*
X138608343Y-113838169D01*
X138502658Y-113680002D01*
X138368148Y-113545492D01*
X138209981Y-113439807D01*
X138209977Y-113439805D01*
X138209975Y-113439804D01*
X138034236Y-113367011D01*
X137909853Y-113342270D01*
X137847663Y-113329900D01*
X137657437Y-113329900D01*
X137610794Y-113339177D01*
X137470863Y-113367011D01*
X137295124Y-113439804D01*
X137295120Y-113439806D01*
X137295119Y-113439807D01*
X137214966Y-113493363D01*
X137136953Y-113545491D01*
X137002441Y-113680003D01*
X136896754Y-113838174D01*
X136823961Y-114013913D01*
X136786850Y-114200487D01*
X125706519Y-114200487D01*
X125710436Y-111399226D01*
X125710445Y-111393612D01*
X125710500Y-111393482D01*
X125710500Y-111359081D01*
X125710510Y-111359047D01*
X125711133Y-111347976D01*
X125716084Y-111304039D01*
X125725742Y-111218336D01*
X125730753Y-111196380D01*
X125732582Y-111191155D01*
X138280995Y-111191155D01*
X138280995Y-111304044D01*
X138310208Y-111413068D01*
X138310210Y-111413073D01*
X138366648Y-111510826D01*
X138446468Y-111590646D01*
X138544221Y-111647084D01*
X138544223Y-111647085D01*
X138544224Y-111647085D01*
X138544226Y-111647086D01*
X138653250Y-111676299D01*
X138653254Y-111676299D01*
X138653256Y-111676300D01*
X138653258Y-111676300D01*
X138766132Y-111676300D01*
X138766134Y-111676300D01*
X138766136Y-111676299D01*
X138766139Y-111676299D01*
X138875163Y-111647086D01*
X138875162Y-111647086D01*
X138875167Y-111647085D01*
X138972923Y-111590645D01*
X139052740Y-111510828D01*
X139109180Y-111413072D01*
X139138395Y-111304039D01*
X139138395Y-111191161D01*
X139138394Y-111191159D01*
X139138394Y-111191155D01*
X139550995Y-111191155D01*
X139550995Y-111304044D01*
X139580208Y-111413068D01*
X139580210Y-111413073D01*
X139636648Y-111510826D01*
X139716468Y-111590646D01*
X139814221Y-111647084D01*
X139814223Y-111647085D01*
X139814224Y-111647085D01*
X139814226Y-111647086D01*
X139923250Y-111676299D01*
X139923254Y-111676299D01*
X139923256Y-111676300D01*
X139923258Y-111676300D01*
X140036132Y-111676300D01*
X140036134Y-111676300D01*
X140036136Y-111676299D01*
X140036139Y-111676299D01*
X140145163Y-111647086D01*
X140145162Y-111647086D01*
X140145167Y-111647085D01*
X140242923Y-111590645D01*
X140322740Y-111510828D01*
X140379180Y-111413072D01*
X140408395Y-111304039D01*
X140408395Y-111191161D01*
X140408394Y-111191159D01*
X140408394Y-111191155D01*
X142344995Y-111191155D01*
X142344995Y-111304044D01*
X142374208Y-111413068D01*
X142374210Y-111413073D01*
X142430648Y-111510826D01*
X142510468Y-111590646D01*
X142608221Y-111647084D01*
X142608223Y-111647085D01*
X142608224Y-111647085D01*
X142608226Y-111647086D01*
X142717250Y-111676299D01*
X142717254Y-111676299D01*
X142717256Y-111676300D01*
X142717258Y-111676300D01*
X142830132Y-111676300D01*
X142830134Y-111676300D01*
X142830136Y-111676299D01*
X142830139Y-111676299D01*
X142939163Y-111647086D01*
X142939162Y-111647086D01*
X142939167Y-111647085D01*
X143036923Y-111590645D01*
X143116740Y-111510828D01*
X143173180Y-111413072D01*
X143202395Y-111304039D01*
X143202395Y-111191161D01*
X143202394Y-111191159D01*
X143202394Y-111191155D01*
X143173181Y-111082131D01*
X143173179Y-111082126D01*
X143116741Y-110984373D01*
X143036921Y-110904553D01*
X142939168Y-110848115D01*
X142939163Y-110848113D01*
X142830139Y-110818900D01*
X142830134Y-110818900D01*
X142717256Y-110818900D01*
X142717250Y-110818900D01*
X142608226Y-110848113D01*
X142608221Y-110848115D01*
X142510468Y-110904553D01*
X142510467Y-110904555D01*
X142430650Y-110984372D01*
X142430648Y-110984373D01*
X142374210Y-111082126D01*
X142374208Y-111082131D01*
X142344995Y-111191155D01*
X140408394Y-111191155D01*
X140379181Y-111082131D01*
X140379179Y-111082126D01*
X140322741Y-110984373D01*
X140242921Y-110904553D01*
X140145168Y-110848115D01*
X140145163Y-110848113D01*
X140036139Y-110818900D01*
X140036134Y-110818900D01*
X139923256Y-110818900D01*
X139923250Y-110818900D01*
X139814226Y-110848113D01*
X139814221Y-110848115D01*
X139716468Y-110904553D01*
X139716467Y-110904555D01*
X139636650Y-110984372D01*
X139636648Y-110984373D01*
X139580210Y-111082126D01*
X139580208Y-111082131D01*
X139550995Y-111191155D01*
X139138394Y-111191155D01*
X139109181Y-111082131D01*
X139109179Y-111082126D01*
X139052741Y-110984373D01*
X138972921Y-110904553D01*
X138875168Y-110848115D01*
X138875163Y-110848113D01*
X138766139Y-110818900D01*
X138766134Y-110818900D01*
X138653256Y-110818900D01*
X138653250Y-110818900D01*
X138544226Y-110848113D01*
X138544221Y-110848115D01*
X138446468Y-110904553D01*
X138446467Y-110904555D01*
X138366650Y-110984372D01*
X138366648Y-110984373D01*
X138310210Y-111082126D01*
X138310208Y-111082131D01*
X138280995Y-111191155D01*
X125732582Y-111191155D01*
X125771973Y-111078597D01*
X125781745Y-111058307D01*
X125848143Y-110952651D01*
X125862190Y-110935040D01*
X125950433Y-110846812D01*
X125968043Y-110832771D01*
X126073710Y-110766394D01*
X126094009Y-110756623D01*
X126126552Y-110745241D01*
X126159764Y-110739600D01*
X132607645Y-110739600D01*
X132607645Y-110664109D01*
X132610027Y-110656776D01*
X132608760Y-110649171D01*
X132619263Y-110628351D01*
X132626858Y-110604978D01*
X132636540Y-110593549D01*
X132636798Y-110593286D01*
X132643791Y-110586294D01*
X132643872Y-110586095D01*
X132644024Y-110585942D01*
X132644098Y-110585833D01*
X132644196Y-110585683D01*
X132644199Y-110585681D01*
X132659232Y-110549015D01*
X132674315Y-110512602D01*
X132674315Y-110512240D01*
X132674453Y-110511904D01*
X132674458Y-110511880D01*
X132674458Y-110511879D01*
X132674316Y-110472499D01*
X132674315Y-110472136D01*
X132674315Y-109159155D01*
X142090995Y-109159155D01*
X142090995Y-109272044D01*
X142120208Y-109381068D01*
X142120210Y-109381073D01*
X142176648Y-109478826D01*
X142256468Y-109558646D01*
X142354221Y-109615084D01*
X142354223Y-109615085D01*
X142354224Y-109615085D01*
X142354226Y-109615086D01*
X142463250Y-109644299D01*
X142463254Y-109644299D01*
X142463256Y-109644300D01*
X142463258Y-109644300D01*
X142576132Y-109644300D01*
X142576134Y-109644300D01*
X142576136Y-109644299D01*
X142576139Y-109644299D01*
X142685163Y-109615086D01*
X142685162Y-109615086D01*
X142685167Y-109615085D01*
X142782923Y-109558645D01*
X142862740Y-109478828D01*
X142919180Y-109381072D01*
X142948395Y-109272039D01*
X142948395Y-109159161D01*
X142948394Y-109159159D01*
X142948394Y-109159155D01*
X142919181Y-109050131D01*
X142919179Y-109050126D01*
X142862741Y-108952373D01*
X142782921Y-108872553D01*
X142685168Y-108816115D01*
X142685163Y-108816113D01*
X142576139Y-108786900D01*
X142576134Y-108786900D01*
X142463256Y-108786900D01*
X142463250Y-108786900D01*
X142354226Y-108816113D01*
X142354221Y-108816115D01*
X142256468Y-108872553D01*
X142256467Y-108872555D01*
X142176650Y-108952372D01*
X142176648Y-108952373D01*
X142120210Y-109050126D01*
X142120208Y-109050131D01*
X142090995Y-109159155D01*
X132674315Y-109159155D01*
X132674315Y-108253155D01*
X133818995Y-108253155D01*
X133818995Y-108366044D01*
X133848208Y-108475068D01*
X133848210Y-108475073D01*
X133904648Y-108572826D01*
X133984468Y-108652646D01*
X134013913Y-108669646D01*
X134082223Y-108709085D01*
X134082224Y-108709085D01*
X134082226Y-108709086D01*
X134191250Y-108738299D01*
X134191254Y-108738299D01*
X134191256Y-108738300D01*
X134191258Y-108738300D01*
X134304132Y-108738300D01*
X134304134Y-108738300D01*
X134304136Y-108738299D01*
X134304139Y-108738299D01*
X134413163Y-108709086D01*
X134413162Y-108709086D01*
X134413167Y-108709085D01*
X134510923Y-108652645D01*
X134590740Y-108572828D01*
X134647180Y-108475072D01*
X134668058Y-108397155D01*
X136502995Y-108397155D01*
X136502995Y-108510044D01*
X136532208Y-108619068D01*
X136532210Y-108619073D01*
X136588648Y-108716826D01*
X136668468Y-108796646D01*
X136766221Y-108853084D01*
X136766223Y-108853085D01*
X136766224Y-108853085D01*
X136766226Y-108853086D01*
X136875250Y-108882299D01*
X136875254Y-108882299D01*
X136875256Y-108882300D01*
X136875258Y-108882300D01*
X136988132Y-108882300D01*
X136988134Y-108882300D01*
X136988136Y-108882299D01*
X136988139Y-108882299D01*
X137097163Y-108853086D01*
X137097162Y-108853086D01*
X137097167Y-108853085D01*
X137194923Y-108796645D01*
X137274740Y-108716828D01*
X137331180Y-108619072D01*
X137341309Y-108581270D01*
X137360394Y-108510044D01*
X137360395Y-108510037D01*
X137360395Y-108397162D01*
X137360394Y-108397155D01*
X137331181Y-108288131D01*
X137331179Y-108288126D01*
X137274741Y-108190373D01*
X137194921Y-108110553D01*
X137097168Y-108054115D01*
X137097163Y-108054113D01*
X137022617Y-108034139D01*
X136988139Y-108024900D01*
X136988134Y-108024900D01*
X136875256Y-108024900D01*
X136875250Y-108024900D01*
X136766226Y-108054113D01*
X136766221Y-108054115D01*
X136668468Y-108110553D01*
X136668467Y-108110555D01*
X136588650Y-108190372D01*
X136588648Y-108190373D01*
X136532210Y-108288126D01*
X136532208Y-108288131D01*
X136502995Y-108397155D01*
X134668058Y-108397155D01*
X134676395Y-108366039D01*
X134676395Y-108253161D01*
X134676394Y-108253159D01*
X134676394Y-108253155D01*
X134647181Y-108144131D01*
X134647179Y-108144126D01*
X134590741Y-108046373D01*
X134510921Y-107966553D01*
X134471087Y-107943555D01*
X138511300Y-107943555D01*
X138511300Y-108056444D01*
X138540513Y-108165468D01*
X138540515Y-108165473D01*
X138596953Y-108263226D01*
X138676773Y-108343046D01*
X138770504Y-108397162D01*
X138774528Y-108399485D01*
X138774529Y-108399485D01*
X138774531Y-108399486D01*
X138883555Y-108428699D01*
X138883559Y-108428699D01*
X138883561Y-108428700D01*
X138883563Y-108428700D01*
X138996437Y-108428700D01*
X138996439Y-108428700D01*
X138996441Y-108428699D01*
X138996444Y-108428699D01*
X139105468Y-108399486D01*
X139105469Y-108399486D01*
X139105469Y-108399485D01*
X139105472Y-108399485D01*
X139191724Y-108349686D01*
X139252539Y-108336760D01*
X139295175Y-108353769D01*
X139295934Y-108352457D01*
X139377390Y-108399486D01*
X139399401Y-108412194D01*
X139399402Y-108412194D01*
X139399404Y-108412195D01*
X139508428Y-108441408D01*
X139508432Y-108441408D01*
X139508434Y-108441409D01*
X139508436Y-108441409D01*
X139621310Y-108441409D01*
X139621312Y-108441409D01*
X139621314Y-108441408D01*
X139621317Y-108441408D01*
X139730341Y-108412195D01*
X139730340Y-108412195D01*
X139730345Y-108412194D01*
X139828101Y-108355754D01*
X139907918Y-108275937D01*
X139911256Y-108270155D01*
X144122995Y-108270155D01*
X144122995Y-108383044D01*
X144152208Y-108492068D01*
X144152210Y-108492073D01*
X144208648Y-108589826D01*
X144288468Y-108669646D01*
X144386221Y-108726084D01*
X144386223Y-108726085D01*
X144386224Y-108726085D01*
X144386226Y-108726086D01*
X144495250Y-108755299D01*
X144495254Y-108755299D01*
X144495256Y-108755300D01*
X144495258Y-108755300D01*
X144608132Y-108755300D01*
X144608134Y-108755300D01*
X144608136Y-108755299D01*
X144608139Y-108755299D01*
X144717163Y-108726086D01*
X144717162Y-108726086D01*
X144717167Y-108726085D01*
X144814923Y-108669645D01*
X144861560Y-108623008D01*
X144916958Y-108594782D01*
X144978366Y-108604508D01*
X145003830Y-108623008D01*
X145050468Y-108669646D01*
X145148221Y-108726084D01*
X145148223Y-108726085D01*
X145148224Y-108726085D01*
X145148226Y-108726086D01*
X145257250Y-108755299D01*
X145257254Y-108755299D01*
X145257256Y-108755300D01*
X145257258Y-108755300D01*
X145370132Y-108755300D01*
X145370134Y-108755300D01*
X145370136Y-108755299D01*
X145370139Y-108755299D01*
X145479163Y-108726086D01*
X145479162Y-108726086D01*
X145479167Y-108726085D01*
X145576923Y-108669645D01*
X145656740Y-108589828D01*
X145713180Y-108492072D01*
X145720990Y-108462924D01*
X145742394Y-108383044D01*
X145742395Y-108383037D01*
X145742395Y-108270162D01*
X145742394Y-108270155D01*
X145713181Y-108161131D01*
X145713179Y-108161126D01*
X145656741Y-108063373D01*
X145576921Y-107983553D01*
X145479168Y-107927115D01*
X145479163Y-107927113D01*
X145370139Y-107897900D01*
X145370134Y-107897900D01*
X145257256Y-107897900D01*
X145257250Y-107897900D01*
X145148226Y-107927113D01*
X145148221Y-107927115D01*
X145050468Y-107983553D01*
X145050467Y-107983555D01*
X145003830Y-108030192D01*
X144948432Y-108058418D01*
X144887024Y-108048692D01*
X144861560Y-108030192D01*
X144814921Y-107983553D01*
X144717168Y-107927115D01*
X144717163Y-107927113D01*
X144608139Y-107897900D01*
X144608134Y-107897900D01*
X144495256Y-107897900D01*
X144495250Y-107897900D01*
X144386226Y-107927113D01*
X144386221Y-107927115D01*
X144288468Y-107983553D01*
X144288467Y-107983555D01*
X144208650Y-108063372D01*
X144208648Y-108063373D01*
X144152210Y-108161126D01*
X144152208Y-108161131D01*
X144122995Y-108270155D01*
X139911256Y-108270155D01*
X139964358Y-108178181D01*
X139993573Y-108069148D01*
X139993573Y-107956270D01*
X139993572Y-107956268D01*
X139993572Y-107956264D01*
X139964359Y-107847240D01*
X139964357Y-107847235D01*
X139907919Y-107749482D01*
X139828099Y-107669662D01*
X139730346Y-107613224D01*
X139730341Y-107613222D01*
X139621317Y-107584009D01*
X139621312Y-107584009D01*
X139508434Y-107584009D01*
X139508428Y-107584009D01*
X139399404Y-107613222D01*
X139399401Y-107613223D01*
X139313147Y-107663022D01*
X139252332Y-107675948D01*
X139209697Y-107658938D01*
X139208939Y-107660252D01*
X139105473Y-107600515D01*
X139105468Y-107600513D01*
X138996444Y-107571300D01*
X138996439Y-107571300D01*
X138883561Y-107571300D01*
X138883555Y-107571300D01*
X138774531Y-107600513D01*
X138774526Y-107600515D01*
X138676773Y-107656953D01*
X138676772Y-107656955D01*
X138596955Y-107736772D01*
X138596953Y-107736773D01*
X138540515Y-107834526D01*
X138540513Y-107834531D01*
X138511300Y-107943555D01*
X134471087Y-107943555D01*
X134413168Y-107910115D01*
X134413163Y-107910113D01*
X134304139Y-107880900D01*
X134304134Y-107880900D01*
X134191256Y-107880900D01*
X134191250Y-107880900D01*
X134082226Y-107910113D01*
X134082221Y-107910115D01*
X133984468Y-107966553D01*
X133984467Y-107966555D01*
X133904650Y-108046372D01*
X133904648Y-108046373D01*
X133848210Y-108144126D01*
X133848208Y-108144131D01*
X133818995Y-108253155D01*
X132674315Y-108253155D01*
X132674315Y-106186401D01*
X133860120Y-106186401D01*
X133860120Y-106299290D01*
X133889333Y-106408314D01*
X133889335Y-106408319D01*
X133945773Y-106506072D01*
X134025593Y-106585892D01*
X134121957Y-106641528D01*
X134123348Y-106642331D01*
X134123349Y-106642331D01*
X134123351Y-106642332D01*
X134238750Y-106673253D01*
X134238306Y-106674909D01*
X134286941Y-106698101D01*
X134316613Y-106752737D01*
X134318300Y-106771081D01*
X134318300Y-106863444D01*
X134347513Y-106972468D01*
X134347515Y-106972473D01*
X134403953Y-107070226D01*
X134483773Y-107150046D01*
X134568979Y-107199240D01*
X134581528Y-107206485D01*
X134581529Y-107206485D01*
X134581531Y-107206486D01*
X134690555Y-107235699D01*
X134690559Y-107235699D01*
X134690561Y-107235700D01*
X134690563Y-107235700D01*
X134803437Y-107235700D01*
X134803439Y-107235700D01*
X134803441Y-107235699D01*
X134803444Y-107235699D01*
X134912468Y-107206486D01*
X134912467Y-107206486D01*
X134912472Y-107206485D01*
X135010228Y-107150045D01*
X135033118Y-107127155D01*
X143487995Y-107127155D01*
X143487995Y-107240044D01*
X143517208Y-107349068D01*
X143517210Y-107349073D01*
X143573648Y-107446826D01*
X143653468Y-107526646D01*
X143751221Y-107583084D01*
X143751223Y-107583085D01*
X143751224Y-107583085D01*
X143751226Y-107583086D01*
X143860250Y-107612299D01*
X143860254Y-107612299D01*
X143860256Y-107612300D01*
X143860258Y-107612300D01*
X143973132Y-107612300D01*
X143973134Y-107612300D01*
X143973136Y-107612299D01*
X143973139Y-107612299D01*
X144065750Y-107587484D01*
X144082167Y-107583085D01*
X144102241Y-107571495D01*
X154916465Y-107571495D01*
X154916465Y-107684384D01*
X154945678Y-107793408D01*
X154945680Y-107793413D01*
X155002118Y-107891166D01*
X155081938Y-107970986D01*
X155179691Y-108027424D01*
X155179693Y-108027425D01*
X155179694Y-108027425D01*
X155179696Y-108027426D01*
X155288720Y-108056639D01*
X155288724Y-108056639D01*
X155288726Y-108056640D01*
X155288728Y-108056640D01*
X155401602Y-108056640D01*
X155401604Y-108056640D01*
X155401606Y-108056639D01*
X155401609Y-108056639D01*
X155510633Y-108027426D01*
X155510632Y-108027426D01*
X155510637Y-108027425D01*
X155608393Y-107970985D01*
X155688210Y-107891168D01*
X155744650Y-107793412D01*
X155759826Y-107736773D01*
X155773864Y-107684384D01*
X155773865Y-107684377D01*
X155773865Y-107571502D01*
X155773864Y-107571495D01*
X155744651Y-107462471D01*
X155744649Y-107462466D01*
X155688211Y-107364713D01*
X155608391Y-107284893D01*
X155510638Y-107228455D01*
X155510633Y-107228453D01*
X155487067Y-107222139D01*
X155401609Y-107199240D01*
X155401604Y-107199240D01*
X155288726Y-107199240D01*
X155288720Y-107199240D01*
X155179696Y-107228453D01*
X155179691Y-107228455D01*
X155081938Y-107284893D01*
X155081937Y-107284895D01*
X155002120Y-107364712D01*
X155002118Y-107364713D01*
X154945680Y-107462466D01*
X154945678Y-107462471D01*
X154916465Y-107571495D01*
X144102241Y-107571495D01*
X144179923Y-107526645D01*
X144259740Y-107446828D01*
X144316180Y-107349072D01*
X144345395Y-107240039D01*
X144345395Y-107131555D01*
X156441700Y-107131555D01*
X156441700Y-107244444D01*
X156470913Y-107353468D01*
X156470915Y-107353473D01*
X156527353Y-107451226D01*
X156607173Y-107531046D01*
X156698907Y-107584009D01*
X156704928Y-107587485D01*
X156704929Y-107587485D01*
X156704931Y-107587486D01*
X156813955Y-107616699D01*
X156813959Y-107616699D01*
X156813961Y-107616700D01*
X156813963Y-107616700D01*
X156926837Y-107616700D01*
X156926839Y-107616700D01*
X156926841Y-107616699D01*
X156926844Y-107616699D01*
X157035868Y-107587486D01*
X157035867Y-107587486D01*
X157035872Y-107587485D01*
X157133628Y-107531045D01*
X157213445Y-107451228D01*
X157269885Y-107353472D01*
X157288260Y-107284895D01*
X157299099Y-107244444D01*
X157299100Y-107244437D01*
X157299100Y-107131562D01*
X157299099Y-107131555D01*
X157269886Y-107022531D01*
X157269884Y-107022526D01*
X157213446Y-106924773D01*
X157209431Y-106919541D01*
X157211088Y-106918269D01*
X157187170Y-106871325D01*
X157196896Y-106809917D01*
X157230835Y-106774152D01*
X157229997Y-106773059D01*
X157235228Y-106769045D01*
X157315045Y-106689228D01*
X157315046Y-106689226D01*
X157325687Y-106670796D01*
X157371485Y-106591472D01*
X157400700Y-106482439D01*
X157400700Y-106369561D01*
X157400699Y-106369559D01*
X157400699Y-106369555D01*
X157371486Y-106260531D01*
X157371484Y-106260526D01*
X157315046Y-106162773D01*
X157235226Y-106082953D01*
X157137473Y-106026515D01*
X157137468Y-106026513D01*
X157028444Y-105997300D01*
X157028439Y-105997300D01*
X156915561Y-105997300D01*
X156915555Y-105997300D01*
X156806531Y-106026513D01*
X156806526Y-106026515D01*
X156708773Y-106082953D01*
X156708772Y-106082955D01*
X156628955Y-106162772D01*
X156628953Y-106162773D01*
X156572515Y-106260526D01*
X156572513Y-106260531D01*
X156543300Y-106369555D01*
X156543300Y-106482444D01*
X156572513Y-106591468D01*
X156572515Y-106591473D01*
X156628953Y-106689226D01*
X156632969Y-106694459D01*
X156631311Y-106695731D01*
X156655229Y-106742674D01*
X156645503Y-106804082D01*
X156611567Y-106839851D01*
X156612403Y-106840941D01*
X156607172Y-106844955D01*
X156527355Y-106924772D01*
X156527353Y-106924773D01*
X156470915Y-107022526D01*
X156470913Y-107022531D01*
X156441700Y-107131555D01*
X144345395Y-107131555D01*
X144345395Y-107127161D01*
X144345394Y-107127159D01*
X144345394Y-107127155D01*
X144316181Y-107018131D01*
X144316179Y-107018126D01*
X144259741Y-106920373D01*
X144179921Y-106840553D01*
X144082168Y-106784115D01*
X144082163Y-106784113D01*
X143973139Y-106754900D01*
X143973134Y-106754900D01*
X143860256Y-106754900D01*
X143860250Y-106754900D01*
X143751226Y-106784113D01*
X143751221Y-106784115D01*
X143653468Y-106840553D01*
X143653467Y-106840555D01*
X143573650Y-106920372D01*
X143573648Y-106920373D01*
X143517210Y-107018126D01*
X143517208Y-107018131D01*
X143487995Y-107127155D01*
X135033118Y-107127155D01*
X135090045Y-107070228D01*
X135146485Y-106972472D01*
X135160668Y-106919541D01*
X135175699Y-106863444D01*
X135175700Y-106863437D01*
X135175700Y-106750562D01*
X135175699Y-106750555D01*
X135146486Y-106641531D01*
X135146484Y-106641526D01*
X135090046Y-106543773D01*
X135010226Y-106463953D01*
X134912473Y-106407515D01*
X134912468Y-106407513D01*
X134797070Y-106376593D01*
X134797513Y-106374939D01*
X134796466Y-106374440D01*
X134787033Y-106374440D01*
X134768994Y-106361334D01*
X134748865Y-106351731D01*
X134744363Y-106343439D01*
X134736733Y-106337895D01*
X134729842Y-106316687D01*
X134719203Y-106297088D01*
X134717520Y-106278764D01*
X134717520Y-106218625D01*
X134736733Y-106159494D01*
X134787033Y-106122949D01*
X134799920Y-106120033D01*
X134912468Y-106089876D01*
X134912467Y-106089876D01*
X134912472Y-106089875D01*
X135010228Y-106033435D01*
X135090045Y-105953618D01*
X135146485Y-105855862D01*
X135175700Y-105746829D01*
X135175700Y-105633951D01*
X135175699Y-105633949D01*
X135175699Y-105633945D01*
X135146486Y-105524921D01*
X135146484Y-105524916D01*
X135090046Y-105427163D01*
X135086031Y-105421931D01*
X135088294Y-105420194D01*
X135065487Y-105375432D01*
X135075213Y-105314024D01*
X135086812Y-105298058D01*
X135086031Y-105297459D01*
X135090042Y-105292230D01*
X135090045Y-105292228D01*
X135146485Y-105194472D01*
X135173097Y-105095155D01*
X141836995Y-105095155D01*
X141836995Y-105208044D01*
X141866208Y-105317068D01*
X141866210Y-105317073D01*
X141922648Y-105414826D01*
X142002468Y-105494646D01*
X142054906Y-105524921D01*
X142100223Y-105551085D01*
X142100224Y-105551085D01*
X142100226Y-105551086D01*
X142209250Y-105580299D01*
X142209254Y-105580299D01*
X142209256Y-105580300D01*
X142209258Y-105580300D01*
X142322132Y-105580300D01*
X142322134Y-105580300D01*
X142322136Y-105580299D01*
X142322139Y-105580299D01*
X142431163Y-105551086D01*
X142431162Y-105551086D01*
X142431167Y-105551085D01*
X142528923Y-105494645D01*
X142608740Y-105414828D01*
X142665180Y-105317072D01*
X142685658Y-105240646D01*
X142694394Y-105208044D01*
X142694395Y-105208037D01*
X142694395Y-105095162D01*
X142694394Y-105095155D01*
X142665181Y-104986131D01*
X142665179Y-104986126D01*
X142608741Y-104888373D01*
X142528921Y-104808553D01*
X142431168Y-104752115D01*
X142431163Y-104752113D01*
X142322139Y-104722900D01*
X142322134Y-104722900D01*
X142209256Y-104722900D01*
X142209250Y-104722900D01*
X142100226Y-104752113D01*
X142100221Y-104752115D01*
X142002468Y-104808553D01*
X142002467Y-104808555D01*
X141922650Y-104888372D01*
X141922648Y-104888373D01*
X141866210Y-104986126D01*
X141866208Y-104986131D01*
X141836995Y-105095155D01*
X135173097Y-105095155D01*
X135175700Y-105085439D01*
X135175700Y-104972561D01*
X135175699Y-104972559D01*
X135175699Y-104972555D01*
X135146486Y-104863531D01*
X135146484Y-104863526D01*
X135090046Y-104765773D01*
X135010226Y-104685953D01*
X134912473Y-104629515D01*
X134912468Y-104629513D01*
X134803444Y-104600300D01*
X134803439Y-104600300D01*
X134690561Y-104600300D01*
X134690555Y-104600300D01*
X134581531Y-104629513D01*
X134581526Y-104629515D01*
X134483773Y-104685953D01*
X134483772Y-104685955D01*
X134403955Y-104765772D01*
X134403953Y-104765773D01*
X134347515Y-104863526D01*
X134347513Y-104863531D01*
X134318300Y-104972555D01*
X134318300Y-105085444D01*
X134347513Y-105194468D01*
X134347515Y-105194473D01*
X134403953Y-105292226D01*
X134407969Y-105297459D01*
X134405705Y-105299195D01*
X134428513Y-105343958D01*
X134418787Y-105405366D01*
X134407187Y-105421331D01*
X134407969Y-105421931D01*
X134403953Y-105427163D01*
X134347515Y-105524916D01*
X134347513Y-105524921D01*
X134318300Y-105633945D01*
X134318300Y-105714610D01*
X134299087Y-105773741D01*
X134248787Y-105810286D01*
X134235897Y-105813203D01*
X134123351Y-105843359D01*
X134123346Y-105843361D01*
X134025593Y-105899799D01*
X134025592Y-105899801D01*
X133945775Y-105979618D01*
X133945773Y-105979619D01*
X133889335Y-106077372D01*
X133889333Y-106077377D01*
X133860120Y-106186401D01*
X132674315Y-106186401D01*
X132674315Y-103941507D01*
X135476348Y-103941507D01*
X135476348Y-104054396D01*
X135505561Y-104163420D01*
X135505563Y-104163425D01*
X135562001Y-104261178D01*
X135641821Y-104340998D01*
X135739574Y-104397436D01*
X135739576Y-104397437D01*
X135739577Y-104397437D01*
X135739579Y-104397438D01*
X135848603Y-104426651D01*
X135848607Y-104426651D01*
X135848609Y-104426652D01*
X135848611Y-104426652D01*
X135961485Y-104426652D01*
X135961487Y-104426652D01*
X135961489Y-104426651D01*
X135961492Y-104426651D01*
X136070516Y-104397438D01*
X136070515Y-104397438D01*
X136070520Y-104397437D01*
X136168276Y-104340997D01*
X136176118Y-104333155D01*
X146789995Y-104333155D01*
X146789995Y-104446044D01*
X146819208Y-104555068D01*
X146819210Y-104555073D01*
X146875648Y-104652826D01*
X146955468Y-104732646D01*
X147053221Y-104789084D01*
X147053223Y-104789085D01*
X147053224Y-104789085D01*
X147053226Y-104789086D01*
X147162250Y-104818299D01*
X147162254Y-104818299D01*
X147162256Y-104818300D01*
X147162258Y-104818300D01*
X147275132Y-104818300D01*
X147275134Y-104818300D01*
X147275136Y-104818299D01*
X147275139Y-104818299D01*
X147384163Y-104789086D01*
X147384162Y-104789086D01*
X147384167Y-104789085D01*
X147481923Y-104732645D01*
X147525369Y-104689198D01*
X147580765Y-104660973D01*
X147642174Y-104670698D01*
X147686138Y-104714662D01*
X147695865Y-104776070D01*
X147693675Y-104786370D01*
X147678996Y-104841153D01*
X147678995Y-104841162D01*
X147678995Y-104954044D01*
X147708208Y-105063068D01*
X147708210Y-105063073D01*
X147764648Y-105160826D01*
X147844468Y-105240646D01*
X147942221Y-105297084D01*
X147942223Y-105297085D01*
X147942224Y-105297085D01*
X147942226Y-105297086D01*
X148051250Y-105326299D01*
X148051254Y-105326299D01*
X148051256Y-105326300D01*
X148051258Y-105326300D01*
X148164132Y-105326300D01*
X148164134Y-105326300D01*
X148187358Y-105320077D01*
X148249445Y-105323330D01*
X148297764Y-105362457D01*
X148313995Y-105417249D01*
X148313995Y-105513749D01*
X148343208Y-105622773D01*
X148343210Y-105622778D01*
X148399648Y-105720531D01*
X148479468Y-105800351D01*
X148575617Y-105855863D01*
X148577223Y-105856790D01*
X148577224Y-105856790D01*
X148577226Y-105856791D01*
X148686250Y-105886004D01*
X148686254Y-105886004D01*
X148686256Y-105886005D01*
X148686258Y-105886005D01*
X148799132Y-105886005D01*
X148799134Y-105886005D01*
X148799136Y-105886004D01*
X148799139Y-105886004D01*
X148908163Y-105856791D01*
X148908162Y-105856791D01*
X148908167Y-105856790D01*
X149005923Y-105800350D01*
X149085740Y-105720533D01*
X149142180Y-105622777D01*
X149153562Y-105580299D01*
X149171394Y-105513749D01*
X149171395Y-105513742D01*
X149171395Y-105400867D01*
X149171394Y-105400860D01*
X149142181Y-105291836D01*
X149142179Y-105291831D01*
X149085741Y-105194078D01*
X149005921Y-105114258D01*
X148908168Y-105057820D01*
X148908163Y-105057818D01*
X148799139Y-105028605D01*
X148799134Y-105028605D01*
X148686256Y-105028605D01*
X148686254Y-105028605D01*
X148686248Y-105028606D01*
X148663031Y-105034827D01*
X148600942Y-105031573D01*
X148552624Y-104992445D01*
X148536395Y-104937655D01*
X148536395Y-104841162D01*
X148536394Y-104841155D01*
X148507181Y-104732131D01*
X148507179Y-104732126D01*
X148451257Y-104635267D01*
X148450741Y-104634373D01*
X148407923Y-104591555D01*
X158067300Y-104591555D01*
X158067300Y-104704444D01*
X158096513Y-104813468D01*
X158096515Y-104813473D01*
X158152953Y-104911226D01*
X158232773Y-104991046D01*
X158308604Y-105034827D01*
X158330528Y-105047485D01*
X158330529Y-105047485D01*
X158330531Y-105047486D01*
X158439555Y-105076699D01*
X158439559Y-105076699D01*
X158439561Y-105076700D01*
X158439563Y-105076700D01*
X158552437Y-105076700D01*
X158552439Y-105076700D01*
X158552441Y-105076699D01*
X158552444Y-105076699D01*
X158661468Y-105047486D01*
X158661467Y-105047486D01*
X158661472Y-105047485D01*
X158759228Y-104991045D01*
X158839045Y-104911228D01*
X158895485Y-104813472D01*
X158905507Y-104776070D01*
X158924699Y-104704444D01*
X158924700Y-104704437D01*
X158924700Y-104591562D01*
X158924699Y-104591555D01*
X158895486Y-104482531D01*
X158895484Y-104482526D01*
X158839046Y-104384773D01*
X158759226Y-104304953D01*
X158661473Y-104248515D01*
X158661468Y-104248513D01*
X158552444Y-104219300D01*
X158552439Y-104219300D01*
X158439561Y-104219300D01*
X158439555Y-104219300D01*
X158330531Y-104248513D01*
X158330526Y-104248515D01*
X158232773Y-104304953D01*
X158232772Y-104304955D01*
X158152955Y-104384772D01*
X158152953Y-104384773D01*
X158096515Y-104482526D01*
X158096513Y-104482531D01*
X158067300Y-104591555D01*
X148407923Y-104591555D01*
X148370921Y-104554553D01*
X148273168Y-104498115D01*
X148273163Y-104498113D01*
X148164139Y-104468900D01*
X148164134Y-104468900D01*
X148051256Y-104468900D01*
X148051250Y-104468900D01*
X147942226Y-104498113D01*
X147942221Y-104498115D01*
X147844468Y-104554553D01*
X147801020Y-104598001D01*
X147745622Y-104626227D01*
X147684214Y-104616500D01*
X147640250Y-104572536D01*
X147630525Y-104511127D01*
X147632711Y-104500840D01*
X147647395Y-104446039D01*
X147647395Y-104333161D01*
X147647394Y-104333159D01*
X147647394Y-104333155D01*
X147618181Y-104224131D01*
X147618179Y-104224126D01*
X147561741Y-104126373D01*
X147481921Y-104046553D01*
X147384168Y-103990115D01*
X147384163Y-103990113D01*
X147275139Y-103960900D01*
X147275134Y-103960900D01*
X147162256Y-103960900D01*
X147162250Y-103960900D01*
X147053226Y-103990113D01*
X147053221Y-103990115D01*
X146955468Y-104046553D01*
X146955467Y-104046555D01*
X146875650Y-104126372D01*
X146875648Y-104126373D01*
X146819210Y-104224126D01*
X146819208Y-104224131D01*
X146789995Y-104333155D01*
X136176118Y-104333155D01*
X136248093Y-104261180D01*
X136304533Y-104163424D01*
X136333748Y-104054391D01*
X136333748Y-103941513D01*
X136333747Y-103941511D01*
X136333747Y-103941507D01*
X136304534Y-103832483D01*
X136304534Y-103832482D01*
X136304531Y-103832477D01*
X136248093Y-103734724D01*
X136213294Y-103699925D01*
X145902765Y-103699925D01*
X145902765Y-103812814D01*
X145931978Y-103921838D01*
X145931980Y-103921843D01*
X145988418Y-104019596D01*
X146068238Y-104099416D01*
X146114927Y-104126372D01*
X146165993Y-104155855D01*
X146165994Y-104155855D01*
X146165996Y-104155856D01*
X146275020Y-104185069D01*
X146275024Y-104185069D01*
X146275026Y-104185070D01*
X146275028Y-104185070D01*
X146387902Y-104185070D01*
X146387904Y-104185070D01*
X146387906Y-104185069D01*
X146387909Y-104185069D01*
X146496933Y-104155856D01*
X146496932Y-104155856D01*
X146496937Y-104155855D01*
X146594693Y-104099415D01*
X146674510Y-104019598D01*
X146730950Y-103921842D01*
X146751688Y-103844445D01*
X146760164Y-103812814D01*
X146760165Y-103812807D01*
X146760165Y-103699932D01*
X146760164Y-103699925D01*
X146730951Y-103590901D01*
X146730949Y-103590896D01*
X146674511Y-103493143D01*
X146594691Y-103413323D01*
X146496938Y-103356885D01*
X146496933Y-103356883D01*
X146387909Y-103327670D01*
X146387904Y-103327670D01*
X146275026Y-103327670D01*
X146275020Y-103327670D01*
X146165996Y-103356883D01*
X146165991Y-103356885D01*
X146068238Y-103413323D01*
X146068237Y-103413325D01*
X145988420Y-103493142D01*
X145988418Y-103493143D01*
X145931980Y-103590896D01*
X145931978Y-103590901D01*
X145902765Y-103699925D01*
X136213294Y-103699925D01*
X136168276Y-103654907D01*
X136168274Y-103654905D01*
X136070521Y-103598467D01*
X136070516Y-103598465D01*
X135961492Y-103569252D01*
X135961487Y-103569252D01*
X135848609Y-103569252D01*
X135848603Y-103569252D01*
X135739579Y-103598465D01*
X135739574Y-103598467D01*
X135641821Y-103654905D01*
X135641820Y-103654907D01*
X135562003Y-103734724D01*
X135562001Y-103734725D01*
X135505564Y-103832477D01*
X135505561Y-103832483D01*
X135476348Y-103941507D01*
X132674315Y-103941507D01*
X132674315Y-103444155D01*
X133581995Y-103444155D01*
X133581995Y-103557044D01*
X133611208Y-103666068D01*
X133611210Y-103666073D01*
X133667648Y-103763826D01*
X133747468Y-103843646D01*
X133845221Y-103900084D01*
X133845223Y-103900085D01*
X133845224Y-103900085D01*
X133845226Y-103900086D01*
X133954250Y-103929299D01*
X133954254Y-103929299D01*
X133954256Y-103929300D01*
X133954258Y-103929300D01*
X134067132Y-103929300D01*
X134067134Y-103929300D01*
X134067136Y-103929299D01*
X134067139Y-103929299D01*
X134176163Y-103900086D01*
X134176162Y-103900086D01*
X134176167Y-103900085D01*
X134234461Y-103866428D01*
X134266732Y-103847797D01*
X134273921Y-103843646D01*
X134273923Y-103843645D01*
X134353740Y-103763828D01*
X134353741Y-103763826D01*
X134356527Y-103759000D01*
X134410180Y-103666072D01*
X134417955Y-103637055D01*
X134439394Y-103557044D01*
X134439395Y-103557037D01*
X134439395Y-103444162D01*
X134439394Y-103444155D01*
X134410181Y-103335131D01*
X134410179Y-103335126D01*
X134353741Y-103237373D01*
X134273921Y-103157553D01*
X134249907Y-103143689D01*
X134176168Y-103101115D01*
X134176163Y-103101113D01*
X134067139Y-103071900D01*
X134067134Y-103071900D01*
X133954256Y-103071900D01*
X133954250Y-103071900D01*
X133845226Y-103101113D01*
X133845221Y-103101115D01*
X133747468Y-103157553D01*
X133747467Y-103157555D01*
X133667650Y-103237372D01*
X133667648Y-103237373D01*
X133611210Y-103335126D01*
X133611208Y-103335131D01*
X133581995Y-103444155D01*
X132674315Y-103444155D01*
X132674315Y-103063155D01*
X146789995Y-103063155D01*
X146789995Y-103176044D01*
X146819208Y-103285068D01*
X146819210Y-103285073D01*
X146875648Y-103382826D01*
X146955468Y-103462646D01*
X147053221Y-103519084D01*
X147053223Y-103519085D01*
X147053224Y-103519085D01*
X147053226Y-103519086D01*
X147162250Y-103548299D01*
X147162254Y-103548299D01*
X147162256Y-103548300D01*
X147162258Y-103548300D01*
X147275132Y-103548300D01*
X147275134Y-103548300D01*
X147275136Y-103548299D01*
X147275139Y-103548299D01*
X147384163Y-103519086D01*
X147384162Y-103519086D01*
X147384167Y-103519085D01*
X147481923Y-103462645D01*
X147561740Y-103382828D01*
X147618180Y-103285072D01*
X147647395Y-103176039D01*
X147647395Y-103063161D01*
X147632714Y-103008370D01*
X147635968Y-102946283D01*
X147675095Y-102897964D01*
X147735150Y-102881872D01*
X147793195Y-102904153D01*
X147801021Y-102911199D01*
X147844468Y-102954646D01*
X147928543Y-103003187D01*
X147942223Y-103011085D01*
X147942224Y-103011085D01*
X147942226Y-103011086D01*
X148051250Y-103040299D01*
X148051254Y-103040299D01*
X148051256Y-103040300D01*
X148051258Y-103040300D01*
X148164132Y-103040300D01*
X148164134Y-103040300D01*
X148164136Y-103040299D01*
X148164139Y-103040299D01*
X148273163Y-103011086D01*
X148273162Y-103011086D01*
X148273167Y-103011085D01*
X148370923Y-102954645D01*
X148450740Y-102874828D01*
X148507180Y-102777072D01*
X148514557Y-102749540D01*
X148536394Y-102668044D01*
X148536395Y-102668037D01*
X148536395Y-102555162D01*
X148536394Y-102555156D01*
X148511775Y-102463277D01*
X148515029Y-102401188D01*
X148554156Y-102352870D01*
X148614212Y-102336778D01*
X148659246Y-102350117D01*
X148704223Y-102376085D01*
X148704225Y-102376086D01*
X148813250Y-102405299D01*
X148813254Y-102405299D01*
X148813256Y-102405300D01*
X148813258Y-102405300D01*
X148926132Y-102405300D01*
X148926134Y-102405300D01*
X148926136Y-102405299D01*
X148926139Y-102405299D01*
X149035163Y-102376086D01*
X149035162Y-102376086D01*
X149035167Y-102376085D01*
X149132923Y-102319645D01*
X149149055Y-102303513D01*
X149204453Y-102275287D01*
X149265861Y-102285013D01*
X149291325Y-102303513D01*
X149330858Y-102343046D01*
X149388083Y-102376085D01*
X149428613Y-102399485D01*
X149428614Y-102399485D01*
X149428616Y-102399486D01*
X149537640Y-102428699D01*
X149537644Y-102428699D01*
X149537646Y-102428700D01*
X149537648Y-102428700D01*
X149650522Y-102428700D01*
X149650524Y-102428700D01*
X149650526Y-102428699D01*
X149650529Y-102428699D01*
X149759553Y-102399486D01*
X149759552Y-102399486D01*
X149759557Y-102399485D01*
X149857313Y-102343045D01*
X149937130Y-102263228D01*
X149993570Y-102165472D01*
X150022785Y-102056439D01*
X150022785Y-101943561D01*
X150022784Y-101943559D01*
X150022784Y-101943555D01*
X149993571Y-101834531D01*
X149993569Y-101834526D01*
X149937131Y-101736773D01*
X149857312Y-101656954D01*
X149759558Y-101600515D01*
X149759553Y-101600513D01*
X149696265Y-101583555D01*
X157771300Y-101583555D01*
X157771300Y-101696444D01*
X157800513Y-101805468D01*
X157800515Y-101805473D01*
X157856953Y-101903226D01*
X157936773Y-101983046D01*
X157999416Y-102019213D01*
X158034528Y-102039485D01*
X158034529Y-102039485D01*
X158034531Y-102039486D01*
X158143555Y-102068699D01*
X158143559Y-102068699D01*
X158143561Y-102068700D01*
X158143563Y-102068700D01*
X158256437Y-102068700D01*
X158256439Y-102068700D01*
X158256441Y-102068699D01*
X158256444Y-102068699D01*
X158365468Y-102039486D01*
X158365467Y-102039486D01*
X158365472Y-102039485D01*
X158463228Y-101983045D01*
X158543045Y-101903228D01*
X158599485Y-101805472D01*
X158624163Y-101713372D01*
X158628699Y-101696444D01*
X158628700Y-101696437D01*
X158628700Y-101583562D01*
X158628699Y-101583555D01*
X158599486Y-101474531D01*
X158599486Y-101474530D01*
X158568667Y-101421151D01*
X158555740Y-101360335D01*
X158581028Y-101303536D01*
X158634872Y-101272448D01*
X158655789Y-101270250D01*
X160960665Y-101270250D01*
X160960665Y-98476250D01*
X158286735Y-98476250D01*
X158286735Y-101110700D01*
X158267522Y-101169831D01*
X158217222Y-101206376D01*
X158186135Y-101211300D01*
X158143555Y-101211300D01*
X158034531Y-101240513D01*
X158034526Y-101240515D01*
X157936773Y-101296953D01*
X157936772Y-101296955D01*
X157856955Y-101376772D01*
X157856953Y-101376773D01*
X157800515Y-101474526D01*
X157800513Y-101474531D01*
X157771300Y-101583555D01*
X149696265Y-101583555D01*
X149650529Y-101571300D01*
X149650524Y-101571300D01*
X149537646Y-101571300D01*
X149537640Y-101571300D01*
X149428616Y-101600513D01*
X149428611Y-101600515D01*
X149350900Y-101645382D01*
X149290084Y-101658309D01*
X149233285Y-101633020D01*
X149202198Y-101579176D01*
X149200000Y-101558260D01*
X149200000Y-100777155D01*
X156060995Y-100777155D01*
X156060995Y-100890044D01*
X156090208Y-100999068D01*
X156090210Y-100999073D01*
X156146648Y-101096826D01*
X156226468Y-101176646D01*
X156311390Y-101225676D01*
X156324223Y-101233085D01*
X156324224Y-101233085D01*
X156324226Y-101233086D01*
X156433250Y-101262299D01*
X156433254Y-101262299D01*
X156433256Y-101262300D01*
X156433258Y-101262300D01*
X156546132Y-101262300D01*
X156546134Y-101262300D01*
X156546136Y-101262299D01*
X156546139Y-101262299D01*
X156655163Y-101233086D01*
X156655162Y-101233086D01*
X156655167Y-101233085D01*
X156752923Y-101176645D01*
X156832740Y-101096828D01*
X156889180Y-100999072D01*
X156894276Y-100980049D01*
X156918394Y-100890044D01*
X156918395Y-100890037D01*
X156918395Y-100777162D01*
X156918394Y-100777155D01*
X156889181Y-100668131D01*
X156889179Y-100668126D01*
X156832741Y-100570373D01*
X156752921Y-100490553D01*
X156655168Y-100434115D01*
X156655163Y-100434113D01*
X156546139Y-100404900D01*
X156546134Y-100404900D01*
X156433256Y-100404900D01*
X156433250Y-100404900D01*
X156324226Y-100434113D01*
X156324221Y-100434115D01*
X156226468Y-100490553D01*
X156226467Y-100490555D01*
X156146650Y-100570372D01*
X156146648Y-100570373D01*
X156090210Y-100668126D01*
X156090208Y-100668131D01*
X156060995Y-100777155D01*
X149200000Y-100777155D01*
X149200000Y-99981048D01*
X149219213Y-99921917D01*
X149269513Y-99885372D01*
X149331687Y-99885372D01*
X149362153Y-99904041D01*
X149363236Y-99902631D01*
X149368468Y-99906646D01*
X149466221Y-99963084D01*
X149466223Y-99963085D01*
X149466224Y-99963085D01*
X149466226Y-99963086D01*
X149575250Y-99992299D01*
X149575254Y-99992299D01*
X149575256Y-99992300D01*
X149575258Y-99992300D01*
X149688132Y-99992300D01*
X149688134Y-99992300D01*
X149688136Y-99992299D01*
X149688139Y-99992299D01*
X149797163Y-99963086D01*
X149797162Y-99963086D01*
X149797167Y-99963085D01*
X149894923Y-99906645D01*
X149974740Y-99826828D01*
X150031180Y-99729072D01*
X150060395Y-99620039D01*
X150060395Y-99507161D01*
X150060394Y-99507159D01*
X150060394Y-99507155D01*
X150031181Y-99398131D01*
X150031179Y-99398126D01*
X149974741Y-99300373D01*
X149894921Y-99220553D01*
X149797168Y-99164115D01*
X149797163Y-99164113D01*
X149688139Y-99134900D01*
X149688134Y-99134900D01*
X149575256Y-99134900D01*
X149575250Y-99134900D01*
X149466226Y-99164113D01*
X149466221Y-99164115D01*
X149368468Y-99220553D01*
X149363236Y-99224569D01*
X149361607Y-99222446D01*
X149316337Y-99245513D01*
X149254929Y-99235787D01*
X149210965Y-99191823D01*
X149200000Y-99146152D01*
X149200000Y-98880305D01*
X151699535Y-98880305D01*
X151699535Y-98993194D01*
X151728748Y-99102218D01*
X151728750Y-99102223D01*
X151785188Y-99199976D01*
X151865008Y-99279796D01*
X151962761Y-99336234D01*
X151962763Y-99336235D01*
X151962764Y-99336235D01*
X151962766Y-99336236D01*
X152071790Y-99365449D01*
X152071794Y-99365449D01*
X152071796Y-99365450D01*
X152071798Y-99365450D01*
X152184672Y-99365450D01*
X152184674Y-99365450D01*
X152184676Y-99365449D01*
X152184679Y-99365449D01*
X152293703Y-99336236D01*
X152293702Y-99336236D01*
X152293707Y-99336235D01*
X152391463Y-99279795D01*
X152471280Y-99199978D01*
X152527720Y-99102222D01*
X152546670Y-99031499D01*
X152556934Y-98993194D01*
X152556935Y-98993187D01*
X152556935Y-98880312D01*
X152556934Y-98880305D01*
X152527721Y-98771281D01*
X152527719Y-98771276D01*
X152471281Y-98673523D01*
X152391461Y-98593703D01*
X152309452Y-98546355D01*
X153749300Y-98546355D01*
X153749300Y-98659244D01*
X153778513Y-98768268D01*
X153778515Y-98768273D01*
X153834953Y-98866026D01*
X153914773Y-98945846D01*
X153996770Y-98993187D01*
X154012528Y-99002285D01*
X154012529Y-99002285D01*
X154012531Y-99002286D01*
X154121555Y-99031499D01*
X154121559Y-99031499D01*
X154121561Y-99031500D01*
X154121563Y-99031500D01*
X154234437Y-99031500D01*
X154234439Y-99031500D01*
X154234441Y-99031499D01*
X154234444Y-99031499D01*
X154343468Y-99002286D01*
X154343467Y-99002286D01*
X154343472Y-99002285D01*
X154441228Y-98945845D01*
X154521045Y-98866028D01*
X154577485Y-98768272D01*
X154606700Y-98659239D01*
X154606700Y-98546361D01*
X154606699Y-98546359D01*
X154606699Y-98546355D01*
X154577486Y-98437331D01*
X154577484Y-98437326D01*
X154521046Y-98339573D01*
X154441226Y-98259753D01*
X154343473Y-98203315D01*
X154343468Y-98203313D01*
X154234444Y-98174100D01*
X154234439Y-98174100D01*
X154121561Y-98174100D01*
X154121555Y-98174100D01*
X154012531Y-98203313D01*
X154012526Y-98203315D01*
X153914773Y-98259753D01*
X153914772Y-98259755D01*
X153834955Y-98339572D01*
X153834953Y-98339573D01*
X153778515Y-98437326D01*
X153778513Y-98437331D01*
X153749300Y-98546355D01*
X152309452Y-98546355D01*
X152293708Y-98537265D01*
X152293703Y-98537263D01*
X152184679Y-98508050D01*
X152184674Y-98508050D01*
X152071796Y-98508050D01*
X152071790Y-98508050D01*
X151962766Y-98537263D01*
X151962761Y-98537265D01*
X151865008Y-98593703D01*
X151865007Y-98593705D01*
X151785190Y-98673522D01*
X151785188Y-98673523D01*
X151728750Y-98771276D01*
X151728748Y-98771281D01*
X151699535Y-98880305D01*
X149200000Y-98880305D01*
X149200000Y-98800000D01*
X146800000Y-98800000D01*
X146800000Y-102000000D01*
X147969713Y-102000000D01*
X148028844Y-102019213D01*
X148065389Y-102069513D01*
X148065389Y-102131687D01*
X148028844Y-102181987D01*
X147995750Y-102197772D01*
X147942226Y-102212113D01*
X147942221Y-102212115D01*
X147844468Y-102268553D01*
X147844467Y-102268555D01*
X147764650Y-102348372D01*
X147764648Y-102348373D01*
X147708210Y-102446126D01*
X147708208Y-102446131D01*
X147678995Y-102555155D01*
X147678995Y-102668044D01*
X147693675Y-102722828D01*
X147690421Y-102784917D01*
X147651293Y-102833235D01*
X147591238Y-102849327D01*
X147533193Y-102827046D01*
X147525368Y-102820000D01*
X147481921Y-102776553D01*
X147384168Y-102720115D01*
X147384163Y-102720113D01*
X147275139Y-102690900D01*
X147275134Y-102690900D01*
X147162256Y-102690900D01*
X147162250Y-102690900D01*
X147053226Y-102720113D01*
X147053221Y-102720115D01*
X146955468Y-102776553D01*
X146955467Y-102776555D01*
X146875650Y-102856372D01*
X146875648Y-102856373D01*
X146819210Y-102954126D01*
X146819208Y-102954131D01*
X146789995Y-103063155D01*
X132674315Y-103063155D01*
X132674315Y-101355093D01*
X132674458Y-101315350D01*
X132674315Y-101315001D01*
X132674315Y-101314628D01*
X132659232Y-101278214D01*
X132644199Y-101241549D01*
X132644017Y-101241275D01*
X132644016Y-101241273D01*
X132644013Y-101241268D01*
X132643796Y-101240941D01*
X132637110Y-101234255D01*
X132608884Y-101178857D01*
X132607645Y-101163120D01*
X132607645Y-101060670D01*
X126102405Y-101060670D01*
X126048893Y-101045257D01*
X125975369Y-100999072D01*
X125968028Y-100994460D01*
X125950419Y-100980421D01*
X125862170Y-100892190D01*
X125848126Y-100874583D01*
X125781722Y-100768924D01*
X125771950Y-100748637D01*
X125730722Y-100630841D01*
X125725712Y-100608893D01*
X125711130Y-100479537D01*
X125710499Y-100468371D01*
X125710499Y-100433741D01*
X125710474Y-100433683D01*
X125710470Y-100427851D01*
X125709978Y-99507155D01*
X135740995Y-99507155D01*
X135740995Y-99620044D01*
X135770208Y-99729068D01*
X135770210Y-99729073D01*
X135826648Y-99826826D01*
X135906468Y-99906646D01*
X136004221Y-99963084D01*
X136004223Y-99963085D01*
X136004224Y-99963085D01*
X136004226Y-99963086D01*
X136113250Y-99992299D01*
X136113254Y-99992299D01*
X136113256Y-99992300D01*
X136113258Y-99992300D01*
X136226132Y-99992300D01*
X136226134Y-99992300D01*
X136226136Y-99992299D01*
X136226139Y-99992299D01*
X136335163Y-99963086D01*
X136335162Y-99963086D01*
X136335167Y-99963085D01*
X136432923Y-99906645D01*
X136512740Y-99826828D01*
X136569180Y-99729072D01*
X136598395Y-99620039D01*
X136598395Y-99507161D01*
X136598394Y-99507159D01*
X136598394Y-99507155D01*
X136569181Y-99398131D01*
X136569179Y-99398126D01*
X136512741Y-99300373D01*
X136432921Y-99220553D01*
X136335168Y-99164115D01*
X136335163Y-99164113D01*
X136226139Y-99134900D01*
X136226134Y-99134900D01*
X136113256Y-99134900D01*
X136113250Y-99134900D01*
X136004226Y-99164113D01*
X136004221Y-99164115D01*
X135906468Y-99220553D01*
X135906467Y-99220555D01*
X135826650Y-99300372D01*
X135826648Y-99300373D01*
X135770210Y-99398126D01*
X135770208Y-99398131D01*
X135740995Y-99507155D01*
X125709978Y-99507155D01*
X125708650Y-97022355D01*
X153038100Y-97022355D01*
X153038100Y-97135244D01*
X153067313Y-97244268D01*
X153067315Y-97244273D01*
X153123753Y-97342026D01*
X153203573Y-97421846D01*
X153301326Y-97478284D01*
X153301328Y-97478285D01*
X153301329Y-97478285D01*
X153301331Y-97478286D01*
X153410355Y-97507499D01*
X153410359Y-97507499D01*
X153410361Y-97507500D01*
X153410363Y-97507500D01*
X153523237Y-97507500D01*
X153523239Y-97507500D01*
X153523241Y-97507499D01*
X153523244Y-97507499D01*
X153632268Y-97478286D01*
X153632267Y-97478286D01*
X153632272Y-97478285D01*
X153730028Y-97421845D01*
X153809845Y-97342028D01*
X153866285Y-97244272D01*
X153895500Y-97135239D01*
X153895500Y-97022361D01*
X153895499Y-97022359D01*
X153895499Y-97022355D01*
X153866286Y-96913331D01*
X153866284Y-96913326D01*
X153809846Y-96815573D01*
X153730026Y-96735753D01*
X153632273Y-96679315D01*
X153632268Y-96679313D01*
X153523244Y-96650100D01*
X153523239Y-96650100D01*
X153410361Y-96650100D01*
X153410355Y-96650100D01*
X153301331Y-96679313D01*
X153301326Y-96679315D01*
X153203573Y-96735753D01*
X153203572Y-96735755D01*
X153123755Y-96815572D01*
X153123753Y-96815573D01*
X153067315Y-96913326D01*
X153067313Y-96913331D01*
X153038100Y-97022355D01*
X125708650Y-97022355D01*
X125706991Y-93919155D01*
X138153995Y-93919155D01*
X138153995Y-94032044D01*
X138183208Y-94141068D01*
X138183210Y-94141073D01*
X138239648Y-94238826D01*
X138319468Y-94318646D01*
X138353728Y-94338426D01*
X138417223Y-94375085D01*
X138417224Y-94375085D01*
X138417226Y-94375086D01*
X138526250Y-94404299D01*
X138526254Y-94404299D01*
X138526256Y-94404300D01*
X138526258Y-94404300D01*
X138639132Y-94404300D01*
X138639134Y-94404300D01*
X138639136Y-94404299D01*
X138639139Y-94404299D01*
X138748163Y-94375086D01*
X138748162Y-94375086D01*
X138748167Y-94375085D01*
X138845923Y-94318645D01*
X138925740Y-94238828D01*
X138982180Y-94141072D01*
X139011395Y-94032039D01*
X139011395Y-93938935D01*
X139277215Y-93938935D01*
X139277215Y-94051824D01*
X139306428Y-94160848D01*
X139306430Y-94160853D01*
X139362868Y-94258606D01*
X139442688Y-94338426D01*
X139506183Y-94375085D01*
X139540443Y-94394865D01*
X139540444Y-94394865D01*
X139540446Y-94394866D01*
X139649470Y-94424079D01*
X139649474Y-94424079D01*
X139649476Y-94424080D01*
X139649478Y-94424080D01*
X139762352Y-94424080D01*
X139762354Y-94424080D01*
X139762356Y-94424079D01*
X139762359Y-94424079D01*
X139871383Y-94394866D01*
X139871382Y-94394866D01*
X139871387Y-94394865D01*
X139969143Y-94338425D01*
X140048960Y-94258608D01*
X140105400Y-94160852D01*
X140134615Y-94051819D01*
X140134615Y-93938941D01*
X140134614Y-93938939D01*
X140134614Y-93938935D01*
X140105401Y-93829911D01*
X140105399Y-93829906D01*
X140048961Y-93732153D01*
X139969141Y-93652333D01*
X139871388Y-93595895D01*
X139871383Y-93595893D01*
X139762359Y-93566680D01*
X139762354Y-93566680D01*
X139649476Y-93566680D01*
X139649470Y-93566680D01*
X139540446Y-93595893D01*
X139540441Y-93595895D01*
X139442688Y-93652333D01*
X139442687Y-93652335D01*
X139362870Y-93732152D01*
X139362868Y-93732153D01*
X139306430Y-93829906D01*
X139306428Y-93829911D01*
X139277215Y-93938935D01*
X139011395Y-93938935D01*
X139011395Y-93919161D01*
X139011394Y-93919159D01*
X139011394Y-93919155D01*
X138982181Y-93810131D01*
X138982179Y-93810126D01*
X138925741Y-93712373D01*
X138845921Y-93632553D01*
X138748168Y-93576115D01*
X138748163Y-93576113D01*
X138639139Y-93546900D01*
X138639134Y-93546900D01*
X138526256Y-93546900D01*
X138526250Y-93546900D01*
X138417226Y-93576113D01*
X138417221Y-93576115D01*
X138319468Y-93632553D01*
X138319467Y-93632555D01*
X138239650Y-93712372D01*
X138239648Y-93712373D01*
X138183210Y-93810126D01*
X138183208Y-93810131D01*
X138153995Y-93919155D01*
X125706991Y-93919155D01*
X125706722Y-93415555D01*
X135715300Y-93415555D01*
X135715300Y-93528444D01*
X135744513Y-93637468D01*
X135744515Y-93637473D01*
X135800953Y-93735226D01*
X135880773Y-93815046D01*
X135906515Y-93829908D01*
X135978528Y-93871485D01*
X135978529Y-93871485D01*
X135978531Y-93871486D01*
X136087555Y-93900699D01*
X136087559Y-93900699D01*
X136087561Y-93900700D01*
X136087563Y-93900700D01*
X136200437Y-93900700D01*
X136200439Y-93900700D01*
X136200441Y-93900699D01*
X136200444Y-93900699D01*
X136309468Y-93871486D01*
X136309469Y-93871486D01*
X136309469Y-93871485D01*
X136309472Y-93871485D01*
X136407228Y-93815045D01*
X136487045Y-93735228D01*
X136543485Y-93637472D01*
X136554626Y-93595893D01*
X136572699Y-93528444D01*
X136572700Y-93528437D01*
X136572700Y-93415562D01*
X136572699Y-93415555D01*
X136543486Y-93306531D01*
X136543484Y-93306526D01*
X136487046Y-93208773D01*
X136407226Y-93128953D01*
X136309473Y-93072515D01*
X136309468Y-93072513D01*
X136200444Y-93043300D01*
X136200439Y-93043300D01*
X136087561Y-93043300D01*
X136087555Y-93043300D01*
X135978531Y-93072513D01*
X135978526Y-93072515D01*
X135880773Y-93128953D01*
X135880772Y-93128955D01*
X135800955Y-93208772D01*
X135800953Y-93208773D01*
X135744515Y-93306526D01*
X135744513Y-93306531D01*
X135715300Y-93415555D01*
X125706722Y-93415555D01*
X125705908Y-91891555D01*
X127714300Y-91891555D01*
X127714300Y-92004444D01*
X127743513Y-92113468D01*
X127743515Y-92113473D01*
X127799953Y-92211226D01*
X127879773Y-92291046D01*
X127977526Y-92347484D01*
X127977528Y-92347485D01*
X127977529Y-92347485D01*
X127977531Y-92347486D01*
X128086555Y-92376699D01*
X128086559Y-92376699D01*
X128086561Y-92376700D01*
X128086563Y-92376700D01*
X128199437Y-92376700D01*
X128199439Y-92376700D01*
X128199441Y-92376699D01*
X128199444Y-92376699D01*
X128308468Y-92347486D01*
X128308467Y-92347486D01*
X128308472Y-92347485D01*
X128406228Y-92291045D01*
X128486045Y-92211228D01*
X128542485Y-92113472D01*
X128559279Y-92050795D01*
X128571699Y-92004444D01*
X128571700Y-92004437D01*
X128571700Y-91891562D01*
X128571699Y-91891555D01*
X128542486Y-91782531D01*
X128542485Y-91782528D01*
X128532277Y-91764847D01*
X128507043Y-91721142D01*
X128507040Y-91721136D01*
X130011922Y-91721136D01*
X130011922Y-91834025D01*
X130041135Y-91943049D01*
X130041137Y-91943054D01*
X130097575Y-92040807D01*
X130177395Y-92120627D01*
X130275148Y-92177065D01*
X130275150Y-92177066D01*
X130275151Y-92177066D01*
X130275153Y-92177067D01*
X130384177Y-92206280D01*
X130384181Y-92206280D01*
X130384183Y-92206281D01*
X130384185Y-92206281D01*
X130497059Y-92206281D01*
X130497061Y-92206281D01*
X130497063Y-92206280D01*
X130497066Y-92206280D01*
X130606090Y-92177067D01*
X130606089Y-92177067D01*
X130606094Y-92177066D01*
X130703850Y-92120626D01*
X130783667Y-92040809D01*
X130840107Y-91943053D01*
X130845203Y-91924030D01*
X130869321Y-91834025D01*
X130869322Y-91834018D01*
X130869322Y-91721143D01*
X130869321Y-91721137D01*
X130840698Y-91614314D01*
X130840698Y-91614313D01*
X130840697Y-91614310D01*
X130840107Y-91612110D01*
X130840106Y-91612107D01*
X130830151Y-91594865D01*
X141590995Y-91594865D01*
X141590995Y-91707754D01*
X141620208Y-91816778D01*
X141620210Y-91816783D01*
X141676648Y-91914536D01*
X141756468Y-91994356D01*
X141773941Y-92004444D01*
X141854223Y-92050795D01*
X141854224Y-92050795D01*
X141854226Y-92050796D01*
X141963250Y-92080009D01*
X141963254Y-92080009D01*
X141963256Y-92080010D01*
X141963258Y-92080010D01*
X141995273Y-92080010D01*
X142054404Y-92099223D01*
X142090949Y-92149523D01*
X142092445Y-92206647D01*
X142081185Y-92248666D01*
X142081185Y-92361554D01*
X142110398Y-92470578D01*
X142110400Y-92470583D01*
X142166838Y-92568336D01*
X142246658Y-92648156D01*
X142288877Y-92672531D01*
X142344413Y-92704595D01*
X142344414Y-92704595D01*
X142344416Y-92704596D01*
X142453440Y-92733809D01*
X142453444Y-92733809D01*
X142453446Y-92733810D01*
X142453448Y-92733810D01*
X142566322Y-92733810D01*
X142566324Y-92733810D01*
X142566326Y-92733809D01*
X142566329Y-92733809D01*
X142656334Y-92709691D01*
X142675357Y-92704595D01*
X142773113Y-92648155D01*
X142852930Y-92568338D01*
X142909370Y-92470582D01*
X142914466Y-92451559D01*
X142938584Y-92361554D01*
X142938585Y-92361547D01*
X142938585Y-92248672D01*
X142938584Y-92248665D01*
X142909371Y-92139641D01*
X142909369Y-92139636D01*
X142852931Y-92041883D01*
X142773111Y-91962063D01*
X142675358Y-91905625D01*
X142675353Y-91905623D01*
X142566329Y-91876410D01*
X142566324Y-91876410D01*
X142534307Y-91876410D01*
X142475176Y-91857197D01*
X142438631Y-91806897D01*
X142437135Y-91749773D01*
X142448394Y-91707753D01*
X142448395Y-91707747D01*
X142448395Y-91594872D01*
X142448394Y-91594865D01*
X142419181Y-91485841D01*
X142419179Y-91485836D01*
X142362741Y-91388083D01*
X142282921Y-91308263D01*
X142185168Y-91251825D01*
X142185163Y-91251823D01*
X142076139Y-91222610D01*
X142076134Y-91222610D01*
X141963256Y-91222610D01*
X141963250Y-91222610D01*
X141854226Y-91251823D01*
X141854221Y-91251825D01*
X141756468Y-91308263D01*
X141756467Y-91308265D01*
X141676650Y-91388082D01*
X141676648Y-91388083D01*
X141620210Y-91485836D01*
X141620208Y-91485841D01*
X141590995Y-91594865D01*
X130830151Y-91594865D01*
X130783668Y-91514354D01*
X130703848Y-91434534D01*
X130606095Y-91378096D01*
X130606090Y-91378094D01*
X130497066Y-91348881D01*
X130497061Y-91348881D01*
X130384183Y-91348881D01*
X130384177Y-91348881D01*
X130275153Y-91378094D01*
X130275148Y-91378096D01*
X130177395Y-91434534D01*
X130177394Y-91434536D01*
X130097577Y-91514353D01*
X130097575Y-91514354D01*
X130041137Y-91612107D01*
X130041135Y-91612112D01*
X130011922Y-91721136D01*
X128507040Y-91721136D01*
X128486045Y-91684772D01*
X128406228Y-91604955D01*
X128406226Y-91604953D01*
X128308473Y-91548515D01*
X128308468Y-91548513D01*
X128199444Y-91519300D01*
X128199439Y-91519300D01*
X128086561Y-91519300D01*
X128086555Y-91519300D01*
X127977531Y-91548513D01*
X127977526Y-91548515D01*
X127879773Y-91604953D01*
X127879772Y-91604955D01*
X127799955Y-91684772D01*
X127799953Y-91684773D01*
X127743515Y-91782526D01*
X127743513Y-91782531D01*
X127714300Y-91891555D01*
X125705908Y-91891555D01*
X125704434Y-89133684D01*
X132338300Y-89133684D01*
X132338300Y-89266315D01*
X132372628Y-89394424D01*
X132438938Y-89509276D01*
X132438940Y-89509279D01*
X132532721Y-89603060D01*
X132532723Y-89603061D01*
X132647575Y-89669371D01*
X132647576Y-89669371D01*
X132647579Y-89669373D01*
X132775687Y-89703700D01*
X132908313Y-89703700D01*
X133036421Y-89669373D01*
X133151279Y-89603060D01*
X133245060Y-89509279D01*
X133311373Y-89394421D01*
X133345700Y-89266313D01*
X133345700Y-89133687D01*
X133311373Y-89005579D01*
X133245060Y-88890721D01*
X133154826Y-88800487D01*
X144855995Y-88800487D01*
X144855995Y-88990712D01*
X144893106Y-89177286D01*
X144965899Y-89353025D01*
X144965900Y-89353027D01*
X144965902Y-89353031D01*
X145071587Y-89511198D01*
X145206097Y-89645708D01*
X145364264Y-89751393D01*
X145364269Y-89751395D01*
X145540008Y-89824188D01*
X145540009Y-89824188D01*
X145540011Y-89824189D01*
X145726582Y-89861300D01*
X145726583Y-89861300D01*
X145916807Y-89861300D01*
X145916808Y-89861300D01*
X146103379Y-89824189D01*
X146279126Y-89751393D01*
X146437293Y-89645708D01*
X146571803Y-89511198D01*
X146677488Y-89353031D01*
X146750284Y-89177284D01*
X146787395Y-88990713D01*
X146787395Y-88800487D01*
X147395995Y-88800487D01*
X147395995Y-88990712D01*
X147433106Y-89177286D01*
X147505899Y-89353025D01*
X147505900Y-89353027D01*
X147505902Y-89353031D01*
X147611587Y-89511198D01*
X147746097Y-89645708D01*
X147904264Y-89751393D01*
X147904269Y-89751395D01*
X148080008Y-89824188D01*
X148080009Y-89824188D01*
X148080011Y-89824189D01*
X148266582Y-89861300D01*
X148266583Y-89861300D01*
X148456807Y-89861300D01*
X148456808Y-89861300D01*
X148643379Y-89824189D01*
X148819126Y-89751393D01*
X148977293Y-89645708D01*
X149111803Y-89511198D01*
X149217488Y-89353031D01*
X149290284Y-89177284D01*
X149327395Y-88990713D01*
X149327395Y-88800487D01*
X149935995Y-88800487D01*
X149935995Y-88990712D01*
X149973106Y-89177286D01*
X150045899Y-89353025D01*
X150045900Y-89353027D01*
X150045902Y-89353031D01*
X150151587Y-89511198D01*
X150286097Y-89645708D01*
X150444264Y-89751393D01*
X150444269Y-89751395D01*
X150620008Y-89824188D01*
X150620009Y-89824188D01*
X150620011Y-89824189D01*
X150806582Y-89861300D01*
X150806583Y-89861300D01*
X150996807Y-89861300D01*
X150996808Y-89861300D01*
X151183379Y-89824189D01*
X151359126Y-89751393D01*
X151517293Y-89645708D01*
X151651803Y-89511198D01*
X151757488Y-89353031D01*
X151830284Y-89177284D01*
X151867395Y-88990713D01*
X151867395Y-88800487D01*
X155015995Y-88800487D01*
X155015995Y-88990712D01*
X155053106Y-89177286D01*
X155125899Y-89353025D01*
X155125900Y-89353027D01*
X155125902Y-89353031D01*
X155231587Y-89511198D01*
X155366097Y-89645708D01*
X155524264Y-89751393D01*
X155524269Y-89751395D01*
X155700008Y-89824188D01*
X155700009Y-89824188D01*
X155700011Y-89824189D01*
X155886582Y-89861300D01*
X155886583Y-89861300D01*
X156076807Y-89861300D01*
X156076808Y-89861300D01*
X156263379Y-89824189D01*
X156439126Y-89751393D01*
X156597293Y-89645708D01*
X156731803Y-89511198D01*
X156837488Y-89353031D01*
X156910284Y-89177284D01*
X156947395Y-88990713D01*
X156947395Y-88800487D01*
X157555995Y-88800487D01*
X157555995Y-88990712D01*
X157593106Y-89177286D01*
X157665899Y-89353025D01*
X157665900Y-89353027D01*
X157665902Y-89353031D01*
X157771587Y-89511198D01*
X157906097Y-89645708D01*
X158064264Y-89751393D01*
X158064269Y-89751395D01*
X158240008Y-89824188D01*
X158240009Y-89824188D01*
X158240011Y-89824189D01*
X158426582Y-89861300D01*
X158426583Y-89861300D01*
X158616807Y-89861300D01*
X158616808Y-89861300D01*
X158803379Y-89824189D01*
X158979126Y-89751393D01*
X159137293Y-89645708D01*
X159271803Y-89511198D01*
X159377488Y-89353031D01*
X159450284Y-89177284D01*
X159487395Y-88990713D01*
X159487395Y-88800487D01*
X160095995Y-88800487D01*
X160095995Y-88990712D01*
X160133106Y-89177286D01*
X160205899Y-89353025D01*
X160205900Y-89353027D01*
X160205902Y-89353031D01*
X160311587Y-89511198D01*
X160446097Y-89645708D01*
X160604264Y-89751393D01*
X160604269Y-89751395D01*
X160780008Y-89824188D01*
X160780009Y-89824188D01*
X160780011Y-89824189D01*
X160966582Y-89861300D01*
X160966583Y-89861300D01*
X161156807Y-89861300D01*
X161156808Y-89861300D01*
X161343379Y-89824189D01*
X161519126Y-89751393D01*
X161677293Y-89645708D01*
X161811803Y-89511198D01*
X161917488Y-89353031D01*
X161990284Y-89177284D01*
X162027395Y-88990713D01*
X162027395Y-88800487D01*
X162635995Y-88800487D01*
X162635995Y-88990712D01*
X162673106Y-89177286D01*
X162745899Y-89353025D01*
X162745900Y-89353027D01*
X162745902Y-89353031D01*
X162851587Y-89511198D01*
X162986097Y-89645708D01*
X163144264Y-89751393D01*
X163144269Y-89751395D01*
X163320008Y-89824188D01*
X163320009Y-89824188D01*
X163320011Y-89824189D01*
X163506582Y-89861300D01*
X163506583Y-89861300D01*
X163696807Y-89861300D01*
X163696808Y-89861300D01*
X163883379Y-89824189D01*
X164059126Y-89751393D01*
X164217293Y-89645708D01*
X164351803Y-89511198D01*
X164457488Y-89353031D01*
X164530284Y-89177284D01*
X164567395Y-88990713D01*
X164567395Y-88800487D01*
X165175995Y-88800487D01*
X165175995Y-88990712D01*
X165213106Y-89177286D01*
X165285899Y-89353025D01*
X165285900Y-89353027D01*
X165285902Y-89353031D01*
X165391587Y-89511198D01*
X165526097Y-89645708D01*
X165684264Y-89751393D01*
X165684269Y-89751395D01*
X165860008Y-89824188D01*
X165860009Y-89824188D01*
X165860011Y-89824189D01*
X166046582Y-89861300D01*
X166046583Y-89861300D01*
X166236807Y-89861300D01*
X166236808Y-89861300D01*
X166423379Y-89824189D01*
X166599126Y-89751393D01*
X166757293Y-89645708D01*
X166891803Y-89511198D01*
X166997488Y-89353031D01*
X167070284Y-89177284D01*
X167107395Y-88990713D01*
X167107395Y-88800487D01*
X167070284Y-88613916D01*
X166997488Y-88438169D01*
X166891803Y-88280002D01*
X166757293Y-88145492D01*
X166599126Y-88039807D01*
X166599122Y-88039805D01*
X166599120Y-88039804D01*
X166423381Y-87967011D01*
X166298998Y-87942270D01*
X166236808Y-87929900D01*
X166046582Y-87929900D01*
X165999939Y-87939177D01*
X165860008Y-87967011D01*
X165684269Y-88039804D01*
X165684265Y-88039806D01*
X165684264Y-88039807D01*
X165604111Y-88093363D01*
X165526098Y-88145491D01*
X165391586Y-88280003D01*
X165285899Y-88438174D01*
X165213106Y-88613913D01*
X165175995Y-88800487D01*
X164567395Y-88800487D01*
X164530284Y-88613916D01*
X164457488Y-88438169D01*
X164351803Y-88280002D01*
X164217293Y-88145492D01*
X164059126Y-88039807D01*
X164059122Y-88039805D01*
X164059120Y-88039804D01*
X163883381Y-87967011D01*
X163758998Y-87942270D01*
X163696808Y-87929900D01*
X163506582Y-87929900D01*
X163459939Y-87939177D01*
X163320008Y-87967011D01*
X163144269Y-88039804D01*
X163144265Y-88039806D01*
X163144264Y-88039807D01*
X163064111Y-88093363D01*
X162986098Y-88145491D01*
X162851586Y-88280003D01*
X162745899Y-88438174D01*
X162673106Y-88613913D01*
X162635995Y-88800487D01*
X162027395Y-88800487D01*
X161990284Y-88613916D01*
X161917488Y-88438169D01*
X161811803Y-88280002D01*
X161677293Y-88145492D01*
X161519126Y-88039807D01*
X161519122Y-88039805D01*
X161519120Y-88039804D01*
X161343381Y-87967011D01*
X161218998Y-87942270D01*
X161156808Y-87929900D01*
X160966582Y-87929900D01*
X160919939Y-87939177D01*
X160780008Y-87967011D01*
X160604269Y-88039804D01*
X160604265Y-88039806D01*
X160604264Y-88039807D01*
X160524111Y-88093363D01*
X160446098Y-88145491D01*
X160311586Y-88280003D01*
X160205899Y-88438174D01*
X160133106Y-88613913D01*
X160095995Y-88800487D01*
X159487395Y-88800487D01*
X159450284Y-88613916D01*
X159377488Y-88438169D01*
X159271803Y-88280002D01*
X159137293Y-88145492D01*
X158979126Y-88039807D01*
X158979122Y-88039805D01*
X158979120Y-88039804D01*
X158803381Y-87967011D01*
X158678998Y-87942270D01*
X158616808Y-87929900D01*
X158426582Y-87929900D01*
X158379939Y-87939177D01*
X158240008Y-87967011D01*
X158064269Y-88039804D01*
X158064265Y-88039806D01*
X158064264Y-88039807D01*
X157984111Y-88093363D01*
X157906098Y-88145491D01*
X157771586Y-88280003D01*
X157665899Y-88438174D01*
X157593106Y-88613913D01*
X157555995Y-88800487D01*
X156947395Y-88800487D01*
X156910284Y-88613916D01*
X156837488Y-88438169D01*
X156731803Y-88280002D01*
X156597293Y-88145492D01*
X156439126Y-88039807D01*
X156439122Y-88039805D01*
X156439120Y-88039804D01*
X156263381Y-87967011D01*
X156138998Y-87942270D01*
X156076808Y-87929900D01*
X155886582Y-87929900D01*
X155839939Y-87939177D01*
X155700008Y-87967011D01*
X155524269Y-88039804D01*
X155524265Y-88039806D01*
X155524264Y-88039807D01*
X155444111Y-88093363D01*
X155366098Y-88145491D01*
X155231586Y-88280003D01*
X155125899Y-88438174D01*
X155053106Y-88613913D01*
X155015995Y-88800487D01*
X151867395Y-88800487D01*
X151830284Y-88613916D01*
X151757488Y-88438169D01*
X151651803Y-88280002D01*
X151517293Y-88145492D01*
X151359126Y-88039807D01*
X151359122Y-88039805D01*
X151359120Y-88039804D01*
X151183381Y-87967011D01*
X151058998Y-87942270D01*
X150996808Y-87929900D01*
X150806582Y-87929900D01*
X150759939Y-87939177D01*
X150620008Y-87967011D01*
X150444269Y-88039804D01*
X150444265Y-88039806D01*
X150444264Y-88039807D01*
X150364111Y-88093363D01*
X150286098Y-88145491D01*
X150151586Y-88280003D01*
X150045899Y-88438174D01*
X149973106Y-88613913D01*
X149935995Y-88800487D01*
X149327395Y-88800487D01*
X149290284Y-88613916D01*
X149217488Y-88438169D01*
X149111803Y-88280002D01*
X148977293Y-88145492D01*
X148819126Y-88039807D01*
X148819122Y-88039805D01*
X148819120Y-88039804D01*
X148643381Y-87967011D01*
X148518998Y-87942270D01*
X148456808Y-87929900D01*
X148266582Y-87929900D01*
X148219939Y-87939177D01*
X148080008Y-87967011D01*
X147904269Y-88039804D01*
X147904265Y-88039806D01*
X147904264Y-88039807D01*
X147824111Y-88093363D01*
X147746098Y-88145491D01*
X147611586Y-88280003D01*
X147505899Y-88438174D01*
X147433106Y-88613913D01*
X147395995Y-88800487D01*
X146787395Y-88800487D01*
X146750284Y-88613916D01*
X146677488Y-88438169D01*
X146571803Y-88280002D01*
X146437293Y-88145492D01*
X146279126Y-88039807D01*
X146279122Y-88039805D01*
X146279120Y-88039804D01*
X146103381Y-87967011D01*
X145978998Y-87942270D01*
X145916808Y-87929900D01*
X145726582Y-87929900D01*
X145679939Y-87939177D01*
X145540008Y-87967011D01*
X145364269Y-88039804D01*
X145364265Y-88039806D01*
X145364264Y-88039807D01*
X145284111Y-88093363D01*
X145206098Y-88145491D01*
X145071586Y-88280003D01*
X144965899Y-88438174D01*
X144893106Y-88613913D01*
X144855995Y-88800487D01*
X133154826Y-88800487D01*
X133151279Y-88796940D01*
X133151276Y-88796938D01*
X133036424Y-88730628D01*
X133036421Y-88730627D01*
X133002099Y-88721430D01*
X132908315Y-88696300D01*
X132908313Y-88696300D01*
X132775687Y-88696300D01*
X132775684Y-88696300D01*
X132647575Y-88730628D01*
X132532723Y-88796938D01*
X132532722Y-88796939D01*
X132532721Y-88796940D01*
X132438940Y-88890721D01*
X132438939Y-88890722D01*
X132438938Y-88890723D01*
X132372628Y-89005575D01*
X132338300Y-89133684D01*
X125704434Y-89133684D01*
X125703668Y-87700555D01*
X133810300Y-87700555D01*
X133810300Y-87813444D01*
X133839513Y-87922468D01*
X133839515Y-87922473D01*
X133895953Y-88020226D01*
X133975773Y-88100046D01*
X134073526Y-88156484D01*
X134073528Y-88156485D01*
X134073529Y-88156485D01*
X134073531Y-88156486D01*
X134182555Y-88185699D01*
X134182559Y-88185699D01*
X134182561Y-88185700D01*
X134182563Y-88185700D01*
X134295437Y-88185700D01*
X134295439Y-88185700D01*
X134295441Y-88185699D01*
X134295444Y-88185699D01*
X134404468Y-88156486D01*
X134404467Y-88156486D01*
X134404472Y-88156485D01*
X134502228Y-88100045D01*
X134582045Y-88020228D01*
X134638485Y-87922472D01*
X134667700Y-87813439D01*
X134667700Y-87700561D01*
X134667699Y-87700559D01*
X134667699Y-87700555D01*
X134638486Y-87591531D01*
X134638484Y-87591526D01*
X134582046Y-87493773D01*
X134502226Y-87413953D01*
X134404473Y-87357515D01*
X134404468Y-87357513D01*
X134295444Y-87328300D01*
X134295439Y-87328300D01*
X134182561Y-87328300D01*
X134182555Y-87328300D01*
X134073531Y-87357513D01*
X134073526Y-87357515D01*
X133975773Y-87413953D01*
X133975772Y-87413955D01*
X133895955Y-87493772D01*
X133895953Y-87493773D01*
X133839515Y-87591526D01*
X133839513Y-87591531D01*
X133810300Y-87700555D01*
X125703668Y-87700555D01*
X125702165Y-84888331D01*
X126296300Y-84888331D01*
X126296300Y-85111668D01*
X126325448Y-85333082D01*
X126325449Y-85333091D01*
X126383250Y-85548805D01*
X126383257Y-85548826D01*
X126468718Y-85755143D01*
X126580382Y-85948552D01*
X126580384Y-85948555D01*
X126580385Y-85948556D01*
X126716342Y-86125738D01*
X126874262Y-86283658D01*
X126961728Y-86350773D01*
X127051447Y-86419617D01*
X127244856Y-86531281D01*
X127451173Y-86616742D01*
X127451194Y-86616749D01*
X127666908Y-86674550D01*
X127666917Y-86674551D01*
X127888332Y-86703700D01*
X127888334Y-86703700D01*
X128111668Y-86703700D01*
X128333082Y-86674551D01*
X128333091Y-86674550D01*
X128548805Y-86616749D01*
X128548806Y-86616748D01*
X128548812Y-86616747D01*
X128548816Y-86616745D01*
X128548826Y-86616742D01*
X128691713Y-86557555D01*
X130889300Y-86557555D01*
X130889300Y-86670444D01*
X130918513Y-86779468D01*
X130918515Y-86779473D01*
X130974953Y-86877226D01*
X131054773Y-86957046D01*
X131079285Y-86971198D01*
X131152528Y-87013485D01*
X131152529Y-87013485D01*
X131152531Y-87013486D01*
X131261555Y-87042699D01*
X131261559Y-87042699D01*
X131261561Y-87042700D01*
X131261563Y-87042700D01*
X131374437Y-87042700D01*
X131374439Y-87042700D01*
X131374441Y-87042699D01*
X131374444Y-87042699D01*
X131483468Y-87013486D01*
X131483467Y-87013486D01*
X131483472Y-87013485D01*
X131581228Y-86957045D01*
X131661045Y-86877228D01*
X131717485Y-86779472D01*
X131737788Y-86703700D01*
X131746699Y-86670444D01*
X131746700Y-86670437D01*
X131746700Y-86557562D01*
X131746699Y-86557555D01*
X131717486Y-86448531D01*
X131717484Y-86448526D01*
X131661046Y-86350773D01*
X131581226Y-86270953D01*
X131563098Y-86260487D01*
X144855995Y-86260487D01*
X144855995Y-86450712D01*
X144893106Y-86637286D01*
X144965899Y-86813025D01*
X144965900Y-86813027D01*
X144965902Y-86813031D01*
X145071587Y-86971198D01*
X145206097Y-87105708D01*
X145364264Y-87211393D01*
X145364269Y-87211395D01*
X145540008Y-87284188D01*
X145540009Y-87284188D01*
X145540011Y-87284189D01*
X145726582Y-87321300D01*
X145726583Y-87321300D01*
X145916807Y-87321300D01*
X145916808Y-87321300D01*
X146103379Y-87284189D01*
X146279126Y-87211393D01*
X146437293Y-87105708D01*
X146571803Y-86971198D01*
X146677488Y-86813031D01*
X146750284Y-86637284D01*
X146787395Y-86450713D01*
X146787395Y-86260487D01*
X147395995Y-86260487D01*
X147395995Y-86450712D01*
X147433106Y-86637286D01*
X147505899Y-86813025D01*
X147505900Y-86813027D01*
X147505902Y-86813031D01*
X147611587Y-86971198D01*
X147746097Y-87105708D01*
X147904264Y-87211393D01*
X147904269Y-87211395D01*
X148080008Y-87284188D01*
X148080009Y-87284188D01*
X148080011Y-87284189D01*
X148266582Y-87321300D01*
X148266583Y-87321300D01*
X148456807Y-87321300D01*
X148456808Y-87321300D01*
X148643379Y-87284189D01*
X148819126Y-87211393D01*
X148977293Y-87105708D01*
X149111803Y-86971198D01*
X149217488Y-86813031D01*
X149290284Y-86637284D01*
X149327395Y-86450713D01*
X149327395Y-86260487D01*
X149935995Y-86260487D01*
X149935995Y-86450712D01*
X149973106Y-86637286D01*
X150045899Y-86813025D01*
X150045900Y-86813027D01*
X150045902Y-86813031D01*
X150151587Y-86971198D01*
X150286097Y-87105708D01*
X150444264Y-87211393D01*
X150444269Y-87211395D01*
X150620008Y-87284188D01*
X150620009Y-87284188D01*
X150620011Y-87284189D01*
X150806582Y-87321300D01*
X150806583Y-87321300D01*
X150996807Y-87321300D01*
X150996808Y-87321300D01*
X151183379Y-87284189D01*
X151359126Y-87211393D01*
X151517293Y-87105708D01*
X151651803Y-86971198D01*
X151757488Y-86813031D01*
X151830284Y-86637284D01*
X151867395Y-86450713D01*
X151867395Y-86260487D01*
X152475995Y-86260487D01*
X152475995Y-86450712D01*
X152513106Y-86637286D01*
X152585899Y-86813025D01*
X152585900Y-86813027D01*
X152585902Y-86813031D01*
X152691587Y-86971198D01*
X152826097Y-87105708D01*
X152984264Y-87211393D01*
X152984269Y-87211395D01*
X153160008Y-87284188D01*
X153160009Y-87284188D01*
X153160011Y-87284189D01*
X153346582Y-87321300D01*
X153346583Y-87321300D01*
X153536807Y-87321300D01*
X153536808Y-87321300D01*
X153723379Y-87284189D01*
X153899126Y-87211393D01*
X154057293Y-87105708D01*
X154191803Y-86971198D01*
X154297488Y-86813031D01*
X154370284Y-86637284D01*
X154407395Y-86450713D01*
X154407395Y-86260487D01*
X155015995Y-86260487D01*
X155015995Y-86450712D01*
X155053106Y-86637286D01*
X155125899Y-86813025D01*
X155125900Y-86813027D01*
X155125902Y-86813031D01*
X155231587Y-86971198D01*
X155366097Y-87105708D01*
X155524264Y-87211393D01*
X155524269Y-87211395D01*
X155700008Y-87284188D01*
X155700009Y-87284188D01*
X155700011Y-87284189D01*
X155886582Y-87321300D01*
X155886583Y-87321300D01*
X156076807Y-87321300D01*
X156076808Y-87321300D01*
X156263379Y-87284189D01*
X156439126Y-87211393D01*
X156597293Y-87105708D01*
X156731803Y-86971198D01*
X156837488Y-86813031D01*
X156910284Y-86637284D01*
X156947395Y-86450713D01*
X156947395Y-86260487D01*
X157555995Y-86260487D01*
X157555995Y-86450712D01*
X157593106Y-86637286D01*
X157665899Y-86813025D01*
X157665900Y-86813027D01*
X157665902Y-86813031D01*
X157771587Y-86971198D01*
X157906097Y-87105708D01*
X158064264Y-87211393D01*
X158064269Y-87211395D01*
X158240008Y-87284188D01*
X158240009Y-87284188D01*
X158240011Y-87284189D01*
X158426582Y-87321300D01*
X158426583Y-87321300D01*
X158616807Y-87321300D01*
X158616808Y-87321300D01*
X158803379Y-87284189D01*
X158979126Y-87211393D01*
X159137293Y-87105708D01*
X159271803Y-86971198D01*
X159377488Y-86813031D01*
X159450284Y-86637284D01*
X159487395Y-86450713D01*
X159487395Y-86260487D01*
X160095995Y-86260487D01*
X160095995Y-86450712D01*
X160133106Y-86637286D01*
X160205899Y-86813025D01*
X160205900Y-86813027D01*
X160205902Y-86813031D01*
X160311587Y-86971198D01*
X160446097Y-87105708D01*
X160604264Y-87211393D01*
X160604269Y-87211395D01*
X160780008Y-87284188D01*
X160780009Y-87284188D01*
X160780011Y-87284189D01*
X160966582Y-87321300D01*
X160966583Y-87321300D01*
X161156807Y-87321300D01*
X161156808Y-87321300D01*
X161343379Y-87284189D01*
X161519126Y-87211393D01*
X161677293Y-87105708D01*
X161811803Y-86971198D01*
X161917488Y-86813031D01*
X161990284Y-86637284D01*
X162027395Y-86450713D01*
X162027395Y-86260487D01*
X161990284Y-86073916D01*
X161917488Y-85898169D01*
X161811803Y-85740002D01*
X161677293Y-85605492D01*
X161519126Y-85499807D01*
X161519122Y-85499805D01*
X161519120Y-85499804D01*
X161343381Y-85427011D01*
X161213929Y-85401262D01*
X161156808Y-85389900D01*
X160966582Y-85389900D01*
X160919939Y-85399177D01*
X160780008Y-85427011D01*
X160604269Y-85499804D01*
X160604265Y-85499806D01*
X160604264Y-85499807D01*
X160530934Y-85548805D01*
X160446098Y-85605491D01*
X160311586Y-85740003D01*
X160205899Y-85898174D01*
X160133106Y-86073913D01*
X160095995Y-86260487D01*
X159487395Y-86260487D01*
X159450284Y-86073916D01*
X159377488Y-85898169D01*
X159271803Y-85740002D01*
X159137293Y-85605492D01*
X158979126Y-85499807D01*
X158979122Y-85499805D01*
X158979120Y-85499804D01*
X158803381Y-85427011D01*
X158673929Y-85401262D01*
X158616808Y-85389900D01*
X158426582Y-85389900D01*
X158379939Y-85399177D01*
X158240008Y-85427011D01*
X158064269Y-85499804D01*
X158064265Y-85499806D01*
X158064264Y-85499807D01*
X157990934Y-85548805D01*
X157906098Y-85605491D01*
X157771586Y-85740003D01*
X157665899Y-85898174D01*
X157593106Y-86073913D01*
X157555995Y-86260487D01*
X156947395Y-86260487D01*
X156910284Y-86073916D01*
X156837488Y-85898169D01*
X156731803Y-85740002D01*
X156597293Y-85605492D01*
X156439126Y-85499807D01*
X156439122Y-85499805D01*
X156439120Y-85499804D01*
X156263381Y-85427011D01*
X156133929Y-85401262D01*
X156076808Y-85389900D01*
X155886582Y-85389900D01*
X155839939Y-85399177D01*
X155700008Y-85427011D01*
X155524269Y-85499804D01*
X155524265Y-85499806D01*
X155524264Y-85499807D01*
X155450934Y-85548805D01*
X155366098Y-85605491D01*
X155231586Y-85740003D01*
X155125899Y-85898174D01*
X155053106Y-86073913D01*
X155015995Y-86260487D01*
X154407395Y-86260487D01*
X154370284Y-86073916D01*
X154297488Y-85898169D01*
X154191803Y-85740002D01*
X154057293Y-85605492D01*
X153899126Y-85499807D01*
X153899122Y-85499805D01*
X153899120Y-85499804D01*
X153723381Y-85427011D01*
X153593929Y-85401262D01*
X153536808Y-85389900D01*
X153346582Y-85389900D01*
X153299939Y-85399177D01*
X153160008Y-85427011D01*
X152984269Y-85499804D01*
X152984265Y-85499806D01*
X152984264Y-85499807D01*
X152910934Y-85548805D01*
X152826098Y-85605491D01*
X152691586Y-85740003D01*
X152585899Y-85898174D01*
X152513106Y-86073913D01*
X152475995Y-86260487D01*
X151867395Y-86260487D01*
X151830284Y-86073916D01*
X151757488Y-85898169D01*
X151651803Y-85740002D01*
X151517293Y-85605492D01*
X151359126Y-85499807D01*
X151359122Y-85499805D01*
X151359120Y-85499804D01*
X151183381Y-85427011D01*
X151053929Y-85401262D01*
X150996808Y-85389900D01*
X150806582Y-85389900D01*
X150759939Y-85399177D01*
X150620008Y-85427011D01*
X150444269Y-85499804D01*
X150444265Y-85499806D01*
X150444264Y-85499807D01*
X150370934Y-85548805D01*
X150286098Y-85605491D01*
X150151586Y-85740003D01*
X150045899Y-85898174D01*
X149973106Y-86073913D01*
X149935995Y-86260487D01*
X149327395Y-86260487D01*
X149290284Y-86073916D01*
X149217488Y-85898169D01*
X149111803Y-85740002D01*
X148977293Y-85605492D01*
X148819126Y-85499807D01*
X148819122Y-85499805D01*
X148819120Y-85499804D01*
X148643381Y-85427011D01*
X148513929Y-85401262D01*
X148456808Y-85389900D01*
X148266582Y-85389900D01*
X148219939Y-85399177D01*
X148080008Y-85427011D01*
X147904269Y-85499804D01*
X147904265Y-85499806D01*
X147904264Y-85499807D01*
X147830934Y-85548805D01*
X147746098Y-85605491D01*
X147611586Y-85740003D01*
X147505899Y-85898174D01*
X147433106Y-86073913D01*
X147395995Y-86260487D01*
X146787395Y-86260487D01*
X146750284Y-86073916D01*
X146677488Y-85898169D01*
X146571803Y-85740002D01*
X146437293Y-85605492D01*
X146279126Y-85499807D01*
X146279122Y-85499805D01*
X146279120Y-85499804D01*
X146103381Y-85427011D01*
X145973929Y-85401262D01*
X145916808Y-85389900D01*
X145726582Y-85389900D01*
X145679939Y-85399177D01*
X145540008Y-85427011D01*
X145364269Y-85499804D01*
X145364265Y-85499806D01*
X145364264Y-85499807D01*
X145290934Y-85548805D01*
X145206098Y-85605491D01*
X145071586Y-85740003D01*
X144965899Y-85898174D01*
X144893106Y-86073913D01*
X144855995Y-86260487D01*
X131563098Y-86260487D01*
X131483473Y-86214515D01*
X131483468Y-86214513D01*
X131374444Y-86185300D01*
X131374439Y-86185300D01*
X131261561Y-86185300D01*
X131261555Y-86185300D01*
X131152531Y-86214513D01*
X131152526Y-86214515D01*
X131054773Y-86270953D01*
X131054772Y-86270955D01*
X130974955Y-86350772D01*
X130974953Y-86350773D01*
X130918515Y-86448526D01*
X130918513Y-86448531D01*
X130889300Y-86557555D01*
X128691713Y-86557555D01*
X128755144Y-86531281D01*
X128815668Y-86496337D01*
X128871948Y-86463845D01*
X128920544Y-86435787D01*
X128948556Y-86419615D01*
X129125738Y-86283658D01*
X129283658Y-86125738D01*
X129419615Y-85948556D01*
X129531281Y-85755144D01*
X129560458Y-85684703D01*
X129616742Y-85548826D01*
X129616749Y-85548805D01*
X129674550Y-85333091D01*
X129674551Y-85333082D01*
X129703700Y-85111668D01*
X129703700Y-84888331D01*
X129674551Y-84666917D01*
X129674550Y-84666908D01*
X129616749Y-84451194D01*
X129616742Y-84451173D01*
X129531281Y-84244856D01*
X129419617Y-84051447D01*
X129419615Y-84051444D01*
X129283658Y-83874262D01*
X129125738Y-83716342D01*
X128948556Y-83580385D01*
X128948555Y-83580384D01*
X128948552Y-83580382D01*
X128755143Y-83468718D01*
X128548826Y-83383257D01*
X128548805Y-83383250D01*
X128333091Y-83325449D01*
X128333082Y-83325448D01*
X128111668Y-83296300D01*
X128111666Y-83296300D01*
X127888334Y-83296300D01*
X127888332Y-83296300D01*
X127666917Y-83325448D01*
X127666908Y-83325449D01*
X127451194Y-83383250D01*
X127451173Y-83383257D01*
X127244856Y-83468718D01*
X127051447Y-83580382D01*
X126874258Y-83716345D01*
X126716345Y-83874258D01*
X126580382Y-84051447D01*
X126468718Y-84244856D01*
X126383257Y-84451173D01*
X126383250Y-84451194D01*
X126325449Y-84666908D01*
X126325448Y-84666917D01*
X126296300Y-84888331D01*
X125702165Y-84888331D01*
X125701448Y-83546627D01*
X125701931Y-83536741D01*
X125715830Y-83395609D01*
X125719674Y-83376276D01*
X125719675Y-83376274D01*
X125759399Y-83245282D01*
X125766936Y-83227081D01*
X125831443Y-83106349D01*
X125842384Y-83089967D01*
X125929208Y-82984123D01*
X125943125Y-82970199D01*
X126048922Y-82883322D01*
X126065295Y-82872374D01*
X126185997Y-82807800D01*
X126204200Y-82800252D01*
X126335168Y-82760460D01*
X126354491Y-82756607D01*
X126495213Y-82742675D01*
X126505124Y-82742186D01*
X135515948Y-82742186D01*
X135575079Y-82761399D01*
G37*
%TD.AperFunction*%
%TA.AperFunction,Conductor*%
G36*
X172373653Y-95241751D02*
G01*
X172432733Y-95261110D01*
X172469153Y-95311500D01*
X172474000Y-95342350D01*
X172474000Y-96266000D01*
X176087715Y-96266000D01*
X176146846Y-96285213D01*
X176183391Y-96335513D01*
X176188315Y-96366600D01*
X176188315Y-106575120D01*
X176169102Y-106634251D01*
X176118802Y-106670796D01*
X176087772Y-106675720D01*
X172909834Y-106677516D01*
X172909833Y-106677517D01*
X172900392Y-106677522D01*
X169010662Y-106679937D01*
X168951519Y-106660761D01*
X168914943Y-106610483D01*
X168910000Y-106579337D01*
X168910000Y-104013000D01*
X168534055Y-103637055D01*
X168524710Y-103626280D01*
X168472920Y-103557226D01*
X168452812Y-103498393D01*
X168452800Y-103496866D01*
X168452800Y-102596116D01*
X168445223Y-102581208D01*
X168444000Y-102565572D01*
X168444000Y-95332850D01*
X168463213Y-95273719D01*
X168513513Y-95237174D01*
X168544848Y-95232250D01*
X172373653Y-95241751D01*
G37*
%TD.AperFunction*%
%TD*%
M02*
