%TF.GenerationSoftware,KiCad,Pcbnew,9.0.7-9.0.7~ubuntu25.10.1*%
%TF.CreationDate,2026-01-04T20:51:49+05:30*%
%TF.ProjectId,Nordic_BLE,4e6f7264-6963-45f4-924c-452e6b696361,rev?*%
%TF.SameCoordinates,Original*%
%TF.FileFunction,Paste,Top*%
%TF.FilePolarity,Positive*%
%FSLAX46Y46*%
G04 Gerber Fmt 4.6, Leading zero omitted, Abs format (unit mm)*
G04 Created by KiCad (PCBNEW 9.0.7-9.0.7~ubuntu25.10.1) date 2026-01-04 20:51:49*
%MOMM*%
%LPD*%
G01*
G04 APERTURE LIST*
G04 Aperture macros list*
%AMRoundRect*
0 Rectangle with rounded corners*
0 $1 Rounding radius*
0 $2 $3 $4 $5 $6 $7 $8 $9 X,Y pos of 4 corners*
0 Add a 4 corners polygon primitive as box body*
4,1,4,$2,$3,$4,$5,$6,$7,$8,$9,$2,$3,0*
0 Add four circle primitives for the rounded corners*
1,1,$1+$1,$2,$3*
1,1,$1+$1,$4,$5*
1,1,$1+$1,$6,$7*
1,1,$1+$1,$8,$9*
0 Add four rect primitives between the rounded corners*
20,1,$1+$1,$2,$3,$4,$5,0*
20,1,$1+$1,$4,$5,$6,$7,0*
20,1,$1+$1,$6,$7,$8,$9,0*
20,1,$1+$1,$8,$9,$2,$3,0*%
G04 Aperture macros list end*
%ADD10C,0.125000*%
%ADD11C,0.000000*%
%ADD12R,0.850000X0.800000*%
%ADD13R,2.000000X0.850000*%
%ADD14R,1.206060X1.058220*%
%ADD15R,0.600000X0.550000*%
%ADD16R,0.270000X0.300000*%
%ADD17R,0.400000X0.600000*%
%ADD18R,0.550000X0.600000*%
%ADD19RoundRect,0.063500X-0.114300X0.063500X-0.114300X-0.063500X0.114300X-0.063500X0.114300X0.063500X0*%
%ADD20R,1.050000X0.650000*%
%ADD21R,0.400000X0.320000*%
%ADD22R,0.450000X0.250000*%
%ADD23R,0.250000X0.450000*%
%ADD24R,0.300000X0.300000*%
%ADD25R,2.500000X1.000000*%
%ADD26R,0.300000X0.270000*%
%ADD27R,0.250000X0.250000*%
%ADD28R,0.750000X0.700000*%
%ADD29R,0.500000X0.500000*%
%ADD30R,1.100000X0.600000*%
%ADD31R,1.100000X0.300000*%
%ADD32RoundRect,0.063500X0.063500X0.114300X-0.063500X0.114300X-0.063500X-0.114300X0.063500X-0.114300X0*%
%ADD33R,0.320000X0.400000*%
%ADD34RoundRect,0.250000X-0.300000X-0.300000X0.300000X-0.300000X0.300000X0.300000X-0.300000X0.300000X0*%
%ADD35RoundRect,0.027500X-0.377500X-0.082500X0.377500X-0.082500X0.377500X0.082500X-0.377500X0.082500X0*%
%ADD36RoundRect,0.027500X-0.082500X-0.377500X0.082500X-0.377500X0.082500X0.377500X-0.082500X0.377500X0*%
%ADD37O,0.300000X0.850000*%
%ADD38O,0.850000X0.300000*%
%ADD39R,1.650000X1.650000*%
%ADD40R,0.700000X0.700000*%
%ADD41R,0.650000X1.050000*%
%ADD42R,1.500000X0.800000*%
%ADD43R,0.600000X0.900000*%
G04 APERTURE END LIST*
%TO.C,J59*%
G36*
X173398090Y-94246890D02*
G01*
X172548090Y-94246890D01*
X172548090Y-93446890D01*
X173398090Y-93446890D01*
X173398090Y-94246890D01*
G37*
G36*
X175498000Y-95798600D02*
G01*
X173498000Y-95798600D01*
X173498000Y-94898600D01*
X175498000Y-94898600D01*
X175498000Y-95798600D01*
G37*
G36*
X175498010Y-92798600D02*
G01*
X173498010Y-92798600D01*
X173498010Y-91898600D01*
X175498010Y-91898600D01*
X175498010Y-92798600D01*
G37*
G36*
X162654185Y-103771890D02*
G01*
X161804185Y-103771890D01*
X161804185Y-102971890D01*
X162654185Y-102971890D01*
X162654185Y-103771890D01*
G37*
G36*
X164754095Y-105323600D02*
G01*
X162754095Y-105323600D01*
X162754095Y-104423600D01*
X164754095Y-104423600D01*
X164754095Y-105323600D01*
G37*
G36*
X164754105Y-102323600D02*
G01*
X162754105Y-102323600D01*
X162754105Y-101423600D01*
X164754105Y-101423600D01*
X164754105Y-102323600D01*
G37*
D10*
%TO.C,U5*%
X166555695Y-102970410D02*
G75*
G02*
X166430695Y-102970410I-62500J0D01*
G01*
X166430695Y-102970410D02*
G75*
G02*
X166555695Y-102970410I62500J0D01*
G01*
X166555695Y-103370410D02*
G75*
G02*
X166430695Y-103370410I-62500J0D01*
G01*
X166430695Y-103370410D02*
G75*
G02*
X166555695Y-103370410I62500J0D01*
G01*
X166555695Y-103770410D02*
G75*
G02*
X166430695Y-103770410I-62500J0D01*
G01*
X166430695Y-103770410D02*
G75*
G02*
X166555695Y-103770410I62500J0D01*
G01*
X166955695Y-102970410D02*
G75*
G02*
X166830695Y-102970410I-62500J0D01*
G01*
X166830695Y-102970410D02*
G75*
G02*
X166955695Y-102970410I62500J0D01*
G01*
X166955695Y-103370410D02*
G75*
G02*
X166830695Y-103370410I-62500J0D01*
G01*
X166830695Y-103370410D02*
G75*
G02*
X166955695Y-103370410I62500J0D01*
G01*
X166955695Y-103770410D02*
G75*
G02*
X166830695Y-103770410I-62500J0D01*
G01*
X166830695Y-103770410D02*
G75*
G02*
X166955695Y-103770410I62500J0D01*
G01*
D11*
%TO.C,U1*%
G36*
X153148695Y-103138150D02*
G01*
X151688695Y-103138150D01*
X151688695Y-101678150D01*
X153148695Y-101678150D01*
X153148695Y-103138150D01*
G37*
G36*
X153148695Y-105438140D02*
G01*
X151688695Y-105438140D01*
X151688695Y-103978140D01*
X153148695Y-103978140D01*
X153148695Y-105438140D01*
G37*
G36*
X155448695Y-103138150D02*
G01*
X153988695Y-103138150D01*
X153988695Y-101678150D01*
X155448695Y-101678150D01*
X155448695Y-103138150D01*
G37*
G36*
X155448695Y-105438140D02*
G01*
X153988695Y-105438140D01*
X153988695Y-103978140D01*
X155448695Y-103978140D01*
X155448695Y-105438140D01*
G37*
%TD*%
D12*
%TO.C,J59*%
X172973000Y-93848600D03*
D13*
X174498000Y-95323600D03*
X174498000Y-92373600D03*
%TD*%
D14*
%TO.C,L1*%
X152072615Y-98090110D03*
X150420445Y-98090110D03*
%TD*%
D15*
%TO.C,R8*%
X141332695Y-107118400D03*
X142182695Y-107118400D03*
%TD*%
D16*
%TO.C,C21*%
X166404708Y-96555600D03*
X166974708Y-96555600D03*
%TD*%
D17*
%TO.C,DS3*%
X143829095Y-109393400D03*
X144729095Y-109393400D03*
%TD*%
D18*
%TO.C,R5*%
X138709695Y-111838600D03*
X138709695Y-112688600D03*
%TD*%
D19*
%TO.C,J53*%
X143470515Y-107212060D03*
X142962515Y-107212060D03*
%TD*%
D16*
%TO.C,C5*%
X150604935Y-99598350D03*
X151174935Y-99598350D03*
%TD*%
D20*
%TO.C,SW2*%
X131003695Y-114304600D03*
X135153695Y-114304600D03*
X131003695Y-116454600D03*
X135153695Y-116454600D03*
%TD*%
D21*
%TO.C,L2*%
X157526575Y-103373600D03*
X158126575Y-103373600D03*
%TD*%
D15*
%TO.C,R18*%
X140260055Y-125580400D03*
X141110055Y-125580400D03*
%TD*%
D22*
%TO.C,U4*%
X141344695Y-93098600D03*
X141344695Y-93598600D03*
X141344695Y-94098600D03*
X141344695Y-94598600D03*
D23*
X142019695Y-94773600D03*
X142519695Y-94773600D03*
X143019695Y-94773600D03*
D22*
X143694695Y-94598600D03*
X143694695Y-94098600D03*
X143694695Y-93598600D03*
X143694695Y-93098600D03*
D23*
X143019695Y-92923600D03*
X142519695Y-92923600D03*
X142019695Y-92923600D03*
%TD*%
D24*
%TO.C,L6*%
X143581695Y-96515600D03*
X142981695Y-96515600D03*
%TD*%
D25*
%TO.C,SW1*%
X131366000Y-89202000D03*
X131366000Y-91202000D03*
X131366000Y-93202000D03*
%TD*%
D26*
%TO.C,C3*%
X149377695Y-105690600D03*
X149377695Y-105120600D03*
%TD*%
D27*
%TO.C,U5*%
X166893195Y-103770410D03*
X166893195Y-103370410D03*
X166893195Y-102970410D03*
X166493195Y-102970410D03*
X166493195Y-103370410D03*
X166493195Y-103770410D03*
%TD*%
D26*
%TO.C,C8*%
X160042769Y-103954106D03*
X160042769Y-103384106D03*
%TD*%
D18*
%TO.C,R15*%
X136173895Y-105292780D03*
X136173895Y-104442780D03*
%TD*%
D26*
%TO.C,C16*%
X137566695Y-108992600D03*
X137566695Y-108422600D03*
%TD*%
D28*
%TO.C,Y1*%
X160187000Y-99322000D03*
X158837000Y-99322000D03*
X158837000Y-100322000D03*
X160187000Y-100322000D03*
%TD*%
D29*
%TO.C,C1*%
X148717295Y-97335600D03*
X148717295Y-98235600D03*
%TD*%
D26*
%TO.C,C2*%
X157464495Y-99896910D03*
X157464495Y-100466910D03*
%TD*%
D24*
%TO.C,L5*%
X154076695Y-97323600D03*
X154076695Y-96723600D03*
%TD*%
D30*
%TO.C,J1_USB*%
X133251695Y-102709600D03*
X133251695Y-103509600D03*
D31*
X133251695Y-104659600D03*
X133251695Y-105659600D03*
X133251695Y-106159600D03*
X133251695Y-107159600D03*
D30*
X133251695Y-109109600D03*
X133251695Y-108309600D03*
D31*
X133251695Y-107659600D03*
X133251695Y-106659600D03*
X133251695Y-105159600D03*
X133251695Y-104159600D03*
%TD*%
D15*
%TO.C,R10*%
X142094695Y-102865600D03*
X142944695Y-102865600D03*
%TD*%
D16*
%TO.C,C6*%
X153051535Y-99588180D03*
X152481535Y-99588180D03*
%TD*%
%TO.C,C22*%
X167609295Y-105075400D03*
X168179295Y-105075400D03*
%TD*%
D18*
%TO.C,R3*%
X135144695Y-102899600D03*
X135144695Y-103749600D03*
%TD*%
D19*
%TO.C,J43*%
X146329695Y-110485600D03*
X145821695Y-110485600D03*
%TD*%
D17*
%TO.C,DS1*%
X127729695Y-98803850D03*
X126829695Y-98803850D03*
%TD*%
D32*
%TO.C,J56*%
X139471695Y-110485600D03*
X139471695Y-109977600D03*
%TD*%
D17*
%TO.C,DS2*%
X136227695Y-100018550D03*
X137127695Y-100018550D03*
%TD*%
D15*
%TO.C,R11*%
X142944695Y-103881600D03*
X142094695Y-103881600D03*
%TD*%
D19*
%TO.C,J54*%
X140995695Y-109215600D03*
X140487695Y-109215600D03*
%TD*%
D18*
%TO.C,R16*%
X133197000Y-121795000D03*
X133197000Y-120945000D03*
%TD*%
D15*
%TO.C,R19*%
X135473715Y-125580400D03*
X136323715Y-125580400D03*
%TD*%
D18*
%TO.C,R13*%
X139725695Y-94566600D03*
X139725695Y-95416600D03*
%TD*%
D26*
%TO.C,C11*%
X153550695Y-98713070D03*
X153550695Y-99283070D03*
%TD*%
D29*
%TO.C,C14*%
X136493340Y-87407200D03*
X135593340Y-87407200D03*
%TD*%
D18*
%TO.C,R4*%
X140233695Y-111838600D03*
X140233695Y-112688600D03*
%TD*%
D16*
%TO.C,C19*%
X143038955Y-95514600D03*
X143608955Y-95514600D03*
%TD*%
D15*
%TO.C,R17*%
X143872695Y-110485600D03*
X144722695Y-110485600D03*
%TD*%
%TO.C,R12*%
X137102695Y-101087600D03*
X136252695Y-101087600D03*
%TD*%
%TO.C,R2*%
X127704695Y-97734800D03*
X126854695Y-97734800D03*
%TD*%
D21*
%TO.C,L4*%
X160761685Y-103381804D03*
X161361685Y-103381804D03*
%TD*%
D16*
%TO.C,C12*%
X158074904Y-102231176D03*
X157504904Y-102231176D03*
%TD*%
D33*
%TO.C,L7*%
X167154508Y-95905600D03*
X167154508Y-95205600D03*
%TD*%
D16*
%TO.C,C10*%
X153506695Y-98039600D03*
X154076695Y-98039600D03*
%TD*%
%TO.C,C20*%
X131388000Y-119592000D03*
X131958000Y-119592000D03*
%TD*%
D34*
%TO.C,D1*%
X131696000Y-85852000D03*
X134496000Y-85852000D03*
%TD*%
D35*
%TO.C,U1*%
X150618695Y-101358150D03*
X150618695Y-101758150D03*
X150618695Y-102158150D03*
X150618695Y-102558150D03*
X150618695Y-102958150D03*
X150618695Y-103358150D03*
X150618695Y-103758150D03*
X150618695Y-104158140D03*
X150618695Y-104558150D03*
X150618695Y-104958150D03*
X150618695Y-105358140D03*
X150618695Y-105758150D03*
D36*
X151368695Y-106508140D03*
X151768695Y-106508140D03*
X152168695Y-106508140D03*
X152568695Y-106508140D03*
X152968695Y-106508140D03*
X153368695Y-106508140D03*
X153768695Y-106508140D03*
X154168695Y-106508140D03*
X154568695Y-106508140D03*
X154968695Y-106508140D03*
X155368695Y-106508140D03*
X155768695Y-106508140D03*
D35*
X156518695Y-105758150D03*
X156518695Y-105358140D03*
X156518695Y-104958150D03*
X156518695Y-104558150D03*
X156518695Y-104158140D03*
X156518695Y-103758150D03*
X156518695Y-103358150D03*
X156518695Y-102958150D03*
X156518695Y-102558150D03*
X156518695Y-102158150D03*
X156518695Y-101758150D03*
X156518695Y-101358150D03*
D36*
X155768695Y-100608150D03*
X155368695Y-100608150D03*
X154968695Y-100608150D03*
X154568695Y-100608150D03*
X154168695Y-100608150D03*
X153768695Y-100608150D03*
X153368695Y-100608150D03*
X152968695Y-100608150D03*
X152568695Y-100608150D03*
X152168695Y-100608150D03*
X151768695Y-100608150D03*
X151368695Y-100608150D03*
%TD*%
D15*
%TO.C,R9*%
X141332695Y-105913600D03*
X142182695Y-105913600D03*
%TD*%
D16*
%TO.C,C7*%
X157504904Y-102817506D03*
X158074904Y-102817506D03*
%TD*%
D37*
%TO.C,U3*%
X137931695Y-107350600D03*
X138431695Y-107350600D03*
X138931695Y-107350600D03*
X139431695Y-107350600D03*
D38*
X140106695Y-106675600D03*
X140106695Y-106175600D03*
X140106695Y-105675600D03*
X140106695Y-105175600D03*
D37*
X139431695Y-104500600D03*
X138931695Y-104500600D03*
X138431695Y-104500600D03*
X137931695Y-104500600D03*
D38*
X137256695Y-105175600D03*
X137256695Y-105675600D03*
X137256695Y-106175600D03*
X137256695Y-106675600D03*
D39*
X138681695Y-105925600D03*
%TD*%
D26*
%TO.C,C4*%
X155034088Y-108213803D03*
X155034088Y-107643803D03*
%TD*%
D40*
%TO.C,D1*%
X130250000Y-120820000D03*
X130250000Y-121920000D03*
X132080000Y-121920000D03*
X132080000Y-120820000D03*
%TD*%
D16*
%TO.C,C22*%
X167583895Y-106878800D03*
X168153895Y-106878800D03*
%TD*%
%TO.C,C21*%
X166404708Y-94483600D03*
X166974708Y-94483600D03*
%TD*%
D15*
%TO.C,R6*%
X138792695Y-109215600D03*
X139642695Y-109215600D03*
%TD*%
D16*
%TO.C,C13*%
X158044695Y-103936800D03*
X157474695Y-103936800D03*
%TD*%
%TO.C,C15*%
X136114000Y-92102360D03*
X135544000Y-92102360D03*
%TD*%
D32*
%TO.C,J55*%
X142646695Y-108453600D03*
X142646695Y-107945600D03*
%TD*%
D26*
%TO.C,C17*%
X140995695Y-104358600D03*
X140995695Y-104928600D03*
%TD*%
D16*
%TO.C,C18*%
X142550695Y-95514650D03*
X141980695Y-95514650D03*
%TD*%
D41*
%TO.C,SW4*%
X135348695Y-123736600D03*
X135348695Y-119586600D03*
X137498695Y-123736600D03*
X137498695Y-119586600D03*
%TD*%
D18*
%TO.C,R7*%
X135026695Y-108782490D03*
X135026695Y-107932490D03*
%TD*%
%TO.C,R14*%
X138582695Y-94566600D03*
X138582695Y-95416600D03*
%TD*%
D33*
%TO.C,L8*%
X168300695Y-105639000D03*
X168300695Y-106239000D03*
%TD*%
D21*
%TO.C,L3*%
X158762835Y-103381804D03*
X159362835Y-103381804D03*
%TD*%
D42*
%TO.C,Y2*%
X148107695Y-101075600D03*
X148107695Y-99575600D03*
%TD*%
D41*
%TO.C,SW3*%
X140174695Y-123736600D03*
X140174695Y-119586600D03*
X142324695Y-123736600D03*
X142324695Y-119586600D03*
%TD*%
D43*
%TO.C,U2*%
X135448000Y-91039000D03*
X136398000Y-91039000D03*
X137348000Y-91039000D03*
X137348000Y-88539000D03*
X135448000Y-88539000D03*
%TD*%
M02*
