%TF.GenerationSoftware,KiCad,Pcbnew,9.0.7-9.0.7~ubuntu25.10.1*%
%TF.CreationDate,2026-01-04T20:51:46+05:30*%
%TF.ProjectId,Nordic_BLE,4e6f7264-6963-45f4-924c-452e6b696361,rev?*%
%TF.SameCoordinates,Original*%
%TF.FileFunction,Drillmap*%
%TF.FilePolarity,Positive*%
%FSLAX45Y45*%
G04 Gerber Fmt 4.5, Leading zero omitted, Abs format (unit mm)*
G04 Created by KiCad (PCBNEW 9.0.7-9.0.7~ubuntu25.10.1) date 2026-01-04 20:51:46*
%MOMM*%
%LPD*%
G01*
G04 APERTURE LIST*
%ADD10C,0.050000*%
%ADD11C,0.200000*%
G04 APERTURE END LIST*
D10*
X12550094Y-8354168D02*
G75*
G02*
X12650046Y-8254164I100006J-2D01*
G01*
X17538876Y-12751641D02*
X12650169Y-12751648D01*
X17638882Y-12651648D02*
G75*
G02*
X17538876Y-12751641I-99992J-2D01*
G01*
X12650169Y-12751648D02*
G75*
G02*
X12548882Y-12650360I1J101288D01*
G01*
X12636905Y-11049470D02*
X13247381Y-11047272D01*
X17638882Y-8354170D02*
X17638882Y-12651650D01*
X12551000Y-10048135D02*
X12550095Y-8354168D01*
X12636905Y-10133254D02*
G75*
G02*
X12550996Y-10047363I-15J85894D01*
G01*
X13247381Y-11047272D02*
X13247381Y-10135451D01*
X17538930Y-8254168D02*
G75*
G02*
X17638882Y-8354168I-50J-100002D01*
G01*
X12650146Y-8254169D02*
X17538930Y-8254169D01*
X12636905Y-10133253D02*
X13247381Y-10135451D01*
X12551000Y-11135360D02*
G75*
G02*
X12636905Y-11049470I85890J0D01*
G01*
X12551000Y-11135360D02*
X12548881Y-12650360D01*
D11*
X12807158Y-13065632D02*
X12807158Y-12865632D01*
X12807158Y-12865632D02*
X12854777Y-12865632D01*
X12854777Y-12865632D02*
X12883349Y-12875156D01*
X12883349Y-12875156D02*
X12902396Y-12894203D01*
X12902396Y-12894203D02*
X12911920Y-12913251D01*
X12911920Y-12913251D02*
X12921444Y-12951346D01*
X12921444Y-12951346D02*
X12921444Y-12979917D01*
X12921444Y-12979917D02*
X12911920Y-13018013D01*
X12911920Y-13018013D02*
X12902396Y-13037060D01*
X12902396Y-13037060D02*
X12883349Y-13056108D01*
X12883349Y-13056108D02*
X12854777Y-13065632D01*
X12854777Y-13065632D02*
X12807158Y-13065632D01*
X13007158Y-13065632D02*
X13007158Y-12932298D01*
X13007158Y-12970394D02*
X13016682Y-12951346D01*
X13016682Y-12951346D02*
X13026206Y-12941822D01*
X13026206Y-12941822D02*
X13045253Y-12932298D01*
X13045253Y-12932298D02*
X13064301Y-12932298D01*
X13130968Y-13065632D02*
X13130968Y-12932298D01*
X13130968Y-12865632D02*
X13121444Y-12875156D01*
X13121444Y-12875156D02*
X13130968Y-12884679D01*
X13130968Y-12884679D02*
X13140492Y-12875156D01*
X13140492Y-12875156D02*
X13130968Y-12865632D01*
X13130968Y-12865632D02*
X13130968Y-12884679D01*
X13254777Y-13065632D02*
X13235730Y-13056108D01*
X13235730Y-13056108D02*
X13226206Y-13037060D01*
X13226206Y-13037060D02*
X13226206Y-12865632D01*
X13359539Y-13065632D02*
X13340492Y-13056108D01*
X13340492Y-13056108D02*
X13330968Y-13037060D01*
X13330968Y-13037060D02*
X13330968Y-12865632D01*
X13588111Y-13065632D02*
X13588111Y-12865632D01*
X13588111Y-12865632D02*
X13654777Y-13008489D01*
X13654777Y-13008489D02*
X13721444Y-12865632D01*
X13721444Y-12865632D02*
X13721444Y-13065632D01*
X13902396Y-13065632D02*
X13902396Y-12960870D01*
X13902396Y-12960870D02*
X13892873Y-12941822D01*
X13892873Y-12941822D02*
X13873825Y-12932298D01*
X13873825Y-12932298D02*
X13835730Y-12932298D01*
X13835730Y-12932298D02*
X13816682Y-12941822D01*
X13902396Y-13056108D02*
X13883349Y-13065632D01*
X13883349Y-13065632D02*
X13835730Y-13065632D01*
X13835730Y-13065632D02*
X13816682Y-13056108D01*
X13816682Y-13056108D02*
X13807158Y-13037060D01*
X13807158Y-13037060D02*
X13807158Y-13018013D01*
X13807158Y-13018013D02*
X13816682Y-12998965D01*
X13816682Y-12998965D02*
X13835730Y-12989441D01*
X13835730Y-12989441D02*
X13883349Y-12989441D01*
X13883349Y-12989441D02*
X13902396Y-12979917D01*
X13997634Y-12932298D02*
X13997634Y-13132298D01*
X13997634Y-12941822D02*
X14016682Y-12932298D01*
X14016682Y-12932298D02*
X14054777Y-12932298D01*
X14054777Y-12932298D02*
X14073825Y-12941822D01*
X14073825Y-12941822D02*
X14083349Y-12951346D01*
X14083349Y-12951346D02*
X14092873Y-12970394D01*
X14092873Y-12970394D02*
X14092873Y-13027536D01*
X14092873Y-13027536D02*
X14083349Y-13046584D01*
X14083349Y-13046584D02*
X14073825Y-13056108D01*
X14073825Y-13056108D02*
X14054777Y-13065632D01*
X14054777Y-13065632D02*
X14016682Y-13065632D01*
X14016682Y-13065632D02*
X13997634Y-13056108D01*
X14178587Y-13046584D02*
X14188111Y-13056108D01*
X14188111Y-13056108D02*
X14178587Y-13065632D01*
X14178587Y-13065632D02*
X14169063Y-13056108D01*
X14169063Y-13056108D02*
X14178587Y-13046584D01*
X14178587Y-13046584D02*
X14178587Y-13065632D01*
X14178587Y-12941822D02*
X14188111Y-12951346D01*
X14188111Y-12951346D02*
X14178587Y-12960870D01*
X14178587Y-12960870D02*
X14169063Y-12951346D01*
X14169063Y-12951346D02*
X14178587Y-12941822D01*
X14178587Y-12941822D02*
X14178587Y-12960870D01*
M02*
