%TF.GenerationSoftware,KiCad,Pcbnew,9.0.7-9.0.7~ubuntu25.10.1*%
%TF.CreationDate,2026-01-04T20:51:49+05:30*%
%TF.ProjectId,Nordic_BLE,4e6f7264-6963-45f4-924c-452e6b696361,rev?*%
%TF.SameCoordinates,Original*%
%TF.FileFunction,Copper,L4,Bot*%
%TF.FilePolarity,Positive*%
%FSLAX46Y46*%
G04 Gerber Fmt 4.6, Leading zero omitted, Abs format (unit mm)*
G04 Created by KiCad (PCBNEW 9.0.7-9.0.7~ubuntu25.10.1) date 2026-01-04 20:51:49*
%MOMM*%
%LPD*%
G01*
G04 APERTURE LIST*
G04 Aperture macros list*
%AMRoundRect*
0 Rectangle with rounded corners*
0 $1 Rounding radius*
0 $2 $3 $4 $5 $6 $7 $8 $9 X,Y pos of 4 corners*
0 Add a 4 corners polygon primitive as box body*
4,1,4,$2,$3,$4,$5,$6,$7,$8,$9,$2,$3,0*
0 Add four circle primitives for the rounded corners*
1,1,$1+$1,$2,$3*
1,1,$1+$1,$4,$5*
1,1,$1+$1,$6,$7*
1,1,$1+$1,$8,$9*
0 Add four rect primitives between the rounded corners*
20,1,$1+$1,$2,$3,$4,$5,0*
20,1,$1+$1,$4,$5,$6,$7,0*
20,1,$1+$1,$6,$7,$8,$9,0*
20,1,$1+$1,$8,$9,$2,$3,0*%
%AMFreePoly0*
4,1,5,0.000000,0.000000,-0.127690,0.000000,-0.127690,0.457200,0.000000,0.457200,0.000000,0.000000,0.000000,0.000000,$1*%
%AMFreePoly1*
4,1,23,0.500000,-0.750000,0.000000,-0.750000,0.000000,-0.745722,-0.065263,-0.745722,-0.191342,-0.711940,-0.304381,-0.646677,-0.396677,-0.554381,-0.461940,-0.441342,-0.495722,-0.315263,-0.495722,-0.250000,-0.500000,-0.250000,-0.500000,0.250000,-0.495722,0.250000,-0.495722,0.315263,-0.461940,0.441342,-0.396677,0.554381,-0.304381,0.646677,-0.191342,0.711940,-0.065263,0.745722,0.000000,0.745722,
0.000000,0.750000,0.500000,0.750000,0.500000,-0.750000,0.500000,-0.750000,$1*%
%AMFreePoly2*
4,1,23,0.000000,0.745722,0.065263,0.745722,0.191342,0.711940,0.304381,0.646677,0.396677,0.554381,0.461940,0.441342,0.495722,0.315263,0.495722,0.250000,0.500000,0.250000,0.500000,-0.250000,0.495722,-0.250000,0.495722,-0.315263,0.461940,-0.441342,0.396677,-0.554381,0.304381,-0.646677,0.191342,-0.711940,0.065263,-0.745722,0.000000,-0.745722,0.000000,-0.750000,-0.500000,-0.750000,
-0.500000,0.750000,0.000000,0.750000,0.000000,0.745722,0.000000,0.745722,$1*%
G04 Aperture macros list end*
%TA.AperFunction,ComponentPad*%
%ADD10C,1.700000*%
%TD*%
%TA.AperFunction,ComponentPad*%
%ADD11C,1.300000*%
%TD*%
%TA.AperFunction,ComponentPad*%
%ADD12C,3.000000*%
%TD*%
%TA.AperFunction,ComponentPad*%
%ADD13RoundRect,0.500000X-0.400000X0.000010X-0.400000X-0.000010X0.400000X-0.000010X0.400000X0.000010X0*%
%TD*%
%TA.AperFunction,ComponentPad*%
%ADD14RoundRect,0.500000X-0.600000X0.000010X-0.600000X-0.000010X0.600000X-0.000010X0.600000X0.000010X0*%
%TD*%
%TA.AperFunction,ComponentPad*%
%ADD15C,0.450000*%
%TD*%
%TA.AperFunction,SMDPad,CuDef*%
%ADD16FreePoly0,0.000000*%
%TD*%
%TA.AperFunction,SMDPad,CuDef*%
%ADD17RoundRect,0.063500X-0.063500X-0.114300X0.063500X-0.114300X0.063500X0.114300X-0.063500X0.114300X0*%
%TD*%
%TA.AperFunction,SMDPad,CuDef*%
%ADD18R,2.600000X3.000000*%
%TD*%
%TA.AperFunction,SMDPad,CuDef*%
%ADD19R,3.600000X3.000000*%
%TD*%
%TA.AperFunction,SMDPad,CuDef*%
%ADD20FreePoly1,0.000000*%
%TD*%
%TA.AperFunction,SMDPad,CuDef*%
%ADD21FreePoly2,0.000000*%
%TD*%
%TA.AperFunction,ViaPad*%
%ADD22C,0.450000*%
%TD*%
%TA.AperFunction,ViaPad*%
%ADD23C,0.600000*%
%TD*%
%TA.AperFunction,ViaPad*%
%ADD24C,0.500000*%
%TD*%
%TA.AperFunction,ViaPad*%
%ADD25C,1.700000*%
%TD*%
%TA.AperFunction,Conductor*%
%ADD26C,0.254000*%
%TD*%
%TA.AperFunction,Conductor*%
%ADD27C,0.177800*%
%TD*%
%TA.AperFunction,Conductor*%
%ADD28C,0.508000*%
%TD*%
%TA.AperFunction,Conductor*%
%ADD29C,0.300000*%
%TD*%
%TA.AperFunction,Conductor*%
%ADD30C,0.286000*%
%TD*%
%TA.AperFunction,Conductor*%
%ADD31C,0.267210*%
%TD*%
%TA.AperFunction,Conductor*%
%ADD32C,0.200000*%
%TD*%
%TA.AperFunction,Conductor*%
%ADD33C,1.700000*%
%TD*%
G04 APERTURE END LIST*
D10*
%TO.P,J23,1*%
%TO.N,P1.11*%
X158521695Y-88895600D03*
%TD*%
%TO.P,J50,1*%
%TO.N,GND*%
X140292550Y-116835600D03*
%TD*%
%TO.P,J3,1*%
%TO.N,P1.03*%
X150901695Y-88895600D03*
%TD*%
%TO.P,J4,1*%
%TO.N,P2.01*%
X145821695Y-121915600D03*
%TD*%
%TO.P,J25,1*%
%TO.N,P0.02*%
X163601695Y-124455600D03*
%TD*%
%TO.P,J11,1*%
%TO.N,P1.07*%
X145821695Y-88895600D03*
%TD*%
%TO.P,J52,1*%
%TO.N,NetJ52_1*%
X137752550Y-116835600D03*
%TD*%
%TO.P,J47,1*%
%TO.N,TDI*%
X140292550Y-114295600D03*
%TD*%
%TO.P,J9,1*%
%TO.N,P1.06*%
X148361695Y-86355600D03*
%TD*%
%TO.P,J14,1*%
%TO.N,P2.06*%
X153441695Y-124455600D03*
%TD*%
D11*
%TO.P,SW1,4*%
%TO.N,GND*%
X127616000Y-89052000D03*
%TO.P,SW1,5*%
X127616000Y-95352000D03*
%TD*%
D10*
%TO.P,J33,1*%
%TO.N,VDD_3V3*%
X166141695Y-121915600D03*
%TD*%
D12*
%TO.P,M4,*%
%TO.N,*%
X173401695Y-125000000D03*
%TD*%
D10*
%TO.P,J21,1*%
%TO.N,P2.08*%
X155981695Y-124455600D03*
%TD*%
%TO.P,J35,1*%
%TO.N,GND*%
X163601695Y-86355600D03*
%TD*%
%TO.P,J36,1*%
%TO.N,GND*%
X166141695Y-86355600D03*
%TD*%
%TO.P,J16,1*%
%TO.N,P2.07*%
X153441695Y-121915600D03*
%TD*%
D13*
%TO.P,J1_USB,1*%
%TO.N,GND*%
X131971695Y-100289600D03*
%TO.P,J1_USB,2*%
X131971695Y-111529600D03*
D14*
%TO.P,J1_USB,3*%
X127971695Y-100289600D03*
%TO.P,J1_USB,4*%
X127971695Y-111529600D03*
%TD*%
D10*
%TO.P,J13,1*%
%TO.N,P1.08*%
X145821695Y-86355600D03*
%TD*%
%TO.P,J29,1*%
%TO.N,P1.13*%
X155981695Y-88895600D03*
%TD*%
%TO.P,J26,1*%
%TO.N,P1.12*%
X158521695Y-86355600D03*
%TD*%
%TO.P,J49,1*%
%TO.N,TDO*%
X137752550Y-114295600D03*
%TD*%
%TO.P,J12,1*%
%TO.N,P2.05*%
X150901695Y-121915600D03*
%TD*%
%TO.P,J34,1*%
%TO.N,VCC_nRF*%
X166141695Y-88895600D03*
%TD*%
%TO.P,J17,1*%
%TO.N,UART_TX*%
X161061695Y-124455600D03*
%TD*%
%TO.P,J10,1*%
%TO.N,P2.04*%
X150901695Y-124455600D03*
%TD*%
%TO.P,J2,1*%
%TO.N,P2.00*%
X145821695Y-124455600D03*
%TD*%
%TO.P,J19,1*%
%TO.N,GND*%
X153441695Y-88895600D03*
%TD*%
%TO.P,J5,1*%
%TO.N,P1.04*%
X150901695Y-86355600D03*
%TD*%
%TO.P,J51,1*%
%TO.N,RST*%
X142832550Y-114295600D03*
%TD*%
D12*
%TO.P,M1,*%
%TO.N,*%
X128000000Y-85000000D03*
%TD*%
D10*
%TO.P,J7,1*%
%TO.N,P1.05*%
X148361695Y-88895600D03*
%TD*%
%TO.P,J48,1*%
%TO.N,NetJ48_1*%
X142832550Y-116835600D03*
%TD*%
D12*
%TO.P,M2,*%
%TO.N,*%
X128000000Y-125000000D03*
%TD*%
D10*
%TO.P,J24,1*%
%TO.N,P2.09*%
X155981695Y-121915600D03*
%TD*%
%TO.P,J18,1*%
%TO.N,GND*%
X158521695Y-121915600D03*
%TD*%
%TO.P,J22,1*%
%TO.N,UART_RX*%
X161061695Y-121915600D03*
%TD*%
%TO.P,J30,1*%
%TO.N,P0.04*%
X166141695Y-124455600D03*
%TD*%
%TO.P,J1,1*%
%TO.N,P1.02*%
X153441695Y-86355600D03*
%TD*%
%TO.P,J8,1*%
%TO.N,P2.03*%
X148361695Y-121915600D03*
%TD*%
%TO.P,J28,1*%
%TO.N,P0.03*%
X163601695Y-121915600D03*
%TD*%
%TO.P,J27,1*%
%TO.N,P2.10*%
X158521695Y-124455600D03*
%TD*%
%TO.P,J15,1*%
%TO.N,P1.09*%
X161061695Y-88895600D03*
%TD*%
%TO.P,J6,1*%
%TO.N,P2.02*%
X148361695Y-124455600D03*
%TD*%
D12*
%TO.P,M3,*%
%TO.N,*%
X173401695Y-85000000D03*
%TD*%
D15*
%TO.P,A1,2*%
%TO.N,GND*%
X169797000Y-114549600D03*
%TD*%
D10*
%TO.P,J31,1*%
%TO.N,P1.14*%
X155981695Y-86355600D03*
%TD*%
%TO.P,J20,1*%
%TO.N,P1.10*%
X161061695Y-86355600D03*
%TD*%
%TO.P,J32,1*%
%TO.N,VCC_nRF*%
X163601695Y-88895600D03*
%TD*%
D16*
%TO.P,J57,*%
%TO.N,*%
X162408345Y-119985200D03*
D17*
%TO.P,J57,1*%
%TO.N,UART_TX*%
X162331695Y-120010600D03*
%TO.P,J57,2*%
%TO.N,NetJ57_2*%
X162331695Y-119502600D03*
%TD*%
D18*
%TO.P,BT1,1*%
%TO.N,GND*%
X150901695Y-95635600D03*
D19*
%TO.P,BT1,2*%
%TO.N,3V*%
X150901695Y-117035600D03*
%TD*%
D20*
%TO.P,J5V_{o},1*%
%TO.N,+5V_{0}*%
X130922001Y-119126000D03*
D21*
%TO.P,J5V_{o},2*%
%TO.N,+5V*%
X132221999Y-119126000D03*
%TD*%
D16*
%TO.P,J58,*%
%TO.N,*%
X161138345Y-119985200D03*
D17*
%TO.P,J58,1*%
%TO.N,UART_RX*%
X161061695Y-120010600D03*
%TO.P,J58,2*%
%TO.N,NetJ58_2*%
X161061695Y-119502600D03*
%TD*%
D22*
%TO.N,NetJ58_2*%
X144551695Y-108326600D03*
%TO.N,NetJ57_2*%
X145313695Y-108326600D03*
%TO.N,NetJ54_1*%
X156870400Y-107188000D03*
X142519695Y-109215600D03*
%TO.N,NetJ53_1*%
X143916695Y-107183600D03*
X156972000Y-106426000D03*
%TO.N,NetR15_2*%
X134620000Y-114930600D03*
X135905048Y-103997952D03*
%TO.N,VDD_3V3*%
X136169695Y-99563600D03*
X135128000Y-117602000D03*
X134239000Y-87757000D03*
X136931695Y-108453600D03*
X130440622Y-91777581D03*
%TO.N,RST*%
X158496000Y-104648000D03*
X142265695Y-105151600D03*
X142773695Y-111247600D03*
%TO.N,NetR5_1*%
X138940000Y-108000000D03*
X138709695Y-111247600D03*
%TO.N,NetR4_1*%
X139564873Y-108012709D03*
X139979695Y-111247600D03*
%TO.N,+5V*%
X128143000Y-91948000D03*
X132019830Y-118237000D03*
X131318000Y-86614000D03*
X134010695Y-103500600D03*
X134247695Y-108309600D03*
%TO.N,DAP_USB_P*%
X134747000Y-105690390D03*
X134747000Y-106807000D03*
%TO.N,DAP_USB_N*%
X134747000Y-105029000D03*
X134288820Y-106242846D03*
D23*
%TO.N,3V*%
X132842000Y-89200000D03*
D22*
%TO.N,P2.02*%
X134000000Y-125000000D03*
%TO.N,P1.10*%
X166493195Y-104517400D03*
%TO.N,P1.09*%
X165608000Y-102108000D03*
%TO.N,P1.08*%
X148107695Y-104897600D03*
X142509885Y-92305110D03*
X139705915Y-93995380D03*
%TO.N,P1.07*%
X147218695Y-104389600D03*
X142019695Y-91651310D03*
X138582695Y-93975600D03*
%TO.N,P1.06*%
X146331465Y-103756370D03*
%TO.N,P1.05*%
X147218695Y-103119600D03*
%TO.N,P1.04*%
X148107695Y-102611600D03*
%TO.N,P1.03*%
X148869695Y-101976600D03*
%TO.N,P1.02*%
X149594085Y-102000000D03*
%TO.N,DECA*%
X158200000Y-101640000D03*
X154178000Y-98602800D03*
%TO.N,DECD*%
X152128235Y-98936750D03*
X153466800Y-97078800D03*
%TO.N,GND*%
X164063390Y-105903467D03*
D24*
X134213600Y-110032800D03*
D25*
X125476000Y-114300000D03*
D22*
X171683390Y-90663467D03*
X166603390Y-112253467D03*
D24*
X152933695Y-102992600D03*
D22*
X169143390Y-97013467D03*
X175493390Y-102093467D03*
X174223390Y-102093467D03*
X161523390Y-107173467D03*
X141181695Y-100875600D03*
X170413390Y-99553467D03*
X143721695Y-121195600D03*
X170413390Y-105903467D03*
X139217695Y-106421600D03*
X165333390Y-98283467D03*
X146261695Y-105955600D03*
X162793390Y-93203467D03*
X175493390Y-88123467D03*
X170413390Y-89393467D03*
X175493390Y-100823467D03*
X159359895Y-103983200D03*
X161523390Y-95743467D03*
X168121695Y-102091100D03*
X174223390Y-90663467D03*
X169113200Y-92964000D03*
D24*
X134239000Y-102616000D03*
D22*
X149885695Y-94483600D03*
X167436800Y-107899200D03*
X169143390Y-84313467D03*
X166603390Y-105903467D03*
X162793390Y-105903467D03*
X160253390Y-94473467D03*
X168121695Y-100821100D03*
X136906000Y-87376000D03*
X167873390Y-114793467D03*
X153881695Y-93255600D03*
X170413390Y-104633467D03*
X167873390Y-91933467D03*
X166603390Y-113523467D03*
X165333390Y-105903467D03*
X171683390Y-95743467D03*
X162835695Y-102110367D03*
X174223390Y-100823467D03*
X170413390Y-90663467D03*
D24*
X155219695Y-105278600D03*
D22*
X158961695Y-118655600D03*
X170413390Y-88123467D03*
X136494364Y-92100679D03*
X171683390Y-104633467D03*
X169143390Y-88123467D03*
X164063390Y-95743467D03*
X151341695Y-93255600D03*
X172931695Y-94902367D03*
X166603390Y-91933467D03*
X175493390Y-90663467D03*
X175493390Y-103363467D03*
X174223390Y-104633467D03*
D25*
X139210248Y-82541686D03*
D22*
X138201695Y-106421600D03*
X137566695Y-109723600D03*
X168100000Y-94900000D03*
X148965090Y-106435700D03*
X172953390Y-98283467D03*
X166603390Y-107173467D03*
X161523390Y-93203467D03*
X167873390Y-113523467D03*
X154076695Y-101849600D03*
X169265600Y-103987600D03*
X150901695Y-95753600D03*
X165333390Y-95743467D03*
X164063390Y-94473467D03*
D24*
X155219695Y-104135600D03*
D22*
X171683390Y-89393467D03*
X170391695Y-94902367D03*
X172953390Y-90663467D03*
X165333390Y-99553467D03*
X167873390Y-110983467D03*
X167429405Y-103098390D03*
X169143390Y-99553467D03*
X158623295Y-103983200D03*
X138641695Y-123735600D03*
D24*
X152933695Y-101849600D03*
D22*
X171683390Y-88123467D03*
X154076695Y-102992600D03*
X170413390Y-102093467D03*
X166116000Y-97536000D03*
X166116000Y-98806000D03*
X166603390Y-116063467D03*
D24*
X135509000Y-109728000D03*
D22*
X169143390Y-91933467D03*
X139217695Y-105405600D03*
X170413390Y-91933467D03*
X166603390Y-110983467D03*
X174223390Y-97013467D03*
X166581695Y-90715600D03*
X165333390Y-112253467D03*
X167873390Y-116063467D03*
X169367200Y-106375200D03*
X160159847Y-101485847D03*
X138201695Y-105405600D03*
X164063390Y-116063467D03*
X164063390Y-110983467D03*
X164105695Y-104904367D03*
X172953390Y-99553467D03*
X174223390Y-105903467D03*
X161523390Y-108443467D03*
X160295695Y-104904367D03*
X167233600Y-105105200D03*
X160452095Y-103957800D03*
X175493390Y-99553467D03*
X171683390Y-98283467D03*
X169143390Y-85583467D03*
X167873390Y-119873467D03*
X160253390Y-107173467D03*
X174223390Y-99553467D03*
X162793390Y-107173467D03*
X164063390Y-107173467D03*
X164063390Y-93203467D03*
X154076695Y-104135600D03*
X169143390Y-95743467D03*
X171683390Y-102093467D03*
X143721695Y-105955600D03*
X158983390Y-97013467D03*
X141181695Y-118655600D03*
X160253390Y-105903467D03*
X159918695Y-104415000D03*
X168121695Y-99551100D03*
X169143390Y-86853467D03*
X172953390Y-97013467D03*
X175493390Y-86853467D03*
X165333390Y-114793467D03*
X163851695Y-102110367D03*
X168121695Y-98281100D03*
X164063390Y-99553467D03*
D24*
X151790695Y-104135600D03*
D22*
X169316400Y-105206800D03*
X161523390Y-102093467D03*
X156421695Y-118655600D03*
X164867695Y-102110367D03*
X153881695Y-90715600D03*
X167843200Y-92964000D03*
X162793390Y-99553467D03*
X165333390Y-91933467D03*
X136101695Y-121195600D03*
X159791695Y-102357600D03*
X170413390Y-84313467D03*
X165333390Y-119873467D03*
X165333390Y-117333467D03*
X151341695Y-113575600D03*
X172953390Y-104633467D03*
X170413390Y-97013467D03*
X169143390Y-102093467D03*
X165333390Y-107173467D03*
X153162000Y-98044000D03*
X154076695Y-105278600D03*
X175493390Y-104633467D03*
X171683390Y-97013467D03*
D24*
X151790695Y-102992600D03*
D22*
X172953390Y-91933467D03*
X166116000Y-100076000D03*
X159004000Y-98044000D03*
X156421695Y-116967000D03*
X171683390Y-105903467D03*
X138200000Y-86200000D03*
X161523390Y-91933467D03*
X166603390Y-118603467D03*
X171683390Y-91933467D03*
X162835695Y-100840367D03*
X172953390Y-88123467D03*
X166603390Y-117333467D03*
X169121695Y-94902367D03*
X143721695Y-123735600D03*
X165333390Y-94473467D03*
X164063390Y-109713467D03*
X160253390Y-95743467D03*
D24*
X135128000Y-101854000D03*
D22*
X142824200Y-95885000D03*
X164063390Y-113523467D03*
X172953390Y-105903467D03*
X165333390Y-116063467D03*
X165333390Y-113523467D03*
X167873390Y-118603467D03*
X166065200Y-96570800D03*
X160253390Y-97013467D03*
D24*
X155219695Y-102992600D03*
D22*
X172953390Y-100823467D03*
X141181695Y-121195600D03*
X156421695Y-111035600D03*
X166603390Y-114793467D03*
X168503600Y-103124000D03*
X164063390Y-91933467D03*
X164063390Y-108443467D03*
X165333390Y-93203467D03*
X172953390Y-102093467D03*
X172953390Y-103363467D03*
X165333390Y-109713467D03*
X151917695Y-96769600D03*
X168121695Y-95741100D03*
X166603390Y-108443467D03*
D24*
X134112000Y-118872000D03*
D22*
X158983390Y-94473467D03*
X164041695Y-90715600D03*
X171683390Y-100823467D03*
X138641695Y-118655600D03*
X164063390Y-98283467D03*
X175493390Y-98283467D03*
X165333390Y-118603467D03*
X157759695Y-99309600D03*
X174223390Y-98283467D03*
X166603390Y-93203467D03*
X162793390Y-94473467D03*
X169143390Y-100823467D03*
D24*
X151790695Y-105278600D03*
D22*
X170413390Y-85583467D03*
D24*
X152933695Y-104135600D03*
D22*
X153035000Y-98980622D03*
X166603390Y-119873467D03*
X151917695Y-94483600D03*
X172953390Y-95743467D03*
X171683390Y-103363467D03*
X158648695Y-102230600D03*
X164063390Y-118603467D03*
X161523390Y-97013467D03*
X167873390Y-90663467D03*
X158983390Y-93203467D03*
X164063390Y-117333467D03*
X171653200Y-92964000D03*
X172953390Y-89393467D03*
X170383200Y-92964000D03*
D24*
X155219695Y-101849600D03*
D22*
X160253390Y-91933467D03*
X170413390Y-103363467D03*
X171661695Y-94902367D03*
X169143390Y-98283467D03*
X162793390Y-91933467D03*
X138641695Y-121195600D03*
X161523390Y-94473467D03*
X150598711Y-100078363D03*
X170413390Y-98283467D03*
X169143390Y-90663467D03*
D25*
X139210248Y-84582800D03*
D22*
X175493390Y-89393467D03*
X167233600Y-106883200D03*
X141181695Y-123735600D03*
X162793390Y-97013467D03*
X174223390Y-89393467D03*
X138641695Y-100875600D03*
X175493390Y-97013467D03*
X174223390Y-103363467D03*
X163851695Y-100840367D03*
X175493390Y-84313467D03*
D24*
X134239000Y-109220000D03*
D22*
X149885695Y-96769600D03*
X174223390Y-88123467D03*
X167873390Y-112253467D03*
X160253390Y-93203467D03*
X170413390Y-86853467D03*
X166065200Y-94488000D03*
X167873390Y-109713467D03*
X165375695Y-104904367D03*
X158983390Y-95743467D03*
X165333390Y-110983467D03*
D24*
X152933695Y-105278600D03*
D22*
X143721695Y-118655600D03*
X148742695Y-96769600D03*
X141513792Y-104556792D03*
X162793390Y-109713467D03*
X164063390Y-114793467D03*
X170413390Y-95743467D03*
D24*
X151790695Y-101849600D03*
D22*
X171683390Y-99553467D03*
X161523390Y-105903467D03*
D25*
X127558800Y-114300000D03*
D24*
X134210505Y-101849600D03*
D22*
X148801695Y-95795600D03*
X175493390Y-85583467D03*
X162793390Y-108443467D03*
X145991995Y-109208620D03*
X165333390Y-108443467D03*
X165333390Y-97013467D03*
X161523390Y-100823467D03*
X153881695Y-95795600D03*
X164063390Y-112253467D03*
X175493390Y-105903467D03*
X162835695Y-104904367D03*
X155092695Y-108707600D03*
X162793390Y-95743467D03*
X161565695Y-104904367D03*
X168121695Y-97011100D03*
X167873390Y-117333467D03*
X170413390Y-100823467D03*
X169143390Y-89393467D03*
X164063390Y-97013467D03*
X151341695Y-111035600D03*
X166603390Y-109713467D03*
X162793390Y-98283467D03*
X171683390Y-86853467D03*
%TO.N,VCC_nRF*%
X155345165Y-107627940D03*
X136144000Y-93472000D03*
X149631695Y-99563600D03*
X148742695Y-105457305D03*
X156489695Y-100833600D03*
D25*
%TO.N,WS_OUT*%
X127558800Y-116840000D03*
X125476000Y-116840000D03*
%TO.N,+5V_in*%
X136670248Y-84582800D03*
X136670248Y-82541686D03*
%TO.N,+5V_{0}*%
X127558800Y-119380000D03*
X125476000Y-119380000D03*
%TD*%
D26*
%TO.N,UART_TX*%
X161061695Y-124455600D02*
X162331695Y-123185600D01*
X162331695Y-123185600D02*
X162331695Y-120010600D01*
%TO.N,NetJ58_2*%
X155942345Y-112351240D02*
X161061695Y-117470600D01*
X146798345Y-112351240D02*
X155942345Y-112351240D01*
X144551695Y-110104600D02*
X144551695Y-108326600D01*
X161061695Y-119375600D02*
X161061695Y-117470600D01*
X144551695Y-110104600D02*
X146798345Y-112351240D01*
%TO.N,NetJ57_2*%
X147218695Y-111755600D02*
X156235695Y-111755600D01*
X145313695Y-109850600D02*
X147218695Y-111755600D01*
X162331695Y-119375600D02*
X162331695Y-117851600D01*
X156235695Y-111755600D02*
X162331695Y-117851600D01*
X145313695Y-109850600D02*
X145313695Y-108326600D01*
D27*
%TO.N,NetJ54_1*%
X149075500Y-109197500D02*
X146571700Y-106693700D01*
X156507795Y-109197500D02*
X149075500Y-109197500D01*
X143140700Y-106693700D02*
X142519695Y-107314705D01*
X156870400Y-107188000D02*
X156870695Y-107188295D01*
X156870695Y-107188295D02*
X156870695Y-108834600D01*
X142519695Y-107314705D02*
X142519695Y-109215600D01*
X146571700Y-106693700D02*
X143140700Y-106693700D01*
X156870695Y-108834600D02*
X156507795Y-109197500D01*
%TO.N,NetJ53_1*%
X157100162Y-106426000D02*
X157121135Y-106446973D01*
X156972000Y-106426000D02*
X157100162Y-106426000D01*
X156718000Y-109728000D02*
X148844000Y-109728000D01*
X157378695Y-106832695D02*
X157378695Y-109067305D01*
X148844000Y-109728000D02*
X146299600Y-107183600D01*
X157121135Y-106446973D02*
X157121135Y-106575135D01*
X157121135Y-106575135D02*
X157378695Y-106832695D01*
X157378695Y-109067305D02*
X156718000Y-109728000D01*
X146299600Y-107183600D02*
X143916695Y-107183600D01*
D26*
%TO.N,NetR15_2*%
X135788695Y-104114305D02*
X135905048Y-103997952D01*
X134874000Y-109093000D02*
X135788695Y-108178305D01*
X134620000Y-114930600D02*
X134874000Y-114676600D01*
X135788695Y-108178305D02*
X135788695Y-104114305D01*
X134874000Y-114676600D02*
X134874000Y-109093000D01*
%TO.N,UART_RX*%
X161061695Y-121915600D02*
X161061695Y-120010600D01*
D28*
%TO.N,VDD_3V3*%
X131572000Y-87757000D02*
X131191000Y-88138000D01*
X135636000Y-117602000D02*
X135128000Y-117602000D01*
D29*
X131107419Y-91777581D02*
X131191000Y-91694000D01*
D28*
X136271000Y-117729000D02*
X136271000Y-118237000D01*
X168148000Y-122682000D02*
X167381600Y-121915600D01*
X132080000Y-122428000D02*
X132080000Y-125476000D01*
X135890000Y-117602000D02*
X135128000Y-117602000D01*
X137287000Y-99822000D02*
X136906000Y-99441000D01*
X136169695Y-98704695D02*
X136169695Y-99563600D01*
D26*
X135128000Y-117602000D02*
X136144000Y-117602000D01*
D28*
X136779000Y-99314000D02*
X136419295Y-99314000D01*
D29*
X130440622Y-91777581D02*
X130853419Y-91777581D01*
D28*
X132080000Y-125476000D02*
X133223000Y-126619000D01*
X131191000Y-92202000D02*
X131191000Y-93726000D01*
X136017000Y-117983000D02*
X136017000Y-118491000D01*
X131191000Y-91440000D02*
X131191000Y-91694000D01*
X131191000Y-91694000D02*
X131191000Y-92202000D01*
X167381600Y-121915600D02*
X166141695Y-121915600D01*
X136906000Y-99441000D02*
X136169695Y-98704695D01*
D29*
X130440622Y-91777581D02*
X131107419Y-91777581D01*
D28*
X136017000Y-118491000D02*
X132080000Y-122428000D01*
X168148000Y-125730000D02*
X168148000Y-122682000D01*
D26*
X136144000Y-117602000D02*
X136271000Y-117729000D01*
D28*
X134239000Y-87757000D02*
X131572000Y-87757000D01*
X136271000Y-109114295D02*
X136271000Y-117221000D01*
D29*
X130766581Y-91777581D02*
X131191000Y-92202000D01*
D28*
X131191000Y-88138000D02*
X131191000Y-91440000D01*
X136017000Y-117983000D02*
X135636000Y-117602000D01*
X136271000Y-118237000D02*
X136017000Y-118491000D01*
X136906000Y-99441000D02*
X136779000Y-99314000D01*
X167259000Y-126619000D02*
X168148000Y-125730000D01*
X136931695Y-108453600D02*
X137287000Y-108098295D01*
D29*
X130853419Y-91777581D02*
X131191000Y-91440000D01*
D28*
X137287000Y-101600000D02*
X137287000Y-100680905D01*
X136931695Y-108453600D02*
X136271000Y-109114295D01*
X133223000Y-126619000D02*
X167259000Y-126619000D01*
X136419295Y-99314000D02*
X136169695Y-99563600D01*
X136271000Y-118237000D02*
X136017000Y-117983000D01*
X136271000Y-117221000D02*
X136271000Y-117729000D01*
X131191000Y-93726000D02*
X136169695Y-98704695D01*
X137287000Y-108098295D02*
X137287000Y-101600000D01*
X137287000Y-101600000D02*
X137287000Y-99822000D01*
D29*
X130440622Y-91777581D02*
X130766581Y-91777581D01*
D28*
X136271000Y-117221000D02*
X135890000Y-117602000D01*
D27*
%TO.N,RST*%
X144131300Y-107836700D02*
X143774826Y-108193174D01*
X143514400Y-111247600D02*
X142773695Y-111247600D01*
X146107659Y-107836700D02*
X144131300Y-107836700D01*
X157226000Y-110236000D02*
X148506959Y-110236000D01*
D26*
X141376695Y-109850600D02*
X141376695Y-106040600D01*
D27*
X143774826Y-108193174D02*
X143774826Y-110987174D01*
X143774826Y-110987174D02*
X143514400Y-111247600D01*
D26*
X141376695Y-109850600D02*
X142773695Y-111247600D01*
D27*
X157988000Y-109474000D02*
X157226000Y-110236000D01*
X157988000Y-105156000D02*
X157988000Y-109474000D01*
X158496000Y-104648000D02*
X157988000Y-105156000D01*
D26*
X141376695Y-106040600D02*
X142265695Y-105151600D01*
D27*
X148506959Y-110236000D02*
X146107659Y-107836700D01*
%TO.N,NetR5_1*%
X139065000Y-110892295D02*
X138709695Y-111247600D01*
X138940000Y-108000000D02*
X139065000Y-108125000D01*
X139065000Y-108125000D02*
X139065000Y-110892295D01*
%TO.N,NetR4_1*%
X139446000Y-108131582D02*
X139564873Y-108012709D01*
X139446000Y-110871000D02*
X139446000Y-108131582D01*
X139822600Y-111247600D02*
X139446000Y-110871000D01*
X139979695Y-111247600D02*
X139822600Y-111247600D01*
D28*
%TO.N,+5V*%
X133477000Y-117602000D02*
X133477000Y-108352295D01*
X131318000Y-86614000D02*
X130302000Y-86614000D01*
X133519695Y-108309600D02*
X134247695Y-108309600D01*
X132019830Y-118237000D02*
X132430915Y-118648085D01*
X128143000Y-93568905D02*
X133350000Y-98775905D01*
X133121695Y-107911600D02*
X133519695Y-108309600D01*
X133350000Y-98775905D02*
X133350000Y-103271095D01*
X133121695Y-107911600D02*
X133121695Y-103958410D01*
X128143000Y-92456000D02*
X128143000Y-93568905D01*
X132430915Y-118648085D02*
X133477000Y-117602000D01*
X133477000Y-108352295D02*
X133519695Y-108309600D01*
X128143000Y-91948000D02*
X128143000Y-92456000D01*
X129032000Y-87884000D02*
X129032000Y-91694000D01*
X133121695Y-103958410D02*
X133121695Y-103499400D01*
X130302000Y-86614000D02*
X129032000Y-87884000D01*
X128143000Y-92456000D02*
X128270000Y-92456000D01*
X133121695Y-103499400D02*
X133350000Y-103271095D01*
X133579505Y-103500600D02*
X134010695Y-103500600D01*
X133350000Y-103271095D02*
X133579505Y-103500600D01*
X128270000Y-92456000D02*
X128778000Y-91948000D01*
X133121695Y-103958410D02*
X133579505Y-103500600D01*
X129032000Y-91694000D02*
X128778000Y-91948000D01*
X128143000Y-91948000D02*
X128778000Y-91948000D01*
D30*
%TO.N,DAP_USB_P*%
X134747000Y-105690390D02*
X134854554Y-105797944D01*
X134854553Y-106699447D02*
X134747000Y-106807000D01*
X135001000Y-106151497D02*
X135001000Y-106345893D01*
X134854554Y-105797944D02*
G75*
G02*
X135001002Y-106151497I-353554J-353556D01*
G01*
X134854553Y-106699447D02*
G75*
G03*
X135000995Y-106345893I-353553J353547D01*
G01*
D31*
%TO.N,DAP_USB_N*%
X134112000Y-105589605D02*
X134112000Y-105815965D01*
X134313395Y-105208605D02*
X134239000Y-105283000D01*
X134112000Y-105815965D02*
G75*
G03*
X134288803Y-106242863I603700J-35D01*
G01*
X134747000Y-105029000D02*
G75*
G03*
X134313397Y-105208607I0J-613200D01*
G01*
X134239000Y-105283000D02*
G75*
G03*
X134112002Y-105589605I306600J-306600D01*
G01*
D28*
%TO.N,3V*%
X142524095Y-112268000D02*
X145064095Y-112268000D01*
X132842000Y-89200000D02*
X133523000Y-89200000D01*
X148361695Y-115565600D02*
X149431695Y-115565600D01*
X145064095Y-112268000D02*
X148361695Y-115565600D01*
X133523000Y-89200000D02*
X134137695Y-89814695D01*
X134137695Y-89814695D02*
X134137695Y-93624695D01*
X140389695Y-110133600D02*
X142524095Y-112268000D01*
X140389695Y-99876695D02*
X140389695Y-110133600D01*
X134137695Y-93624695D02*
X140389695Y-99876695D01*
X149431695Y-115565600D02*
X150901695Y-117035600D01*
D32*
%TO.N,P2.02*%
X148361695Y-124455600D02*
X146960295Y-125857000D01*
X146960295Y-125857000D02*
X144653000Y-125857000D01*
X144653000Y-125857000D02*
X143796000Y-125000000D01*
X143796000Y-125000000D02*
X134000000Y-125000000D01*
%TO.N,P1.10*%
X166624000Y-104394000D02*
X166500600Y-104517400D01*
X166500600Y-104517400D02*
X166493195Y-104517400D01*
X160846004Y-90608270D02*
X159512000Y-91942274D01*
X159512000Y-91942274D02*
X159512000Y-98298000D01*
X159512000Y-98298000D02*
X161534100Y-100320100D01*
X165217100Y-100320100D02*
X166624000Y-101727000D01*
X166624000Y-101727000D02*
X166624000Y-104394000D01*
X161359730Y-90608270D02*
X160846004Y-90608270D01*
X161061695Y-86355600D02*
X161544000Y-86837905D01*
X162263046Y-89704954D02*
X161359730Y-90608270D01*
X161534100Y-100320100D02*
X165217100Y-100320100D01*
X161544000Y-86837905D02*
X161544000Y-87360691D01*
X162263046Y-88079737D02*
X162263046Y-89704954D01*
X161544000Y-87360691D02*
X162263046Y-88079737D01*
%TO.N,P1.09*%
X164846000Y-101346000D02*
X161050074Y-101346000D01*
X158242000Y-91715295D02*
X161061695Y-88895600D01*
X158242000Y-98537926D02*
X158242000Y-91715295D01*
X165608000Y-102108000D02*
X164846000Y-101346000D01*
X161050074Y-101346000D02*
X158242000Y-98537926D01*
D26*
%TO.N,P1.08*%
X143916695Y-88514600D02*
X146075695Y-86355600D01*
X139705915Y-93980000D02*
X141483245Y-93980000D01*
X147853695Y-105151600D02*
X148107695Y-104897600D01*
X143916695Y-103500600D02*
X145567695Y-105151600D01*
X142509885Y-92953360D02*
X142509885Y-92305110D01*
X143916695Y-103500600D02*
X143916695Y-88514600D01*
X141483245Y-93980000D02*
X142509885Y-92953360D01*
X145567695Y-105151600D02*
X147853695Y-105151600D01*
X139705915Y-93995380D02*
X139705915Y-93980000D01*
%TO.N,P1.07*%
X139213295Y-93345000D02*
X141224000Y-93345000D01*
X141224000Y-93345000D02*
X142013535Y-92555465D01*
X138582695Y-93975600D02*
X139213295Y-93345000D01*
X141981885Y-92523815D02*
X141981885Y-91689120D01*
X144551695Y-90419600D02*
X145821695Y-89149600D01*
X144551695Y-102927230D02*
X144551695Y-90419600D01*
X142013535Y-92555465D02*
X141981885Y-92523815D01*
X146014065Y-104389600D02*
X147218695Y-104389600D01*
X144551695Y-102927230D02*
X146014065Y-104389600D01*
X141981885Y-91689120D02*
X142019695Y-91651310D01*
%TO.N,P1.06*%
X147091695Y-87625600D02*
X148361695Y-86355600D01*
X145186695Y-91435600D02*
X147091695Y-89530600D01*
X147091695Y-89530600D02*
X147091695Y-87625600D01*
X145186695Y-102230600D02*
X146331465Y-103375370D01*
X145186695Y-102230600D02*
X145186695Y-91435600D01*
X146331465Y-103756370D02*
X146331465Y-103375370D01*
%TO.N,P1.05*%
X145821695Y-92070600D02*
X148361695Y-89530600D01*
X145821695Y-101722600D02*
X145821695Y-92070600D01*
X148361695Y-89530600D02*
X148361695Y-88895600D01*
X145821695Y-101722600D02*
X147218695Y-103119600D01*
%TO.N,P1.04*%
X146583695Y-92578600D02*
X149631695Y-89530600D01*
X149631695Y-89530600D02*
X149631695Y-87625600D01*
X149631695Y-87625600D02*
X150901695Y-86355600D01*
X146583695Y-101087600D02*
X146583695Y-92578600D01*
X146583695Y-101087600D02*
X148107695Y-102611600D01*
%TO.N,P1.03*%
X150901695Y-88897680D02*
X151154655Y-89150640D01*
X147345695Y-92959600D02*
X151154655Y-89150640D01*
X147345695Y-100452600D02*
X148869695Y-101976600D01*
X147345695Y-100452600D02*
X147345695Y-92959600D01*
%TO.N,P1.02*%
X148107695Y-100071600D02*
X148107695Y-93467600D01*
X152171695Y-89403600D02*
X152171695Y-87625600D01*
X152171695Y-87625600D02*
X153441695Y-86355600D01*
X149594085Y-102000000D02*
X149594085Y-101557990D01*
X149594085Y-101557990D02*
X148107695Y-100071600D01*
X148107695Y-93467600D02*
X152171695Y-89403600D01*
D27*
%TO.N,DECA*%
X158200000Y-101640000D02*
X158216895Y-101623105D01*
X154067085Y-98631680D02*
X154095965Y-98602800D01*
X154095965Y-98602800D02*
X154178000Y-98602800D01*
X158216895Y-101290800D02*
X155557775Y-98631680D01*
X158216895Y-101623105D02*
X158216895Y-101290800D01*
X155557775Y-98631680D02*
X154067085Y-98631680D01*
%TO.N,DECD*%
X153451674Y-97093926D02*
X153244369Y-97093926D01*
X153466800Y-97078800D02*
X153451674Y-97093926D01*
X153244369Y-97093926D02*
X152128235Y-98210060D01*
X152128235Y-98210060D02*
X152128235Y-98936750D01*
%TO.N,GND*%
X151019695Y-95635600D02*
X151019695Y-95381600D01*
D33*
X125766816Y-114300000D02*
X127558800Y-114300000D01*
D27*
X150901695Y-95635600D02*
X151019695Y-95635600D01*
X151019695Y-95381600D02*
X151917695Y-94483600D01*
D33*
X139210248Y-84582800D02*
X139210248Y-82842686D01*
D28*
%TO.N,VCC_nRF*%
X150368000Y-101367295D02*
X150368000Y-103505000D01*
X147315600Y-83566000D02*
X147320000Y-83561600D01*
X167390400Y-88895600D02*
X166141695Y-88895600D01*
X149071990Y-105786600D02*
X149606000Y-105786600D01*
X150368000Y-103505000D02*
X150368000Y-100807904D01*
X150393695Y-101341600D02*
X150368000Y-101367295D01*
X150129048Y-100568952D02*
X150393695Y-100833600D01*
X150622000Y-106299000D02*
X150109600Y-105786600D01*
X148742695Y-105457305D02*
X149071990Y-105786600D01*
X149631695Y-100071600D02*
X149631695Y-99563600D01*
X167381600Y-83561600D02*
X168148000Y-84328000D01*
X150368000Y-106045000D02*
X150685500Y-106362500D01*
X139065000Y-91821000D02*
X139065000Y-87335000D01*
X149606000Y-105786600D02*
X149737400Y-105786600D01*
X150393695Y-101341600D02*
X150901695Y-100833600D01*
X150368000Y-103505000D02*
X150368000Y-105156000D01*
X163601695Y-88895600D02*
X166141695Y-88895600D01*
X155286225Y-107569000D02*
X155345165Y-107627940D01*
X150393695Y-100833600D02*
X150901695Y-100833600D01*
X149606000Y-105786600D02*
X150109600Y-105786600D01*
X137414000Y-93472000D02*
X139065000Y-91821000D01*
X149737400Y-105786600D02*
X150368000Y-105156000D01*
X136144000Y-93472000D02*
X137414000Y-93472000D01*
X150368000Y-105156000D02*
X150368000Y-106045000D01*
X150109600Y-105786600D02*
X151892000Y-107569000D01*
X149631695Y-100071600D02*
X150129048Y-100568952D01*
X150901695Y-100833600D02*
X156489695Y-100833600D01*
X150465699Y-106142699D02*
X150622000Y-106299000D01*
X151892000Y-107569000D02*
X155286225Y-107569000D01*
X168148000Y-84328000D02*
X168148000Y-88138000D01*
X147320000Y-83561600D02*
X167381600Y-83561600D01*
X150685500Y-106362500D02*
X150622000Y-106299000D01*
X142834000Y-83566000D02*
X147315600Y-83566000D01*
X168148000Y-88138000D02*
X167390400Y-88895600D01*
X150368000Y-100807904D02*
X150129048Y-100568952D01*
X139065000Y-87335000D02*
X142834000Y-83566000D01*
D33*
%TO.N,WS_OUT*%
X125773808Y-116840000D02*
X127558800Y-116840000D01*
%TO.N,+5V_in*%
X136670248Y-84582800D02*
X136670248Y-82500000D01*
%TO.N,+5V_{0}*%
X125766816Y-119380000D02*
X127558800Y-119380000D01*
D28*
X127127000Y-119253000D02*
X130526632Y-119253000D01*
X130526632Y-119253000D02*
X130549862Y-119229770D01*
%TD*%
%TA.AperFunction,Conductor*%
%TO.N,GND*%
G36*
X135575079Y-82761399D02*
G01*
X135611624Y-82811699D01*
X135616548Y-82842786D01*
X135616548Y-84686579D01*
X135657040Y-84890151D01*
X135736470Y-85081910D01*
X135736474Y-85081918D01*
X135851784Y-85254492D01*
X135998555Y-85401263D01*
X136171129Y-85516573D01*
X136171131Y-85516574D01*
X136171134Y-85516576D01*
X136362895Y-85596007D01*
X136566468Y-85636500D01*
X136566469Y-85636500D01*
X136774027Y-85636500D01*
X136774028Y-85636500D01*
X136977601Y-85596007D01*
X137169362Y-85516576D01*
X137341942Y-85401262D01*
X137398967Y-85344237D01*
X137454365Y-85316011D01*
X137515773Y-85325737D01*
X137540911Y-85344000D01*
X137541000Y-85344000D01*
X138303000Y-85344000D01*
X138303000Y-82842786D01*
X138322213Y-82783655D01*
X138372513Y-82747110D01*
X138403600Y-82742186D01*
X175384245Y-82742186D01*
X175394152Y-82742675D01*
X175412169Y-82744458D01*
X175535272Y-82756641D01*
X175554584Y-82760490D01*
X175685571Y-82800282D01*
X175703761Y-82807825D01*
X175824414Y-82872369D01*
X175824455Y-82872391D01*
X175840842Y-82883347D01*
X175946604Y-82970192D01*
X175946624Y-82970208D01*
X175960561Y-82984152D01*
X176047367Y-83089971D01*
X176058317Y-83106365D01*
X176122822Y-83227086D01*
X176130364Y-83245301D01*
X176170083Y-83376274D01*
X176173929Y-83395609D01*
X176187831Y-83536768D01*
X176188315Y-83546628D01*
X176188315Y-106575108D01*
X176169102Y-106634239D01*
X176118802Y-106670784D01*
X176087766Y-106675708D01*
X167640000Y-106679999D01*
X167640000Y-106680000D01*
X167640000Y-108458000D01*
X169851095Y-108458000D01*
X169910226Y-108477213D01*
X169946771Y-108527513D01*
X169951695Y-108558600D01*
X169951695Y-119375600D01*
X176087715Y-119375600D01*
X176146846Y-119394813D01*
X176183391Y-119445113D01*
X176188315Y-119476200D01*
X176188315Y-126476599D01*
X176188314Y-126476602D01*
X176188314Y-126489111D01*
X176188314Y-126498535D01*
X176188314Y-126511539D01*
X176187830Y-126521399D01*
X176173924Y-126662599D01*
X176170076Y-126681942D01*
X176130333Y-126812953D01*
X176122785Y-126831174D01*
X176058242Y-126951919D01*
X176047283Y-126968319D01*
X175960426Y-127074143D01*
X175946480Y-127088088D01*
X175840637Y-127174940D01*
X175824238Y-127185895D01*
X175775841Y-127211758D01*
X175703488Y-127250424D01*
X175685268Y-127257969D01*
X175566238Y-127294062D01*
X175554250Y-127297697D01*
X175534906Y-127301542D01*
X175393706Y-127315431D01*
X175383860Y-127315914D01*
X175382364Y-127315914D01*
X175348907Y-127315909D01*
X175348892Y-127315914D01*
X175339285Y-127315915D01*
X175339284Y-127315914D01*
X175339283Y-127315915D01*
X126506630Y-127315977D01*
X126496770Y-127315493D01*
X126353068Y-127301340D01*
X126333725Y-127297492D01*
X126200294Y-127257016D01*
X126182074Y-127249469D01*
X126059102Y-127183738D01*
X126042705Y-127172782D01*
X125934918Y-127084323D01*
X125920973Y-127070378D01*
X125838082Y-126969375D01*
X125832512Y-126962588D01*
X125821561Y-126946198D01*
X125755824Y-126823212D01*
X125748283Y-126805007D01*
X125707806Y-126671570D01*
X125703959Y-126652231D01*
X125699894Y-126610960D01*
X125689805Y-126508531D01*
X125689322Y-126498535D01*
X125691574Y-124888331D01*
X126296300Y-124888331D01*
X126296300Y-125111668D01*
X126325448Y-125333082D01*
X126325449Y-125333091D01*
X126383250Y-125548805D01*
X126383257Y-125548826D01*
X126468718Y-125755143D01*
X126580382Y-125948552D01*
X126580384Y-125948555D01*
X126580385Y-125948556D01*
X126716342Y-126125738D01*
X126874262Y-126283658D01*
X127051444Y-126419615D01*
X127051447Y-126419617D01*
X127244856Y-126531281D01*
X127451173Y-126616742D01*
X127451194Y-126616749D01*
X127666908Y-126674550D01*
X127666917Y-126674551D01*
X127888332Y-126703700D01*
X127888334Y-126703700D01*
X128111668Y-126703700D01*
X128333082Y-126674551D01*
X128333091Y-126674550D01*
X128548805Y-126616749D01*
X128548806Y-126616748D01*
X128548812Y-126616747D01*
X128548816Y-126616745D01*
X128548826Y-126616742D01*
X128726364Y-126543202D01*
X128755144Y-126531281D01*
X128948556Y-126419615D01*
X129125738Y-126283658D01*
X129283658Y-126125738D01*
X129419615Y-125948556D01*
X129531281Y-125755144D01*
X129608021Y-125569879D01*
X129616742Y-125548826D01*
X129616749Y-125548805D01*
X129674550Y-125333091D01*
X129674551Y-125333082D01*
X129703700Y-125111668D01*
X129703700Y-124888331D01*
X129674551Y-124666917D01*
X129674550Y-124666908D01*
X129616749Y-124451194D01*
X129616742Y-124451173D01*
X129531281Y-124244856D01*
X129419617Y-124051447D01*
X129364757Y-123979952D01*
X129283658Y-123874262D01*
X129125738Y-123716342D01*
X128948556Y-123580385D01*
X128948555Y-123580384D01*
X128948552Y-123580382D01*
X128755143Y-123468718D01*
X128548826Y-123383257D01*
X128548805Y-123383250D01*
X128333091Y-123325449D01*
X128333082Y-123325448D01*
X128111668Y-123296300D01*
X128111666Y-123296300D01*
X127888334Y-123296300D01*
X127888332Y-123296300D01*
X127666917Y-123325448D01*
X127666908Y-123325449D01*
X127451194Y-123383250D01*
X127451173Y-123383257D01*
X127244856Y-123468718D01*
X127051447Y-123580382D01*
X126874258Y-123716345D01*
X126716345Y-123874258D01*
X126580382Y-124051447D01*
X126468718Y-124244856D01*
X126383257Y-124451173D01*
X126383250Y-124451194D01*
X126325449Y-124666908D01*
X126325448Y-124666917D01*
X126296300Y-124888331D01*
X125691574Y-124888331D01*
X125691579Y-124884900D01*
X125697663Y-120534159D01*
X125716959Y-120475055D01*
X125767310Y-120438580D01*
X125798263Y-120433700D01*
X127662579Y-120433700D01*
X127662580Y-120433700D01*
X127793017Y-120407754D01*
X127867335Y-120392972D01*
X127886961Y-120391039D01*
X128713049Y-120391039D01*
X128713049Y-119811300D01*
X128732262Y-119752169D01*
X128782562Y-119715624D01*
X128813649Y-119710700D01*
X130238823Y-119710700D01*
X130297954Y-119729913D01*
X130325944Y-119760999D01*
X130341162Y-119787357D01*
X130374329Y-119830580D01*
X130467421Y-119923672D01*
X130510644Y-119956839D01*
X130571741Y-119992113D01*
X130624655Y-120022664D01*
X130674988Y-120043512D01*
X130674991Y-120043513D01*
X130751563Y-120064031D01*
X130802158Y-120077588D01*
X130838169Y-120082329D01*
X130856174Y-120084700D01*
X130856175Y-120084700D01*
X131422001Y-120084700D01*
X131468441Y-120079467D01*
X131525191Y-120052137D01*
X131586800Y-120043791D01*
X131621106Y-120059374D01*
X131621233Y-120059113D01*
X131631445Y-120064031D01*
X131631446Y-120064031D01*
X131631447Y-120064032D01*
X131721999Y-120084700D01*
X131722002Y-120084700D01*
X132287826Y-120084700D01*
X132301329Y-120082922D01*
X132341842Y-120077588D01*
X132469009Y-120043513D01*
X132519342Y-120022665D01*
X132633356Y-119956839D01*
X132676579Y-119923672D01*
X132769671Y-119830580D01*
X132802838Y-119787357D01*
X132868664Y-119673343D01*
X132889512Y-119623010D01*
X132923587Y-119495843D01*
X132930699Y-119441826D01*
X132930699Y-118837255D01*
X132949912Y-118778124D01*
X132960164Y-118766120D01*
X133359235Y-118367049D01*
X133843251Y-117883034D01*
X133903508Y-117778665D01*
X133934700Y-117662257D01*
X133934700Y-117541742D01*
X133934700Y-108867900D01*
X133953913Y-108808769D01*
X134004213Y-108772224D01*
X134035300Y-108767300D01*
X134307952Y-108767300D01*
X134424360Y-108736108D01*
X134528729Y-108675851D01*
X134613946Y-108590634D01*
X134674203Y-108486265D01*
X134705395Y-108369857D01*
X134705395Y-108249343D01*
X134674203Y-108132935D01*
X134672104Y-108129300D01*
X134613947Y-108028568D01*
X134613946Y-108028566D01*
X134528729Y-107943349D01*
X134514703Y-107935251D01*
X134424363Y-107883093D01*
X134424360Y-107883092D01*
X134393173Y-107874735D01*
X134307954Y-107851900D01*
X134307952Y-107851900D01*
X133750951Y-107851900D01*
X133743230Y-107849391D01*
X133735214Y-107850661D01*
X133714225Y-107839966D01*
X133691820Y-107832687D01*
X133679816Y-107822435D01*
X133608860Y-107751479D01*
X133580634Y-107696081D01*
X133579395Y-107680344D01*
X133579395Y-105935048D01*
X133598608Y-105875917D01*
X133648908Y-105839372D01*
X133711082Y-105839372D01*
X133761382Y-105875917D01*
X133779357Y-105919317D01*
X133797876Y-106036291D01*
X133797878Y-106036301D01*
X133843640Y-106177165D01*
X133849157Y-106187993D01*
X133860120Y-106233661D01*
X133860120Y-106299290D01*
X133889333Y-106408314D01*
X133889335Y-106408319D01*
X133945773Y-106506072D01*
X134025593Y-106585892D01*
X134035258Y-106591472D01*
X134123348Y-106642331D01*
X134123349Y-106642331D01*
X134123351Y-106642332D01*
X134238750Y-106673253D01*
X134238306Y-106674909D01*
X134286941Y-106698101D01*
X134316613Y-106752737D01*
X134318300Y-106771081D01*
X134318300Y-106863444D01*
X134347513Y-106972468D01*
X134347515Y-106972473D01*
X134403953Y-107070226D01*
X134483773Y-107150046D01*
X134575057Y-107202749D01*
X134581528Y-107206485D01*
X134581529Y-107206485D01*
X134581531Y-107206486D01*
X134690555Y-107235699D01*
X134690559Y-107235699D01*
X134690561Y-107235700D01*
X134690563Y-107235700D01*
X134803437Y-107235700D01*
X134803439Y-107235700D01*
X134803441Y-107235699D01*
X134803444Y-107235699D01*
X134912468Y-107206486D01*
X134912467Y-107206486D01*
X134912472Y-107206485D01*
X135010228Y-107150045D01*
X135090045Y-107070228D01*
X135146485Y-106972472D01*
X135173291Y-106872427D01*
X135183913Y-106847187D01*
X135186305Y-106843148D01*
X135225167Y-106789660D01*
X135269216Y-106703206D01*
X135270845Y-106700457D01*
X135291891Y-106681931D01*
X135311722Y-106662100D01*
X135315013Y-106661578D01*
X135317515Y-106659377D01*
X135345432Y-106656760D01*
X135373131Y-106652373D01*
X135376100Y-106653885D01*
X135379418Y-106653575D01*
X135403541Y-106667867D01*
X135428529Y-106680599D01*
X135430042Y-106683568D01*
X135432909Y-106685267D01*
X135444025Y-106711011D01*
X135456756Y-106735996D01*
X135457189Y-106741497D01*
X135457556Y-106742347D01*
X135457333Y-106743336D01*
X135457995Y-106751735D01*
X135457995Y-107999654D01*
X135438782Y-108058785D01*
X135428530Y-108070789D01*
X134609374Y-108889944D01*
X134565834Y-108965356D01*
X134565833Y-108965358D01*
X134543301Y-109049455D01*
X134543300Y-109049463D01*
X134543300Y-114430135D01*
X134524087Y-114489266D01*
X134473787Y-114525811D01*
X134468741Y-114527306D01*
X134454527Y-114531114D01*
X134454526Y-114531115D01*
X134356773Y-114587553D01*
X134356772Y-114587555D01*
X134276955Y-114667372D01*
X134276953Y-114667373D01*
X134220515Y-114765126D01*
X134220513Y-114765131D01*
X134191300Y-114874155D01*
X134191300Y-114987044D01*
X134220513Y-115096068D01*
X134220515Y-115096073D01*
X134276953Y-115193826D01*
X134356773Y-115273646D01*
X134424394Y-115312687D01*
X134454528Y-115330085D01*
X134454529Y-115330085D01*
X134454531Y-115330086D01*
X134563555Y-115359299D01*
X134563559Y-115359299D01*
X134563561Y-115359300D01*
X134563563Y-115359300D01*
X134676437Y-115359300D01*
X134676439Y-115359300D01*
X134676441Y-115359299D01*
X134676444Y-115359299D01*
X134785468Y-115330086D01*
X134785467Y-115330086D01*
X134785472Y-115330085D01*
X134883228Y-115273645D01*
X134963045Y-115193828D01*
X135019485Y-115096072D01*
X135028615Y-115062000D01*
X135048114Y-114989226D01*
X135074152Y-114944127D01*
X135077052Y-114941226D01*
X135077055Y-114941226D01*
X135138626Y-114879655D01*
X135182164Y-114804246D01*
X135182165Y-114804243D01*
X135182166Y-114804241D01*
X135204698Y-114720144D01*
X135204700Y-114720136D01*
X135204700Y-109271649D01*
X135223913Y-109212518D01*
X135234159Y-109200520D01*
X135983467Y-108451211D01*
X135983471Y-108451209D01*
X135991748Y-108442931D01*
X135991750Y-108442931D01*
X136053321Y-108381360D01*
X136096859Y-108305951D01*
X136096860Y-108305948D01*
X136096861Y-108305946D01*
X136119393Y-108221849D01*
X136119395Y-108221841D01*
X136119395Y-104427300D01*
X136138608Y-104368169D01*
X136163563Y-104345699D01*
X136163039Y-104345016D01*
X136168270Y-104341000D01*
X136168276Y-104340997D01*
X136248093Y-104261180D01*
X136304533Y-104163424D01*
X136309629Y-104144401D01*
X136333747Y-104054396D01*
X136333748Y-104054389D01*
X136333748Y-103941514D01*
X136333747Y-103941507D01*
X136304534Y-103832483D01*
X136304532Y-103832477D01*
X136248094Y-103734725D01*
X136168274Y-103654905D01*
X136070521Y-103598467D01*
X136070516Y-103598465D01*
X135961492Y-103569252D01*
X135961487Y-103569252D01*
X135848609Y-103569252D01*
X135848603Y-103569252D01*
X135739579Y-103598465D01*
X135739574Y-103598467D01*
X135641821Y-103654905D01*
X135641820Y-103654907D01*
X135562003Y-103734724D01*
X135562001Y-103734725D01*
X135505564Y-103832477D01*
X135505561Y-103832483D01*
X135476348Y-103941507D01*
X135476348Y-103989027D01*
X135472920Y-104015064D01*
X135457995Y-104070762D01*
X135457995Y-105745656D01*
X135456489Y-105750289D01*
X135457556Y-105755044D01*
X135447005Y-105779477D01*
X135438782Y-105804787D01*
X135434840Y-105807650D01*
X135432909Y-105812124D01*
X135410009Y-105825691D01*
X135388482Y-105841332D01*
X135383611Y-105841332D01*
X135379418Y-105843816D01*
X135352916Y-105841332D01*
X135326308Y-105841332D01*
X135322367Y-105838468D01*
X135317515Y-105838014D01*
X135303016Y-105824409D01*
X135276008Y-105804787D01*
X135270845Y-105796934D01*
X135269205Y-105794167D01*
X135225163Y-105707729D01*
X135186312Y-105654256D01*
X135183915Y-105650210D01*
X135182656Y-105644599D01*
X135173293Y-105624968D01*
X135146487Y-105524922D01*
X135146484Y-105524916D01*
X135090046Y-105427163D01*
X135086031Y-105421931D01*
X135088294Y-105420194D01*
X135065487Y-105375432D01*
X135075213Y-105314024D01*
X135086812Y-105298058D01*
X135086031Y-105297459D01*
X135090042Y-105292230D01*
X135090045Y-105292228D01*
X135146485Y-105194472D01*
X135151581Y-105175449D01*
X135175699Y-105085444D01*
X135175700Y-105085437D01*
X135175700Y-104972562D01*
X135175699Y-104972555D01*
X135146486Y-104863531D01*
X135146484Y-104863526D01*
X135090046Y-104765773D01*
X135010226Y-104685953D01*
X134912473Y-104629515D01*
X134912468Y-104629513D01*
X134803444Y-104600300D01*
X134803439Y-104600300D01*
X134690561Y-104600300D01*
X134690555Y-104600300D01*
X134581531Y-104629513D01*
X134581530Y-104629513D01*
X134523702Y-104662901D01*
X134483776Y-104685953D01*
X134483769Y-104685957D01*
X134438114Y-104731611D01*
X134398075Y-104756149D01*
X134382126Y-104761332D01*
X134248819Y-104829257D01*
X134127776Y-104917201D01*
X134098881Y-104946098D01*
X134098879Y-104946098D01*
X134098879Y-104946100D01*
X134038266Y-105006712D01*
X134029955Y-105015023D01*
X134029950Y-105015025D01*
X133946801Y-105098174D01*
X133946798Y-105098177D01*
X133946798Y-105098178D01*
X133937148Y-105112620D01*
X133862431Y-105224442D01*
X133862428Y-105224447D01*
X133804319Y-105364738D01*
X133778662Y-105493731D01*
X133748283Y-105547978D01*
X133691820Y-105574009D01*
X133630840Y-105561879D01*
X133588636Y-105516224D01*
X133579395Y-105474106D01*
X133579395Y-104189666D01*
X133581903Y-104181945D01*
X133580634Y-104173929D01*
X133591328Y-104152940D01*
X133598608Y-104130535D01*
X133608860Y-104118531D01*
X133739626Y-103987765D01*
X133795024Y-103959539D01*
X133810761Y-103958300D01*
X134070952Y-103958300D01*
X134187360Y-103927108D01*
X134291729Y-103866851D01*
X134376946Y-103781634D01*
X134437203Y-103677265D01*
X134468395Y-103560857D01*
X134468395Y-103440343D01*
X134437203Y-103323935D01*
X134376946Y-103219566D01*
X134291729Y-103134349D01*
X134280315Y-103127759D01*
X134187363Y-103074093D01*
X134187360Y-103074092D01*
X134156173Y-103065735D01*
X134070954Y-103042900D01*
X134070952Y-103042900D01*
X133908300Y-103042900D01*
X133849169Y-103023687D01*
X133812624Y-102973387D01*
X133807700Y-102942300D01*
X133807700Y-98715650D01*
X133807699Y-98715643D01*
X133795523Y-98670202D01*
X133792585Y-98659239D01*
X133776508Y-98599239D01*
X133776507Y-98599238D01*
X133776507Y-98599236D01*
X133716252Y-98494872D01*
X133716251Y-98494870D01*
X128630165Y-93408784D01*
X128601939Y-93353386D01*
X128600700Y-93337649D01*
X128600700Y-92814256D01*
X128619913Y-92755125D01*
X128630165Y-92743121D01*
X129144252Y-92229034D01*
X129196221Y-92177065D01*
X129398251Y-91975035D01*
X129458508Y-91870666D01*
X129479208Y-91793413D01*
X129489700Y-91754257D01*
X129489700Y-91721136D01*
X130011922Y-91721136D01*
X130011922Y-91834025D01*
X130041135Y-91943049D01*
X130041137Y-91943054D01*
X130097575Y-92040807D01*
X130177395Y-92120627D01*
X130213969Y-92141743D01*
X130275150Y-92177066D01*
X130275151Y-92177066D01*
X130275153Y-92177067D01*
X130384177Y-92206280D01*
X130384181Y-92206280D01*
X130384183Y-92206281D01*
X130384185Y-92206281D01*
X130497059Y-92206281D01*
X130497061Y-92206281D01*
X130497065Y-92206280D01*
X130597127Y-92179469D01*
X130618130Y-92180569D01*
X130638901Y-92177280D01*
X130648479Y-92182160D01*
X130659216Y-92182723D01*
X130694299Y-92205506D01*
X130703835Y-92215042D01*
X130732061Y-92270440D01*
X130733300Y-92286177D01*
X130733300Y-93786260D01*
X130764493Y-93902669D01*
X130814410Y-93989128D01*
X130824749Y-94007035D01*
X135682531Y-98864817D01*
X135710756Y-98920213D01*
X135711995Y-98935950D01*
X135711995Y-99623860D01*
X135743188Y-99740269D01*
X135797343Y-99834068D01*
X135803444Y-99844635D01*
X135888660Y-99929851D01*
X135888662Y-99929852D01*
X135993025Y-99990106D01*
X135993029Y-99990108D01*
X136109437Y-100021300D01*
X136229953Y-100021300D01*
X136346361Y-99990108D01*
X136450730Y-99929851D01*
X136528012Y-99852567D01*
X136542210Y-99845333D01*
X136553476Y-99834068D01*
X136569212Y-99831575D01*
X136583409Y-99824342D01*
X136599147Y-99826834D01*
X136614884Y-99824342D01*
X136629078Y-99831574D01*
X136644818Y-99834067D01*
X136670282Y-99852568D01*
X136799835Y-99982121D01*
X136828061Y-100037519D01*
X136829300Y-100053256D01*
X136829300Y-107867039D01*
X136810087Y-107926170D01*
X136799835Y-107938174D01*
X135904749Y-108833260D01*
X135904748Y-108833262D01*
X135844492Y-108937628D01*
X135844489Y-108937635D01*
X135814350Y-109050120D01*
X135814347Y-109050131D01*
X135813300Y-109054036D01*
X135813300Y-116989744D01*
X135810791Y-116997464D01*
X135812061Y-117005481D01*
X135801366Y-117026469D01*
X135794087Y-117048875D01*
X135783835Y-117060879D01*
X135729879Y-117114835D01*
X135674481Y-117143061D01*
X135658744Y-117144300D01*
X135067740Y-117144300D01*
X134951331Y-117175493D01*
X134846968Y-117235747D01*
X134846967Y-117235748D01*
X134846966Y-117235749D01*
X134761749Y-117320966D01*
X134761748Y-117320967D01*
X134761747Y-117320968D01*
X134701493Y-117425331D01*
X134670300Y-117541740D01*
X134670300Y-117662259D01*
X134701493Y-117778668D01*
X134741754Y-117848402D01*
X134761749Y-117883034D01*
X134846966Y-117968251D01*
X134846968Y-117968252D01*
X134951331Y-118028506D01*
X134951335Y-118028508D01*
X135067743Y-118059700D01*
X135404744Y-118059700D01*
X135412464Y-118062208D01*
X135420481Y-118060939D01*
X135441469Y-118071633D01*
X135463875Y-118078913D01*
X135475879Y-118089165D01*
X135529835Y-118143121D01*
X135558061Y-118198519D01*
X135559300Y-118214256D01*
X135559300Y-118259744D01*
X135540087Y-118318875D01*
X135529835Y-118330879D01*
X131713749Y-122146965D01*
X131713748Y-122146967D01*
X131653491Y-122251334D01*
X131653492Y-122251335D01*
X131622300Y-122367739D01*
X131622300Y-125536260D01*
X131653493Y-125652669D01*
X131712657Y-125755144D01*
X131713749Y-125757035D01*
X132941965Y-126985251D01*
X132941967Y-126985252D01*
X133046330Y-127045506D01*
X133046334Y-127045508D01*
X133162742Y-127076700D01*
X167319258Y-127076700D01*
X167435666Y-127045508D01*
X167540035Y-126985251D01*
X168514251Y-126011035D01*
X168574508Y-125906666D01*
X168605700Y-125790257D01*
X168605700Y-125669742D01*
X168605700Y-124888331D01*
X171697995Y-124888331D01*
X171697995Y-125111668D01*
X171727143Y-125333082D01*
X171727144Y-125333091D01*
X171784945Y-125548805D01*
X171784952Y-125548826D01*
X171870413Y-125755143D01*
X171982077Y-125948552D01*
X171982079Y-125948555D01*
X171982080Y-125948556D01*
X172118037Y-126125738D01*
X172275957Y-126283658D01*
X172453139Y-126419615D01*
X172453142Y-126419617D01*
X172646551Y-126531281D01*
X172852868Y-126616742D01*
X172852889Y-126616749D01*
X173068603Y-126674550D01*
X173068612Y-126674551D01*
X173290027Y-126703700D01*
X173290029Y-126703700D01*
X173513363Y-126703700D01*
X173734777Y-126674551D01*
X173734786Y-126674550D01*
X173950500Y-126616749D01*
X173950501Y-126616748D01*
X173950507Y-126616747D01*
X173950511Y-126616745D01*
X173950521Y-126616742D01*
X174128059Y-126543202D01*
X174156839Y-126531281D01*
X174350251Y-126419615D01*
X174527433Y-126283658D01*
X174685353Y-126125738D01*
X174821310Y-125948556D01*
X174932976Y-125755144D01*
X175009716Y-125569879D01*
X175018437Y-125548826D01*
X175018444Y-125548805D01*
X175076245Y-125333091D01*
X175076246Y-125333082D01*
X175105395Y-125111668D01*
X175105395Y-124888331D01*
X175076246Y-124666917D01*
X175076245Y-124666908D01*
X175018444Y-124451194D01*
X175018437Y-124451173D01*
X174932976Y-124244856D01*
X174821312Y-124051447D01*
X174766452Y-123979952D01*
X174685353Y-123874262D01*
X174527433Y-123716342D01*
X174350251Y-123580385D01*
X174350250Y-123580384D01*
X174350247Y-123580382D01*
X174156838Y-123468718D01*
X173950521Y-123383257D01*
X173950500Y-123383250D01*
X173734786Y-123325449D01*
X173734777Y-123325448D01*
X173513363Y-123296300D01*
X173513361Y-123296300D01*
X173290029Y-123296300D01*
X173290027Y-123296300D01*
X173068612Y-123325448D01*
X173068603Y-123325449D01*
X172852889Y-123383250D01*
X172852868Y-123383257D01*
X172646551Y-123468718D01*
X172453142Y-123580382D01*
X172275953Y-123716345D01*
X172118040Y-123874258D01*
X171982077Y-124051447D01*
X171870413Y-124244856D01*
X171784952Y-124451173D01*
X171784945Y-124451194D01*
X171727144Y-124666908D01*
X171727143Y-124666917D01*
X171697995Y-124888331D01*
X168605700Y-124888331D01*
X168605700Y-122621743D01*
X168603531Y-122613650D01*
X168574508Y-122505335D01*
X168574507Y-122505333D01*
X168514251Y-122400965D01*
X167662635Y-121549349D01*
X167662632Y-121549347D01*
X167558269Y-121489093D01*
X167558266Y-121489092D01*
X167527079Y-121480735D01*
X167441860Y-121457900D01*
X167441858Y-121457900D01*
X167441857Y-121457900D01*
X167156915Y-121457900D01*
X167097784Y-121438687D01*
X167073269Y-121413190D01*
X166960158Y-121243907D01*
X166813387Y-121097136D01*
X166640813Y-120981826D01*
X166640805Y-120981822D01*
X166534493Y-120937786D01*
X166449048Y-120902393D01*
X166449044Y-120902392D01*
X166449047Y-120902392D01*
X166285967Y-120869954D01*
X166245475Y-120861900D01*
X166037915Y-120861900D01*
X165997423Y-120869954D01*
X165834343Y-120902392D01*
X165642584Y-120981822D01*
X165642576Y-120981826D01*
X165470002Y-121097136D01*
X165470001Y-121097138D01*
X165323233Y-121243906D01*
X165323231Y-121243907D01*
X165207921Y-121416481D01*
X165207917Y-121416489D01*
X165128487Y-121608248D01*
X165087995Y-121811820D01*
X165087995Y-122019379D01*
X165128487Y-122222951D01*
X165207917Y-122414710D01*
X165207921Y-122414718D01*
X165323231Y-122587292D01*
X165470002Y-122734063D01*
X165642576Y-122849373D01*
X165642578Y-122849374D01*
X165642581Y-122849376D01*
X165834342Y-122928807D01*
X166037915Y-122969300D01*
X166037916Y-122969300D01*
X166245474Y-122969300D01*
X166245475Y-122969300D01*
X166449048Y-122928807D01*
X166640809Y-122849376D01*
X166813389Y-122734062D01*
X166960157Y-122587294D01*
X167070637Y-122421949D01*
X167119464Y-122383457D01*
X167181590Y-122381016D01*
X167225418Y-122406704D01*
X167660835Y-122842121D01*
X167689061Y-122897519D01*
X167690300Y-122913256D01*
X167690300Y-125498744D01*
X167671087Y-125557875D01*
X167660835Y-125569879D01*
X167098879Y-126131835D01*
X167043481Y-126160061D01*
X167027744Y-126161300D01*
X147328362Y-126161300D01*
X147269231Y-126142087D01*
X147232686Y-126091787D01*
X147232686Y-126029613D01*
X147257227Y-125989565D01*
X147340130Y-125906662D01*
X147811399Y-125435391D01*
X147866795Y-125407167D01*
X147921027Y-125413585D01*
X148054342Y-125468807D01*
X148257915Y-125509300D01*
X148257916Y-125509300D01*
X148465474Y-125509300D01*
X148465475Y-125509300D01*
X148669048Y-125468807D01*
X148860809Y-125389376D01*
X149033389Y-125274062D01*
X149180157Y-125127294D01*
X149295471Y-124954714D01*
X149374902Y-124762953D01*
X149415395Y-124559380D01*
X149415395Y-124351820D01*
X149847995Y-124351820D01*
X149847995Y-124559379D01*
X149888487Y-124762951D01*
X149967917Y-124954710D01*
X149967921Y-124954718D01*
X150083231Y-125127292D01*
X150230002Y-125274063D01*
X150402576Y-125389373D01*
X150402578Y-125389374D01*
X150402581Y-125389376D01*
X150594342Y-125468807D01*
X150797915Y-125509300D01*
X150797916Y-125509300D01*
X151005474Y-125509300D01*
X151005475Y-125509300D01*
X151209048Y-125468807D01*
X151400809Y-125389376D01*
X151573389Y-125274062D01*
X151720157Y-125127294D01*
X151835471Y-124954714D01*
X151914902Y-124762953D01*
X151955395Y-124559380D01*
X151955395Y-124351820D01*
X152387995Y-124351820D01*
X152387995Y-124559379D01*
X152428487Y-124762951D01*
X152507917Y-124954710D01*
X152507921Y-124954718D01*
X152623231Y-125127292D01*
X152770002Y-125274063D01*
X152942576Y-125389373D01*
X152942578Y-125389374D01*
X152942581Y-125389376D01*
X153134342Y-125468807D01*
X153337915Y-125509300D01*
X153337916Y-125509300D01*
X153545474Y-125509300D01*
X153545475Y-125509300D01*
X153749048Y-125468807D01*
X153940809Y-125389376D01*
X154113389Y-125274062D01*
X154260157Y-125127294D01*
X154375471Y-124954714D01*
X154454902Y-124762953D01*
X154495395Y-124559380D01*
X154495395Y-124351820D01*
X154927995Y-124351820D01*
X154927995Y-124559379D01*
X154968487Y-124762951D01*
X155047917Y-124954710D01*
X155047921Y-124954718D01*
X155163231Y-125127292D01*
X155310002Y-125274063D01*
X155482576Y-125389373D01*
X155482578Y-125389374D01*
X155482581Y-125389376D01*
X155674342Y-125468807D01*
X155877915Y-125509300D01*
X155877916Y-125509300D01*
X156085474Y-125509300D01*
X156085475Y-125509300D01*
X156289048Y-125468807D01*
X156480809Y-125389376D01*
X156653389Y-125274062D01*
X156800157Y-125127294D01*
X156915471Y-124954714D01*
X156994902Y-124762953D01*
X157035395Y-124559380D01*
X157035395Y-124351820D01*
X157467995Y-124351820D01*
X157467995Y-124559379D01*
X157508487Y-124762951D01*
X157587917Y-124954710D01*
X157587921Y-124954718D01*
X157703231Y-125127292D01*
X157850002Y-125274063D01*
X158022576Y-125389373D01*
X158022578Y-125389374D01*
X158022581Y-125389376D01*
X158214342Y-125468807D01*
X158417915Y-125509300D01*
X158417916Y-125509300D01*
X158625474Y-125509300D01*
X158625475Y-125509300D01*
X158829048Y-125468807D01*
X159020809Y-125389376D01*
X159193389Y-125274062D01*
X159340157Y-125127294D01*
X159455471Y-124954714D01*
X159534902Y-124762953D01*
X159575395Y-124559380D01*
X159575395Y-124351820D01*
X159534902Y-124148247D01*
X159455471Y-123956486D01*
X159340157Y-123783906D01*
X159193389Y-123637138D01*
X159193387Y-123637136D01*
X159020813Y-123521826D01*
X159020805Y-123521822D01*
X158935359Y-123486429D01*
X158829048Y-123442393D01*
X158829044Y-123442392D01*
X158829047Y-123442392D01*
X158665967Y-123409954D01*
X158625475Y-123401900D01*
X158417915Y-123401900D01*
X158377423Y-123409954D01*
X158214343Y-123442392D01*
X158022584Y-123521822D01*
X158022576Y-123521826D01*
X157850002Y-123637136D01*
X157850001Y-123637138D01*
X157703233Y-123783906D01*
X157703231Y-123783907D01*
X157587921Y-123956481D01*
X157587917Y-123956489D01*
X157508487Y-124148248D01*
X157467995Y-124351820D01*
X157035395Y-124351820D01*
X156994902Y-124148247D01*
X156915471Y-123956486D01*
X156800157Y-123783906D01*
X156653389Y-123637138D01*
X156653387Y-123637136D01*
X156480813Y-123521826D01*
X156480805Y-123521822D01*
X156395359Y-123486429D01*
X156289048Y-123442393D01*
X156289044Y-123442392D01*
X156289047Y-123442392D01*
X156125967Y-123409954D01*
X156085475Y-123401900D01*
X155877915Y-123401900D01*
X155837423Y-123409954D01*
X155674343Y-123442392D01*
X155482584Y-123521822D01*
X155482576Y-123521826D01*
X155310002Y-123637136D01*
X155310001Y-123637138D01*
X155163233Y-123783906D01*
X155163231Y-123783907D01*
X155047921Y-123956481D01*
X155047917Y-123956489D01*
X154968487Y-124148248D01*
X154927995Y-124351820D01*
X154495395Y-124351820D01*
X154454902Y-124148247D01*
X154375471Y-123956486D01*
X154260157Y-123783906D01*
X154113389Y-123637138D01*
X154113387Y-123637136D01*
X153940813Y-123521826D01*
X153940805Y-123521822D01*
X153855359Y-123486429D01*
X153749048Y-123442393D01*
X153749044Y-123442392D01*
X153749047Y-123442392D01*
X153585967Y-123409954D01*
X153545475Y-123401900D01*
X153337915Y-123401900D01*
X153297423Y-123409954D01*
X153134343Y-123442392D01*
X152942584Y-123521822D01*
X152942576Y-123521826D01*
X152770002Y-123637136D01*
X152770001Y-123637138D01*
X152623233Y-123783906D01*
X152623231Y-123783907D01*
X152507921Y-123956481D01*
X152507917Y-123956489D01*
X152428487Y-124148248D01*
X152387995Y-124351820D01*
X151955395Y-124351820D01*
X151914902Y-124148247D01*
X151835471Y-123956486D01*
X151720157Y-123783906D01*
X151573389Y-123637138D01*
X151573387Y-123637136D01*
X151400813Y-123521826D01*
X151400805Y-123521822D01*
X151315359Y-123486429D01*
X151209048Y-123442393D01*
X151209044Y-123442392D01*
X151209047Y-123442392D01*
X151045967Y-123409954D01*
X151005475Y-123401900D01*
X150797915Y-123401900D01*
X150757423Y-123409954D01*
X150594343Y-123442392D01*
X150402584Y-123521822D01*
X150402576Y-123521826D01*
X150230002Y-123637136D01*
X150230001Y-123637138D01*
X150083233Y-123783906D01*
X150083231Y-123783907D01*
X149967921Y-123956481D01*
X149967917Y-123956489D01*
X149888487Y-124148248D01*
X149847995Y-124351820D01*
X149415395Y-124351820D01*
X149374902Y-124148247D01*
X149295471Y-123956486D01*
X149180157Y-123783906D01*
X149033389Y-123637138D01*
X149033387Y-123637136D01*
X148860813Y-123521826D01*
X148860805Y-123521822D01*
X148775359Y-123486429D01*
X148669048Y-123442393D01*
X148669044Y-123442392D01*
X148669047Y-123442392D01*
X148505967Y-123409954D01*
X148465475Y-123401900D01*
X148257915Y-123401900D01*
X148217423Y-123409954D01*
X148054343Y-123442392D01*
X147862584Y-123521822D01*
X147862576Y-123521826D01*
X147690002Y-123637136D01*
X147690001Y-123637138D01*
X147543233Y-123783906D01*
X147543231Y-123783907D01*
X147427921Y-123956481D01*
X147427917Y-123956489D01*
X147348487Y-124148248D01*
X147307995Y-124351820D01*
X147307995Y-124559379D01*
X147348487Y-124762951D01*
X147403707Y-124896263D01*
X147408585Y-124958246D01*
X147381900Y-125005896D01*
X146863963Y-125523835D01*
X146808565Y-125552061D01*
X146792828Y-125553300D01*
X146407114Y-125553300D01*
X146347983Y-125534087D01*
X146311438Y-125483787D01*
X146311438Y-125421613D01*
X146347983Y-125371313D01*
X146351224Y-125369054D01*
X146474903Y-125286414D01*
X146493389Y-125274062D01*
X146640157Y-125127294D01*
X146755471Y-124954714D01*
X146834902Y-124762953D01*
X146875395Y-124559380D01*
X146875395Y-124351820D01*
X146834902Y-124148247D01*
X146755471Y-123956486D01*
X146640157Y-123783906D01*
X146493389Y-123637138D01*
X146493387Y-123637136D01*
X146320813Y-123521826D01*
X146320805Y-123521822D01*
X146235359Y-123486429D01*
X146129048Y-123442393D01*
X146129044Y-123442392D01*
X146129047Y-123442392D01*
X145965967Y-123409954D01*
X145925475Y-123401900D01*
X145717915Y-123401900D01*
X145677423Y-123409954D01*
X145514343Y-123442392D01*
X145322584Y-123521822D01*
X145322576Y-123521826D01*
X145150002Y-123637136D01*
X145150001Y-123637138D01*
X145003233Y-123783906D01*
X145003231Y-123783907D01*
X144887921Y-123956481D01*
X144887917Y-123956489D01*
X144808487Y-124148248D01*
X144767995Y-124351820D01*
X144767995Y-124559379D01*
X144808487Y-124762951D01*
X144887917Y-124954710D01*
X144887921Y-124954718D01*
X145003231Y-125127292D01*
X145150002Y-125274063D01*
X145292166Y-125369054D01*
X145330658Y-125417881D01*
X145333099Y-125480007D01*
X145298557Y-125531703D01*
X145240225Y-125553222D01*
X145236276Y-125553300D01*
X144820467Y-125553300D01*
X144761336Y-125534087D01*
X144749332Y-125523835D01*
X143982474Y-124756977D01*
X143913225Y-124716996D01*
X143913219Y-124716993D01*
X143835989Y-124696301D01*
X143835984Y-124696300D01*
X143835983Y-124696300D01*
X143835982Y-124696300D01*
X134344243Y-124696300D01*
X134285112Y-124677087D01*
X134273108Y-124666835D01*
X134263226Y-124656953D01*
X134165473Y-124600515D01*
X134165468Y-124600513D01*
X134056444Y-124571300D01*
X134056439Y-124571300D01*
X133943561Y-124571300D01*
X133943555Y-124571300D01*
X133834531Y-124600513D01*
X133834526Y-124600515D01*
X133736773Y-124656953D01*
X133736772Y-124656955D01*
X133656955Y-124736772D01*
X133656953Y-124736773D01*
X133600515Y-124834526D01*
X133600513Y-124834531D01*
X133571300Y-124943555D01*
X133571300Y-125056444D01*
X133600513Y-125165468D01*
X133600515Y-125165473D01*
X133656953Y-125263226D01*
X133736773Y-125343046D01*
X133834526Y-125399484D01*
X133834528Y-125399485D01*
X133834529Y-125399485D01*
X133834531Y-125399486D01*
X133943555Y-125428699D01*
X133943559Y-125428699D01*
X133943561Y-125428700D01*
X133943563Y-125428700D01*
X134056437Y-125428700D01*
X134056439Y-125428700D01*
X134056441Y-125428699D01*
X134056444Y-125428699D01*
X134165468Y-125399486D01*
X134165467Y-125399486D01*
X134165472Y-125399485D01*
X134263228Y-125343045D01*
X134273108Y-125333165D01*
X134328506Y-125304939D01*
X134344243Y-125303700D01*
X143628533Y-125303700D01*
X143687664Y-125322913D01*
X143699668Y-125333165D01*
X144356068Y-125989565D01*
X144384294Y-126044963D01*
X144374568Y-126106371D01*
X144330604Y-126150335D01*
X144284933Y-126161300D01*
X133454256Y-126161300D01*
X133395125Y-126142087D01*
X133383121Y-126131835D01*
X132567165Y-125315879D01*
X132538939Y-125260481D01*
X132537700Y-125244744D01*
X132537700Y-122659254D01*
X132556913Y-122600123D01*
X132567159Y-122588125D01*
X133343464Y-121811820D01*
X144767995Y-121811820D01*
X144767995Y-122019379D01*
X144808487Y-122222951D01*
X144887917Y-122414710D01*
X144887921Y-122414718D01*
X145003231Y-122587292D01*
X145150002Y-122734063D01*
X145322576Y-122849373D01*
X145322578Y-122849374D01*
X145322581Y-122849376D01*
X145514342Y-122928807D01*
X145717915Y-122969300D01*
X145717916Y-122969300D01*
X145925474Y-122969300D01*
X145925475Y-122969300D01*
X146129048Y-122928807D01*
X146320809Y-122849376D01*
X146493389Y-122734062D01*
X146640157Y-122587294D01*
X146755471Y-122414714D01*
X146834902Y-122222953D01*
X146875395Y-122019380D01*
X146875395Y-121811820D01*
X147307995Y-121811820D01*
X147307995Y-122019379D01*
X147348487Y-122222951D01*
X147427917Y-122414710D01*
X147427921Y-122414718D01*
X147543231Y-122587292D01*
X147690002Y-122734063D01*
X147862576Y-122849373D01*
X147862578Y-122849374D01*
X147862581Y-122849376D01*
X148054342Y-122928807D01*
X148257915Y-122969300D01*
X148257916Y-122969300D01*
X148465474Y-122969300D01*
X148465475Y-122969300D01*
X148669048Y-122928807D01*
X148860809Y-122849376D01*
X149033389Y-122734062D01*
X149180157Y-122587294D01*
X149295471Y-122414714D01*
X149374902Y-122222953D01*
X149415395Y-122019380D01*
X149415395Y-121811820D01*
X149847995Y-121811820D01*
X149847995Y-122019379D01*
X149888487Y-122222951D01*
X149967917Y-122414710D01*
X149967921Y-122414718D01*
X150083231Y-122587292D01*
X150230002Y-122734063D01*
X150402576Y-122849373D01*
X150402578Y-122849374D01*
X150402581Y-122849376D01*
X150594342Y-122928807D01*
X150797915Y-122969300D01*
X150797916Y-122969300D01*
X151005474Y-122969300D01*
X151005475Y-122969300D01*
X151209048Y-122928807D01*
X151400809Y-122849376D01*
X151573389Y-122734062D01*
X151720157Y-122587294D01*
X151835471Y-122414714D01*
X151914902Y-122222953D01*
X151955395Y-122019380D01*
X151955395Y-121811820D01*
X152387995Y-121811820D01*
X152387995Y-122019379D01*
X152428487Y-122222951D01*
X152507917Y-122414710D01*
X152507921Y-122414718D01*
X152623231Y-122587292D01*
X152770002Y-122734063D01*
X152942576Y-122849373D01*
X152942578Y-122849374D01*
X152942581Y-122849376D01*
X153134342Y-122928807D01*
X153337915Y-122969300D01*
X153337916Y-122969300D01*
X153545474Y-122969300D01*
X153545475Y-122969300D01*
X153749048Y-122928807D01*
X153940809Y-122849376D01*
X154113389Y-122734062D01*
X154260157Y-122587294D01*
X154375471Y-122414714D01*
X154454902Y-122222953D01*
X154495395Y-122019380D01*
X154495395Y-121811820D01*
X154927995Y-121811820D01*
X154927995Y-122019379D01*
X154968487Y-122222951D01*
X155047917Y-122414710D01*
X155047921Y-122414718D01*
X155163231Y-122587292D01*
X155310002Y-122734063D01*
X155482576Y-122849373D01*
X155482578Y-122849374D01*
X155482581Y-122849376D01*
X155674342Y-122928807D01*
X155877915Y-122969300D01*
X155877916Y-122969300D01*
X156085474Y-122969300D01*
X156085475Y-122969300D01*
X156289048Y-122928807D01*
X156480809Y-122849376D01*
X156653389Y-122734062D01*
X156800157Y-122587294D01*
X156915471Y-122414714D01*
X156994902Y-122222953D01*
X157035395Y-122019380D01*
X157035395Y-121811820D01*
X156994902Y-121608247D01*
X156915471Y-121416486D01*
X156800157Y-121243906D01*
X156653389Y-121097138D01*
X156653387Y-121097136D01*
X156480813Y-120981826D01*
X156480805Y-120981822D01*
X156374493Y-120937786D01*
X156289048Y-120902393D01*
X156289044Y-120902392D01*
X156289047Y-120902392D01*
X156125967Y-120869954D01*
X156085475Y-120861900D01*
X155877915Y-120861900D01*
X155837423Y-120869954D01*
X155674343Y-120902392D01*
X155482584Y-120981822D01*
X155482576Y-120981826D01*
X155310002Y-121097136D01*
X155310001Y-121097138D01*
X155163233Y-121243906D01*
X155163231Y-121243907D01*
X155047921Y-121416481D01*
X155047917Y-121416489D01*
X154968487Y-121608248D01*
X154927995Y-121811820D01*
X154495395Y-121811820D01*
X154454902Y-121608247D01*
X154375471Y-121416486D01*
X154260157Y-121243906D01*
X154113389Y-121097138D01*
X154113387Y-121097136D01*
X153940813Y-120981826D01*
X153940805Y-120981822D01*
X153834493Y-120937786D01*
X153749048Y-120902393D01*
X153749044Y-120902392D01*
X153749047Y-120902392D01*
X153585967Y-120869954D01*
X153545475Y-120861900D01*
X153337915Y-120861900D01*
X153297423Y-120869954D01*
X153134343Y-120902392D01*
X152942584Y-120981822D01*
X152942576Y-120981826D01*
X152770002Y-121097136D01*
X152770001Y-121097138D01*
X152623233Y-121243906D01*
X152623231Y-121243907D01*
X152507921Y-121416481D01*
X152507917Y-121416489D01*
X152428487Y-121608248D01*
X152387995Y-121811820D01*
X151955395Y-121811820D01*
X151914902Y-121608247D01*
X151835471Y-121416486D01*
X151720157Y-121243906D01*
X151573389Y-121097138D01*
X151573387Y-121097136D01*
X151400813Y-120981826D01*
X151400805Y-120981822D01*
X151294493Y-120937786D01*
X151209048Y-120902393D01*
X151209044Y-120902392D01*
X151209047Y-120902392D01*
X151045967Y-120869954D01*
X151005475Y-120861900D01*
X150797915Y-120861900D01*
X150757423Y-120869954D01*
X150594343Y-120902392D01*
X150402584Y-120981822D01*
X150402576Y-120981826D01*
X150230002Y-121097136D01*
X150230001Y-121097138D01*
X150083233Y-121243906D01*
X150083231Y-121243907D01*
X149967921Y-121416481D01*
X149967917Y-121416489D01*
X149888487Y-121608248D01*
X149847995Y-121811820D01*
X149415395Y-121811820D01*
X149374902Y-121608247D01*
X149295471Y-121416486D01*
X149180157Y-121243906D01*
X149033389Y-121097138D01*
X149033387Y-121097136D01*
X148860813Y-120981826D01*
X148860805Y-120981822D01*
X148754493Y-120937786D01*
X148669048Y-120902393D01*
X148669044Y-120902392D01*
X148669047Y-120902392D01*
X148505967Y-120869954D01*
X148465475Y-120861900D01*
X148257915Y-120861900D01*
X148217423Y-120869954D01*
X148054343Y-120902392D01*
X147862584Y-120981822D01*
X147862576Y-120981826D01*
X147690002Y-121097136D01*
X147690001Y-121097138D01*
X147543233Y-121243906D01*
X147543231Y-121243907D01*
X147427921Y-121416481D01*
X147427917Y-121416489D01*
X147348487Y-121608248D01*
X147307995Y-121811820D01*
X146875395Y-121811820D01*
X146834902Y-121608247D01*
X146755471Y-121416486D01*
X146640157Y-121243906D01*
X146493389Y-121097138D01*
X146493387Y-121097136D01*
X146320813Y-120981826D01*
X146320805Y-120981822D01*
X146214493Y-120937786D01*
X146129048Y-120902393D01*
X146129044Y-120902392D01*
X146129047Y-120902392D01*
X145965967Y-120869954D01*
X145925475Y-120861900D01*
X145717915Y-120861900D01*
X145677423Y-120869954D01*
X145514343Y-120902392D01*
X145322584Y-120981822D01*
X145322576Y-120981826D01*
X145150002Y-121097136D01*
X145150001Y-121097138D01*
X145003233Y-121243906D01*
X145003231Y-121243907D01*
X144887921Y-121416481D01*
X144887917Y-121416489D01*
X144808487Y-121608248D01*
X144767995Y-121811820D01*
X133343464Y-121811820D01*
X136298032Y-118857252D01*
X136298035Y-118857251D01*
X136637251Y-118518035D01*
X136697508Y-118413666D01*
X136709999Y-118367050D01*
X136728700Y-118297257D01*
X136728700Y-117668743D01*
X136728700Y-117531543D01*
X136747913Y-117472412D01*
X136798213Y-117435867D01*
X136860387Y-117435867D01*
X136910687Y-117472412D01*
X136912946Y-117475653D01*
X136934086Y-117507292D01*
X137080857Y-117654063D01*
X137253431Y-117769373D01*
X137253433Y-117769374D01*
X137253436Y-117769376D01*
X137445197Y-117848807D01*
X137648770Y-117889300D01*
X137648771Y-117889300D01*
X137856329Y-117889300D01*
X137856330Y-117889300D01*
X138059903Y-117848807D01*
X138251664Y-117769376D01*
X138424244Y-117654062D01*
X138571012Y-117507294D01*
X138686326Y-117334714D01*
X138765757Y-117142953D01*
X138806250Y-116939380D01*
X138806250Y-116731820D01*
X141778850Y-116731820D01*
X141778850Y-116939379D01*
X141819342Y-117142951D01*
X141898772Y-117334710D01*
X141898776Y-117334718D01*
X142014086Y-117507292D01*
X142160857Y-117654063D01*
X142333431Y-117769373D01*
X142333433Y-117769374D01*
X142333436Y-117769376D01*
X142525197Y-117848807D01*
X142728770Y-117889300D01*
X142728771Y-117889300D01*
X142936329Y-117889300D01*
X142936330Y-117889300D01*
X143139903Y-117848807D01*
X143331664Y-117769376D01*
X143504244Y-117654062D01*
X143651012Y-117507294D01*
X143766326Y-117334714D01*
X143845757Y-117142953D01*
X143886250Y-116939380D01*
X143886250Y-116731820D01*
X143845757Y-116528247D01*
X143766326Y-116336486D01*
X143651012Y-116163906D01*
X143504244Y-116017138D01*
X143504242Y-116017136D01*
X143331668Y-115901826D01*
X143331660Y-115901822D01*
X143224170Y-115857298D01*
X143139903Y-115822393D01*
X143139899Y-115822392D01*
X143139902Y-115822392D01*
X142976822Y-115789954D01*
X142936330Y-115781900D01*
X142728770Y-115781900D01*
X142688278Y-115789954D01*
X142525198Y-115822392D01*
X142333439Y-115901822D01*
X142333431Y-115901826D01*
X142160857Y-116017136D01*
X142160856Y-116017138D01*
X142014088Y-116163906D01*
X142014086Y-116163907D01*
X141898776Y-116336481D01*
X141898772Y-116336489D01*
X141819342Y-116528248D01*
X141778850Y-116731820D01*
X138806250Y-116731820D01*
X138765757Y-116528247D01*
X138686326Y-116336486D01*
X138571012Y-116163906D01*
X138424244Y-116017138D01*
X138424242Y-116017136D01*
X138251668Y-115901826D01*
X138251660Y-115901822D01*
X138144170Y-115857298D01*
X138059903Y-115822393D01*
X138059899Y-115822392D01*
X138059902Y-115822392D01*
X137896822Y-115789954D01*
X137856330Y-115781900D01*
X137648770Y-115781900D01*
X137608278Y-115789954D01*
X137445198Y-115822392D01*
X137253439Y-115901822D01*
X137253431Y-115901826D01*
X137080857Y-116017136D01*
X137080856Y-116017138D01*
X136934084Y-116163910D01*
X136912945Y-116195547D01*
X136864118Y-116234038D01*
X136801992Y-116236479D01*
X136750296Y-116201936D01*
X136728778Y-116143604D01*
X136728700Y-116139656D01*
X136728700Y-114991543D01*
X136747913Y-114932412D01*
X136798213Y-114895867D01*
X136860387Y-114895867D01*
X136910687Y-114932412D01*
X136912946Y-114935653D01*
X136934086Y-114967292D01*
X137080857Y-115114063D01*
X137253431Y-115229373D01*
X137253433Y-115229374D01*
X137253436Y-115229376D01*
X137445197Y-115308807D01*
X137648770Y-115349300D01*
X137648771Y-115349300D01*
X137856329Y-115349300D01*
X137856330Y-115349300D01*
X138059903Y-115308807D01*
X138251664Y-115229376D01*
X138424244Y-115114062D01*
X138571012Y-114967294D01*
X138686326Y-114794714D01*
X138765757Y-114602953D01*
X138806250Y-114399380D01*
X138806250Y-114191820D01*
X139238850Y-114191820D01*
X139238850Y-114399379D01*
X139279342Y-114602951D01*
X139358772Y-114794710D01*
X139358776Y-114794718D01*
X139474086Y-114967292D01*
X139620857Y-115114063D01*
X139793431Y-115229373D01*
X139793433Y-115229374D01*
X139793436Y-115229376D01*
X139985197Y-115308807D01*
X140188770Y-115349300D01*
X140188771Y-115349300D01*
X140396329Y-115349300D01*
X140396330Y-115349300D01*
X140599903Y-115308807D01*
X140791664Y-115229376D01*
X140964244Y-115114062D01*
X141111012Y-114967294D01*
X141226326Y-114794714D01*
X141305757Y-114602953D01*
X141346250Y-114399380D01*
X141346250Y-114191820D01*
X141778850Y-114191820D01*
X141778850Y-114399379D01*
X141819342Y-114602951D01*
X141898772Y-114794710D01*
X141898776Y-114794718D01*
X142014086Y-114967292D01*
X142160857Y-115114063D01*
X142333431Y-115229373D01*
X142333433Y-115229374D01*
X142333436Y-115229376D01*
X142525197Y-115308807D01*
X142728770Y-115349300D01*
X142728771Y-115349300D01*
X142936329Y-115349300D01*
X142936330Y-115349300D01*
X143139903Y-115308807D01*
X143331664Y-115229376D01*
X143504244Y-115114062D01*
X143651012Y-114967294D01*
X143766326Y-114794714D01*
X143845757Y-114602953D01*
X143886250Y-114399380D01*
X143886250Y-114191820D01*
X143845757Y-113988247D01*
X143766326Y-113796486D01*
X143651012Y-113623906D01*
X143504244Y-113477138D01*
X143504242Y-113477136D01*
X143331668Y-113361826D01*
X143331660Y-113361822D01*
X143265862Y-113334567D01*
X143139903Y-113282393D01*
X143139899Y-113282392D01*
X143139902Y-113282392D01*
X142976822Y-113249954D01*
X142936330Y-113241900D01*
X142728770Y-113241900D01*
X142688278Y-113249954D01*
X142525198Y-113282392D01*
X142333439Y-113361822D01*
X142333431Y-113361826D01*
X142160857Y-113477136D01*
X142160856Y-113477138D01*
X142014088Y-113623906D01*
X142014086Y-113623907D01*
X141898776Y-113796481D01*
X141898772Y-113796489D01*
X141819342Y-113988248D01*
X141778850Y-114191820D01*
X141346250Y-114191820D01*
X141305757Y-113988247D01*
X141226326Y-113796486D01*
X141111012Y-113623906D01*
X140964244Y-113477138D01*
X140964242Y-113477136D01*
X140791668Y-113361826D01*
X140791660Y-113361822D01*
X140725862Y-113334567D01*
X140599903Y-113282393D01*
X140599899Y-113282392D01*
X140599902Y-113282392D01*
X140436822Y-113249954D01*
X140396330Y-113241900D01*
X140188770Y-113241900D01*
X140148278Y-113249954D01*
X139985198Y-113282392D01*
X139793439Y-113361822D01*
X139793431Y-113361826D01*
X139620857Y-113477136D01*
X139620856Y-113477138D01*
X139474088Y-113623906D01*
X139474086Y-113623907D01*
X139358776Y-113796481D01*
X139358772Y-113796489D01*
X139279342Y-113988248D01*
X139238850Y-114191820D01*
X138806250Y-114191820D01*
X138765757Y-113988247D01*
X138686326Y-113796486D01*
X138571012Y-113623906D01*
X138424244Y-113477138D01*
X138424242Y-113477136D01*
X138251668Y-113361826D01*
X138251660Y-113361822D01*
X138185862Y-113334567D01*
X138059903Y-113282393D01*
X138059899Y-113282392D01*
X138059902Y-113282392D01*
X137896822Y-113249954D01*
X137856330Y-113241900D01*
X137648770Y-113241900D01*
X137608278Y-113249954D01*
X137445198Y-113282392D01*
X137253439Y-113361822D01*
X137253431Y-113361826D01*
X137080857Y-113477136D01*
X137080856Y-113477138D01*
X136934084Y-113623910D01*
X136912945Y-113655547D01*
X136864118Y-113694038D01*
X136801992Y-113696479D01*
X136750296Y-113661936D01*
X136728778Y-113603604D01*
X136728700Y-113599656D01*
X136728700Y-109345551D01*
X136747913Y-109286420D01*
X136758165Y-109274416D01*
X137297946Y-108734635D01*
X137360850Y-108671731D01*
X137653251Y-108379330D01*
X137713508Y-108274961D01*
X137744700Y-108158553D01*
X137744700Y-108038038D01*
X137744700Y-101539743D01*
X137744700Y-99761743D01*
X137713508Y-99645335D01*
X137701108Y-99623858D01*
X137684467Y-99595034D01*
X137684466Y-99595032D01*
X137653253Y-99540967D01*
X131678165Y-93565879D01*
X131649939Y-93510481D01*
X131648700Y-93494744D01*
X131648700Y-89133684D01*
X132338300Y-89133684D01*
X132338300Y-89266315D01*
X132353250Y-89322106D01*
X132372412Y-89393620D01*
X132372628Y-89394424D01*
X132438938Y-89509276D01*
X132438940Y-89509279D01*
X132532721Y-89603060D01*
X132538955Y-89606659D01*
X132647575Y-89669371D01*
X132647576Y-89669371D01*
X132647579Y-89669373D01*
X132775687Y-89703700D01*
X132908313Y-89703700D01*
X133036421Y-89669373D01*
X133036428Y-89669368D01*
X133042515Y-89666849D01*
X133043208Y-89668522D01*
X133083595Y-89657700D01*
X133291744Y-89657700D01*
X133350875Y-89676913D01*
X133362879Y-89687165D01*
X133650530Y-89974816D01*
X133678756Y-90030214D01*
X133679995Y-90045951D01*
X133679995Y-93684955D01*
X133711188Y-93801364D01*
X133771442Y-93905727D01*
X133771444Y-93905730D01*
X139902531Y-100036817D01*
X139930756Y-100092213D01*
X139931995Y-100107950D01*
X139931995Y-107555402D01*
X139912782Y-107614533D01*
X139862482Y-107651078D01*
X139800308Y-107651078D01*
X139781095Y-107642524D01*
X139730346Y-107613224D01*
X139730341Y-107613222D01*
X139621317Y-107584009D01*
X139621312Y-107584009D01*
X139508434Y-107584009D01*
X139508428Y-107584009D01*
X139399404Y-107613222D01*
X139399401Y-107613223D01*
X139313147Y-107663022D01*
X139252332Y-107675948D01*
X139209697Y-107658938D01*
X139208939Y-107660252D01*
X139105473Y-107600515D01*
X139105468Y-107600513D01*
X138996444Y-107571300D01*
X138996439Y-107571300D01*
X138883561Y-107571300D01*
X138883555Y-107571300D01*
X138774531Y-107600513D01*
X138774526Y-107600515D01*
X138676773Y-107656953D01*
X138676772Y-107656955D01*
X138596955Y-107736772D01*
X138596953Y-107736773D01*
X138540515Y-107834526D01*
X138540513Y-107834531D01*
X138511300Y-107943555D01*
X138511300Y-108056444D01*
X138540513Y-108165468D01*
X138540515Y-108165473D01*
X138596953Y-108263226D01*
X138676771Y-108343044D01*
X138676770Y-108343044D01*
X138722100Y-108369215D01*
X138763703Y-108415420D01*
X138772400Y-108456337D01*
X138772400Y-110718300D01*
X138753187Y-110777431D01*
X138702887Y-110813976D01*
X138671800Y-110818900D01*
X138653250Y-110818900D01*
X138544226Y-110848113D01*
X138544221Y-110848115D01*
X138446468Y-110904553D01*
X138446467Y-110904555D01*
X138366650Y-110984372D01*
X138366648Y-110984373D01*
X138310210Y-111082126D01*
X138310208Y-111082131D01*
X138280995Y-111191155D01*
X138280995Y-111304044D01*
X138310208Y-111413068D01*
X138310210Y-111413073D01*
X138366648Y-111510826D01*
X138446468Y-111590646D01*
X138510559Y-111627649D01*
X138544223Y-111647085D01*
X138544224Y-111647085D01*
X138544226Y-111647086D01*
X138653250Y-111676299D01*
X138653254Y-111676299D01*
X138653256Y-111676300D01*
X138653258Y-111676300D01*
X138766132Y-111676300D01*
X138766134Y-111676300D01*
X138766136Y-111676299D01*
X138766139Y-111676299D01*
X138875163Y-111647086D01*
X138875162Y-111647086D01*
X138875167Y-111647085D01*
X138972923Y-111590645D01*
X139052740Y-111510828D01*
X139109180Y-111413072D01*
X139138395Y-111304039D01*
X139138395Y-111274368D01*
X139140903Y-111266647D01*
X139139634Y-111258631D01*
X139150328Y-111237642D01*
X139157608Y-111215237D01*
X139167855Y-111203238D01*
X139195013Y-111176080D01*
X139250410Y-111147855D01*
X139311818Y-111157581D01*
X139337282Y-111176081D01*
X139578955Y-111417754D01*
X139594942Y-111438589D01*
X139636648Y-111510826D01*
X139716468Y-111590646D01*
X139780559Y-111627649D01*
X139814223Y-111647085D01*
X139814224Y-111647085D01*
X139814226Y-111647086D01*
X139923250Y-111676299D01*
X139923254Y-111676299D01*
X139923256Y-111676300D01*
X139923258Y-111676300D01*
X140036132Y-111676300D01*
X140036134Y-111676300D01*
X140036136Y-111676299D01*
X140036139Y-111676299D01*
X140145163Y-111647086D01*
X140145162Y-111647086D01*
X140145167Y-111647085D01*
X140242923Y-111590645D01*
X140322740Y-111510828D01*
X140379180Y-111413072D01*
X140408395Y-111304039D01*
X140408395Y-111191161D01*
X140408394Y-111191159D01*
X140408394Y-111191155D01*
X140379181Y-111082131D01*
X140379181Y-111082130D01*
X140379179Y-111082126D01*
X140335375Y-111006256D01*
X140322449Y-110945445D01*
X140347737Y-110888645D01*
X140401581Y-110857558D01*
X140463415Y-110864056D01*
X140493633Y-110884824D01*
X142243060Y-112634251D01*
X142286625Y-112659403D01*
X142286626Y-112659403D01*
X142286629Y-112659405D01*
X142347430Y-112694508D01*
X142463838Y-112725700D01*
X144832839Y-112725700D01*
X144891970Y-112744913D01*
X144903974Y-112755165D01*
X148080661Y-115931851D01*
X148080663Y-115931852D01*
X148185026Y-115992106D01*
X148185030Y-115992108D01*
X148301438Y-116023300D01*
X148421953Y-116023300D01*
X148797395Y-116023300D01*
X148856526Y-116042513D01*
X148893071Y-116092813D01*
X148897995Y-116123900D01*
X148897995Y-118555664D01*
X148900345Y-118567482D01*
X148909813Y-118615079D01*
X148909814Y-118615080D01*
X148954835Y-118682460D01*
X149022215Y-118727481D01*
X149081631Y-118739300D01*
X149081632Y-118739300D01*
X152721758Y-118739300D01*
X152721759Y-118739300D01*
X152781175Y-118727481D01*
X152848555Y-118682460D01*
X152893576Y-118615080D01*
X152905395Y-118555664D01*
X152905395Y-115515536D01*
X152893576Y-115456120D01*
X152848555Y-115388740D01*
X152781175Y-115343719D01*
X152781174Y-115343718D01*
X152733577Y-115334250D01*
X152721759Y-115331900D01*
X152721758Y-115331900D01*
X149886951Y-115331900D01*
X149827820Y-115312687D01*
X149815816Y-115302435D01*
X149787026Y-115273645D01*
X149712730Y-115199349D01*
X149712727Y-115199347D01*
X149608364Y-115139093D01*
X149608361Y-115139092D01*
X149577174Y-115130735D01*
X149491955Y-115107900D01*
X149491953Y-115107900D01*
X149491952Y-115107900D01*
X148592950Y-115107900D01*
X148533819Y-115088687D01*
X148521815Y-115078435D01*
X147043036Y-113599656D01*
X145345130Y-111901749D01*
X145345127Y-111901747D01*
X145240764Y-111841493D01*
X145240761Y-111841492D01*
X145209574Y-111833135D01*
X145124355Y-111810300D01*
X145124353Y-111810300D01*
X145124352Y-111810300D01*
X143031914Y-111810300D01*
X143031346Y-111810115D01*
X143030776Y-111810294D01*
X143001810Y-111800518D01*
X142972783Y-111791087D01*
X142972432Y-111790604D01*
X142971866Y-111790413D01*
X142954174Y-111765474D01*
X142936238Y-111740787D01*
X142936238Y-111740190D01*
X142935892Y-111739703D01*
X142936238Y-111709104D01*
X142936238Y-111678613D01*
X142936588Y-111678130D01*
X142936595Y-111677533D01*
X142940376Y-111672917D01*
X142972783Y-111628313D01*
X142973707Y-111627649D01*
X142977538Y-111624931D01*
X143036923Y-111590645D01*
X143063907Y-111563660D01*
X143070831Y-111558749D01*
X143092799Y-111551884D01*
X143113301Y-111541439D01*
X143129038Y-111540200D01*
X143552920Y-111540200D01*
X143552921Y-111540200D01*
X143552922Y-111540200D01*
X143614964Y-111523576D01*
X143627340Y-111520260D01*
X143694060Y-111481739D01*
X144008965Y-111166834D01*
X144047486Y-111100114D01*
X144047487Y-111100111D01*
X144067425Y-111025700D01*
X144067426Y-111025693D01*
X144067426Y-110302667D01*
X144086639Y-110243536D01*
X144136939Y-110206991D01*
X144199113Y-110206991D01*
X144249413Y-110243536D01*
X144255148Y-110252367D01*
X144287067Y-110307653D01*
X144287068Y-110307654D01*
X144287069Y-110307655D01*
X146533718Y-112554293D01*
X146533719Y-112554295D01*
X146595290Y-112615866D01*
X146595292Y-112615867D01*
X146670700Y-112659405D01*
X146670702Y-112659405D01*
X146670703Y-112659406D01*
X146722162Y-112673193D01*
X146754809Y-112681941D01*
X146841883Y-112681940D01*
X155763695Y-112681940D01*
X155822826Y-112701153D01*
X155834829Y-112711404D01*
X160701530Y-117578115D01*
X160729756Y-117633512D01*
X160730995Y-117649249D01*
X160730995Y-119643217D01*
X160748431Y-119730874D01*
X160746272Y-119731303D01*
X160750108Y-119780094D01*
X160746928Y-119789880D01*
X160730995Y-119869982D01*
X160730995Y-120844844D01*
X160711782Y-120903975D01*
X160668894Y-120937786D01*
X160562582Y-120981823D01*
X160390002Y-121097136D01*
X160390001Y-121097138D01*
X160243233Y-121243906D01*
X160243231Y-121243907D01*
X160127921Y-121416481D01*
X160127917Y-121416489D01*
X160048487Y-121608248D01*
X160007995Y-121811820D01*
X160007995Y-122019379D01*
X160048487Y-122222951D01*
X160127917Y-122414710D01*
X160127921Y-122414718D01*
X160243231Y-122587292D01*
X160390002Y-122734063D01*
X160562576Y-122849373D01*
X160562578Y-122849374D01*
X160562581Y-122849376D01*
X160754342Y-122928807D01*
X160957915Y-122969300D01*
X160957916Y-122969300D01*
X161165474Y-122969300D01*
X161165475Y-122969300D01*
X161369048Y-122928807D01*
X161560809Y-122849376D01*
X161733389Y-122734062D01*
X161829260Y-122638191D01*
X161884658Y-122609965D01*
X161946066Y-122619691D01*
X161990030Y-122663655D01*
X162000995Y-122709326D01*
X162000995Y-123006949D01*
X161981782Y-123066080D01*
X161971530Y-123078084D01*
X161584991Y-123464622D01*
X161529593Y-123492848D01*
X161475358Y-123486429D01*
X161369048Y-123442393D01*
X161369044Y-123442392D01*
X161369047Y-123442392D01*
X161205967Y-123409954D01*
X161165475Y-123401900D01*
X160957915Y-123401900D01*
X160917423Y-123409954D01*
X160754343Y-123442392D01*
X160562584Y-123521822D01*
X160562576Y-123521826D01*
X160390002Y-123637136D01*
X160390001Y-123637138D01*
X160243233Y-123783906D01*
X160243231Y-123783907D01*
X160127921Y-123956481D01*
X160127917Y-123956489D01*
X160048487Y-124148248D01*
X160007995Y-124351820D01*
X160007995Y-124559379D01*
X160048487Y-124762951D01*
X160127917Y-124954710D01*
X160127921Y-124954718D01*
X160243231Y-125127292D01*
X160390002Y-125274063D01*
X160562576Y-125389373D01*
X160562578Y-125389374D01*
X160562581Y-125389376D01*
X160754342Y-125468807D01*
X160957915Y-125509300D01*
X160957916Y-125509300D01*
X161165474Y-125509300D01*
X161165475Y-125509300D01*
X161369048Y-125468807D01*
X161560809Y-125389376D01*
X161733389Y-125274062D01*
X161880157Y-125127294D01*
X161995471Y-124954714D01*
X162074902Y-124762953D01*
X162115395Y-124559380D01*
X162115395Y-124351820D01*
X162547995Y-124351820D01*
X162547995Y-124559379D01*
X162588487Y-124762951D01*
X162667917Y-124954710D01*
X162667921Y-124954718D01*
X162783231Y-125127292D01*
X162930002Y-125274063D01*
X163102576Y-125389373D01*
X163102578Y-125389374D01*
X163102581Y-125389376D01*
X163294342Y-125468807D01*
X163497915Y-125509300D01*
X163497916Y-125509300D01*
X163705474Y-125509300D01*
X163705475Y-125509300D01*
X163909048Y-125468807D01*
X164100809Y-125389376D01*
X164273389Y-125274062D01*
X164420157Y-125127294D01*
X164535471Y-124954714D01*
X164614902Y-124762953D01*
X164655395Y-124559380D01*
X164655395Y-124351820D01*
X165087995Y-124351820D01*
X165087995Y-124559379D01*
X165128487Y-124762951D01*
X165207917Y-124954710D01*
X165207921Y-124954718D01*
X165323231Y-125127292D01*
X165470002Y-125274063D01*
X165642576Y-125389373D01*
X165642578Y-125389374D01*
X165642581Y-125389376D01*
X165834342Y-125468807D01*
X166037915Y-125509300D01*
X166037916Y-125509300D01*
X166245474Y-125509300D01*
X166245475Y-125509300D01*
X166449048Y-125468807D01*
X166640809Y-125389376D01*
X166813389Y-125274062D01*
X166960157Y-125127294D01*
X167075471Y-124954714D01*
X167154902Y-124762953D01*
X167195395Y-124559380D01*
X167195395Y-124351820D01*
X167154902Y-124148247D01*
X167075471Y-123956486D01*
X166960157Y-123783906D01*
X166813389Y-123637138D01*
X166813387Y-123637136D01*
X166640813Y-123521826D01*
X166640805Y-123521822D01*
X166555359Y-123486429D01*
X166449048Y-123442393D01*
X166449044Y-123442392D01*
X166449047Y-123442392D01*
X166285967Y-123409954D01*
X166245475Y-123401900D01*
X166037915Y-123401900D01*
X165997423Y-123409954D01*
X165834343Y-123442392D01*
X165642584Y-123521822D01*
X165642576Y-123521826D01*
X165470002Y-123637136D01*
X165470001Y-123637138D01*
X165323233Y-123783906D01*
X165323231Y-123783907D01*
X165207921Y-123956481D01*
X165207917Y-123956489D01*
X165128487Y-124148248D01*
X165087995Y-124351820D01*
X164655395Y-124351820D01*
X164614902Y-124148247D01*
X164535471Y-123956486D01*
X164420157Y-123783906D01*
X164273389Y-123637138D01*
X164273387Y-123637136D01*
X164100813Y-123521826D01*
X164100805Y-123521822D01*
X164015359Y-123486429D01*
X163909048Y-123442393D01*
X163909044Y-123442392D01*
X163909047Y-123442392D01*
X163745967Y-123409954D01*
X163705475Y-123401900D01*
X163497915Y-123401900D01*
X163457423Y-123409954D01*
X163294343Y-123442392D01*
X163102584Y-123521822D01*
X163102576Y-123521826D01*
X162930002Y-123637136D01*
X162930001Y-123637138D01*
X162783233Y-123783906D01*
X162783231Y-123783907D01*
X162667921Y-123956481D01*
X162667917Y-123956489D01*
X162588487Y-124148248D01*
X162547995Y-124351820D01*
X162115395Y-124351820D01*
X162074902Y-124148247D01*
X162030864Y-124041934D01*
X162025986Y-123979952D01*
X162052670Y-123932303D01*
X162526467Y-123458506D01*
X162526471Y-123458504D01*
X162534748Y-123450226D01*
X162534750Y-123450226D01*
X162596321Y-123388655D01*
X162639859Y-123313246D01*
X162639860Y-123313243D01*
X162639861Y-123313241D01*
X162662393Y-123229144D01*
X162662395Y-123229136D01*
X162662395Y-122709326D01*
X162681608Y-122650195D01*
X162731908Y-122613650D01*
X162794082Y-122613650D01*
X162834130Y-122638191D01*
X162930002Y-122734063D01*
X163102576Y-122849373D01*
X163102578Y-122849374D01*
X163102581Y-122849376D01*
X163294342Y-122928807D01*
X163497915Y-122969300D01*
X163497916Y-122969300D01*
X163705474Y-122969300D01*
X163705475Y-122969300D01*
X163909048Y-122928807D01*
X164100809Y-122849376D01*
X164273389Y-122734062D01*
X164420157Y-122587294D01*
X164535471Y-122414714D01*
X164614902Y-122222953D01*
X164655395Y-122019380D01*
X164655395Y-121811820D01*
X164614902Y-121608247D01*
X164535471Y-121416486D01*
X164420157Y-121243906D01*
X164273389Y-121097138D01*
X164273387Y-121097136D01*
X164100813Y-120981826D01*
X164100805Y-120981822D01*
X163994493Y-120937786D01*
X163909048Y-120902393D01*
X163909044Y-120902392D01*
X163909047Y-120902392D01*
X163745967Y-120869954D01*
X163705475Y-120861900D01*
X163497915Y-120861900D01*
X163457423Y-120869954D01*
X163294343Y-120902392D01*
X163102584Y-120981822D01*
X163102576Y-120981826D01*
X162930002Y-121097136D01*
X162930001Y-121097138D01*
X162834130Y-121193009D01*
X162778732Y-121221235D01*
X162717324Y-121211509D01*
X162673360Y-121167545D01*
X162662395Y-121121874D01*
X162662395Y-119869982D01*
X162644959Y-119782326D01*
X162647118Y-119781896D01*
X162643278Y-119733119D01*
X162646461Y-119723319D01*
X162646890Y-119721157D01*
X162646892Y-119721156D01*
X162662395Y-119643218D01*
X162662395Y-119361982D01*
X162662395Y-117808062D01*
X162659729Y-117798115D01*
X162639861Y-117723958D01*
X162639860Y-117723956D01*
X162604239Y-117662259D01*
X162596321Y-117648545D01*
X162534750Y-117586974D01*
X162531242Y-117583466D01*
X162531231Y-117583456D01*
X156506057Y-111558282D01*
X156506055Y-111558279D01*
X156438750Y-111490974D01*
X156363338Y-111447434D01*
X156363336Y-111447433D01*
X156279239Y-111424901D01*
X156279234Y-111424900D01*
X156279233Y-111424900D01*
X156279232Y-111424900D01*
X147397345Y-111424900D01*
X147338214Y-111405687D01*
X147326210Y-111395435D01*
X145673860Y-109743085D01*
X145645634Y-109687687D01*
X145644395Y-109671950D01*
X145644395Y-108638166D01*
X145657873Y-108587866D01*
X145713179Y-108492073D01*
X145713180Y-108492072D01*
X145718276Y-108473049D01*
X145742394Y-108383044D01*
X145742395Y-108383037D01*
X145742395Y-108270162D01*
X145742394Y-108270158D01*
X145738584Y-108255938D01*
X145740080Y-108227393D01*
X145740080Y-108198813D01*
X145741694Y-108196591D01*
X145741838Y-108193849D01*
X145759824Y-108171637D01*
X145776625Y-108148513D01*
X145779236Y-108147664D01*
X145780965Y-108145530D01*
X145835756Y-108129300D01*
X145944790Y-108129300D01*
X146003921Y-108148513D01*
X146015925Y-108158765D01*
X148327299Y-110470139D01*
X148394019Y-110508660D01*
X148431228Y-110518630D01*
X148468437Y-110528600D01*
X148468438Y-110528600D01*
X148468439Y-110528600D01*
X157264520Y-110528600D01*
X157264521Y-110528600D01*
X157264522Y-110528600D01*
X157301730Y-110518630D01*
X157338940Y-110508660D01*
X157405660Y-110470139D01*
X158222139Y-109653660D01*
X158260660Y-109586940D01*
X158268241Y-109558646D01*
X158280599Y-109512526D01*
X158280600Y-109512519D01*
X158280600Y-105318869D01*
X158283108Y-105311148D01*
X158281839Y-105303132D01*
X158292533Y-105282143D01*
X158299813Y-105259738D01*
X158310065Y-105247734D01*
X158451634Y-105106165D01*
X158507032Y-105077939D01*
X158522769Y-105076700D01*
X158552437Y-105076700D01*
X158552439Y-105076700D01*
X158552441Y-105076699D01*
X158552444Y-105076699D01*
X158661468Y-105047486D01*
X158661467Y-105047486D01*
X158661472Y-105047485D01*
X158759228Y-104991045D01*
X158839045Y-104911228D01*
X158895485Y-104813472D01*
X158909456Y-104761332D01*
X158924699Y-104704444D01*
X158924700Y-104704437D01*
X158924700Y-104591562D01*
X158924699Y-104591555D01*
X158895486Y-104482531D01*
X158895484Y-104482526D01*
X158839046Y-104384773D01*
X158759226Y-104304953D01*
X158661473Y-104248515D01*
X158661468Y-104248513D01*
X158552444Y-104219300D01*
X158552439Y-104219300D01*
X158439561Y-104219300D01*
X158439555Y-104219300D01*
X158330531Y-104248513D01*
X158330526Y-104248515D01*
X158232773Y-104304953D01*
X158232772Y-104304955D01*
X158152955Y-104384772D01*
X158152953Y-104384773D01*
X158096515Y-104482526D01*
X158096513Y-104482531D01*
X158067300Y-104591555D01*
X158067300Y-104621231D01*
X158048087Y-104680362D01*
X158037835Y-104692366D01*
X157753862Y-104976338D01*
X157722420Y-105030798D01*
X157715340Y-105043060D01*
X157711657Y-105056805D01*
X157711656Y-105056806D01*
X157695400Y-105117473D01*
X157695400Y-106492731D01*
X157688119Y-106515136D01*
X157684435Y-106538402D01*
X157678695Y-106544141D01*
X157676187Y-106551862D01*
X157657127Y-106565709D01*
X157640471Y-106582366D01*
X157632454Y-106583635D01*
X157625887Y-106588407D01*
X157602329Y-106588407D01*
X157579063Y-106592092D01*
X157571831Y-106588407D01*
X157563713Y-106588407D01*
X157523665Y-106563866D01*
X157443200Y-106483401D01*
X157414974Y-106428003D01*
X157413735Y-106412266D01*
X157413735Y-106408452D01*
X157413734Y-106408448D01*
X157393795Y-106334034D01*
X157393791Y-106334027D01*
X157391270Y-106327939D01*
X157391691Y-106327764D01*
X157385488Y-106312792D01*
X157371485Y-106260528D01*
X157340238Y-106206407D01*
X157315046Y-106162773D01*
X157235226Y-106082953D01*
X157137473Y-106026515D01*
X157137468Y-106026513D01*
X157028444Y-105997300D01*
X157028439Y-105997300D01*
X156915561Y-105997300D01*
X156915555Y-105997300D01*
X156806531Y-106026513D01*
X156806526Y-106026515D01*
X156708773Y-106082953D01*
X156708772Y-106082955D01*
X156628955Y-106162772D01*
X156628953Y-106162773D01*
X156572515Y-106260526D01*
X156572513Y-106260531D01*
X156543300Y-106369555D01*
X156543300Y-106482444D01*
X156572513Y-106591468D01*
X156572515Y-106591473D01*
X156628953Y-106689226D01*
X156632969Y-106694459D01*
X156631311Y-106695731D01*
X156655229Y-106742674D01*
X156645503Y-106804082D01*
X156611567Y-106839851D01*
X156612403Y-106840941D01*
X156607172Y-106844955D01*
X156527355Y-106924772D01*
X156527353Y-106924773D01*
X156470915Y-107022526D01*
X156470913Y-107022531D01*
X156441700Y-107131555D01*
X156441700Y-107244444D01*
X156470913Y-107353468D01*
X156470915Y-107353473D01*
X156527353Y-107451226D01*
X156548630Y-107472503D01*
X156576856Y-107527901D01*
X156578095Y-107543638D01*
X156578095Y-108671731D01*
X156575586Y-108679451D01*
X156576856Y-108687468D01*
X156566161Y-108708456D01*
X156558882Y-108730862D01*
X156548630Y-108742866D01*
X156416061Y-108875435D01*
X156360663Y-108903661D01*
X156344926Y-108904900D01*
X149238369Y-108904900D01*
X149179238Y-108885687D01*
X149167234Y-108875435D01*
X146751361Y-106459562D01*
X146751360Y-106459561D01*
X146684640Y-106421040D01*
X146684638Y-106421039D01*
X146684636Y-106421038D01*
X146630376Y-106406500D01*
X146630375Y-106406500D01*
X146610222Y-106401100D01*
X143102178Y-106401100D01*
X143102177Y-106401100D01*
X143095460Y-106402900D01*
X143082025Y-106406500D01*
X143082024Y-106406500D01*
X143027764Y-106421038D01*
X143027762Y-106421038D01*
X142961038Y-106459562D01*
X142285557Y-107135043D01*
X142285556Y-107135045D01*
X142247035Y-107201765D01*
X142240402Y-107226521D01*
X142237075Y-107238936D01*
X142227095Y-107276180D01*
X142227095Y-108860257D01*
X142207882Y-108919388D01*
X142197630Y-108931392D01*
X142176650Y-108952372D01*
X142176648Y-108952373D01*
X142120210Y-109050126D01*
X142120208Y-109050131D01*
X142090995Y-109159155D01*
X142090995Y-109272044D01*
X142120208Y-109381068D01*
X142120210Y-109381073D01*
X142176648Y-109478826D01*
X142256468Y-109558646D01*
X142354221Y-109615084D01*
X142354223Y-109615085D01*
X142354224Y-109615085D01*
X142354226Y-109615086D01*
X142463250Y-109644299D01*
X142463254Y-109644299D01*
X142463256Y-109644300D01*
X142463258Y-109644300D01*
X142576132Y-109644300D01*
X142576134Y-109644300D01*
X142576136Y-109644299D01*
X142576139Y-109644299D01*
X142685163Y-109615086D01*
X142685162Y-109615086D01*
X142685167Y-109615085D01*
X142782923Y-109558645D01*
X142862740Y-109478828D01*
X142919180Y-109381072D01*
X142948395Y-109272039D01*
X142948395Y-109159161D01*
X142948394Y-109159159D01*
X142948394Y-109159155D01*
X142919181Y-109050131D01*
X142919179Y-109050126D01*
X142862741Y-108952373D01*
X142841760Y-108931392D01*
X142813534Y-108875994D01*
X142812295Y-108860257D01*
X142812295Y-107477574D01*
X142831508Y-107418443D01*
X142841760Y-107406439D01*
X143232434Y-107015765D01*
X143239667Y-107012079D01*
X143244438Y-107005513D01*
X143266843Y-106998233D01*
X143287832Y-106987539D01*
X143303569Y-106986300D01*
X143394634Y-106986300D01*
X143453765Y-107005513D01*
X143490310Y-107055813D01*
X143491806Y-107112938D01*
X143487995Y-107127158D01*
X143487995Y-107240044D01*
X143517208Y-107349068D01*
X143517210Y-107349073D01*
X143573648Y-107446826D01*
X143653468Y-107526646D01*
X143751221Y-107583084D01*
X143751223Y-107583085D01*
X143756336Y-107584455D01*
X143808481Y-107618316D01*
X143830764Y-107676360D01*
X143814674Y-107736416D01*
X143801437Y-107752763D01*
X143540689Y-108013511D01*
X143502165Y-108080234D01*
X143498730Y-108093059D01*
X143498729Y-108093061D01*
X143482226Y-108154647D01*
X143482226Y-110824305D01*
X143479717Y-110832025D01*
X143480987Y-110840042D01*
X143470292Y-110861030D01*
X143463013Y-110883436D01*
X143452761Y-110895440D01*
X143422666Y-110925535D01*
X143367268Y-110953761D01*
X143351531Y-110955000D01*
X143129038Y-110955000D01*
X143069907Y-110935787D01*
X143057903Y-110925535D01*
X143036921Y-110904553D01*
X142939168Y-110848115D01*
X142939163Y-110848113D01*
X142832321Y-110819485D01*
X142787223Y-110793448D01*
X141736860Y-109743085D01*
X141708634Y-109687687D01*
X141707395Y-109671950D01*
X141707395Y-106219250D01*
X141726608Y-106160119D01*
X141736860Y-106148115D01*
X142000096Y-105884879D01*
X142279225Y-105605749D01*
X142324321Y-105579714D01*
X142431164Y-105551086D01*
X142431164Y-105551085D01*
X142431167Y-105551085D01*
X142528923Y-105494645D01*
X142608740Y-105414828D01*
X142665180Y-105317072D01*
X142678315Y-105268051D01*
X142694394Y-105208044D01*
X142694395Y-105208037D01*
X142694395Y-105095162D01*
X142694394Y-105095155D01*
X142665181Y-104986131D01*
X142665179Y-104986126D01*
X142608741Y-104888373D01*
X142528921Y-104808553D01*
X142431168Y-104752115D01*
X142431163Y-104752113D01*
X142322139Y-104722900D01*
X142322134Y-104722900D01*
X142209256Y-104722900D01*
X142209250Y-104722900D01*
X142100226Y-104752113D01*
X142100221Y-104752115D01*
X142002468Y-104808553D01*
X142002467Y-104808555D01*
X141922650Y-104888372D01*
X141922648Y-104888373D01*
X141866210Y-104986126D01*
X141866209Y-104986129D01*
X141837580Y-105092974D01*
X141811543Y-105138071D01*
X141112069Y-105837544D01*
X141068529Y-105912956D01*
X141045167Y-106000150D01*
X141011305Y-106052293D01*
X140953261Y-106074575D01*
X140893205Y-106058484D01*
X140854077Y-106010165D01*
X140847395Y-105974113D01*
X140847395Y-99816438D01*
X140847394Y-99816434D01*
X140816203Y-99700030D01*
X140816202Y-99700028D01*
X140755946Y-99595660D01*
X134624860Y-93464574D01*
X134597940Y-93411740D01*
X135686300Y-93411740D01*
X135686300Y-93532259D01*
X135717493Y-93648668D01*
X135765693Y-93732152D01*
X135777749Y-93753034D01*
X135862966Y-93838251D01*
X135862968Y-93838252D01*
X135967331Y-93898506D01*
X135967335Y-93898508D01*
X136083743Y-93929700D01*
X137474258Y-93929700D01*
X137513612Y-93919155D01*
X138153995Y-93919155D01*
X138153995Y-94032044D01*
X138183208Y-94141068D01*
X138183210Y-94141073D01*
X138239648Y-94238826D01*
X138319468Y-94318646D01*
X138353728Y-94338426D01*
X138417223Y-94375085D01*
X138417224Y-94375085D01*
X138417226Y-94375086D01*
X138526250Y-94404299D01*
X138526254Y-94404299D01*
X138526256Y-94404300D01*
X138526258Y-94404300D01*
X138639132Y-94404300D01*
X138639134Y-94404300D01*
X138639136Y-94404299D01*
X138639139Y-94404299D01*
X138748163Y-94375086D01*
X138748162Y-94375086D01*
X138748167Y-94375085D01*
X138845923Y-94318645D01*
X138925740Y-94238828D01*
X138982180Y-94141072D01*
X139010809Y-94034225D01*
X139036847Y-93989128D01*
X139105481Y-93920495D01*
X139160878Y-93892268D01*
X139222287Y-93901995D01*
X139266251Y-93945959D01*
X139277215Y-93991630D01*
X139277215Y-94051824D01*
X139306428Y-94160848D01*
X139306430Y-94160853D01*
X139362868Y-94258606D01*
X139442688Y-94338426D01*
X139506183Y-94375085D01*
X139540443Y-94394865D01*
X139540444Y-94394865D01*
X139540446Y-94394866D01*
X139649470Y-94424079D01*
X139649474Y-94424079D01*
X139649476Y-94424080D01*
X139649478Y-94424080D01*
X139762352Y-94424080D01*
X139762354Y-94424080D01*
X139762356Y-94424079D01*
X139762359Y-94424079D01*
X139871383Y-94394866D01*
X139871382Y-94394866D01*
X139871387Y-94394865D01*
X139969143Y-94338425D01*
X139969145Y-94338422D01*
X139974374Y-94334411D01*
X139975588Y-94335994D01*
X140022801Y-94311939D01*
X140038538Y-94310700D01*
X141526782Y-94310700D01*
X141526783Y-94310700D01*
X141558134Y-94302299D01*
X141610886Y-94288166D01*
X141610888Y-94288165D01*
X141610888Y-94288164D01*
X141610891Y-94288164D01*
X141686300Y-94244626D01*
X141747871Y-94183055D01*
X141747871Y-94183053D01*
X141756149Y-94174776D01*
X141756151Y-94174772D01*
X142704657Y-93226266D01*
X142704661Y-93226264D01*
X142712938Y-93217986D01*
X142712940Y-93217986D01*
X142774511Y-93156415D01*
X142818049Y-93081006D01*
X142818050Y-93081003D01*
X142818051Y-93081001D01*
X142840583Y-92996904D01*
X142840585Y-92996896D01*
X142840585Y-92616676D01*
X142854063Y-92566376D01*
X142909369Y-92470583D01*
X142909370Y-92470582D01*
X142931234Y-92388984D01*
X142938584Y-92361554D01*
X142938585Y-92361547D01*
X142938585Y-92248672D01*
X142938584Y-92248665D01*
X142909371Y-92139641D01*
X142909369Y-92139636D01*
X142852931Y-92041883D01*
X142773111Y-91962063D01*
X142675358Y-91905625D01*
X142675353Y-91905623D01*
X142566329Y-91876410D01*
X142566324Y-91876410D01*
X142534307Y-91876410D01*
X142475176Y-91857197D01*
X142438631Y-91806897D01*
X142437135Y-91749773D01*
X142448394Y-91707753D01*
X142448395Y-91707747D01*
X142448395Y-91594872D01*
X142448394Y-91594865D01*
X142419181Y-91485841D01*
X142419179Y-91485836D01*
X142362741Y-91388083D01*
X142282921Y-91308263D01*
X142185168Y-91251825D01*
X142185163Y-91251823D01*
X142076139Y-91222610D01*
X142076134Y-91222610D01*
X141963256Y-91222610D01*
X141963250Y-91222610D01*
X141854226Y-91251823D01*
X141854221Y-91251825D01*
X141756468Y-91308263D01*
X141756467Y-91308265D01*
X141676650Y-91388082D01*
X141676648Y-91388083D01*
X141620210Y-91485836D01*
X141620208Y-91485841D01*
X141590995Y-91594865D01*
X141590995Y-91707754D01*
X141620208Y-91816778D01*
X141620211Y-91816785D01*
X141637706Y-91847086D01*
X141651185Y-91897387D01*
X141651185Y-92408465D01*
X141631972Y-92467596D01*
X141621720Y-92479600D01*
X141116485Y-92984835D01*
X141061087Y-93013061D01*
X141045350Y-93014300D01*
X139169757Y-93014300D01*
X139169756Y-93014300D01*
X139169750Y-93014301D01*
X139085653Y-93036833D01*
X139085651Y-93036834D01*
X139010239Y-93080374D01*
X138569166Y-93521448D01*
X138524069Y-93547485D01*
X138417224Y-93576114D01*
X138417221Y-93576115D01*
X138319468Y-93632553D01*
X138319467Y-93632555D01*
X138239650Y-93712372D01*
X138239648Y-93712373D01*
X138183210Y-93810126D01*
X138183208Y-93810131D01*
X138153995Y-93919155D01*
X137513612Y-93919155D01*
X137590666Y-93898508D01*
X137695035Y-93838251D01*
X139431251Y-92102034D01*
X139491508Y-91997665D01*
X139522700Y-91881257D01*
X139522700Y-91760742D01*
X139522700Y-88471063D01*
X143585995Y-88471063D01*
X143585995Y-103544136D01*
X143585996Y-103544144D01*
X143608528Y-103628241D01*
X143608529Y-103628243D01*
X143652069Y-103703655D01*
X143719371Y-103770957D01*
X143719376Y-103770961D01*
X145364641Y-105416227D01*
X145371781Y-105420349D01*
X145440049Y-105459764D01*
X145456239Y-105464102D01*
X145524158Y-105482301D01*
X145524160Y-105482301D01*
X145617394Y-105482301D01*
X145617410Y-105482300D01*
X147897232Y-105482300D01*
X147897233Y-105482300D01*
X147928584Y-105473899D01*
X147981336Y-105459766D01*
X147981338Y-105459765D01*
X147981338Y-105459764D01*
X147981341Y-105459764D01*
X148056750Y-105416226D01*
X148113261Y-105359714D01*
X148168657Y-105331489D01*
X148230066Y-105341214D01*
X148274030Y-105385178D01*
X148284995Y-105430850D01*
X148284995Y-105517565D01*
X148316188Y-105633974D01*
X148376442Y-105738337D01*
X148376444Y-105738340D01*
X148790955Y-106152851D01*
X148848085Y-106185834D01*
X148895325Y-106213108D01*
X149011733Y-106244300D01*
X149545743Y-106244300D01*
X149677142Y-106244300D01*
X149797658Y-106244300D01*
X149878344Y-106244300D01*
X149937475Y-106263513D01*
X149949479Y-106273765D01*
X151610965Y-107935251D01*
X151715334Y-107995508D01*
X151729483Y-107999299D01*
X151746527Y-108003866D01*
X151746530Y-108003866D01*
X151770809Y-108010372D01*
X151831737Y-108026699D01*
X151831743Y-108026700D01*
X155093482Y-108026700D01*
X155143782Y-108040178D01*
X155168497Y-108054447D01*
X155168499Y-108054448D01*
X155168500Y-108054448D01*
X155168502Y-108054449D01*
X155284903Y-108085639D01*
X155284905Y-108085639D01*
X155284908Y-108085640D01*
X155284910Y-108085640D01*
X155405423Y-108085640D01*
X155521831Y-108054448D01*
X155626200Y-107994191D01*
X155711416Y-107908975D01*
X155771673Y-107804606D01*
X155802865Y-107688198D01*
X155802865Y-107567683D01*
X155799574Y-107555402D01*
X155771674Y-107451277D01*
X155771672Y-107451272D01*
X155715207Y-107353472D01*
X155711416Y-107346906D01*
X155567260Y-107202749D01*
X155565556Y-107201765D01*
X155462894Y-107142493D01*
X155462891Y-107142492D01*
X155422097Y-107131561D01*
X155346485Y-107111300D01*
X155346483Y-107111300D01*
X155346482Y-107111300D01*
X152123256Y-107111300D01*
X152064125Y-107092087D01*
X152052121Y-107081835D01*
X150855165Y-105884879D01*
X150826939Y-105829481D01*
X150825700Y-105813744D01*
X150825700Y-101598551D01*
X150844913Y-101539420D01*
X150855165Y-101527416D01*
X151061816Y-101320765D01*
X151117214Y-101292539D01*
X151132951Y-101291300D01*
X156549952Y-101291300D01*
X156666360Y-101260108D01*
X156770729Y-101199851D01*
X156855946Y-101114634D01*
X156916203Y-101010265D01*
X156947395Y-100893857D01*
X156947395Y-100773343D01*
X156920760Y-100673942D01*
X156924013Y-100611855D01*
X156963140Y-100563536D01*
X157023196Y-100547444D01*
X157081241Y-100569724D01*
X157089067Y-100576771D01*
X157814125Y-101301829D01*
X157842351Y-101357227D01*
X157832625Y-101418635D01*
X157830112Y-101423264D01*
X157800515Y-101474526D01*
X157800513Y-101474531D01*
X157771300Y-101583555D01*
X157771300Y-101696444D01*
X157800513Y-101805468D01*
X157800515Y-101805473D01*
X157856953Y-101903226D01*
X157936773Y-101983046D01*
X158023363Y-102033039D01*
X158034528Y-102039485D01*
X158034529Y-102039485D01*
X158034531Y-102039486D01*
X158143555Y-102068699D01*
X158143559Y-102068699D01*
X158143561Y-102068700D01*
X158143563Y-102068700D01*
X158256437Y-102068700D01*
X158256439Y-102068700D01*
X158256441Y-102068699D01*
X158256444Y-102068699D01*
X158365468Y-102039486D01*
X158365467Y-102039486D01*
X158365472Y-102039485D01*
X158463228Y-101983045D01*
X158543045Y-101903228D01*
X158599485Y-101805472D01*
X158624163Y-101713372D01*
X158628699Y-101696444D01*
X158628700Y-101696437D01*
X158628700Y-101583562D01*
X158628699Y-101583555D01*
X158599486Y-101474531D01*
X158599484Y-101474526D01*
X158543046Y-101376773D01*
X158538960Y-101372687D01*
X158510734Y-101317289D01*
X158509495Y-101301552D01*
X158509495Y-101252279D01*
X158509494Y-101252273D01*
X158489557Y-101177867D01*
X158489555Y-101177862D01*
X158489555Y-101177861D01*
X158469024Y-101142300D01*
X158469023Y-101142298D01*
X158451037Y-101111144D01*
X158451036Y-101111143D01*
X158451035Y-101111142D01*
X158451034Y-101111140D01*
X155737435Y-98397541D01*
X155690528Y-98370459D01*
X155670714Y-98359019D01*
X155647943Y-98352918D01*
X155633505Y-98349050D01*
X155596299Y-98339080D01*
X155596297Y-98339080D01*
X154562223Y-98339080D01*
X154503092Y-98319867D01*
X154491088Y-98309615D01*
X154441226Y-98259753D01*
X154343473Y-98203315D01*
X154343468Y-98203313D01*
X154234444Y-98174100D01*
X154234439Y-98174100D01*
X154121561Y-98174100D01*
X154121555Y-98174100D01*
X154012531Y-98203313D01*
X154012526Y-98203315D01*
X153914773Y-98259753D01*
X153914772Y-98259755D01*
X153834955Y-98339572D01*
X153834953Y-98339573D01*
X153778515Y-98437326D01*
X153778513Y-98437331D01*
X153749300Y-98546355D01*
X153749300Y-98659244D01*
X153778513Y-98768268D01*
X153778515Y-98768273D01*
X153834953Y-98866026D01*
X153914773Y-98945846D01*
X153996770Y-98993187D01*
X154012528Y-99002285D01*
X154012529Y-99002285D01*
X154012531Y-99002286D01*
X154121555Y-99031499D01*
X154121559Y-99031499D01*
X154121561Y-99031500D01*
X154121563Y-99031500D01*
X154234437Y-99031500D01*
X154234439Y-99031500D01*
X154234441Y-99031499D01*
X154234444Y-99031499D01*
X154343468Y-99002286D01*
X154343467Y-99002286D01*
X154343472Y-99002285D01*
X154441228Y-98945845D01*
X154442237Y-98945071D01*
X154443095Y-98944766D01*
X154446939Y-98942548D01*
X154447350Y-98943260D01*
X154500844Y-98924315D01*
X154503481Y-98924280D01*
X155394906Y-98924280D01*
X155454037Y-98943493D01*
X155466041Y-98953745D01*
X156746523Y-100234227D01*
X156774749Y-100289625D01*
X156765023Y-100351033D01*
X156721059Y-100394997D01*
X156659651Y-100404723D01*
X156649350Y-100402534D01*
X156549955Y-100375900D01*
X156549952Y-100375900D01*
X150961952Y-100375900D01*
X150624952Y-100375900D01*
X150565821Y-100356687D01*
X150553817Y-100346435D01*
X150118860Y-99911478D01*
X150090634Y-99856080D01*
X150089395Y-99840343D01*
X150089395Y-99503343D01*
X150089394Y-99503340D01*
X150058203Y-99386935D01*
X149997946Y-99282566D01*
X149912729Y-99197349D01*
X149912726Y-99197347D01*
X149808363Y-99137093D01*
X149808360Y-99137092D01*
X149777173Y-99128735D01*
X149691954Y-99105900D01*
X149691952Y-99105900D01*
X149571438Y-99105900D01*
X149571435Y-99105900D01*
X149455026Y-99137093D01*
X149350663Y-99197347D01*
X149350662Y-99197348D01*
X149350661Y-99197349D01*
X149265444Y-99282566D01*
X149265443Y-99282567D01*
X149265442Y-99282568D01*
X149205188Y-99386931D01*
X149173995Y-99503340D01*
X149173995Y-100131860D01*
X149205188Y-100248269D01*
X149229065Y-100289625D01*
X149265444Y-100352635D01*
X149762796Y-100849985D01*
X149762797Y-100849987D01*
X149821759Y-100908949D01*
X149880835Y-100968025D01*
X149909062Y-101023423D01*
X149909061Y-101023427D01*
X149910300Y-101039160D01*
X149910300Y-101163655D01*
X149891087Y-101222786D01*
X149840787Y-101259331D01*
X149778613Y-101259331D01*
X149738565Y-101234790D01*
X148467860Y-99964085D01*
X148439634Y-99908687D01*
X148438395Y-99892950D01*
X148438395Y-98880305D01*
X151699535Y-98880305D01*
X151699535Y-98993194D01*
X151728748Y-99102218D01*
X151728750Y-99102223D01*
X151785188Y-99199976D01*
X151865008Y-99279796D01*
X151962761Y-99336234D01*
X151962763Y-99336235D01*
X151962764Y-99336235D01*
X151962766Y-99336236D01*
X152071790Y-99365449D01*
X152071794Y-99365449D01*
X152071796Y-99365450D01*
X152071798Y-99365450D01*
X152184672Y-99365450D01*
X152184674Y-99365450D01*
X152184676Y-99365449D01*
X152184679Y-99365449D01*
X152293703Y-99336236D01*
X152293702Y-99336236D01*
X152293707Y-99336235D01*
X152391463Y-99279795D01*
X152471280Y-99199978D01*
X152527720Y-99102222D01*
X152553192Y-99007160D01*
X152556934Y-98993194D01*
X152556935Y-98993187D01*
X152556935Y-98880312D01*
X152556934Y-98880305D01*
X152527721Y-98771281D01*
X152527719Y-98771276D01*
X152471281Y-98673523D01*
X152450300Y-98652542D01*
X152422074Y-98597144D01*
X152420835Y-98581407D01*
X152420835Y-98372928D01*
X152440048Y-98313797D01*
X152450294Y-98301799D01*
X153238555Y-97513537D01*
X153293951Y-97485313D01*
X153335725Y-97487502D01*
X153410355Y-97507499D01*
X153410359Y-97507499D01*
X153410361Y-97507500D01*
X153410363Y-97507500D01*
X153523237Y-97507500D01*
X153523239Y-97507500D01*
X153523241Y-97507499D01*
X153523244Y-97507499D01*
X153632268Y-97478286D01*
X153632267Y-97478286D01*
X153632272Y-97478285D01*
X153730028Y-97421845D01*
X153809845Y-97342028D01*
X153866285Y-97244272D01*
X153895500Y-97135239D01*
X153895500Y-97022361D01*
X153895499Y-97022359D01*
X153895499Y-97022355D01*
X153866286Y-96913331D01*
X153866284Y-96913326D01*
X153809846Y-96815573D01*
X153730026Y-96735753D01*
X153632273Y-96679315D01*
X153632268Y-96679313D01*
X153523244Y-96650100D01*
X153523239Y-96650100D01*
X153410361Y-96650100D01*
X153410355Y-96650100D01*
X153301331Y-96679313D01*
X153301326Y-96679315D01*
X153203573Y-96735753D01*
X153203572Y-96735755D01*
X153123752Y-96815574D01*
X153121979Y-96817885D01*
X153092479Y-96843753D01*
X153064708Y-96859787D01*
X151894096Y-98030399D01*
X151855576Y-98097118D01*
X151855575Y-98097120D01*
X151855575Y-98097121D01*
X151846622Y-98130533D01*
X151835635Y-98171535D01*
X151835635Y-98581407D01*
X151816422Y-98640538D01*
X151806170Y-98652542D01*
X151785190Y-98673522D01*
X151785188Y-98673523D01*
X151728750Y-98771276D01*
X151728748Y-98771281D01*
X151699535Y-98880305D01*
X148438395Y-98880305D01*
X148438395Y-93646249D01*
X148457608Y-93587118D01*
X148467854Y-93575120D01*
X152366467Y-89676506D01*
X152366471Y-89676504D01*
X152374748Y-89668226D01*
X152374750Y-89668226D01*
X152436321Y-89606655D01*
X152479859Y-89531246D01*
X152479860Y-89531243D01*
X152479861Y-89531241D01*
X152502393Y-89447144D01*
X152502395Y-89447136D01*
X152502395Y-88791820D01*
X154927995Y-88791820D01*
X154927995Y-88999379D01*
X154968487Y-89202951D01*
X155047917Y-89394710D01*
X155047921Y-89394718D01*
X155163231Y-89567292D01*
X155310002Y-89714063D01*
X155482576Y-89829373D01*
X155482578Y-89829374D01*
X155482581Y-89829376D01*
X155674342Y-89908807D01*
X155877915Y-89949300D01*
X155877916Y-89949300D01*
X156085474Y-89949300D01*
X156085475Y-89949300D01*
X156289048Y-89908807D01*
X156480809Y-89829376D01*
X156653389Y-89714062D01*
X156800157Y-89567294D01*
X156915471Y-89394714D01*
X156994902Y-89202953D01*
X157035395Y-88999380D01*
X157035395Y-88791820D01*
X157467995Y-88791820D01*
X157467995Y-88999379D01*
X157508487Y-89202951D01*
X157587917Y-89394710D01*
X157587921Y-89394718D01*
X157703231Y-89567292D01*
X157850002Y-89714063D01*
X158022576Y-89829373D01*
X158022578Y-89829374D01*
X158022581Y-89829376D01*
X158214342Y-89908807D01*
X158417915Y-89949300D01*
X158417916Y-89949300D01*
X158625474Y-89949300D01*
X158625475Y-89949300D01*
X158829048Y-89908807D01*
X159020809Y-89829376D01*
X159193389Y-89714062D01*
X159340157Y-89567294D01*
X159455471Y-89394714D01*
X159534902Y-89202953D01*
X159575395Y-88999380D01*
X159575395Y-88791820D01*
X159534902Y-88588247D01*
X159455471Y-88396486D01*
X159449103Y-88386956D01*
X159340157Y-88223906D01*
X159193387Y-88077136D01*
X159020813Y-87961826D01*
X159020805Y-87961822D01*
X158952828Y-87933665D01*
X158829048Y-87882393D01*
X158829044Y-87882392D01*
X158829047Y-87882392D01*
X158665967Y-87849954D01*
X158625475Y-87841900D01*
X158417915Y-87841900D01*
X158377423Y-87849954D01*
X158214343Y-87882392D01*
X158022584Y-87961822D01*
X158022576Y-87961826D01*
X157850002Y-88077136D01*
X157850001Y-88077138D01*
X157703233Y-88223906D01*
X157587921Y-88396481D01*
X157587917Y-88396489D01*
X157508487Y-88588248D01*
X157467995Y-88791820D01*
X157035395Y-88791820D01*
X156994902Y-88588247D01*
X156915471Y-88396486D01*
X156909103Y-88386956D01*
X156800157Y-88223906D01*
X156653387Y-88077136D01*
X156480813Y-87961826D01*
X156480805Y-87961822D01*
X156412828Y-87933665D01*
X156289048Y-87882393D01*
X156289044Y-87882392D01*
X156289047Y-87882392D01*
X156125967Y-87849954D01*
X156085475Y-87841900D01*
X155877915Y-87841900D01*
X155837423Y-87849954D01*
X155674343Y-87882392D01*
X155482584Y-87961822D01*
X155482576Y-87961826D01*
X155310002Y-88077136D01*
X155310001Y-88077138D01*
X155163233Y-88223906D01*
X155047921Y-88396481D01*
X155047917Y-88396489D01*
X154968487Y-88588248D01*
X154927995Y-88791820D01*
X152502395Y-88791820D01*
X152502395Y-87804249D01*
X152521608Y-87745118D01*
X152531854Y-87733120D01*
X152918398Y-87346575D01*
X152973794Y-87318351D01*
X153028029Y-87324769D01*
X153134342Y-87368807D01*
X153337915Y-87409300D01*
X153337916Y-87409300D01*
X153545474Y-87409300D01*
X153545475Y-87409300D01*
X153749048Y-87368807D01*
X153940809Y-87289376D01*
X154113389Y-87174062D01*
X154260157Y-87027294D01*
X154375471Y-86854714D01*
X154454902Y-86662953D01*
X154495395Y-86459380D01*
X154495395Y-86251820D01*
X154927995Y-86251820D01*
X154927995Y-86459379D01*
X154968487Y-86662951D01*
X155047917Y-86854710D01*
X155047921Y-86854718D01*
X155163231Y-87027292D01*
X155310002Y-87174063D01*
X155482576Y-87289373D01*
X155482578Y-87289374D01*
X155482581Y-87289376D01*
X155674342Y-87368807D01*
X155877915Y-87409300D01*
X155877916Y-87409300D01*
X156085474Y-87409300D01*
X156085475Y-87409300D01*
X156289048Y-87368807D01*
X156480809Y-87289376D01*
X156653389Y-87174062D01*
X156800157Y-87027294D01*
X156915471Y-86854714D01*
X156994902Y-86662953D01*
X157035395Y-86459380D01*
X157035395Y-86251820D01*
X157467995Y-86251820D01*
X157467995Y-86459379D01*
X157508487Y-86662951D01*
X157587917Y-86854710D01*
X157587921Y-86854718D01*
X157703231Y-87027292D01*
X157850002Y-87174063D01*
X158022576Y-87289373D01*
X158022578Y-87289374D01*
X158022581Y-87289376D01*
X158214342Y-87368807D01*
X158417915Y-87409300D01*
X158417916Y-87409300D01*
X158625474Y-87409300D01*
X158625475Y-87409300D01*
X158829048Y-87368807D01*
X159020809Y-87289376D01*
X159193389Y-87174062D01*
X159340157Y-87027294D01*
X159455471Y-86854714D01*
X159534902Y-86662953D01*
X159575395Y-86459380D01*
X159575395Y-86251820D01*
X159534902Y-86048247D01*
X159455471Y-85856486D01*
X159340157Y-85683906D01*
X159193389Y-85537138D01*
X159193387Y-85537136D01*
X159020813Y-85421826D01*
X159020805Y-85421822D01*
X158955007Y-85394567D01*
X158829048Y-85342393D01*
X158829044Y-85342392D01*
X158829047Y-85342392D01*
X158665967Y-85309954D01*
X158625475Y-85301900D01*
X158417915Y-85301900D01*
X158377423Y-85309954D01*
X158214343Y-85342392D01*
X158022584Y-85421822D01*
X158022576Y-85421826D01*
X157850002Y-85537136D01*
X157850001Y-85537138D01*
X157703233Y-85683906D01*
X157703231Y-85683907D01*
X157587921Y-85856481D01*
X157587917Y-85856489D01*
X157508487Y-86048248D01*
X157467995Y-86251820D01*
X157035395Y-86251820D01*
X156994902Y-86048247D01*
X156915471Y-85856486D01*
X156800157Y-85683906D01*
X156653389Y-85537138D01*
X156653387Y-85537136D01*
X156480813Y-85421826D01*
X156480805Y-85421822D01*
X156415007Y-85394567D01*
X156289048Y-85342393D01*
X156289044Y-85342392D01*
X156289047Y-85342392D01*
X156125967Y-85309954D01*
X156085475Y-85301900D01*
X155877915Y-85301900D01*
X155837423Y-85309954D01*
X155674343Y-85342392D01*
X155482584Y-85421822D01*
X155482576Y-85421826D01*
X155310002Y-85537136D01*
X155310001Y-85537138D01*
X155163233Y-85683906D01*
X155163231Y-85683907D01*
X155047921Y-85856481D01*
X155047917Y-85856489D01*
X154968487Y-86048248D01*
X154927995Y-86251820D01*
X154495395Y-86251820D01*
X154454902Y-86048247D01*
X154375471Y-85856486D01*
X154260157Y-85683906D01*
X154113389Y-85537138D01*
X154113387Y-85537136D01*
X153940813Y-85421826D01*
X153940805Y-85421822D01*
X153875007Y-85394567D01*
X153749048Y-85342393D01*
X153749044Y-85342392D01*
X153749047Y-85342392D01*
X153585967Y-85309954D01*
X153545475Y-85301900D01*
X153337915Y-85301900D01*
X153297423Y-85309954D01*
X153134343Y-85342392D01*
X152942584Y-85421822D01*
X152942576Y-85421826D01*
X152770002Y-85537136D01*
X152770001Y-85537138D01*
X152623233Y-85683906D01*
X152623231Y-85683907D01*
X152507921Y-85856481D01*
X152507917Y-85856489D01*
X152428487Y-86048248D01*
X152387995Y-86251820D01*
X152387995Y-86459379D01*
X152428487Y-86662950D01*
X152428487Y-86662951D01*
X152428488Y-86662953D01*
X152433170Y-86674257D01*
X152472524Y-86769263D01*
X152477403Y-86831245D01*
X152450717Y-86878896D01*
X151968642Y-87360972D01*
X151907069Y-87422544D01*
X151863529Y-87497956D01*
X151863528Y-87497958D01*
X151840996Y-87582055D01*
X151840995Y-87582063D01*
X151840995Y-88101874D01*
X151821782Y-88161005D01*
X151771482Y-88197550D01*
X151709308Y-88197550D01*
X151669260Y-88173009D01*
X151573387Y-88077136D01*
X151400813Y-87961826D01*
X151400805Y-87961822D01*
X151332828Y-87933665D01*
X151209048Y-87882393D01*
X151209044Y-87882392D01*
X151209047Y-87882392D01*
X151045967Y-87849954D01*
X151005475Y-87841900D01*
X150797915Y-87841900D01*
X150757423Y-87849954D01*
X150594343Y-87882392D01*
X150402584Y-87961822D01*
X150402576Y-87961826D01*
X150230002Y-88077136D01*
X150230001Y-88077138D01*
X150134130Y-88173009D01*
X150078732Y-88201235D01*
X150017324Y-88191509D01*
X149973360Y-88147545D01*
X149962395Y-88101874D01*
X149962395Y-87804249D01*
X149981608Y-87745118D01*
X149991854Y-87733120D01*
X150378398Y-87346575D01*
X150433794Y-87318351D01*
X150488029Y-87324769D01*
X150594342Y-87368807D01*
X150797915Y-87409300D01*
X150797916Y-87409300D01*
X151005474Y-87409300D01*
X151005475Y-87409300D01*
X151209048Y-87368807D01*
X151400809Y-87289376D01*
X151573389Y-87174062D01*
X151720157Y-87027294D01*
X151835471Y-86854714D01*
X151914902Y-86662953D01*
X151955395Y-86459380D01*
X151955395Y-86251820D01*
X151914902Y-86048247D01*
X151835471Y-85856486D01*
X151720157Y-85683906D01*
X151573389Y-85537138D01*
X151573387Y-85537136D01*
X151400813Y-85421826D01*
X151400805Y-85421822D01*
X151335007Y-85394567D01*
X151209048Y-85342393D01*
X151209044Y-85342392D01*
X151209047Y-85342392D01*
X151045967Y-85309954D01*
X151005475Y-85301900D01*
X150797915Y-85301900D01*
X150757423Y-85309954D01*
X150594343Y-85342392D01*
X150402584Y-85421822D01*
X150402576Y-85421826D01*
X150230002Y-85537136D01*
X150230001Y-85537138D01*
X150083233Y-85683906D01*
X150083231Y-85683907D01*
X149967921Y-85856481D01*
X149967917Y-85856489D01*
X149888487Y-86048248D01*
X149847995Y-86251820D01*
X149847995Y-86459379D01*
X149888487Y-86662950D01*
X149888487Y-86662951D01*
X149888488Y-86662953D01*
X149893170Y-86674257D01*
X149932524Y-86769263D01*
X149937403Y-86831245D01*
X149910717Y-86878896D01*
X149428642Y-87360972D01*
X149367069Y-87422544D01*
X149323529Y-87497956D01*
X149323528Y-87497958D01*
X149300996Y-87582055D01*
X149300995Y-87582063D01*
X149300995Y-88101874D01*
X149281782Y-88161005D01*
X149231482Y-88197550D01*
X149169308Y-88197550D01*
X149129260Y-88173009D01*
X149033387Y-88077136D01*
X148860813Y-87961826D01*
X148860805Y-87961822D01*
X148792828Y-87933665D01*
X148669048Y-87882393D01*
X148669044Y-87882392D01*
X148669047Y-87882392D01*
X148505967Y-87849954D01*
X148465475Y-87841900D01*
X148257915Y-87841900D01*
X148217423Y-87849954D01*
X148054343Y-87882392D01*
X147862584Y-87961822D01*
X147862576Y-87961826D01*
X147690002Y-88077136D01*
X147690001Y-88077138D01*
X147594130Y-88173009D01*
X147538732Y-88201235D01*
X147477324Y-88191509D01*
X147433360Y-88147545D01*
X147422395Y-88101874D01*
X147422395Y-87804249D01*
X147441608Y-87745118D01*
X147451854Y-87733120D01*
X147838398Y-87346575D01*
X147893794Y-87318351D01*
X147948029Y-87324769D01*
X148054342Y-87368807D01*
X148257915Y-87409300D01*
X148257916Y-87409300D01*
X148465474Y-87409300D01*
X148465475Y-87409300D01*
X148669048Y-87368807D01*
X148860809Y-87289376D01*
X149033389Y-87174062D01*
X149180157Y-87027294D01*
X149295471Y-86854714D01*
X149374902Y-86662953D01*
X149415395Y-86459380D01*
X149415395Y-86251820D01*
X149374902Y-86048247D01*
X149295471Y-85856486D01*
X149180157Y-85683906D01*
X149033389Y-85537138D01*
X149033387Y-85537136D01*
X148860813Y-85421826D01*
X148860805Y-85421822D01*
X148795007Y-85394567D01*
X148669048Y-85342393D01*
X148669044Y-85342392D01*
X148669047Y-85342392D01*
X148505967Y-85309954D01*
X148465475Y-85301900D01*
X148257915Y-85301900D01*
X148217423Y-85309954D01*
X148054343Y-85342392D01*
X147862584Y-85421822D01*
X147862576Y-85421826D01*
X147690002Y-85537136D01*
X147690001Y-85537138D01*
X147543233Y-85683906D01*
X147543231Y-85683907D01*
X147427921Y-85856481D01*
X147427917Y-85856489D01*
X147348487Y-86048248D01*
X147307995Y-86251820D01*
X147307995Y-86459379D01*
X147348487Y-86662950D01*
X147348487Y-86662951D01*
X147348488Y-86662953D01*
X147353170Y-86674257D01*
X147392524Y-86769263D01*
X147397403Y-86831245D01*
X147370717Y-86878896D01*
X146888642Y-87360972D01*
X146827069Y-87422544D01*
X146783529Y-87497956D01*
X146783528Y-87497958D01*
X146760996Y-87582055D01*
X146760995Y-87582063D01*
X146760995Y-88101874D01*
X146741782Y-88161005D01*
X146691482Y-88197550D01*
X146629308Y-88197550D01*
X146589260Y-88173009D01*
X146493387Y-88077136D01*
X146320813Y-87961826D01*
X146320805Y-87961822D01*
X146252828Y-87933665D01*
X146129048Y-87882393D01*
X146129044Y-87882392D01*
X146129047Y-87882392D01*
X145965967Y-87849954D01*
X145925475Y-87841900D01*
X145717915Y-87841900D01*
X145677423Y-87849954D01*
X145514343Y-87882392D01*
X145322584Y-87961822D01*
X145322576Y-87961826D01*
X145150002Y-88077136D01*
X145150001Y-88077138D01*
X145003233Y-88223906D01*
X144887921Y-88396481D01*
X144887917Y-88396489D01*
X144808487Y-88588248D01*
X144767995Y-88791820D01*
X144767995Y-88999379D01*
X144808487Y-89202951D01*
X144887917Y-89394710D01*
X144887921Y-89394718D01*
X144930563Y-89458536D01*
X144947439Y-89518376D01*
X144925920Y-89576707D01*
X144918052Y-89585561D01*
X144419130Y-90084484D01*
X144363732Y-90112710D01*
X144302324Y-90102984D01*
X144258360Y-90059021D01*
X144247395Y-90013349D01*
X144247395Y-88693249D01*
X144266608Y-88634118D01*
X144276854Y-88622120D01*
X145489521Y-87409452D01*
X145544917Y-87381228D01*
X145580277Y-87381921D01*
X145717915Y-87409300D01*
X145717916Y-87409300D01*
X145925474Y-87409300D01*
X145925475Y-87409300D01*
X146129048Y-87368807D01*
X146320809Y-87289376D01*
X146493389Y-87174062D01*
X146640157Y-87027294D01*
X146755471Y-86854714D01*
X146834902Y-86662953D01*
X146875395Y-86459380D01*
X146875395Y-86251820D01*
X146834902Y-86048247D01*
X146755471Y-85856486D01*
X146640157Y-85683906D01*
X146493389Y-85537138D01*
X146493387Y-85537136D01*
X146320813Y-85421826D01*
X146320805Y-85421822D01*
X146255007Y-85394567D01*
X146129048Y-85342393D01*
X146129044Y-85342392D01*
X146129047Y-85342392D01*
X145965967Y-85309954D01*
X145925475Y-85301900D01*
X145717915Y-85301900D01*
X145677423Y-85309954D01*
X145514343Y-85342392D01*
X145322584Y-85421822D01*
X145322576Y-85421826D01*
X145150002Y-85537136D01*
X145150001Y-85537138D01*
X145003233Y-85683906D01*
X145003231Y-85683907D01*
X144887921Y-85856481D01*
X144887917Y-85856489D01*
X144808487Y-86048248D01*
X144767995Y-86251820D01*
X144767995Y-86459379D01*
X144808487Y-86662951D01*
X144887917Y-86854710D01*
X144887921Y-86854718D01*
X144930563Y-86918536D01*
X144947439Y-86978376D01*
X144925920Y-87036707D01*
X144918052Y-87045561D01*
X143713642Y-88249972D01*
X143652069Y-88311544D01*
X143608529Y-88386956D01*
X143608528Y-88386958D01*
X143585996Y-88471055D01*
X143585995Y-88471063D01*
X139522700Y-88471063D01*
X139522700Y-87566256D01*
X139541913Y-87507125D01*
X139552165Y-87495121D01*
X142994121Y-84053165D01*
X143049519Y-84024939D01*
X143065256Y-84023700D01*
X147375856Y-84023700D01*
X147375858Y-84023700D01*
X147375862Y-84023699D01*
X147379483Y-84022729D01*
X147405523Y-84019300D01*
X167150344Y-84019300D01*
X167209475Y-84038513D01*
X167221479Y-84048765D01*
X167660835Y-84488121D01*
X167689061Y-84543519D01*
X167690300Y-84559256D01*
X167690300Y-87906744D01*
X167671087Y-87965875D01*
X167660835Y-87977879D01*
X167230279Y-88408435D01*
X167223045Y-88412120D01*
X167218275Y-88418687D01*
X167195869Y-88425966D01*
X167174881Y-88436661D01*
X167159144Y-88437900D01*
X167156915Y-88437900D01*
X167097784Y-88418687D01*
X167073269Y-88393190D01*
X166960157Y-88223906D01*
X166813387Y-88077136D01*
X166640813Y-87961826D01*
X166640805Y-87961822D01*
X166572828Y-87933665D01*
X166449048Y-87882393D01*
X166449044Y-87882392D01*
X166449047Y-87882392D01*
X166285967Y-87849954D01*
X166245475Y-87841900D01*
X166037915Y-87841900D01*
X165997423Y-87849954D01*
X165834343Y-87882392D01*
X165642584Y-87961822D01*
X165642576Y-87961826D01*
X165470002Y-88077136D01*
X165470001Y-88077138D01*
X165323232Y-88223906D01*
X165210121Y-88393190D01*
X165161294Y-88431682D01*
X165126475Y-88437900D01*
X164616915Y-88437900D01*
X164557784Y-88418687D01*
X164533269Y-88393190D01*
X164420157Y-88223906D01*
X164273387Y-88077136D01*
X164100813Y-87961826D01*
X164100805Y-87961822D01*
X164032828Y-87933665D01*
X163909048Y-87882393D01*
X163909044Y-87882392D01*
X163909047Y-87882392D01*
X163745967Y-87849954D01*
X163705475Y-87841900D01*
X163497915Y-87841900D01*
X163457423Y-87849954D01*
X163294343Y-87882392D01*
X163102584Y-87961822D01*
X163102576Y-87961826D01*
X162930002Y-88077136D01*
X162930001Y-88077138D01*
X162783231Y-88223908D01*
X162750991Y-88272158D01*
X162749370Y-88273435D01*
X162748733Y-88275398D01*
X162725105Y-88292564D01*
X162702165Y-88310649D01*
X162700102Y-88310730D01*
X162698433Y-88311943D01*
X162669231Y-88311943D01*
X162640038Y-88313090D01*
X162638321Y-88311943D01*
X162636259Y-88311943D01*
X162612633Y-88294777D01*
X162588343Y-88278547D01*
X162587628Y-88276611D01*
X162585959Y-88275398D01*
X162576930Y-88247611D01*
X162566824Y-88220216D01*
X162566746Y-88216267D01*
X162566746Y-88127837D01*
X162566747Y-88127824D01*
X162566747Y-88039754D01*
X162566746Y-88039751D01*
X162546049Y-87962510D01*
X162506068Y-87893262D01*
X161877165Y-87264359D01*
X161873479Y-87257125D01*
X161866913Y-87252355D01*
X161859633Y-87229949D01*
X161848939Y-87208961D01*
X161847700Y-87193224D01*
X161847700Y-87101421D01*
X161866913Y-87042290D01*
X161877165Y-87030286D01*
X161880157Y-87027294D01*
X161880158Y-87027292D01*
X161952827Y-86918536D01*
X161995471Y-86854714D01*
X162074902Y-86662953D01*
X162115395Y-86459380D01*
X162115395Y-86251820D01*
X162074902Y-86048247D01*
X161995471Y-85856486D01*
X161880157Y-85683906D01*
X161733389Y-85537138D01*
X161733387Y-85537136D01*
X161560813Y-85421826D01*
X161560805Y-85421822D01*
X161495007Y-85394567D01*
X161369048Y-85342393D01*
X161369044Y-85342392D01*
X161369047Y-85342392D01*
X161205967Y-85309954D01*
X161165475Y-85301900D01*
X160957915Y-85301900D01*
X160917423Y-85309954D01*
X160754343Y-85342392D01*
X160562584Y-85421822D01*
X160562576Y-85421826D01*
X160390002Y-85537136D01*
X160390001Y-85537138D01*
X160243233Y-85683906D01*
X160243231Y-85683907D01*
X160127921Y-85856481D01*
X160127917Y-85856489D01*
X160048487Y-86048248D01*
X160007995Y-86251820D01*
X160007995Y-86459379D01*
X160048487Y-86662951D01*
X160127917Y-86854710D01*
X160127921Y-86854718D01*
X160243231Y-87027292D01*
X160390002Y-87174063D01*
X160562576Y-87289373D01*
X160562578Y-87289374D01*
X160562581Y-87289376D01*
X160754342Y-87368807D01*
X160957915Y-87409300D01*
X160957916Y-87409300D01*
X161165417Y-87409300D01*
X161224548Y-87428513D01*
X161256582Y-87472604D01*
X161258472Y-87471822D01*
X161260996Y-87477916D01*
X161300977Y-87547165D01*
X161468547Y-87714735D01*
X161496773Y-87770133D01*
X161487047Y-87831541D01*
X161443083Y-87875505D01*
X161381675Y-87885231D01*
X161371063Y-87882793D01*
X161206145Y-87849989D01*
X161165475Y-87841900D01*
X160957915Y-87841900D01*
X160917423Y-87849954D01*
X160754343Y-87882392D01*
X160562584Y-87961822D01*
X160562576Y-87961826D01*
X160390002Y-88077136D01*
X160390001Y-88077138D01*
X160243232Y-88223906D01*
X160127921Y-88396481D01*
X160127917Y-88396489D01*
X160048487Y-88588248D01*
X160007995Y-88791820D01*
X160007995Y-88999379D01*
X160048487Y-89202951D01*
X160103707Y-89336263D01*
X160108585Y-89398246D01*
X160081900Y-89445896D01*
X158055524Y-91472274D01*
X157998979Y-91528819D01*
X157998977Y-91528820D01*
X157958996Y-91598069D01*
X157958993Y-91598075D01*
X157938301Y-91675305D01*
X157938300Y-91675313D01*
X157938300Y-98577907D01*
X157938301Y-98577915D01*
X157958993Y-98655145D01*
X157958996Y-98655151D01*
X157998977Y-98724400D01*
X157998978Y-98724401D01*
X160803535Y-101528957D01*
X160803540Y-101528963D01*
X160863599Y-101589022D01*
X160932848Y-101629003D01*
X160932850Y-101629004D01*
X160932851Y-101629004D01*
X160932853Y-101629005D01*
X161010084Y-101649699D01*
X161010088Y-101649699D01*
X161010090Y-101649700D01*
X161010091Y-101649700D01*
X164678533Y-101649700D01*
X164737664Y-101668913D01*
X164749668Y-101679165D01*
X165149835Y-102079332D01*
X165178061Y-102134730D01*
X165179300Y-102150467D01*
X165179300Y-102164444D01*
X165208513Y-102273468D01*
X165208515Y-102273473D01*
X165264953Y-102371226D01*
X165344773Y-102451046D01*
X165442526Y-102507484D01*
X165442528Y-102507485D01*
X165442529Y-102507485D01*
X165442531Y-102507486D01*
X165551555Y-102536699D01*
X165551559Y-102536699D01*
X165551561Y-102536700D01*
X165551563Y-102536700D01*
X165664437Y-102536700D01*
X165664439Y-102536700D01*
X165664441Y-102536699D01*
X165664444Y-102536699D01*
X165773468Y-102507486D01*
X165773467Y-102507486D01*
X165773472Y-102507485D01*
X165871228Y-102451045D01*
X165951045Y-102371228D01*
X166007485Y-102273472D01*
X166022252Y-102218359D01*
X166036699Y-102164444D01*
X166036700Y-102164437D01*
X166036700Y-102051562D01*
X166036699Y-102051555D01*
X166007486Y-101942531D01*
X166007484Y-101942526D01*
X165951046Y-101844773D01*
X165871226Y-101764953D01*
X165773473Y-101708515D01*
X165773468Y-101708513D01*
X165664444Y-101679300D01*
X165664439Y-101679300D01*
X165650467Y-101679300D01*
X165591336Y-101660087D01*
X165579332Y-101649835D01*
X165032474Y-101102977D01*
X164963225Y-101062996D01*
X164963219Y-101062993D01*
X164885989Y-101042301D01*
X164885984Y-101042300D01*
X164885983Y-101042300D01*
X164885982Y-101042300D01*
X161217540Y-101042300D01*
X161158409Y-101023087D01*
X161146405Y-101012835D01*
X158575165Y-98441594D01*
X158546939Y-98386196D01*
X158545700Y-98370459D01*
X158545700Y-91882761D01*
X158564913Y-91823630D01*
X158575159Y-91811632D01*
X160511399Y-89875391D01*
X160566795Y-89847167D01*
X160621027Y-89853585D01*
X160754342Y-89908807D01*
X160957915Y-89949300D01*
X160957916Y-89949300D01*
X161165474Y-89949300D01*
X161165475Y-89949300D01*
X161369048Y-89908807D01*
X161369048Y-89908806D01*
X161369153Y-89908786D01*
X161430896Y-89916094D01*
X161476552Y-89958298D01*
X161488682Y-90019277D01*
X161462652Y-90075740D01*
X161459914Y-90078588D01*
X161263398Y-90275105D01*
X161208001Y-90303331D01*
X161192263Y-90304570D01*
X160892165Y-90304570D01*
X160892149Y-90304569D01*
X160885988Y-90304569D01*
X160806021Y-90304569D01*
X160806018Y-90304569D01*
X160728777Y-90325266D01*
X160659529Y-90365247D01*
X160659528Y-90365249D01*
X159268979Y-91755798D01*
X159268977Y-91755799D01*
X159228996Y-91825048D01*
X159228993Y-91825054D01*
X159208301Y-91902284D01*
X159208300Y-91902292D01*
X159208300Y-98337981D01*
X159208301Y-98337989D01*
X159228993Y-98415219D01*
X159228996Y-98415225D01*
X159268977Y-98484474D01*
X159268978Y-98484475D01*
X159268979Y-98484476D01*
X161291077Y-100506573D01*
X161291079Y-100506576D01*
X161347624Y-100563121D01*
X161402556Y-100594836D01*
X161416876Y-100603104D01*
X161416877Y-100603104D01*
X161416878Y-100603105D01*
X161494110Y-100623799D01*
X161494114Y-100623799D01*
X161494116Y-100623800D01*
X161494117Y-100623800D01*
X165049633Y-100623800D01*
X165108764Y-100643013D01*
X165120768Y-100653265D01*
X166290835Y-101823332D01*
X166319061Y-101878730D01*
X166320300Y-101894467D01*
X166320300Y-104064118D01*
X166301087Y-104123249D01*
X166270002Y-104151239D01*
X166229968Y-104174353D01*
X166229967Y-104174355D01*
X166150150Y-104254172D01*
X166150148Y-104254173D01*
X166093710Y-104351926D01*
X166093708Y-104351931D01*
X166064495Y-104460955D01*
X166064495Y-104573844D01*
X166093708Y-104682868D01*
X166093710Y-104682873D01*
X166150148Y-104780626D01*
X166229968Y-104860446D01*
X166317921Y-104911226D01*
X166327723Y-104916885D01*
X166327724Y-104916885D01*
X166327726Y-104916886D01*
X166436750Y-104946099D01*
X166436754Y-104946099D01*
X166436756Y-104946100D01*
X166436758Y-104946100D01*
X166549632Y-104946100D01*
X166549634Y-104946100D01*
X166549636Y-104946099D01*
X166549639Y-104946099D01*
X166639644Y-104921981D01*
X166658667Y-104916885D01*
X166756423Y-104860445D01*
X166836240Y-104780628D01*
X166892680Y-104682872D01*
X166905675Y-104634373D01*
X166921894Y-104573844D01*
X166921895Y-104573837D01*
X166921895Y-104468892D01*
X166925324Y-104442852D01*
X166927699Y-104433988D01*
X166927700Y-104433982D01*
X166927700Y-101687018D01*
X166927698Y-101687010D01*
X166907006Y-101609780D01*
X166907003Y-101609774D01*
X166867022Y-101540525D01*
X165403574Y-100077077D01*
X165334325Y-100037096D01*
X165334319Y-100037093D01*
X165257089Y-100016401D01*
X165257084Y-100016400D01*
X165257083Y-100016400D01*
X165257082Y-100016400D01*
X161701566Y-100016400D01*
X161642435Y-99997187D01*
X161630431Y-99986935D01*
X159845165Y-98201668D01*
X159816939Y-98146270D01*
X159815700Y-98130533D01*
X159815700Y-92109741D01*
X159834913Y-92050610D01*
X159845165Y-92038606D01*
X160942336Y-90941435D01*
X160997734Y-90913209D01*
X161013471Y-90911970D01*
X161399712Y-90911970D01*
X161399713Y-90911970D01*
X161428505Y-90904255D01*
X161476949Y-90891276D01*
X161476951Y-90891274D01*
X161476954Y-90891274D01*
X161546206Y-90851291D01*
X162506067Y-89891430D01*
X162546050Y-89822178D01*
X162546050Y-89822175D01*
X162546052Y-89822173D01*
X162560028Y-89770008D01*
X162566746Y-89744937D01*
X162566746Y-89664970D01*
X162566746Y-89574932D01*
X162585959Y-89515801D01*
X162636259Y-89479256D01*
X162698433Y-89479256D01*
X162748733Y-89515801D01*
X162750992Y-89519042D01*
X162783231Y-89567292D01*
X162930002Y-89714063D01*
X163102576Y-89829373D01*
X163102578Y-89829374D01*
X163102581Y-89829376D01*
X163294342Y-89908807D01*
X163497915Y-89949300D01*
X163497916Y-89949300D01*
X163705474Y-89949300D01*
X163705475Y-89949300D01*
X163909048Y-89908807D01*
X164100809Y-89829376D01*
X164273389Y-89714062D01*
X164420157Y-89567294D01*
X164499346Y-89448779D01*
X164533269Y-89398010D01*
X164582096Y-89359518D01*
X164616915Y-89353300D01*
X165126475Y-89353300D01*
X165185606Y-89372513D01*
X165210121Y-89398010D01*
X165323231Y-89567292D01*
X165470002Y-89714063D01*
X165642576Y-89829373D01*
X165642578Y-89829374D01*
X165642581Y-89829376D01*
X165834342Y-89908807D01*
X166037915Y-89949300D01*
X166037916Y-89949300D01*
X166245474Y-89949300D01*
X166245475Y-89949300D01*
X166449048Y-89908807D01*
X166640809Y-89829376D01*
X166813389Y-89714062D01*
X166960157Y-89567294D01*
X167039346Y-89448779D01*
X167073269Y-89398010D01*
X167122096Y-89359518D01*
X167156915Y-89353300D01*
X167450658Y-89353300D01*
X167567066Y-89322108D01*
X167671435Y-89261851D01*
X168514251Y-88419035D01*
X168574508Y-88314666D01*
X168598827Y-88223906D01*
X168605700Y-88198257D01*
X168605700Y-84888331D01*
X171697995Y-84888331D01*
X171697995Y-85111668D01*
X171727143Y-85333082D01*
X171727144Y-85333091D01*
X171784945Y-85548805D01*
X171784952Y-85548826D01*
X171870413Y-85755143D01*
X171982077Y-85948552D01*
X171982079Y-85948555D01*
X171982080Y-85948556D01*
X172118037Y-86125738D01*
X172275957Y-86283658D01*
X172453139Y-86419615D01*
X172453142Y-86419617D01*
X172646551Y-86531281D01*
X172852868Y-86616742D01*
X172852889Y-86616749D01*
X173068603Y-86674550D01*
X173068612Y-86674551D01*
X173290027Y-86703700D01*
X173290029Y-86703700D01*
X173513363Y-86703700D01*
X173734777Y-86674551D01*
X173734786Y-86674550D01*
X173950500Y-86616749D01*
X173950501Y-86616748D01*
X173950507Y-86616747D01*
X173950511Y-86616745D01*
X173950521Y-86616742D01*
X174102618Y-86553740D01*
X174156839Y-86531281D01*
X174350251Y-86419615D01*
X174527433Y-86283658D01*
X174685353Y-86125738D01*
X174821310Y-85948556D01*
X174932976Y-85755144D01*
X174962153Y-85684703D01*
X175018437Y-85548826D01*
X175018444Y-85548805D01*
X175076245Y-85333091D01*
X175076246Y-85333082D01*
X175105395Y-85111668D01*
X175105395Y-84888331D01*
X175076246Y-84666917D01*
X175076245Y-84666908D01*
X175018444Y-84451194D01*
X175018437Y-84451173D01*
X174932976Y-84244856D01*
X174821312Y-84051447D01*
X174819254Y-84048765D01*
X174685353Y-83874262D01*
X174527433Y-83716342D01*
X174350251Y-83580385D01*
X174350250Y-83580384D01*
X174350247Y-83580382D01*
X174156838Y-83468718D01*
X173950521Y-83383257D01*
X173950500Y-83383250D01*
X173734786Y-83325449D01*
X173734777Y-83325448D01*
X173513363Y-83296300D01*
X173513361Y-83296300D01*
X173290029Y-83296300D01*
X173290027Y-83296300D01*
X173068612Y-83325448D01*
X173068603Y-83325449D01*
X172852889Y-83383250D01*
X172852868Y-83383257D01*
X172646551Y-83468718D01*
X172453142Y-83580382D01*
X172275953Y-83716345D01*
X172118040Y-83874258D01*
X171982077Y-84051447D01*
X171870413Y-84244856D01*
X171784952Y-84451173D01*
X171784945Y-84451194D01*
X171727144Y-84666908D01*
X171727143Y-84666917D01*
X171697995Y-84888331D01*
X168605700Y-84888331D01*
X168605700Y-84267743D01*
X168574508Y-84151335D01*
X168574508Y-84151334D01*
X168514251Y-84046965D01*
X167662635Y-83195349D01*
X167662632Y-83195347D01*
X167558269Y-83135093D01*
X167558266Y-83135092D01*
X167527079Y-83126735D01*
X167441860Y-83103900D01*
X167441858Y-83103900D01*
X167441857Y-83103900D01*
X147380258Y-83103900D01*
X147259743Y-83103900D01*
X147259738Y-83103900D01*
X147256118Y-83104871D01*
X147230078Y-83108300D01*
X142773738Y-83108300D01*
X142657337Y-83139490D01*
X142657332Y-83139492D01*
X142552967Y-83199747D01*
X142552966Y-83199748D01*
X142552965Y-83199749D01*
X138698749Y-87053965D01*
X138688510Y-87071699D01*
X138638492Y-87158333D01*
X138638489Y-87158340D01*
X138615681Y-87243465D01*
X138607300Y-87274740D01*
X138607300Y-91589744D01*
X138588087Y-91648875D01*
X138577835Y-91660879D01*
X137253879Y-92984835D01*
X137198481Y-93013061D01*
X137182744Y-93014300D01*
X136083740Y-93014300D01*
X135967331Y-93045493D01*
X135862968Y-93105747D01*
X135862967Y-93105748D01*
X135862966Y-93105749D01*
X135777749Y-93190966D01*
X135777748Y-93190967D01*
X135777747Y-93190968D01*
X135717493Y-93295331D01*
X135686300Y-93411740D01*
X134597940Y-93411740D01*
X134596634Y-93409176D01*
X134595395Y-93393439D01*
X134595395Y-89754440D01*
X134595394Y-89754433D01*
X134584577Y-89714063D01*
X134583961Y-89711764D01*
X134564203Y-89638029D01*
X134564202Y-89638028D01*
X134564202Y-89638026D01*
X134503947Y-89533662D01*
X134503946Y-89533660D01*
X133804035Y-88833749D01*
X133804032Y-88833747D01*
X133699669Y-88773493D01*
X133699666Y-88773492D01*
X133668479Y-88765135D01*
X133583260Y-88742300D01*
X133583258Y-88742300D01*
X133583257Y-88742300D01*
X133083595Y-88742300D01*
X133043208Y-88731477D01*
X133042515Y-88733151D01*
X133036423Y-88730628D01*
X133036422Y-88730627D01*
X133036421Y-88730627D01*
X132976969Y-88714696D01*
X132908315Y-88696300D01*
X132908313Y-88696300D01*
X132775687Y-88696300D01*
X132775684Y-88696300D01*
X132647575Y-88730628D01*
X132532723Y-88796938D01*
X132532722Y-88796939D01*
X132532721Y-88796940D01*
X132438940Y-88890721D01*
X132438939Y-88890722D01*
X132438938Y-88890723D01*
X132372628Y-89005575D01*
X132338300Y-89133684D01*
X131648700Y-89133684D01*
X131648700Y-88369256D01*
X131651208Y-88361535D01*
X131649939Y-88353519D01*
X131660633Y-88332530D01*
X131667913Y-88310125D01*
X131678165Y-88298121D01*
X131732121Y-88244165D01*
X131787519Y-88215939D01*
X131803256Y-88214700D01*
X134299257Y-88214700D01*
X134415665Y-88183508D01*
X134520034Y-88123251D01*
X134605251Y-88038034D01*
X134665508Y-87933665D01*
X134696700Y-87817257D01*
X134696700Y-87696743D01*
X134665508Y-87580335D01*
X134646357Y-87547165D01*
X134605252Y-87475968D01*
X134605251Y-87475966D01*
X134520034Y-87390749D01*
X134520031Y-87390747D01*
X134415668Y-87330493D01*
X134415665Y-87330492D01*
X134370355Y-87318351D01*
X134299259Y-87299300D01*
X134299257Y-87299300D01*
X131511743Y-87299300D01*
X131511739Y-87299300D01*
X131395339Y-87330490D01*
X131395332Y-87330493D01*
X131351221Y-87355959D01*
X131351222Y-87355960D01*
X131290967Y-87390747D01*
X131290965Y-87390748D01*
X131290965Y-87390749D01*
X130824749Y-87856965D01*
X130824748Y-87856967D01*
X130764491Y-87961334D01*
X130764492Y-87961335D01*
X130733300Y-88077739D01*
X130733300Y-91281075D01*
X130714087Y-91340206D01*
X130663787Y-91376751D01*
X130606664Y-91378247D01*
X130497068Y-91348882D01*
X130497062Y-91348881D01*
X130497061Y-91348881D01*
X130384183Y-91348881D01*
X130384177Y-91348881D01*
X130275153Y-91378094D01*
X130275148Y-91378096D01*
X130177395Y-91434534D01*
X130177394Y-91434536D01*
X130097577Y-91514353D01*
X130097575Y-91514354D01*
X130041137Y-91612107D01*
X130041135Y-91612112D01*
X130011922Y-91721136D01*
X129489700Y-91721136D01*
X129489700Y-88115256D01*
X129508913Y-88056125D01*
X129519165Y-88044121D01*
X130462121Y-87101165D01*
X130517519Y-87072939D01*
X130533256Y-87071700D01*
X131378257Y-87071700D01*
X131494665Y-87040508D01*
X131599034Y-86980251D01*
X131684251Y-86895034D01*
X131744508Y-86790665D01*
X131775700Y-86674257D01*
X131775700Y-86553743D01*
X131744508Y-86437335D01*
X131734277Y-86419615D01*
X131684252Y-86332968D01*
X131684251Y-86332966D01*
X131599034Y-86247749D01*
X131599031Y-86247747D01*
X131494668Y-86187493D01*
X131494665Y-86187492D01*
X131463469Y-86179133D01*
X131378259Y-86156300D01*
X131378257Y-86156300D01*
X130241743Y-86156300D01*
X130241740Y-86156300D01*
X130156527Y-86179133D01*
X130156526Y-86179134D01*
X130129016Y-86186505D01*
X130125330Y-86187493D01*
X130020967Y-86247747D01*
X130020966Y-86247748D01*
X130020965Y-86247749D01*
X128665749Y-87602965D01*
X128665748Y-87602967D01*
X128605492Y-87707333D01*
X128605489Y-87707340D01*
X128576039Y-87817253D01*
X128576038Y-87817257D01*
X128574300Y-87823741D01*
X128574300Y-91389700D01*
X128555087Y-91448831D01*
X128504787Y-91485376D01*
X128473700Y-91490300D01*
X128082740Y-91490300D01*
X127966331Y-91521493D01*
X127861968Y-91581747D01*
X127861967Y-91581748D01*
X127861966Y-91581749D01*
X127776749Y-91666966D01*
X127776748Y-91666967D01*
X127776747Y-91666968D01*
X127716493Y-91771331D01*
X127685300Y-91887740D01*
X127685300Y-93629165D01*
X127716493Y-93745574D01*
X127770000Y-93838251D01*
X127776749Y-93849940D01*
X132862836Y-98936027D01*
X132891061Y-98991423D01*
X132892300Y-99007160D01*
X132892300Y-103039839D01*
X132889791Y-103047559D01*
X132891061Y-103055576D01*
X132880366Y-103076564D01*
X132873087Y-103098970D01*
X132862835Y-103110974D01*
X132846050Y-103127759D01*
X132790652Y-103155985D01*
X132729244Y-103146259D01*
X132685280Y-103102295D01*
X132674315Y-103056624D01*
X132674315Y-101355093D01*
X132674458Y-101315350D01*
X132674456Y-101315346D01*
X132674387Y-101314992D01*
X132674387Y-101314990D01*
X132674384Y-101314974D01*
X132674317Y-101314633D01*
X132659336Y-101278465D01*
X132659198Y-101278131D01*
X132644199Y-101241549D01*
X132644017Y-101241275D01*
X132644016Y-101241273D01*
X132644013Y-101241268D01*
X132643796Y-101240941D01*
X132616009Y-101213154D01*
X132615753Y-101212897D01*
X132588000Y-101184943D01*
X132587596Y-101184671D01*
X132587594Y-101184668D01*
X132587402Y-101184539D01*
X132570594Y-101177577D01*
X132551001Y-101169461D01*
X132550799Y-101169377D01*
X132514419Y-101154155D01*
X132514043Y-101154153D01*
X132513697Y-101154010D01*
X132513679Y-101154010D01*
X132474232Y-101154010D01*
X132473870Y-101154009D01*
X126419324Y-101132208D01*
X126419293Y-101132208D01*
X126409241Y-101132168D01*
X126408900Y-101132028D01*
X126374613Y-101132033D01*
X126374252Y-101132032D01*
X126374171Y-101132005D01*
X126363398Y-101131402D01*
X126233754Y-101116817D01*
X126211789Y-101111807D01*
X126093997Y-101070609D01*
X126073698Y-101060838D01*
X125993188Y-101010265D01*
X125968027Y-100994459D01*
X125950419Y-100980421D01*
X125862170Y-100892190D01*
X125848126Y-100874583D01*
X125781722Y-100768924D01*
X125771950Y-100748637D01*
X125730722Y-100630841D01*
X125725712Y-100608893D01*
X125711130Y-100479537D01*
X125710499Y-100468371D01*
X125710499Y-100433741D01*
X125710474Y-100433683D01*
X125710470Y-100427851D01*
X125702165Y-84888331D01*
X126296300Y-84888331D01*
X126296300Y-85111668D01*
X126325448Y-85333082D01*
X126325449Y-85333091D01*
X126383250Y-85548805D01*
X126383257Y-85548826D01*
X126468718Y-85755143D01*
X126580382Y-85948552D01*
X126580384Y-85948555D01*
X126580385Y-85948556D01*
X126716342Y-86125738D01*
X126874262Y-86283658D01*
X127051444Y-86419615D01*
X127051447Y-86419617D01*
X127244856Y-86531281D01*
X127451173Y-86616742D01*
X127451194Y-86616749D01*
X127666908Y-86674550D01*
X127666917Y-86674551D01*
X127888332Y-86703700D01*
X127888334Y-86703700D01*
X128111668Y-86703700D01*
X128333082Y-86674551D01*
X128333091Y-86674550D01*
X128548805Y-86616749D01*
X128548806Y-86616748D01*
X128548812Y-86616747D01*
X128548816Y-86616745D01*
X128548826Y-86616742D01*
X128700923Y-86553740D01*
X128755144Y-86531281D01*
X128948556Y-86419615D01*
X129125738Y-86283658D01*
X129283658Y-86125738D01*
X129419615Y-85948556D01*
X129531281Y-85755144D01*
X129560458Y-85684703D01*
X129616742Y-85548826D01*
X129616749Y-85548805D01*
X129674550Y-85333091D01*
X129674551Y-85333082D01*
X129703700Y-85111668D01*
X129703700Y-84888331D01*
X129674551Y-84666917D01*
X129674550Y-84666908D01*
X129616749Y-84451194D01*
X129616742Y-84451173D01*
X129531281Y-84244856D01*
X129419617Y-84051447D01*
X129417559Y-84048765D01*
X129283658Y-83874262D01*
X129125738Y-83716342D01*
X128948556Y-83580385D01*
X128948555Y-83580384D01*
X128948552Y-83580382D01*
X128755143Y-83468718D01*
X128548826Y-83383257D01*
X128548805Y-83383250D01*
X128333091Y-83325449D01*
X128333082Y-83325448D01*
X128111668Y-83296300D01*
X128111666Y-83296300D01*
X127888334Y-83296300D01*
X127888332Y-83296300D01*
X127666917Y-83325448D01*
X127666908Y-83325449D01*
X127451194Y-83383250D01*
X127451173Y-83383257D01*
X127244856Y-83468718D01*
X127051447Y-83580382D01*
X126874258Y-83716345D01*
X126716345Y-83874258D01*
X126580382Y-84051447D01*
X126468718Y-84244856D01*
X126383257Y-84451173D01*
X126383250Y-84451194D01*
X126325449Y-84666908D01*
X126325448Y-84666917D01*
X126296300Y-84888331D01*
X125702165Y-84888331D01*
X125701448Y-83546627D01*
X125701931Y-83536741D01*
X125715830Y-83395609D01*
X125719674Y-83376276D01*
X125719675Y-83376274D01*
X125759399Y-83245282D01*
X125766936Y-83227081D01*
X125831443Y-83106349D01*
X125842384Y-83089967D01*
X125929208Y-82984123D01*
X125943125Y-82970199D01*
X126048922Y-82883322D01*
X126065295Y-82872374D01*
X126185997Y-82807800D01*
X126204200Y-82800252D01*
X126335168Y-82760460D01*
X126354491Y-82756607D01*
X126495213Y-82742675D01*
X126505124Y-82742186D01*
X135515948Y-82742186D01*
X135575079Y-82761399D01*
G37*
%TD.AperFunction*%
%TA.AperFunction,Conductor*%
G36*
X132846047Y-108283238D02*
G01*
X132989836Y-108427027D01*
X133018061Y-108482423D01*
X133019300Y-108498160D01*
X133019300Y-117370744D01*
X133000087Y-117429875D01*
X132989835Y-117441879D01*
X132502049Y-117929664D01*
X132446651Y-117957890D01*
X132385242Y-117948164D01*
X132359782Y-117929666D01*
X132300865Y-117870749D01*
X132300862Y-117870747D01*
X132196499Y-117810493D01*
X132196496Y-117810492D01*
X132165309Y-117802135D01*
X132080090Y-117779300D01*
X132080088Y-117779300D01*
X131959572Y-117779300D01*
X131959569Y-117779300D01*
X131843160Y-117810493D01*
X131738797Y-117870747D01*
X131738796Y-117870748D01*
X131738795Y-117870749D01*
X131653579Y-117955965D01*
X131653578Y-117955966D01*
X131653577Y-117955967D01*
X131593322Y-118060332D01*
X131593322Y-118060333D01*
X131581518Y-118104383D01*
X131547655Y-118156525D01*
X131489610Y-118178805D01*
X131461963Y-118176421D01*
X131437829Y-118170912D01*
X131422002Y-118167300D01*
X131422001Y-118167300D01*
X130856175Y-118167300D01*
X130856174Y-118167300D01*
X130802160Y-118174411D01*
X130802154Y-118174412D01*
X130674991Y-118208486D01*
X130674988Y-118208487D01*
X130624655Y-118229335D01*
X130510642Y-118295162D01*
X130467429Y-118328321D01*
X130467422Y-118328327D01*
X130374328Y-118421421D01*
X130374322Y-118421428D01*
X130341163Y-118464641D01*
X130275336Y-118578654D01*
X130254488Y-118628987D01*
X130254487Y-118628990D01*
X130229904Y-118720737D01*
X130196042Y-118772881D01*
X130137997Y-118795162D01*
X130132732Y-118795300D01*
X128813649Y-118795300D01*
X128754518Y-118776087D01*
X128717973Y-118725787D01*
X128713049Y-118694700D01*
X128713049Y-115057039D01*
X127824049Y-115057039D01*
X127800460Y-115057039D01*
X127793155Y-115060761D01*
X127777418Y-115062000D01*
X125806056Y-115062000D01*
X125746925Y-115042787D01*
X125710380Y-114992487D01*
X125705456Y-114961259D01*
X125707224Y-113696479D01*
X125710436Y-111399226D01*
X125710445Y-111393612D01*
X125710500Y-111393482D01*
X125710500Y-111359081D01*
X125710510Y-111359047D01*
X125711133Y-111347976D01*
X125716084Y-111304039D01*
X125725742Y-111218336D01*
X125730753Y-111196380D01*
X125771973Y-111078597D01*
X125781745Y-111058307D01*
X125848143Y-110952651D01*
X125862190Y-110935040D01*
X125871697Y-110925535D01*
X125950433Y-110846812D01*
X125968043Y-110832771D01*
X126073710Y-110766394D01*
X126094006Y-110756623D01*
X126211796Y-110715425D01*
X126233750Y-110710418D01*
X126363458Y-110695825D01*
X126374299Y-110695196D01*
X126374390Y-110695195D01*
X126408900Y-110695202D01*
X126409242Y-110695059D01*
X126417338Y-110695027D01*
X126419356Y-110695020D01*
X126419361Y-110695022D01*
X126419378Y-110695020D01*
X132473871Y-110673220D01*
X132474232Y-110673220D01*
X132513694Y-110673220D01*
X132513697Y-110673220D01*
X132513699Y-110673218D01*
X132514088Y-110673141D01*
X132514231Y-110673112D01*
X132514412Y-110673075D01*
X132514419Y-110673075D01*
X132537789Y-110663295D01*
X132550921Y-110657801D01*
X132550949Y-110657789D01*
X132550951Y-110657787D01*
X132587389Y-110642696D01*
X132587632Y-110642451D01*
X132587949Y-110642319D01*
X132587992Y-110642289D01*
X132588001Y-110642286D01*
X132615892Y-110614192D01*
X132643791Y-110586294D01*
X132643920Y-110585980D01*
X132644160Y-110585739D01*
X132644196Y-110585683D01*
X132644199Y-110585681D01*
X132659232Y-110549015D01*
X132674315Y-110512602D01*
X132674315Y-110512240D01*
X132674453Y-110511904D01*
X132674458Y-110511880D01*
X132674458Y-110511879D01*
X132674316Y-110472499D01*
X132674315Y-110472136D01*
X132674315Y-108354375D01*
X132693528Y-108295244D01*
X132743828Y-108258699D01*
X132806002Y-108258699D01*
X132846047Y-108283238D01*
G37*
%TD.AperFunction*%
%TD*%
M02*
