%TF.GenerationSoftware,KiCad,Pcbnew,9.0.7-9.0.7~ubuntu25.10.1*%
%TF.CreationDate,2026-01-04T20:51:49+05:30*%
%TF.ProjectId,Nordic_BLE,4e6f7264-6963-45f4-924c-452e6b696361,rev?*%
%TF.SameCoordinates,Original*%
%TF.FileFunction,Soldermask,Bot*%
%TF.FilePolarity,Negative*%
%FSLAX46Y46*%
G04 Gerber Fmt 4.6, Leading zero omitted, Abs format (unit mm)*
G04 Created by KiCad (PCBNEW 9.0.7-9.0.7~ubuntu25.10.1) date 2026-01-04 20:51:49*
%MOMM*%
%LPD*%
G01*
G04 APERTURE LIST*
G04 Aperture macros list*
%AMRoundRect*
0 Rectangle with rounded corners*
0 $1 Rounding radius*
0 $2 $3 $4 $5 $6 $7 $8 $9 X,Y pos of 4 corners*
0 Add a 4 corners polygon primitive as box body*
4,1,4,$2,$3,$4,$5,$6,$7,$8,$9,$2,$3,0*
0 Add four circle primitives for the rounded corners*
1,1,$1+$1,$2,$3*
1,1,$1+$1,$4,$5*
1,1,$1+$1,$6,$7*
1,1,$1+$1,$8,$9*
0 Add four rect primitives between the rounded corners*
20,1,$1+$1,$2,$3,$4,$5,0*
20,1,$1+$1,$4,$5,$6,$7,0*
20,1,$1+$1,$6,$7,$8,$9,0*
20,1,$1+$1,$8,$9,$2,$3,0*%
%AMFreePoly0*
4,1,23,0.500000,-0.750000,0.000000,-0.750000,0.000000,-0.745722,-0.065263,-0.745722,-0.191342,-0.711940,-0.304381,-0.646677,-0.396677,-0.554381,-0.461940,-0.441342,-0.495722,-0.315263,-0.495722,-0.250000,-0.500000,-0.250000,-0.500000,0.250000,-0.495722,0.250000,-0.495722,0.315263,-0.461940,0.441342,-0.396677,0.554381,-0.304381,0.646677,-0.191342,0.711940,-0.065263,0.745722,0.000000,0.745722,
0.000000,0.750000,0.500000,0.750000,0.500000,-0.750000,0.500000,-0.750000,$1*%
%AMFreePoly1*
4,1,23,0.000000,0.745722,0.065263,0.745722,0.191342,0.711940,0.304381,0.646677,0.396677,0.554381,0.461940,0.441342,0.495722,0.315263,0.495722,0.250000,0.500000,0.250000,0.500000,-0.250000,0.495722,-0.250000,0.495722,-0.315263,0.461940,-0.441342,0.396677,-0.554381,0.304381,-0.646677,0.191342,-0.711940,0.065263,-0.745722,0.000000,-0.745722,0.000000,-0.750000,-0.500000,-0.750000,
-0.500000,0.750000,0.000000,0.750000,0.000000,0.745722,0.000000,0.745722,$1*%
G04 Aperture macros list end*
%ADD10C,0.850000*%
%ADD11C,1.500000*%
%ADD12C,0.000000*%
%ADD13C,1.300000*%
%ADD14RoundRect,0.500000X-0.400000X0.000010X-0.400000X-0.000010X0.400000X-0.000010X0.400000X0.000010X0*%
%ADD15RoundRect,0.500000X-0.600000X0.000010X-0.600000X-0.000010X0.600000X-0.000010X0.600000X0.000010X0*%
%ADD16RoundRect,0.088900X-0.088900X-0.139700X0.088900X-0.139700X0.088900X0.139700X-0.088900X0.139700X0*%
%ADD17R,2.600000X3.000000*%
%ADD18R,3.600000X3.000000*%
%ADD19FreePoly0,0.000000*%
%ADD20FreePoly1,0.000000*%
%ADD21C,1.700000*%
%ADD22C,1.700000*%
G04 APERTURE END LIST*
D10*
%TO.C,J23*%
X158946695Y-88895600D02*
G75*
G02*
X158096695Y-88895600I-425000J0D01*
G01*
X158096695Y-88895600D02*
G75*
G02*
X158946695Y-88895600I425000J0D01*
G01*
%TO.C,J50*%
X140717550Y-116835600D02*
G75*
G02*
X139867550Y-116835600I-425000J0D01*
G01*
X139867550Y-116835600D02*
G75*
G02*
X140717550Y-116835600I425000J0D01*
G01*
%TO.C,J3*%
X151326695Y-88895600D02*
G75*
G02*
X150476695Y-88895600I-425000J0D01*
G01*
X150476695Y-88895600D02*
G75*
G02*
X151326695Y-88895600I425000J0D01*
G01*
%TO.C,J4*%
X146246695Y-121915600D02*
G75*
G02*
X145396695Y-121915600I-425000J0D01*
G01*
X145396695Y-121915600D02*
G75*
G02*
X146246695Y-121915600I425000J0D01*
G01*
%TO.C,J25*%
X164026695Y-124455600D02*
G75*
G02*
X163176695Y-124455600I-425000J0D01*
G01*
X163176695Y-124455600D02*
G75*
G02*
X164026695Y-124455600I425000J0D01*
G01*
%TO.C,J11*%
X146246695Y-88895600D02*
G75*
G02*
X145396695Y-88895600I-425000J0D01*
G01*
X145396695Y-88895600D02*
G75*
G02*
X146246695Y-88895600I425000J0D01*
G01*
%TO.C,J52*%
X138177550Y-116835600D02*
G75*
G02*
X137327550Y-116835600I-425000J0D01*
G01*
X137327550Y-116835600D02*
G75*
G02*
X138177550Y-116835600I425000J0D01*
G01*
%TO.C,J47*%
X140717550Y-114295600D02*
G75*
G02*
X139867550Y-114295600I-425000J0D01*
G01*
X139867550Y-114295600D02*
G75*
G02*
X140717550Y-114295600I425000J0D01*
G01*
%TO.C,J9*%
X148786695Y-86355600D02*
G75*
G02*
X147936695Y-86355600I-425000J0D01*
G01*
X147936695Y-86355600D02*
G75*
G02*
X148786695Y-86355600I425000J0D01*
G01*
%TO.C,J14*%
X153866695Y-124455600D02*
G75*
G02*
X153016695Y-124455600I-425000J0D01*
G01*
X153016695Y-124455600D02*
G75*
G02*
X153866695Y-124455600I425000J0D01*
G01*
%TO.C,J33*%
X166566695Y-121915600D02*
G75*
G02*
X165716695Y-121915600I-425000J0D01*
G01*
X165716695Y-121915600D02*
G75*
G02*
X166566695Y-121915600I425000J0D01*
G01*
D11*
%TO.C,M4*%
X174151695Y-125000000D02*
G75*
G02*
X172651695Y-125000000I-750000J0D01*
G01*
X172651695Y-125000000D02*
G75*
G02*
X174151695Y-125000000I750000J0D01*
G01*
D10*
%TO.C,J21*%
X156406695Y-124455600D02*
G75*
G02*
X155556695Y-124455600I-425000J0D01*
G01*
X155556695Y-124455600D02*
G75*
G02*
X156406695Y-124455600I425000J0D01*
G01*
%TO.C,J35*%
X164026695Y-86355600D02*
G75*
G02*
X163176695Y-86355600I-425000J0D01*
G01*
X163176695Y-86355600D02*
G75*
G02*
X164026695Y-86355600I425000J0D01*
G01*
%TO.C,J36*%
X166566695Y-86355600D02*
G75*
G02*
X165716695Y-86355600I-425000J0D01*
G01*
X165716695Y-86355600D02*
G75*
G02*
X166566695Y-86355600I425000J0D01*
G01*
%TO.C,J16*%
X153866695Y-121915600D02*
G75*
G02*
X153016695Y-121915600I-425000J0D01*
G01*
X153016695Y-121915600D02*
G75*
G02*
X153866695Y-121915600I425000J0D01*
G01*
%TO.C,J13*%
X146246695Y-86355600D02*
G75*
G02*
X145396695Y-86355600I-425000J0D01*
G01*
X145396695Y-86355600D02*
G75*
G02*
X146246695Y-86355600I425000J0D01*
G01*
%TO.C,J29*%
X156406695Y-88895600D02*
G75*
G02*
X155556695Y-88895600I-425000J0D01*
G01*
X155556695Y-88895600D02*
G75*
G02*
X156406695Y-88895600I425000J0D01*
G01*
%TO.C,J26*%
X158946695Y-86355600D02*
G75*
G02*
X158096695Y-86355600I-425000J0D01*
G01*
X158096695Y-86355600D02*
G75*
G02*
X158946695Y-86355600I425000J0D01*
G01*
%TO.C,J49*%
X138177550Y-114295600D02*
G75*
G02*
X137327550Y-114295600I-425000J0D01*
G01*
X137327550Y-114295600D02*
G75*
G02*
X138177550Y-114295600I425000J0D01*
G01*
%TO.C,J12*%
X151326695Y-121915600D02*
G75*
G02*
X150476695Y-121915600I-425000J0D01*
G01*
X150476695Y-121915600D02*
G75*
G02*
X151326695Y-121915600I425000J0D01*
G01*
%TO.C,J34*%
X166566695Y-88895600D02*
G75*
G02*
X165716695Y-88895600I-425000J0D01*
G01*
X165716695Y-88895600D02*
G75*
G02*
X166566695Y-88895600I425000J0D01*
G01*
%TO.C,J17*%
X161486695Y-124455600D02*
G75*
G02*
X160636695Y-124455600I-425000J0D01*
G01*
X160636695Y-124455600D02*
G75*
G02*
X161486695Y-124455600I425000J0D01*
G01*
%TO.C,J10*%
X151326695Y-124455600D02*
G75*
G02*
X150476695Y-124455600I-425000J0D01*
G01*
X150476695Y-124455600D02*
G75*
G02*
X151326695Y-124455600I425000J0D01*
G01*
%TO.C,J2*%
X146246695Y-124455600D02*
G75*
G02*
X145396695Y-124455600I-425000J0D01*
G01*
X145396695Y-124455600D02*
G75*
G02*
X146246695Y-124455600I425000J0D01*
G01*
%TO.C,J19*%
X153866695Y-88895600D02*
G75*
G02*
X153016695Y-88895600I-425000J0D01*
G01*
X153016695Y-88895600D02*
G75*
G02*
X153866695Y-88895600I425000J0D01*
G01*
%TO.C,J5*%
X151326695Y-86355600D02*
G75*
G02*
X150476695Y-86355600I-425000J0D01*
G01*
X150476695Y-86355600D02*
G75*
G02*
X151326695Y-86355600I425000J0D01*
G01*
%TO.C,J51*%
X143257550Y-114295600D02*
G75*
G02*
X142407550Y-114295600I-425000J0D01*
G01*
X142407550Y-114295600D02*
G75*
G02*
X143257550Y-114295600I425000J0D01*
G01*
D11*
%TO.C,M1*%
X128750000Y-85000000D02*
G75*
G02*
X127250000Y-85000000I-750000J0D01*
G01*
X127250000Y-85000000D02*
G75*
G02*
X128750000Y-85000000I750000J0D01*
G01*
D10*
%TO.C,J7*%
X148786695Y-88895600D02*
G75*
G02*
X147936695Y-88895600I-425000J0D01*
G01*
X147936695Y-88895600D02*
G75*
G02*
X148786695Y-88895600I425000J0D01*
G01*
%TO.C,J48*%
X143257550Y-116835600D02*
G75*
G02*
X142407550Y-116835600I-425000J0D01*
G01*
X142407550Y-116835600D02*
G75*
G02*
X143257550Y-116835600I425000J0D01*
G01*
D11*
%TO.C,M2*%
X128750000Y-125000000D02*
G75*
G02*
X127250000Y-125000000I-750000J0D01*
G01*
X127250000Y-125000000D02*
G75*
G02*
X128750000Y-125000000I750000J0D01*
G01*
D10*
%TO.C,J24*%
X156406695Y-121915600D02*
G75*
G02*
X155556695Y-121915600I-425000J0D01*
G01*
X155556695Y-121915600D02*
G75*
G02*
X156406695Y-121915600I425000J0D01*
G01*
%TO.C,J18*%
X158946695Y-121915600D02*
G75*
G02*
X158096695Y-121915600I-425000J0D01*
G01*
X158096695Y-121915600D02*
G75*
G02*
X158946695Y-121915600I425000J0D01*
G01*
%TO.C,J22*%
X161486695Y-121915600D02*
G75*
G02*
X160636695Y-121915600I-425000J0D01*
G01*
X160636695Y-121915600D02*
G75*
G02*
X161486695Y-121915600I425000J0D01*
G01*
%TO.C,J30*%
X166566695Y-124455600D02*
G75*
G02*
X165716695Y-124455600I-425000J0D01*
G01*
X165716695Y-124455600D02*
G75*
G02*
X166566695Y-124455600I425000J0D01*
G01*
%TO.C,J1*%
X153866695Y-86355600D02*
G75*
G02*
X153016695Y-86355600I-425000J0D01*
G01*
X153016695Y-86355600D02*
G75*
G02*
X153866695Y-86355600I425000J0D01*
G01*
%TO.C,J8*%
X148786695Y-121915600D02*
G75*
G02*
X147936695Y-121915600I-425000J0D01*
G01*
X147936695Y-121915600D02*
G75*
G02*
X148786695Y-121915600I425000J0D01*
G01*
%TO.C,J28*%
X164026695Y-121915600D02*
G75*
G02*
X163176695Y-121915600I-425000J0D01*
G01*
X163176695Y-121915600D02*
G75*
G02*
X164026695Y-121915600I425000J0D01*
G01*
%TO.C,J27*%
X158946695Y-124455600D02*
G75*
G02*
X158096695Y-124455600I-425000J0D01*
G01*
X158096695Y-124455600D02*
G75*
G02*
X158946695Y-124455600I425000J0D01*
G01*
%TO.C,J15*%
X161486695Y-88895600D02*
G75*
G02*
X160636695Y-88895600I-425000J0D01*
G01*
X160636695Y-88895600D02*
G75*
G02*
X161486695Y-88895600I425000J0D01*
G01*
%TO.C,J6*%
X148786695Y-124455600D02*
G75*
G02*
X147936695Y-124455600I-425000J0D01*
G01*
X147936695Y-124455600D02*
G75*
G02*
X148786695Y-124455600I425000J0D01*
G01*
D11*
%TO.C,M3*%
X174151695Y-85000000D02*
G75*
G02*
X172651695Y-85000000I-750000J0D01*
G01*
X172651695Y-85000000D02*
G75*
G02*
X174151695Y-85000000I750000J0D01*
G01*
D10*
%TO.C,J31*%
X156406695Y-86355600D02*
G75*
G02*
X155556695Y-86355600I-425000J0D01*
G01*
X155556695Y-86355600D02*
G75*
G02*
X156406695Y-86355600I425000J0D01*
G01*
%TO.C,J20*%
X161486695Y-86355600D02*
G75*
G02*
X160636695Y-86355600I-425000J0D01*
G01*
X160636695Y-86355600D02*
G75*
G02*
X161486695Y-86355600I425000J0D01*
G01*
%TO.C,J32*%
X164026695Y-88895600D02*
G75*
G02*
X163176695Y-88895600I-425000J0D01*
G01*
X163176695Y-88895600D02*
G75*
G02*
X164026695Y-88895600I425000J0D01*
G01*
D12*
%TO.C,J5V_{o}*%
G36*
X131722000Y-119876000D02*
G01*
X131422000Y-119876000D01*
X131422000Y-118376000D01*
X131722000Y-118376000D01*
X131722000Y-119876000D01*
G37*
%TD*%
D13*
%TO.C,SW1*%
X127616000Y-89052000D03*
X127616000Y-95352000D03*
%TD*%
D14*
%TO.C,J1_USB*%
X131971695Y-100289600D03*
X131971695Y-111529600D03*
D15*
X127971695Y-100289600D03*
X127971695Y-111529600D03*
%TD*%
D16*
%TO.C,J57*%
X162331695Y-120010600D03*
X162331695Y-119502600D03*
%TD*%
D17*
%TO.C,BT1*%
X150901695Y-95635600D03*
D18*
X150901695Y-117035600D03*
%TD*%
D19*
%TO.C,J5V_{o}*%
X130922001Y-119126000D03*
D20*
X132221999Y-119126000D03*
%TD*%
D16*
%TO.C,J58*%
X161061695Y-120010600D03*
X161061695Y-119502600D03*
%TD*%
D21*
X125476000Y-114300000D03*
X139210248Y-82541686D03*
X139210248Y-84582800D03*
X127558800Y-114300000D03*
X127558800Y-116840000D03*
X125476000Y-116840000D03*
X136670248Y-84582800D03*
X136670248Y-82541686D03*
X127558800Y-119380000D03*
X125476000Y-119380000D03*
D22*
X125766816Y-114300000D02*
X127558800Y-114300000D01*
X139210248Y-84582800D02*
X139210248Y-82842686D01*
X125773808Y-116840000D02*
X127558800Y-116840000D01*
X136670248Y-84582800D02*
X136670248Y-82500000D01*
X125766816Y-119380000D02*
X127558800Y-119380000D01*
M02*
